ISO-10303-21;
HEADER;
/* Generated by software containing ST-Developer
 * from STEP Tools, Inc. (www.steptools.com) 
 */

FILE_DESCRIPTION(
/* description */ (''),
/* implementation_level */ '2;1');

FILE_NAME(
/* name */ 'DPADPin.step',
/* time_stamp */ '2026-08-13T17:45:51+02:00',
/* author */ (''),
/* organization */ (''),
/* preprocessor_version */ 'ST-DEVELOPER v20.1',
/* originating_system */ 'Autodesk Translation Framework v15.8.0.0',
/* authorisation */ '');

FILE_SCHEMA (('AUTOMOTIVE_DESIGN { 1 0 10303 214 3 1 1 }'));
ENDSEC;

DATA;
#10=MECHANICAL_DESIGN_GEOMETRIC_PRESENTATION_REPRESENTATION('',(#13),#1110);
#11=SHAPE_REPRESENTATION_RELATIONSHIP('SRR','None',#1117,#12);
#12=ADVANCED_BREP_SHAPE_REPRESENTATION('',(#14),#1109);
#13=STYLED_ITEM('',(#1126),#14);
#14=MANIFOLD_SOLID_BREP('DPADPin',#692);
#15=FACE_OUTER_BOUND('',#54,.T.);
#16=FACE_OUTER_BOUND('',#55,.T.);
#17=FACE_OUTER_BOUND('',#56,.T.);
#18=FACE_OUTER_BOUND('',#57,.T.);
#19=FACE_OUTER_BOUND('',#58,.T.);
#20=FACE_OUTER_BOUND('',#59,.T.);
#21=FACE_OUTER_BOUND('',#60,.T.);
#22=FACE_OUTER_BOUND('',#61,.T.);
#23=FACE_OUTER_BOUND('',#62,.T.);
#24=FACE_OUTER_BOUND('',#63,.T.);
#25=FACE_OUTER_BOUND('',#64,.T.);
#26=FACE_OUTER_BOUND('',#65,.T.);
#27=FACE_OUTER_BOUND('',#66,.T.);
#28=FACE_OUTER_BOUND('',#67,.T.);
#29=FACE_OUTER_BOUND('',#68,.T.);
#30=FACE_OUTER_BOUND('',#69,.T.);
#31=FACE_OUTER_BOUND('',#70,.T.);
#32=FACE_OUTER_BOUND('',#71,.T.);
#33=FACE_OUTER_BOUND('',#72,.T.);
#34=FACE_OUTER_BOUND('',#73,.T.);
#35=FACE_OUTER_BOUND('',#74,.T.);
#36=FACE_OUTER_BOUND('',#75,.T.);
#37=FACE_OUTER_BOUND('',#76,.T.);
#38=FACE_OUTER_BOUND('',#77,.T.);
#39=FACE_OUTER_BOUND('',#78,.T.);
#40=FACE_OUTER_BOUND('',#79,.T.);
#41=FACE_OUTER_BOUND('',#80,.T.);
#42=FACE_OUTER_BOUND('',#81,.T.);
#43=FACE_OUTER_BOUND('',#82,.T.);
#44=FACE_OUTER_BOUND('',#83,.T.);
#45=FACE_OUTER_BOUND('',#84,.T.);
#46=FACE_OUTER_BOUND('',#85,.T.);
#47=FACE_OUTER_BOUND('',#86,.T.);
#48=FACE_OUTER_BOUND('',#87,.T.);
#49=FACE_OUTER_BOUND('',#88,.T.);
#50=FACE_OUTER_BOUND('',#89,.T.);
#51=FACE_OUTER_BOUND('',#90,.T.);
#52=FACE_OUTER_BOUND('',#91,.T.);
#53=FACE_OUTER_BOUND('',#92,.T.);
#54=EDGE_LOOP('',(#428,#429,#430,#431,#432));
#55=EDGE_LOOP('',(#433,#434,#435,#436));
#56=EDGE_LOOP('',(#437,#438,#439,#440,#441,#442,#443,#444));
#57=EDGE_LOOP('',(#445,#446,#447));
#58=EDGE_LOOP('',(#448,#449,#450,#451));
#59=EDGE_LOOP('',(#452,#453,#454,#455));
#60=EDGE_LOOP('',(#456,#457,#458,#459,#460));
#61=EDGE_LOOP('',(#461,#462,#463,#464));
#62=EDGE_LOOP('',(#465,#466,#467,#468));
#63=EDGE_LOOP('',(#469,#470,#471,#472));
#64=EDGE_LOOP('',(#473,#474,#475,#476,#477,#478,#479,#480));
#65=EDGE_LOOP('',(#481,#482,#483,#484,#485));
#66=EDGE_LOOP('',(#486,#487,#488,#489));
#67=EDGE_LOOP('',(#490,#491,#492,#493));
#68=EDGE_LOOP('',(#494,#495,#496,#497));
#69=EDGE_LOOP('',(#498,#499,#500,#501));
#70=EDGE_LOOP('',(#502,#503,#504,#505,#506));
#71=EDGE_LOOP('',(#507,#508,#509,#510));
#72=EDGE_LOOP('',(#511,#512,#513,#514,#515));
#73=EDGE_LOOP('',(#516,#517,#518,#519,#520,#521));
#74=EDGE_LOOP('',(#522,#523,#524,#525,#526,#527,#528));
#75=EDGE_LOOP('',(#529,#530,#531,#532));
#76=EDGE_LOOP('',(#533,#534,#535,#536));
#77=EDGE_LOOP('',(#537,#538,#539,#540));
#78=EDGE_LOOP('',(#541,#542,#543,#544,#545,#546));
#79=EDGE_LOOP('',(#547,#548,#549,#550,#551,#552));
#80=EDGE_LOOP('',(#553,#554,#555,#556));
#81=EDGE_LOOP('',(#557,#558,#559,#560));
#82=EDGE_LOOP('',(#561,#562,#563,#564));
#83=EDGE_LOOP('',(#565,#566,#567,#568,#569));
#84=EDGE_LOOP('',(#570,#571,#572,#573));
#85=EDGE_LOOP('',(#574,#575,#576,#577));
#86=EDGE_LOOP('',(#578,#579,#580,#581,#582));
#87=EDGE_LOOP('',(#583,#584,#585,#586));
#88=EDGE_LOOP('',(#587,#588,#589,#590,#591));
#89=EDGE_LOOP('',(#592,#593,#594,#595,#596));
#90=EDGE_LOOP('',(#597,#598,#599,#600,#601,#602,#603,#604));
#91=EDGE_LOOP('',(#605,#606,#607,#608,#609));
#92=EDGE_LOOP('',(#610,#611,#612,#613));
#93=LINE('',#922,#186);
#94=LINE('',#924,#187);
#95=LINE('',#926,#188);
#96=LINE('',#928,#189);
#97=LINE('',#929,#190);
#98=LINE('',#932,#191);
#99=LINE('',#934,#192);
#100=LINE('',#935,#193);
#101=LINE('',#938,#194);
#102=LINE('',#940,#195);
#103=LINE('',#942,#196);
#104=LINE('',#944,#197);
#105=LINE('',#946,#198);
#106=LINE('',#948,#199);
#107=LINE('',#949,#200);
#108=LINE('',#952,#201);
#109=LINE('',#953,#202);
#110=LINE('',#957,#203);
#111=LINE('',#959,#204);
#112=LINE('',#961,#205);
#113=LINE('',#962,#206);
#114=LINE('',#966,#207);
#115=LINE('',#968,#208);
#116=LINE('',#970,#209);
#117=LINE('',#971,#210);
#118=LINE('',#973,#211);
#119=LINE('',#974,#212);
#120=LINE('',#977,#213);
#121=LINE('',#979,#214);
#122=LINE('',#980,#215);
#123=LINE('',#982,#216);
#124=LINE('',#983,#217);
#125=LINE('',#985,#218);
#126=LINE('',#986,#219);
#127=LINE('',#990,#220);
#128=LINE('',#992,#221);
#129=LINE('',#993,#222);
#130=LINE('',#997,#223);
#131=LINE('',#999,#224);
#132=LINE('',#1001,#225);
#133=LINE('',#1002,#226);
#134=LINE('',#1006,#227);
#135=LINE('',#1008,#228);
#136=LINE('',#1010,#229);
#137=LINE('',#1011,#230);
#138=LINE('',#1014,#231);
#139=LINE('',#1016,#232);
#140=LINE('',#1017,#233);
#141=LINE('',#1021,#234);
#142=LINE('',#1023,#235);
#143=LINE('',#1025,#236);
#144=LINE('',#1026,#237);
#145=LINE('',#1029,#238);
#146=LINE('',#1030,#239);
#147=LINE('',#1031,#240);
#148=LINE('',#1034,#241);
#149=LINE('',#1036,#242);
#150=LINE('',#1037,#243);
#151=LINE('',#1040,#244);
#152=LINE('',#1041,#245);
#153=LINE('',#1042,#246);
#154=LINE('',#1044,#247);
#155=LINE('',#1046,#248);
#156=LINE('',#1048,#249);
#157=LINE('',#1049,#250);
#158=LINE('',#1052,#251);
#159=LINE('',#1054,#252);
#160=LINE('',#1056,#253);
#161=LINE('',#1057,#254);
#162=LINE('',#1060,#255);
#163=LINE('',#1061,#256);
#164=LINE('',#1064,#257);
#165=LINE('',#1065,#258);
#166=LINE('',#1068,#259);
#167=LINE('',#1069,#260);
#168=LINE('',#1072,#261);
#169=LINE('',#1074,#262);
#170=LINE('',#1075,#263);
#171=LINE('',#1078,#264);
#172=LINE('',#1079,#265);
#173=LINE('',#1080,#266);
#174=LINE('',#1082,#267);
#175=LINE('',#1083,#268);
#176=LINE('',#1085,#269);
#177=LINE('',#1086,#270);
#178=LINE('',#1088,#271);
#179=LINE('',#1091,#272);
#180=LINE('',#1092,#273);
#181=LINE('',#1094,#274);
#182=LINE('',#1096,#275);
#183=LINE('',#1099,#276);
#184=LINE('',#1102,#277);
#185=LINE('',#1104,#278);
#186=VECTOR('',#749,10.);
#187=VECTOR('',#750,10.);
#188=VECTOR('',#751,10.);
#189=VECTOR('',#752,10.);
#190=VECTOR('',#753,10.);
#191=VECTOR('',#756,10.);
#192=VECTOR('',#757,10.);
#193=VECTOR('',#758,10.);
#194=VECTOR('',#761,10.);
#195=VECTOR('',#762,10.);
#196=VECTOR('',#763,10.);
#197=VECTOR('',#764,10.);
#198=VECTOR('',#765,10.);
#199=VECTOR('',#766,10.);
#200=VECTOR('',#767,10.);
#201=VECTOR('',#770,10.);
#202=VECTOR('',#771,10.);
#203=VECTOR('',#774,10.);
#204=VECTOR('',#775,10.);
#205=VECTOR('',#776,10.);
#206=VECTOR('',#777,10.);
#207=VECTOR('',#780,10.);
#208=VECTOR('',#781,10.);
#209=VECTOR('',#782,10.);
#210=VECTOR('',#783,10.);
#211=VECTOR('',#786,10.);
#212=VECTOR('',#787,10.);
#213=VECTOR('',#790,10.);
#214=VECTOR('',#791,10.);
#215=VECTOR('',#792,10.);
#216=VECTOR('',#795,10.);
#217=VECTOR('',#796,10.);
#218=VECTOR('',#799,10.);
#219=VECTOR('',#800,10.);
#220=VECTOR('',#805,10.);
#221=VECTOR('',#806,10.);
#222=VECTOR('',#807,10.);
#223=VECTOR('',#810,10.);
#224=VECTOR('',#811,10.);
#225=VECTOR('',#812,10.);
#226=VECTOR('',#813,10.);
#227=VECTOR('',#816,10.);
#228=VECTOR('',#817,10.);
#229=VECTOR('',#818,10.);
#230=VECTOR('',#819,10.);
#231=VECTOR('',#822,10.);
#232=VECTOR('',#823,10.);
#233=VECTOR('',#824,10.);
#234=VECTOR('',#827,10.);
#235=VECTOR('',#828,10.);
#236=VECTOR('',#829,10.);
#237=VECTOR('',#830,10.);
#238=VECTOR('',#833,10.);
#239=VECTOR('',#834,10.);
#240=VECTOR('',#835,10.);
#241=VECTOR('',#838,10.);
#242=VECTOR('',#839,10.);
#243=VECTOR('',#840,10.);
#244=VECTOR('',#843,10.);
#245=VECTOR('',#844,10.);
#246=VECTOR('',#845,10.);
#247=VECTOR('',#848,10.);
#248=VECTOR('',#849,10.);
#249=VECTOR('',#850,10.);
#250=VECTOR('',#851,10.);
#251=VECTOR('',#854,10.);
#252=VECTOR('',#855,10.);
#253=VECTOR('',#856,10.);
#254=VECTOR('',#857,10.);
#255=VECTOR('',#860,10.);
#256=VECTOR('',#861,10.);
#257=VECTOR('',#864,10.);
#258=VECTOR('',#865,10.);
#259=VECTOR('',#868,10.);
#260=VECTOR('',#869,10.);
#261=VECTOR('',#872,10.);
#262=VECTOR('',#873,10.);
#263=VECTOR('',#874,10.);
#264=VECTOR('',#877,10.);
#265=VECTOR('',#878,10.);
#266=VECTOR('',#879,10.);
#267=VECTOR('',#882,10.);
#268=VECTOR('',#883,10.);
#269=VECTOR('',#886,10.);
#270=VECTOR('',#887,10.);
#271=VECTOR('',#890,10.);
#272=VECTOR('',#893,10.);
#273=VECTOR('',#894,10.);
#274=VECTOR('',#897,10.);
#275=VECTOR('',#900,10.);
#276=VECTOR('',#905,10.);
#277=VECTOR('',#910,10.);
#278=VECTOR('',#913,10.);
#279=VERTEX_POINT('',#920);
#280=VERTEX_POINT('',#921);
#281=VERTEX_POINT('',#923);
#282=VERTEX_POINT('',#925);
#283=VERTEX_POINT('',#927);
#284=VERTEX_POINT('',#931);
#285=VERTEX_POINT('',#933);
#286=VERTEX_POINT('',#937);
#287=VERTEX_POINT('',#939);
#288=VERTEX_POINT('',#941);
#289=VERTEX_POINT('',#943);
#290=VERTEX_POINT('',#945);
#291=VERTEX_POINT('',#947);
#292=VERTEX_POINT('',#951);
#293=VERTEX_POINT('',#955);
#294=VERTEX_POINT('',#956);
#295=VERTEX_POINT('',#958);
#296=VERTEX_POINT('',#960);
#297=VERTEX_POINT('',#964);
#298=VERTEX_POINT('',#965);
#299=VERTEX_POINT('',#967);
#300=VERTEX_POINT('',#969);
#301=VERTEX_POINT('',#976);
#302=VERTEX_POINT('',#978);
#303=VERTEX_POINT('',#989);
#304=VERTEX_POINT('',#991);
#305=VERTEX_POINT('',#995);
#306=VERTEX_POINT('',#996);
#307=VERTEX_POINT('',#998);
#308=VERTEX_POINT('',#1000);
#309=VERTEX_POINT('',#1004);
#310=VERTEX_POINT('',#1005);
#311=VERTEX_POINT('',#1007);
#312=VERTEX_POINT('',#1009);
#313=VERTEX_POINT('',#1013);
#314=VERTEX_POINT('',#1015);
#315=VERTEX_POINT('',#1019);
#316=VERTEX_POINT('',#1020);
#317=VERTEX_POINT('',#1022);
#318=VERTEX_POINT('',#1024);
#319=VERTEX_POINT('',#1028);
#320=VERTEX_POINT('',#1033);
#321=VERTEX_POINT('',#1035);
#322=VERTEX_POINT('',#1039);
#323=VERTEX_POINT('',#1045);
#324=VERTEX_POINT('',#1047);
#325=VERTEX_POINT('',#1051);
#326=VERTEX_POINT('',#1053);
#327=VERTEX_POINT('',#1055);
#328=VERTEX_POINT('',#1059);
#329=VERTEX_POINT('',#1063);
#330=VERTEX_POINT('',#1067);
#331=VERTEX_POINT('',#1071);
#332=VERTEX_POINT('',#1073);
#333=VERTEX_POINT('',#1077);
#334=VERTEX_POINT('',#1090);
#335=EDGE_CURVE('',#279,#280,#93,.T.);
#336=EDGE_CURVE('',#280,#281,#94,.T.);
#337=EDGE_CURVE('',#281,#282,#95,.T.);
#338=EDGE_CURVE('',#282,#283,#96,.T.);
#339=EDGE_CURVE('',#283,#279,#97,.T.);
#340=EDGE_CURVE('',#281,#284,#98,.T.);
#341=EDGE_CURVE('',#284,#285,#99,.T.);
#342=EDGE_CURVE('',#285,#282,#100,.T.);
#343=EDGE_CURVE('',#286,#280,#101,.T.);
#344=EDGE_CURVE('',#287,#286,#102,.T.);
#345=EDGE_CURVE('',#288,#287,#103,.T.);
#346=EDGE_CURVE('',#289,#288,#104,.T.);
#347=EDGE_CURVE('',#290,#289,#105,.T.);
#348=EDGE_CURVE('',#291,#290,#106,.T.);
#349=EDGE_CURVE('',#281,#291,#107,.T.);
#350=EDGE_CURVE('',#279,#292,#108,.T.);
#351=EDGE_CURVE('',#292,#280,#109,.T.);
#352=EDGE_CURVE('',#293,#294,#110,.T.);
#353=EDGE_CURVE('',#294,#295,#111,.T.);
#354=EDGE_CURVE('',#295,#296,#112,.T.);
#355=EDGE_CURVE('',#296,#293,#113,.T.);
#356=EDGE_CURVE('',#297,#298,#114,.T.);
#357=EDGE_CURVE('',#298,#299,#115,.T.);
#358=EDGE_CURVE('',#299,#300,#116,.T.);
#359=EDGE_CURVE('',#300,#297,#117,.T.);
#360=EDGE_CURVE('',#283,#299,#118,.T.);
#361=EDGE_CURVE('',#298,#292,#119,.T.);
#362=EDGE_CURVE('',#301,#297,#120,.T.);
#363=EDGE_CURVE('',#300,#302,#121,.T.);
#364=EDGE_CURVE('',#302,#301,#122,.T.);
#365=EDGE_CURVE('',#294,#301,#123,.T.);
#366=EDGE_CURVE('',#302,#295,#124,.T.);
#367=EDGE_CURVE('',#284,#293,#125,.T.);
#368=EDGE_CURVE('',#296,#285,#126,.T.);
#369=EDGE_CURVE('',#303,#292,#127,.T.);
#370=EDGE_CURVE('',#304,#303,#128,.T.);
#371=EDGE_CURVE('',#286,#304,#129,.T.);
#372=EDGE_CURVE('',#305,#306,#130,.T.);
#373=EDGE_CURVE('',#306,#307,#131,.T.);
#374=EDGE_CURVE('',#307,#308,#132,.T.);
#375=EDGE_CURVE('',#308,#305,#133,.T.);
#376=EDGE_CURVE('',#309,#310,#134,.T.);
#377=EDGE_CURVE('',#310,#311,#135,.T.);
#378=EDGE_CURVE('',#311,#312,#136,.T.);
#379=EDGE_CURVE('',#312,#309,#137,.T.);
#380=EDGE_CURVE('',#310,#313,#138,.T.);
#381=EDGE_CURVE('',#313,#314,#139,.T.);
#382=EDGE_CURVE('',#314,#311,#140,.T.);
#383=EDGE_CURVE('',#315,#316,#141,.T.);
#384=EDGE_CURVE('',#316,#317,#142,.T.);
#385=EDGE_CURVE('',#317,#318,#143,.T.);
#386=EDGE_CURVE('',#318,#315,#144,.T.);
#387=EDGE_CURVE('',#313,#319,#145,.T.);
#388=EDGE_CURVE('',#319,#315,#146,.T.);
#389=EDGE_CURVE('',#318,#314,#147,.T.);
#390=EDGE_CURVE('',#320,#309,#148,.T.);
#391=EDGE_CURVE('',#312,#321,#149,.T.);
#392=EDGE_CURVE('',#321,#320,#150,.T.);
#393=EDGE_CURVE('',#322,#320,#151,.T.);
#394=EDGE_CURVE('',#321,#305,#152,.T.);
#395=EDGE_CURVE('',#308,#322,#153,.T.);
#396=EDGE_CURVE('',#307,#297,#154,.T.);
#397=EDGE_CURVE('',#306,#323,#155,.T.);
#398=EDGE_CURVE('',#324,#323,#156,.T.);
#399=EDGE_CURVE('',#298,#324,#157,.T.);
#400=EDGE_CURVE('',#325,#321,#158,.T.);
#401=EDGE_CURVE('',#326,#325,#159,.T.);
#402=EDGE_CURVE('',#327,#326,#160,.T.);
#403=EDGE_CURVE('',#323,#327,#161,.T.);
#404=EDGE_CURVE('',#312,#328,#162,.T.);
#405=EDGE_CURVE('',#325,#328,#163,.T.);
#406=EDGE_CURVE('',#329,#311,#164,.T.);
#407=EDGE_CURVE('',#328,#329,#165,.T.);
#408=EDGE_CURVE('',#314,#330,#166,.T.);
#409=EDGE_CURVE('',#329,#330,#167,.T.);
#410=EDGE_CURVE('',#331,#317,#168,.T.);
#411=EDGE_CURVE('',#332,#331,#169,.T.);
#412=EDGE_CURVE('',#330,#332,#170,.T.);
#413=EDGE_CURVE('',#333,#284,#171,.T.);
#414=EDGE_CURVE('',#331,#333,#172,.T.);
#415=EDGE_CURVE('',#293,#316,#173,.T.);
#416=EDGE_CURVE('',#303,#327,#174,.T.);
#417=EDGE_CURVE('',#326,#304,#175,.T.);
#418=EDGE_CURVE('',#329,#289,#176,.T.);
#419=EDGE_CURVE('',#288,#328,#177,.T.);
#420=EDGE_CURVE('',#330,#290,#178,.T.);
#421=EDGE_CURVE('',#332,#334,#179,.T.);
#422=EDGE_CURVE('',#334,#291,#180,.T.);
#423=EDGE_CURVE('',#333,#334,#181,.T.);
#424=EDGE_CURVE('',#287,#325,#182,.T.);
#425=EDGE_CURVE('',#303,#324,#183,.T.);
#426=EDGE_CURVE('',#319,#294,#184,.T.);
#427=EDGE_CURVE('',#301,#322,#185,.T.);
#428=ORIENTED_EDGE('',*,*,#335,.T.);
#429=ORIENTED_EDGE('',*,*,#336,.T.);
#430=ORIENTED_EDGE('',*,*,#337,.T.);
#431=ORIENTED_EDGE('',*,*,#338,.T.);
#432=ORIENTED_EDGE('',*,*,#339,.T.);
#433=ORIENTED_EDGE('',*,*,#337,.F.);
#434=ORIENTED_EDGE('',*,*,#340,.T.);
#435=ORIENTED_EDGE('',*,*,#341,.T.);
#436=ORIENTED_EDGE('',*,*,#342,.T.);
#437=ORIENTED_EDGE('',*,*,#336,.F.);
#438=ORIENTED_EDGE('',*,*,#343,.F.);
#439=ORIENTED_EDGE('',*,*,#344,.F.);
#440=ORIENTED_EDGE('',*,*,#345,.F.);
#441=ORIENTED_EDGE('',*,*,#346,.F.);
#442=ORIENTED_EDGE('',*,*,#347,.F.);
#443=ORIENTED_EDGE('',*,*,#348,.F.);
#444=ORIENTED_EDGE('',*,*,#349,.F.);
#445=ORIENTED_EDGE('',*,*,#335,.F.);
#446=ORIENTED_EDGE('',*,*,#350,.T.);
#447=ORIENTED_EDGE('',*,*,#351,.T.);
#448=ORIENTED_EDGE('',*,*,#352,.T.);
#449=ORIENTED_EDGE('',*,*,#353,.T.);
#450=ORIENTED_EDGE('',*,*,#354,.T.);
#451=ORIENTED_EDGE('',*,*,#355,.T.);
#452=ORIENTED_EDGE('',*,*,#356,.T.);
#453=ORIENTED_EDGE('',*,*,#357,.T.);
#454=ORIENTED_EDGE('',*,*,#358,.T.);
#455=ORIENTED_EDGE('',*,*,#359,.T.);
#456=ORIENTED_EDGE('',*,*,#339,.F.);
#457=ORIENTED_EDGE('',*,*,#360,.T.);
#458=ORIENTED_EDGE('',*,*,#357,.F.);
#459=ORIENTED_EDGE('',*,*,#361,.T.);
#460=ORIENTED_EDGE('',*,*,#350,.F.);
#461=ORIENTED_EDGE('',*,*,#362,.T.);
#462=ORIENTED_EDGE('',*,*,#359,.F.);
#463=ORIENTED_EDGE('',*,*,#363,.T.);
#464=ORIENTED_EDGE('',*,*,#364,.T.);
#465=ORIENTED_EDGE('',*,*,#365,.T.);
#466=ORIENTED_EDGE('',*,*,#364,.F.);
#467=ORIENTED_EDGE('',*,*,#366,.T.);
#468=ORIENTED_EDGE('',*,*,#353,.F.);
#469=ORIENTED_EDGE('',*,*,#367,.T.);
#470=ORIENTED_EDGE('',*,*,#355,.F.);
#471=ORIENTED_EDGE('',*,*,#368,.T.);
#472=ORIENTED_EDGE('',*,*,#341,.F.);
#473=ORIENTED_EDGE('',*,*,#338,.F.);
#474=ORIENTED_EDGE('',*,*,#342,.F.);
#475=ORIENTED_EDGE('',*,*,#368,.F.);
#476=ORIENTED_EDGE('',*,*,#354,.F.);
#477=ORIENTED_EDGE('',*,*,#366,.F.);
#478=ORIENTED_EDGE('',*,*,#363,.F.);
#479=ORIENTED_EDGE('',*,*,#358,.F.);
#480=ORIENTED_EDGE('',*,*,#360,.F.);
#481=ORIENTED_EDGE('',*,*,#351,.F.);
#482=ORIENTED_EDGE('',*,*,#369,.F.);
#483=ORIENTED_EDGE('',*,*,#370,.F.);
#484=ORIENTED_EDGE('',*,*,#371,.F.);
#485=ORIENTED_EDGE('',*,*,#343,.T.);
#486=ORIENTED_EDGE('',*,*,#372,.T.);
#487=ORIENTED_EDGE('',*,*,#373,.T.);
#488=ORIENTED_EDGE('',*,*,#374,.T.);
#489=ORIENTED_EDGE('',*,*,#375,.T.);
#490=ORIENTED_EDGE('',*,*,#376,.T.);
#491=ORIENTED_EDGE('',*,*,#377,.T.);
#492=ORIENTED_EDGE('',*,*,#378,.T.);
#493=ORIENTED_EDGE('',*,*,#379,.T.);
#494=ORIENTED_EDGE('',*,*,#380,.T.);
#495=ORIENTED_EDGE('',*,*,#381,.T.);
#496=ORIENTED_EDGE('',*,*,#382,.T.);
#497=ORIENTED_EDGE('',*,*,#377,.F.);
#498=ORIENTED_EDGE('',*,*,#383,.T.);
#499=ORIENTED_EDGE('',*,*,#384,.T.);
#500=ORIENTED_EDGE('',*,*,#385,.T.);
#501=ORIENTED_EDGE('',*,*,#386,.T.);
#502=ORIENTED_EDGE('',*,*,#387,.T.);
#503=ORIENTED_EDGE('',*,*,#388,.T.);
#504=ORIENTED_EDGE('',*,*,#386,.F.);
#505=ORIENTED_EDGE('',*,*,#389,.T.);
#506=ORIENTED_EDGE('',*,*,#381,.F.);
#507=ORIENTED_EDGE('',*,*,#390,.T.);
#508=ORIENTED_EDGE('',*,*,#379,.F.);
#509=ORIENTED_EDGE('',*,*,#391,.T.);
#510=ORIENTED_EDGE('',*,*,#392,.T.);
#511=ORIENTED_EDGE('',*,*,#393,.T.);
#512=ORIENTED_EDGE('',*,*,#392,.F.);
#513=ORIENTED_EDGE('',*,*,#394,.T.);
#514=ORIENTED_EDGE('',*,*,#375,.F.);
#515=ORIENTED_EDGE('',*,*,#395,.T.);
#516=ORIENTED_EDGE('',*,*,#356,.F.);
#517=ORIENTED_EDGE('',*,*,#396,.F.);
#518=ORIENTED_EDGE('',*,*,#373,.F.);
#519=ORIENTED_EDGE('',*,*,#397,.T.);
#520=ORIENTED_EDGE('',*,*,#398,.F.);
#521=ORIENTED_EDGE('',*,*,#399,.F.);
#522=ORIENTED_EDGE('',*,*,#372,.F.);
#523=ORIENTED_EDGE('',*,*,#394,.F.);
#524=ORIENTED_EDGE('',*,*,#400,.F.);
#525=ORIENTED_EDGE('',*,*,#401,.F.);
#526=ORIENTED_EDGE('',*,*,#402,.F.);
#527=ORIENTED_EDGE('',*,*,#403,.F.);
#528=ORIENTED_EDGE('',*,*,#397,.F.);
#529=ORIENTED_EDGE('',*,*,#391,.F.);
#530=ORIENTED_EDGE('',*,*,#404,.T.);
#531=ORIENTED_EDGE('',*,*,#405,.F.);
#532=ORIENTED_EDGE('',*,*,#400,.T.);
#533=ORIENTED_EDGE('',*,*,#378,.F.);
#534=ORIENTED_EDGE('',*,*,#406,.F.);
#535=ORIENTED_EDGE('',*,*,#407,.F.);
#536=ORIENTED_EDGE('',*,*,#404,.F.);
#537=ORIENTED_EDGE('',*,*,#382,.F.);
#538=ORIENTED_EDGE('',*,*,#408,.T.);
#539=ORIENTED_EDGE('',*,*,#409,.F.);
#540=ORIENTED_EDGE('',*,*,#406,.T.);
#541=ORIENTED_EDGE('',*,*,#389,.F.);
#542=ORIENTED_EDGE('',*,*,#385,.F.);
#543=ORIENTED_EDGE('',*,*,#410,.F.);
#544=ORIENTED_EDGE('',*,*,#411,.F.);
#545=ORIENTED_EDGE('',*,*,#412,.F.);
#546=ORIENTED_EDGE('',*,*,#408,.F.);
#547=ORIENTED_EDGE('',*,*,#367,.F.);
#548=ORIENTED_EDGE('',*,*,#413,.F.);
#549=ORIENTED_EDGE('',*,*,#414,.F.);
#550=ORIENTED_EDGE('',*,*,#410,.T.);
#551=ORIENTED_EDGE('',*,*,#384,.F.);
#552=ORIENTED_EDGE('',*,*,#415,.F.);
#553=ORIENTED_EDGE('',*,*,#416,.T.);
#554=ORIENTED_EDGE('',*,*,#402,.T.);
#555=ORIENTED_EDGE('',*,*,#417,.T.);
#556=ORIENTED_EDGE('',*,*,#370,.T.);
#557=ORIENTED_EDGE('',*,*,#407,.T.);
#558=ORIENTED_EDGE('',*,*,#418,.T.);
#559=ORIENTED_EDGE('',*,*,#346,.T.);
#560=ORIENTED_EDGE('',*,*,#419,.T.);
#561=ORIENTED_EDGE('',*,*,#409,.T.);
#562=ORIENTED_EDGE('',*,*,#420,.T.);
#563=ORIENTED_EDGE('',*,*,#347,.T.);
#564=ORIENTED_EDGE('',*,*,#418,.F.);
#565=ORIENTED_EDGE('',*,*,#348,.T.);
#566=ORIENTED_EDGE('',*,*,#420,.F.);
#567=ORIENTED_EDGE('',*,*,#412,.T.);
#568=ORIENTED_EDGE('',*,*,#421,.T.);
#569=ORIENTED_EDGE('',*,*,#422,.T.);
#570=ORIENTED_EDGE('',*,*,#411,.T.);
#571=ORIENTED_EDGE('',*,*,#414,.T.);
#572=ORIENTED_EDGE('',*,*,#423,.T.);
#573=ORIENTED_EDGE('',*,*,#421,.F.);
#574=ORIENTED_EDGE('',*,*,#405,.T.);
#575=ORIENTED_EDGE('',*,*,#419,.F.);
#576=ORIENTED_EDGE('',*,*,#345,.T.);
#577=ORIENTED_EDGE('',*,*,#424,.T.);
#578=ORIENTED_EDGE('',*,*,#401,.T.);
#579=ORIENTED_EDGE('',*,*,#424,.F.);
#580=ORIENTED_EDGE('',*,*,#344,.T.);
#581=ORIENTED_EDGE('',*,*,#371,.T.);
#582=ORIENTED_EDGE('',*,*,#417,.F.);
#583=ORIENTED_EDGE('',*,*,#416,.F.);
#584=ORIENTED_EDGE('',*,*,#425,.T.);
#585=ORIENTED_EDGE('',*,*,#398,.T.);
#586=ORIENTED_EDGE('',*,*,#403,.T.);
#587=ORIENTED_EDGE('',*,*,#340,.F.);
#588=ORIENTED_EDGE('',*,*,#349,.T.);
#589=ORIENTED_EDGE('',*,*,#422,.F.);
#590=ORIENTED_EDGE('',*,*,#423,.F.);
#591=ORIENTED_EDGE('',*,*,#413,.T.);
#592=ORIENTED_EDGE('',*,*,#352,.F.);
#593=ORIENTED_EDGE('',*,*,#415,.T.);
#594=ORIENTED_EDGE('',*,*,#383,.F.);
#595=ORIENTED_EDGE('',*,*,#388,.F.);
#596=ORIENTED_EDGE('',*,*,#426,.T.);
#597=ORIENTED_EDGE('',*,*,#365,.F.);
#598=ORIENTED_EDGE('',*,*,#426,.F.);
#599=ORIENTED_EDGE('',*,*,#387,.F.);
#600=ORIENTED_EDGE('',*,*,#380,.F.);
#601=ORIENTED_EDGE('',*,*,#376,.F.);
#602=ORIENTED_EDGE('',*,*,#390,.F.);
#603=ORIENTED_EDGE('',*,*,#393,.F.);
#604=ORIENTED_EDGE('',*,*,#427,.F.);
#605=ORIENTED_EDGE('',*,*,#362,.F.);
#606=ORIENTED_EDGE('',*,*,#427,.T.);
#607=ORIENTED_EDGE('',*,*,#395,.F.);
#608=ORIENTED_EDGE('',*,*,#374,.F.);
#609=ORIENTED_EDGE('',*,*,#396,.T.);
#610=ORIENTED_EDGE('',*,*,#361,.F.);
#611=ORIENTED_EDGE('',*,*,#399,.T.);
#612=ORIENTED_EDGE('',*,*,#425,.F.);
#613=ORIENTED_EDGE('',*,*,#369,.T.);
#614=PLANE('',#706);
#615=PLANE('',#707);
#616=PLANE('',#708);
#617=PLANE('',#709);
#618=PLANE('',#710);
#619=PLANE('',#711);
#620=PLANE('',#712);
#621=PLANE('',#713);
#622=PLANE('',#714);
#623=PLANE('',#715);
#624=PLANE('',#716);
#625=PLANE('',#717);
#626=PLANE('',#718);
#627=PLANE('',#719);
#628=PLANE('',#720);
#629=PLANE('',#721);
#630=PLANE('',#722);
#631=PLANE('',#723);
#632=PLANE('',#724);
#633=PLANE('',#725);
#634=PLANE('',#726);
#635=PLANE('',#727);
#636=PLANE('',#728);
#637=PLANE('',#729);
#638=PLANE('',#730);
#639=PLANE('',#731);
#640=PLANE('',#732);
#641=PLANE('',#733);
#642=PLANE('',#734);
#643=PLANE('',#735);
#644=PLANE('',#736);
#645=PLANE('',#737);
#646=PLANE('',#738);
#647=PLANE('',#739);
#648=PLANE('',#740);
#649=PLANE('',#741);
#650=PLANE('',#742);
#651=PLANE('',#743);
#652=PLANE('',#744);
#653=ADVANCED_FACE('',(#15),#614,.T.);
#654=ADVANCED_FACE('',(#16),#615,.T.);
#655=ADVANCED_FACE('',(#17),#616,.T.);
#656=ADVANCED_FACE('',(#18),#617,.T.);
#657=ADVANCED_FACE('',(#19),#618,.T.);
#658=ADVANCED_FACE('',(#20),#619,.T.);
#659=ADVANCED_FACE('',(#21),#620,.T.);
#660=ADVANCED_FACE('',(#22),#621,.T.);
#661=ADVANCED_FACE('',(#23),#622,.T.);
#662=ADVANCED_FACE('',(#24),#623,.T.);
#663=ADVANCED_FACE('',(#25),#624,.F.);
#664=ADVANCED_FACE('',(#26),#625,.T.);
#665=ADVANCED_FACE('',(#27),#626,.T.);
#666=ADVANCED_FACE('',(#28),#627,.T.);
#667=ADVANCED_FACE('',(#29),#628,.T.);
#668=ADVANCED_FACE('',(#30),#629,.T.);
#669=ADVANCED_FACE('',(#31),#630,.T.);
#670=ADVANCED_FACE('',(#32),#631,.T.);
#671=ADVANCED_FACE('',(#33),#632,.T.);
#672=ADVANCED_FACE('',(#34),#633,.T.);
#673=ADVANCED_FACE('',(#35),#634,.T.);
#674=ADVANCED_FACE('',(#36),#635,.T.);
#675=ADVANCED_FACE('',(#37),#636,.T.);
#676=ADVANCED_FACE('',(#38),#637,.T.);
#677=ADVANCED_FACE('',(#39),#638,.T.);
#678=ADVANCED_FACE('',(#40),#639,.F.);
#679=ADVANCED_FACE('',(#41),#640,.T.);
#680=ADVANCED_FACE('',(#42),#641,.T.);
#681=ADVANCED_FACE('',(#43),#642,.T.);
#682=ADVANCED_FACE('',(#44),#643,.T.);
#683=ADVANCED_FACE('',(#45),#644,.T.);
#684=ADVANCED_FACE('',(#46),#645,.T.);
#685=ADVANCED_FACE('',(#47),#646,.T.);
#686=ADVANCED_FACE('',(#48),#647,.T.);
#687=ADVANCED_FACE('',(#49),#648,.T.);
#688=ADVANCED_FACE('',(#50),#649,.T.);
#689=ADVANCED_FACE('',(#51),#650,.T.);
#690=ADVANCED_FACE('',(#52),#651,.T.);
#691=ADVANCED_FACE('',(#53),#652,.T.);
#692=CLOSED_SHELL('',(#653,#654,#655,#656,#657,#658,#659,#660,#661,#662,
#663,#664,#665,#666,#667,#668,#669,#670,#671,#672,#673,#674,#675,#676,#677,
#678,#679,#680,#681,#682,#683,#684,#685,#686,#687,#688,#689,#690,#691));
#693=DERIVED_UNIT_ELEMENT(#695,1.);
#694=DERIVED_UNIT_ELEMENT(#1112,-3.);
#695=(
MASS_UNIT()
NAMED_UNIT(*)
SI_UNIT(.KILO.,.GRAM.)
);
#696=DERIVED_UNIT((#693,#694));
#697=MEASURE_REPRESENTATION_ITEM('density measure',
POSITIVE_RATIO_MEASURE(7850.),#696);
#698=PROPERTY_DEFINITION_REPRESENTATION(#703,#700);
#699=PROPERTY_DEFINITION_REPRESENTATION(#704,#701);
#700=REPRESENTATION('material name',(#702),#1109);
#701=REPRESENTATION('density',(#697),#1109);
#702=DESCRIPTIVE_REPRESENTATION_ITEM('Steel','Steel');
#703=PROPERTY_DEFINITION('material property','material name',#1119);
#704=PROPERTY_DEFINITION('material property','density of part',#1119);
#705=AXIS2_PLACEMENT_3D('',#918,#745,#746);
#706=AXIS2_PLACEMENT_3D('',#919,#747,#748);
#707=AXIS2_PLACEMENT_3D('',#930,#754,#755);
#708=AXIS2_PLACEMENT_3D('',#936,#759,#760);
#709=AXIS2_PLACEMENT_3D('',#950,#768,#769);
#710=AXIS2_PLACEMENT_3D('',#954,#772,#773);
#711=AXIS2_PLACEMENT_3D('',#963,#778,#779);
#712=AXIS2_PLACEMENT_3D('',#972,#784,#785);
#713=AXIS2_PLACEMENT_3D('',#975,#788,#789);
#714=AXIS2_PLACEMENT_3D('',#981,#793,#794);
#715=AXIS2_PLACEMENT_3D('',#984,#797,#798);
#716=AXIS2_PLACEMENT_3D('',#987,#801,#802);
#717=AXIS2_PLACEMENT_3D('',#988,#803,#804);
#718=AXIS2_PLACEMENT_3D('',#994,#808,#809);
#719=AXIS2_PLACEMENT_3D('',#1003,#814,#815);
#720=AXIS2_PLACEMENT_3D('',#1012,#820,#821);
#721=AXIS2_PLACEMENT_3D('',#1018,#825,#826);
#722=AXIS2_PLACEMENT_3D('',#1027,#831,#832);
#723=AXIS2_PLACEMENT_3D('',#1032,#836,#837);
#724=AXIS2_PLACEMENT_3D('',#1038,#841,#842);
#725=AXIS2_PLACEMENT_3D('',#1043,#846,#847);
#726=AXIS2_PLACEMENT_3D('',#1050,#852,#853);
#727=AXIS2_PLACEMENT_3D('',#1058,#858,#859);
#728=AXIS2_PLACEMENT_3D('',#1062,#862,#863);
#729=AXIS2_PLACEMENT_3D('',#1066,#866,#867);
#730=AXIS2_PLACEMENT_3D('',#1070,#870,#871);
#731=AXIS2_PLACEMENT_3D('',#1076,#875,#876);
#732=AXIS2_PLACEMENT_3D('',#1081,#880,#881);
#733=AXIS2_PLACEMENT_3D('',#1084,#884,#885);
#734=AXIS2_PLACEMENT_3D('',#1087,#888,#889);
#735=AXIS2_PLACEMENT_3D('',#1089,#891,#892);
#736=AXIS2_PLACEMENT_3D('',#1093,#895,#896);
#737=AXIS2_PLACEMENT_3D('',#1095,#898,#899);
#738=AXIS2_PLACEMENT_3D('',#1097,#901,#902);
#739=AXIS2_PLACEMENT_3D('',#1098,#903,#904);
#740=AXIS2_PLACEMENT_3D('',#1100,#906,#907);
#741=AXIS2_PLACEMENT_3D('',#1101,#908,#909);
#742=AXIS2_PLACEMENT_3D('',#1103,#911,#912);
#743=AXIS2_PLACEMENT_3D('',#1105,#914,#915);
#744=AXIS2_PLACEMENT_3D('',#1106,#916,#917);
#745=DIRECTION('axis',(0.,0.,1.));
#746=DIRECTION('refdir',(1.,0.,0.));
#747=DIRECTION('center_axis',(0.,-0.707106781186548,0.707106781186548));
#748=DIRECTION('ref_axis',(1.,0.,0.));
#749=DIRECTION('',(0.281084637714822,0.678598344545847,0.678598344545847));
#750=DIRECTION('',(-1.,0.,0.));
#751=DIRECTION('',(0.281084637714821,-0.678598344545847,-0.678598344545847));
#752=DIRECTION('',(1.,0.,0.));
#753=DIRECTION('',(0.427192174235147,0.639338269725913,0.639338269725913));
#754=DIRECTION('center_axis',(-0.5,-0.707106781186548,0.5));
#755=DIRECTION('ref_axis',(0.707106781186548,0.,0.707106781186548));
#756=DIRECTION('',(-0.707106781186548,0.,-0.707106781186548));
#757=DIRECTION('',(0.678598344545848,-0.678598344545848,-0.281084637714816));
#758=DIRECTION('',(0.707106781186548,0.,0.707106781186548));
#759=DIRECTION('center_axis',(0.,-6.12323399573677E-17,1.));
#760=DIRECTION('ref_axis',(0.,-1.,-6.12323399573677E-17));
#761=DIRECTION('',(0.,-1.,-6.12323399573677E-17));
#762=DIRECTION('',(0.787505001007585,-0.616308261658111,-3.77379969963838E-17));
#763=DIRECTION('',(0.707106781186548,-0.707106781186547,-4.32978028117747E-17));
#764=DIRECTION('',(1.,0.,0.));
#765=DIRECTION('',(0.707106781186548,0.707106781186548,4.32978028117747E-17));
#766=DIRECTION('',(0.787505001007586,0.61630826165811,3.77379969963837E-17));
#767=DIRECTION('',(0.,1.,6.12323399573677E-17));
#768=DIRECTION('center_axis',(0.499999999999999,-0.707106781186548,0.5));
#769=DIRECTION('ref_axis',(0.707106781186548,0.,-0.707106781186547));
#770=DIRECTION('',(0.593613196009103,0.700214507282551,0.39663965676028));
#771=DIRECTION('',(-0.707106781186548,0.,0.707106781186547));
#772=DIRECTION('center_axis',(-0.500000000000001,-0.707106781186547,-0.5));
#773=DIRECTION('ref_axis',(-0.707106781186547,0.,0.707106781186548));
#774=DIRECTION('',(0.707106781186547,0.,-0.707106781186548));
#775=DIRECTION('',(0.281084637714814,-0.678598344545846,0.67859834454585));
#776=DIRECTION('',(-0.707106781186547,0.,0.707106781186548));
#777=DIRECTION('',(-0.678598344545847,0.678598344545847,-0.28108463771482));
#778=DIRECTION('center_axis',(0.707106781186548,-0.707106781186548,0.));
#779=DIRECTION('ref_axis',(0.,0.,-1.));
#780=DIRECTION('',(0.,0.,1.));
#781=DIRECTION('',(-0.700214507282552,-0.700214507282552,-0.139281325317167));
#782=DIRECTION('',(0.,0.,-1.));
#783=DIRECTION('',(0.678598344545849,0.678598344545849,-0.281084637714809));
#784=DIRECTION('center_axis',(0.653281482438186,-0.70710678118655,0.270598050073097));
#785=DIRECTION('ref_axis',(0.382683432365089,0.,-0.923879532511287));
#786=DIRECTION('',(0.382683432365089,0.,-0.923879532511287));
#787=DIRECTION('',(-0.382683432365089,0.,0.923879532511287));
#788=DIRECTION('center_axis',(0.500000000000003,-0.707106781186543,-0.500000000000003));
#789=DIRECTION('ref_axis',(-0.707106781186548,0.,-0.707106781186548));
#790=DIRECTION('',(0.707106781186548,0.,0.707106781186548));
#791=DIRECTION('',(-0.707106781186548,0.,-0.707106781186548));
#792=DIRECTION('',(0.281084637714805,0.678598344545848,-0.678598344545852));
#793=DIRECTION('center_axis',(0.,-0.707106781186548,-0.707106781186548));
#794=DIRECTION('ref_axis',(-1.,0.,0.));
#795=DIRECTION('',(1.,0.,0.));
#796=DIRECTION('',(-1.,0.,0.));
#797=DIRECTION('center_axis',(-0.707106781186548,-0.707106781186548,0.));
#798=DIRECTION('ref_axis',(0.,0.,1.));
#799=DIRECTION('',(0.,0.,-1.));
#800=DIRECTION('',(0.,0.,1.));
#801=DIRECTION('center_axis',(0.,1.,0.));
#802=DIRECTION('ref_axis',(0.,0.,1.));
#803=DIRECTION('center_axis',(0.707106781186547,-4.32978028117747E-17,0.707106781186548));
#804=DIRECTION('ref_axis',(0.,-1.,-6.12323399573677E-17));
#805=DIRECTION('',(0.,-1.,-6.12323399573677E-17));
#806=DIRECTION('',(0.618691022858387,-0.484192974410912,-0.618691022858387));
#807=DIRECTION('',(0.668543044267497,0.325730557244934,-0.668543044267497));
#808=DIRECTION('center_axis',(0.780970693722643,0.464720671169786,-0.417276255415854));
#809=DIRECTION('ref_axis',(-0.471255064936328,0.,-0.881996974922169));
#810=DIRECTION('',(0.618691022858387,-0.484192974410912,0.618691022858387));
#811=DIRECTION('',(0.,-0.668104154042505,-0.744067765295036));
#812=DIRECTION('',(-0.618691022858387,0.484192974410912,-0.618691022858387));
#813=DIRECTION('',(-0.21497915417229,0.827295087138809,0.519005589630167));
#814=DIRECTION('center_axis',(0.,0.707106781186547,-0.707106781186549));
#815=DIRECTION('ref_axis',(-1.,0.,0.));
#816=DIRECTION('',(-1.,0.,0.));
#817=DIRECTION('',(-0.281084637714818,0.678598344545854,0.678598344545841));
#818=DIRECTION('',(1.,0.,0.));
#819=DIRECTION('',(-0.281084637714816,-0.678598344545851,-0.678598344545845));
#820=DIRECTION('center_axis',(-0.499999999999996,0.499999999999996,-0.707106781186553));
#821=DIRECTION('ref_axis',(-0.81649658092773,0.,0.57735026918962));
#822=DIRECTION('',(-0.707106781186548,-0.707106781186548,-4.32978028117747E-17));
#823=DIRECTION('',(-0.469192010163929,0.529886606846166,0.706455265026306));
#824=DIRECTION('',(0.707106781186548,0.707106781186548,4.32978028117747E-17));
#825=DIRECTION('center_axis',(-0.780970693722641,0.464720671169799,-0.417276255415842));
#826=DIRECTION('ref_axis',(-0.471255064936319,0.,0.881996974922174));
#827=DIRECTION('',(-0.618691022858387,-0.484192974410911,0.618691022858388));
#828=DIRECTION('',(0.,0.668104154042484,0.744067765295055));
#829=DIRECTION('',(0.618691022858387,0.484192974410911,-0.618691022858388));
#830=DIRECTION('',(-0.214979154172332,-0.827295087138817,-0.519005589630136));
#831=DIRECTION('center_axis',(-0.43579575111974,0.55685012643078,-0.707106781186552));
#832=DIRECTION('ref_axis',(-0.851307156234804,0.,0.524667633596175));
#833=DIRECTION('',(-0.787505001007586,-0.61630826165811,-3.77379969963837E-17));
#834=DIRECTION('',(-0.668543044267494,0.325730557244945,0.668543044267495));
#835=DIRECTION('',(0.787505001007586,0.61630826165811,3.77379969963837E-17));
#836=DIRECTION('center_axis',(0.499999999999999,0.499999999999999,-0.707106781186549));
#837=DIRECTION('ref_axis',(-0.816496580927727,0.,-0.577350269189624));
#838=DIRECTION('',(-0.707106781186548,0.707106781186547,4.32978028117747E-17));
#839=DIRECTION('',(0.707106781186548,-0.707106781186547,-4.32978028117747E-17));
#840=DIRECTION('',(-0.469192010164015,-0.52988660684609,-0.706455265026306));
#841=DIRECTION('center_axis',(0.435795751119745,0.556850126430785,-0.707106781186545));
#842=DIRECTION('ref_axis',(-0.8513071562348,0.,-0.524667633596183));
#843=DIRECTION('',(-0.787505001007585,0.616308261658111,3.77379969963838E-17));
#844=DIRECTION('',(0.787505001007585,-0.616308261658111,-3.77379969963838E-17));
#845=DIRECTION('',(-0.668543044267498,-0.32573055724493,-0.668543044267498));
#846=DIRECTION('center_axis',(1.,0.,0.));
#847=DIRECTION('ref_axis',(0.,-6.12323399573677E-17,1.));
#848=DIRECTION('',(0.,-1.,-6.12323399573677E-17));
#849=DIRECTION('',(0.,-2.17217548296226E-16,1.));
#850=DIRECTION('',(0.,0.437071221798105,-0.899426899239684));
#851=DIRECTION('',(0.,1.,6.12323399573677E-17));
#852=DIRECTION('center_axis',(0.616308261658111,0.787505001007585,1.80063058515669E-16));
#853=DIRECTION('ref_axis',(0.787505001007585,-0.616308261658111,2.21768192339344E-16));
#854=DIRECTION('',(-1.26874679728732E-32,0.,-1.));
#855=DIRECTION('',(-0.787505001007585,0.616308261658111,3.77379969963838E-17));
#856=DIRECTION('',(-0.618691022858387,0.484192974410912,0.618691022858387));
#857=DIRECTION('',(-0.36659552900052,0.286900848783016,0.885039898018397));
#858=DIRECTION('center_axis',(0.707106781186547,0.707106781186548,-8.97139463970579E-33));
#859=DIRECTION('ref_axis',(-1.26874679728732E-32,0.,-1.));
#860=DIRECTION('',(1.26874679728732E-32,0.,1.));
#861=DIRECTION('',(-0.707106781186548,0.707106781186547,4.32978028117747E-17));
#862=DIRECTION('center_axis',(0.,1.,0.));
#863=DIRECTION('ref_axis',(0.,0.,1.));
#864=DIRECTION('',(-1.26874679728732E-32,0.,-1.));
#865=DIRECTION('',(-1.,0.,0.));
#866=DIRECTION('center_axis',(-0.707106781186548,0.707106781186548,8.9713946397058E-33));
#867=DIRECTION('ref_axis',(1.26874679728732E-32,0.,1.));
#868=DIRECTION('',(1.26874679728732E-32,0.,1.));
#869=DIRECTION('',(-0.707106781186548,-0.707106781186548,-4.32978028117747E-17));
#870=DIRECTION('center_axis',(-0.61630826165811,0.787505001007586,-1.80063058515668E-16));
#871=DIRECTION('ref_axis',(0.787505001007586,0.61630826165811,2.15384899723695E-16));
#872=DIRECTION('',(0.,-2.17217548296223E-16,-1.));
#873=DIRECTION('',(-0.618691022858387,-0.484192974410911,-0.618691022858387));
#874=DIRECTION('',(-0.787505001007586,-0.61630826165811,-3.77379969963837E-17));
#875=DIRECTION('center_axis',(1.,0.,0.));
#876=DIRECTION('ref_axis',(0.,-1.,-6.12323399573677E-17));
#877=DIRECTION('',(0.,-1.,-6.12323399573677E-17));
#878=DIRECTION('',(0.,-0.668104154042487,0.744067765295052));
#879=DIRECTION('',(0.,1.,6.12323399573677E-17));
#880=DIRECTION('center_axis',(0.780970693722643,0.464720671169788,0.417276255415852));
#881=DIRECTION('ref_axis',(0.471255064936327,0.,-0.88199697492217));
#882=DIRECTION('',(-0.206713648954603,0.822775978713192,-0.529442306761013));
#883=DIRECTION('',(0.214979154172294,-0.82729508713881,0.519005589630164));
#884=DIRECTION('center_axis',(0.,0.707106781186548,0.707106781186547));
#885=DIRECTION('ref_axis',(1.,0.,0.));
#886=DIRECTION('',(0.281084637714815,-0.678598344545848,0.678598344545848));
#887=DIRECTION('',(0.281084637714821,0.678598344545847,-0.678598344545847));
#888=DIRECTION('center_axis',(-0.500000000000002,0.500000000000002,0.707106781186545));
#889=DIRECTION('ref_axis',(0.816496580927724,0.,0.577350269189628));
#890=DIRECTION('',(0.469192010164004,-0.529886606846086,0.706455265026316));
#891=DIRECTION('center_axis',(-0.435795751119747,0.556850126430789,0.70710678118654));
#892=DIRECTION('ref_axis',(0.851307156234797,0.,0.524667633596188));
#893=DIRECTION('',(-0.214979154172307,-0.827295087138804,0.519005589630168));
#894=DIRECTION('',(0.668543044267501,-0.325730557244919,0.668543044267501));
#895=DIRECTION('center_axis',(-0.780970693722642,0.464720671169798,0.417276255415844));
#896=DIRECTION('ref_axis',(0.47125506493632,0.,0.881996974922173));
#897=DIRECTION('',(0.618691022858387,0.484192974410911,0.618691022858387));
#898=DIRECTION('center_axis',(0.5,0.5,0.707106781186548));
#899=DIRECTION('ref_axis',(0.816496580927726,0.,-0.577350269189626));
#900=DIRECTION('',(0.469192010163875,0.529886606846211,-0.706455265026309));
#901=DIRECTION('center_axis',(0.435795751119744,0.556850126430783,0.707106781186547));
#902=DIRECTION('ref_axis',(0.851307156234801,0.,-0.524667633596181));
#903=DIRECTION('center_axis',(0.869345887677272,0.444500493214509,0.216002405335393));
#904=DIRECTION('ref_axis',(0.24113369510343,0.,-0.970491906759539));
#905=DIRECTION('',(0.36659552900052,-0.286900848783016,-0.885039898018397));
#906=DIRECTION('center_axis',(-0.707106781186548,-4.32978028117747E-17,
0.707106781186548));
#907=DIRECTION('ref_axis',(0.,-1.,-6.12323399573677E-17));
#908=DIRECTION('center_axis',(-0.707106781186548,4.32978028117747E-17,-0.707106781186547));
#909=DIRECTION('ref_axis',(0.,1.,6.12323399573677E-17));
#910=DIRECTION('',(0.,-1.,-6.12323399573677E-17));
#911=DIRECTION('center_axis',(0.,6.12323399573677E-17,-1.));
#912=DIRECTION('ref_axis',(0.,1.,6.12323399573677E-17));
#913=DIRECTION('',(0.,1.,6.12323399573677E-17));
#914=DIRECTION('center_axis',(0.707106781186548,4.32978028117747E-17,-0.707106781186548));
#915=DIRECTION('ref_axis',(0.,1.,6.12323399573677E-17));
#916=DIRECTION('center_axis',(0.923879532511287,-2.34326020266315E-17,0.382683432365089));
#917=DIRECTION('ref_axis',(0.382683432365089,0.,-0.923879532511287));
#918=CARTESIAN_POINT('',(0.,0.,0.));
#919=CARTESIAN_POINT('Origin',(-1.90000000000002,-7.99999922513962,11.3625));
#920=CARTESIAN_POINT('',(1.67781223029076,-7.95356523969043,11.4089339854492));
#921=CARTESIAN_POINT('',(1.69999999999998,-7.89999922513962,11.4625));
#922=CARTESIAN_POINT('',(1.56712322704247,-8.220792132538,11.1417070926016));
#923=CARTESIAN_POINT('',(-1.70000000000002,-7.89999922513962,11.4625));
#924=CARTESIAN_POINT('',(-1.90000000000002,-7.89999922513962,11.4625));
#925=CARTESIAN_POINT('',(-1.6171572875254,-8.09999922513962,11.2625));
#926=CARTESIAN_POINT('',(-1.66416539357628,-7.98651161797013,11.3759876071695));
#927=CARTESIAN_POINT('',(1.57996816934823,-8.09999922513962,11.2625));
#928=CARTESIAN_POINT('',(-1.90000000000002,-8.09999922513962,11.2625));
#929=CARTESIAN_POINT('',(1.38065733449727,-8.39828896913922,10.9642102560004));
#930=CARTESIAN_POINT('Origin',(-1.72928932188137,-7.99999922513962,11.2917893218813));
#931=CARTESIAN_POINT('',(-1.90000000000002,-7.89999922513962,11.2625));
#932=CARTESIAN_POINT('',(-1.80000000000002,-7.89999922513962,11.3625));
#933=CARTESIAN_POINT('',(-1.70000000000002,-8.09999922513962,11.1796572875254));
#934=CARTESIAN_POINT('',(-1.90000000000002,-7.89999922513962,11.2625));
#935=CARTESIAN_POINT('',(-1.65857864376271,-8.09999922513962,11.2210786437627));
#936=CARTESIAN_POINT('Origin',(-1.90000000000002,7.7486038363439E-7,11.4625));
#937=CARTESIAN_POINT('',(1.69999999999998,-1.87046158144792,11.4625));
#938=CARTESIAN_POINT('',(1.69999999999998,-2.99999922513961,11.4625));
#939=CARTESIAN_POINT('',(0.683585035968759,-1.07500639220609,11.4625));
#940=CARTESIAN_POINT('',(-0.376021401073334,-0.245749180607929,11.4625));
#941=CARTESIAN_POINT('',(0.00857864376266823,-0.4,11.4625));
#942=CARTESIAN_POINT('',(-0.408210871833773,0.0167895155964411,11.4625));
#943=CARTESIAN_POINT('',(-0.00857864376271361,-0.4,11.4625));
#944=CARTESIAN_POINT('',(-0.950000000000022,-0.4,11.4625));
#945=CARTESIAN_POINT('',(-0.683585035968786,-1.07500639220607,11.4625));
#946=CARTESIAN_POINT('',(-0.541789128166272,-0.933210484403558,11.4625));
#947=CARTESIAN_POINT('',(-1.70000000000002,-1.87046158144791,11.4625));
#948=CARTESIAN_POINT('',(-0.930068217267211,-1.26790627322223,11.4625));
#949=CARTESIAN_POINT('',(-1.70000000000002,-2.99999922513961,11.4625));
#950=CARTESIAN_POINT('Origin',(0.779289321881323,-7.99999922513962,12.2417893218813));
#951=CARTESIAN_POINT('',(1.72322330470334,-7.89999922513962,11.4392766952966));
#952=CARTESIAN_POINT('',(1.55367149169883,-8.09999922513962,11.3259857958265));
#953=CARTESIAN_POINT('',(0.849999999999977,-7.89999922513962,12.3125));
#954=CARTESIAN_POINT('Origin',(-2.67928932188137,-7.99999922513962,8.78321067811866));
#955=CARTESIAN_POINT('',(-1.90000000000002,-7.89999922513962,7.8625));
#956=CARTESIAN_POINT('',(-1.70000000000002,-7.89999922513962,7.6625));
#957=CARTESIAN_POINT('',(-2.75000000000002,-7.89999922513962,8.7125));
#958=CARTESIAN_POINT('',(-1.6171572875254,-8.09999922513962,7.8625));
#959=CARTESIAN_POINT('',(-1.70000000000002,-7.89999922513962,7.6625));
#960=CARTESIAN_POINT('',(-1.70000000000002,-8.09999922513962,7.94534271247462));
#961=CARTESIAN_POINT('',(-2.60857864376271,-8.09999922513962,8.85392135623731));
#962=CARTESIAN_POINT('',(-1.70000000000002,-8.09999922513962,7.94534271247462));
#963=CARTESIAN_POINT('Origin',(1.79999999999998,-7.99999922513962,10.5125));
#964=CARTESIAN_POINT('',(1.89999999999998,-7.89999922513962,7.8625));
#965=CARTESIAN_POINT('',(1.89999999999998,-7.89999922513962,11.0125));
#966=CARTESIAN_POINT('',(1.89999999999998,-7.89999922513962,10.5125));
#967=CARTESIAN_POINT('',(1.69999999999998,-8.09999922513962,10.9727175265241));
#968=CARTESIAN_POINT('',(1.89999999999998,-7.89999922513962,11.0125));
#969=CARTESIAN_POINT('',(1.69999999999998,-8.09999922513962,7.94534271247462));
#970=CARTESIAN_POINT('',(1.69999999999998,-8.09999922513962,10.5125));
#971=CARTESIAN_POINT('',(1.69999999999998,-8.09999922513962,7.94534271247462));
#972=CARTESIAN_POINT('Origin',(1.40561980216843,-7.99999922513962,11.9447267855984));
#973=CARTESIAN_POINT('',(1.3132318489173,-8.09999922513962,11.9064584423618));
#974=CARTESIAN_POINT('',(1.49800775541955,-7.89999922513962,11.9829951288349));
#975=CARTESIAN_POINT('Origin',(1.72928932188132,-7.99999922513962,7.83321067811866));
#976=CARTESIAN_POINT('',(1.69999999999998,-7.89999922513962,7.6625));
#977=CARTESIAN_POINT('',(1.79999999999998,-7.89999922513962,7.7625));
#978=CARTESIAN_POINT('',(1.61715728752536,-8.09999922513962,7.8625));
#979=CARTESIAN_POINT('',(1.65857864376267,-8.09999922513962,7.90392135623731));
#980=CARTESIAN_POINT('',(1.61715728752536,-8.09999922513962,7.8625));
#981=CARTESIAN_POINT('Origin',(-1.90000000000002,-7.99999922513962,7.7625));
#982=CARTESIAN_POINT('',(-1.90000000000002,-7.89999922513962,7.6625));
#983=CARTESIAN_POINT('',(-1.90000000000002,-8.09999922513962,7.8625));
#984=CARTESIAN_POINT('Origin',(-1.80000000000002,-7.99999922513962,10.5125));
#985=CARTESIAN_POINT('',(-1.90000000000002,-7.89999922513962,10.5125));
#986=CARTESIAN_POINT('',(-1.70000000000002,-8.09999922513962,10.5125));
#987=CARTESIAN_POINT('Origin',(-1.90000000000002,-8.09999922513962,11.4625));
#988=CARTESIAN_POINT('Origin',(1.79999999999998,-2.99999922513961,11.3625));
#989=CARTESIAN_POINT('',(1.72322330470334,-1.8759437987078,11.4392766952966));
#990=CARTESIAN_POINT('',(1.72322330470334,-4.49999922513962,11.4392766952966));
#991=CARTESIAN_POINT('',(1.7099954410429,-1.86559155758223,11.4525045589571));
#992=CARTESIAN_POINT('',(1.59906545416985,-1.77877678524681,11.5634345458301));
#993=CARTESIAN_POINT('',(1.3570196335154,-2.03757002249303,11.8054803664846));
#994=CARTESIAN_POINT('Origin',(3.21779999237327,-2.98846712197951,9.24394282634956));
#995=CARTESIAN_POINT('',(1.67271433204745,-1.72212425986324,7.7625));
#996=CARTESIAN_POINT('',(1.89999999999998,-1.9,7.98978566795252));
#997=CARTESIAN_POINT('',(3.21055768542474,-2.9256538407672,9.30034335337728));
#998=CARTESIAN_POINT('',(1.89999999999998,-2.0142907776356,7.8625));
#999=CARTESIAN_POINT('',(1.89999999999998,-2.35533034064713,7.48268415243825));
#1000=CARTESIAN_POINT('',(1.70999544104289,-1.86559155758223,7.67249544104292));
#1001=CARTESIAN_POINT('',(3.2250422993218,-3.05128040319182,9.18754229932183));
#1002=CARTESIAN_POINT('',(1.70999544104289,-1.86559155758223,7.67249544104292));
#1003=CARTESIAN_POINT('Origin',(-0.950000000000022,-0.35,7.7125));
#1004=CARTESIAN_POINT('',(0.00857864376266892,-0.4,7.6625));
#1005=CARTESIAN_POINT('',(-0.00857864376271278,-0.4,7.6625));
#1006=CARTESIAN_POINT('',(-0.950000000000022,-0.4,7.6625));
#1007=CARTESIAN_POINT('',(-0.0500000000000224,-0.3,7.7625));
#1008=CARTESIAN_POINT('',(-0.00857864376271333,-0.400000000000001,7.6625));
#1009=CARTESIAN_POINT('',(0.049999999999978,-0.3,7.7625));
#1010=CARTESIAN_POINT('',(-0.950000000000022,-0.3,7.7625));
#1011=CARTESIAN_POINT('',(0.049999999999978,-0.3,7.7625));
#1012=CARTESIAN_POINT('Origin',(-3.5771444672256,-3.89785514534423,7.7125));
#1013=CARTESIAN_POINT('',(-0.683585035968795,-1.07500639220608,7.6625));
#1014=CARTESIAN_POINT('',(-3.54178912816627,-3.93321048440356,7.6625));
#1015=CARTESIAN_POINT('',(-0.750000000000022,-1.,7.7625));
#1016=CARTESIAN_POINT('',(-0.683585035968796,-1.07500639220608,7.6625));
#1017=CARTESIAN_POINT('',(-3.61249980628493,-3.8624998062849,7.7625));
#1018=CARTESIAN_POINT('Origin',(-3.29666717359216,-3.05018926380294,9.3228100075684));
#1019=CARTESIAN_POINT('',(-1.70999544104294,-1.86559155758223,7.67249544104292));
#1020=CARTESIAN_POINT('',(-1.90000000000002,-2.0142907776356,7.8625));
#1021=CARTESIAN_POINT('',(-3.30390948054069,-3.11300254501525,9.26640948054068));
#1022=CARTESIAN_POINT('',(-1.90000000000002,-1.89999999999999,7.98978566795252));
#1023=CARTESIAN_POINT('',(-1.90000000000002,-2.34950256567594,7.48917454689726));
#1024=CARTESIAN_POINT('',(-1.6727143320475,-1.72212425986324,7.7625));
#1025=CARTESIAN_POINT('',(-3.28942486664363,-2.98737598259064,9.37921053459613));
#1026=CARTESIAN_POINT('',(-1.6727143320475,-1.72212425986324,7.7625));
#1027=CARTESIAN_POINT('Origin',(-3.87295865965844,-3.5075462635001,7.7125));
#1028=CARTESIAN_POINT('',(-1.70000000000002,-1.87046158144791,7.6625));
#1029=CARTESIAN_POINT('',(-3.84214324657553,-3.54692151355048,7.6625));
#1030=CARTESIAN_POINT('',(-1.28693913681513,-2.0717149581676,7.24943913681511));
#1031=CARTESIAN_POINT('',(-3.90377407274134,-3.46817101344972,7.7625));
#1032=CARTESIAN_POINT('Origin',(2.62714446722555,-2.94785514534423,7.7125));
#1033=CARTESIAN_POINT('',(0.68358503596874,-1.07500639220607,7.6625));
#1034=CARTESIAN_POINT('',(2.59178912816623,-2.98321048440356,7.6625));
#1035=CARTESIAN_POINT('',(0.749999999999978,-1.,7.7625));
#1036=CARTESIAN_POINT('',(2.66249980628488,-2.9124998062849,7.7625));
#1037=CARTESIAN_POINT('',(0.749999999999978,-1.,7.7625));
#1038=CARTESIAN_POINT('Origin',(2.5668690413179,-2.48538917088581,7.7125));
#1039=CARTESIAN_POINT('',(1.69999999999998,-1.87046158144791,7.6625));
#1040=CARTESIAN_POINT('',(2.53605362823499,-2.52476442093618,7.6625));
#1041=CARTESIAN_POINT('',(2.5976844544008,-2.44601392083543,7.7625));
#1042=CARTESIAN_POINT('',(1.10635585632044,-2.1596995585445,7.06885585632047));
#1043=CARTESIAN_POINT('Origin',(1.89999999999998,-5.99999922513962,9.5625));
#1044=CARTESIAN_POINT('',(1.89999999999998,-8.99999922513962,7.8625));
#1045=CARTESIAN_POINT('',(1.89999999999998,-1.9,10.7976842320187));
#1046=CARTESIAN_POINT('',(1.89999999999998,-1.9,10.5125));
#1047=CARTESIAN_POINT('',(1.89999999999998,-2.00438846142189,11.0125));
#1048=CARTESIAN_POINT('',(1.89999999999998,-2.1316046266823,11.2742917523433));
#1049=CARTESIAN_POINT('',(1.89999999999998,-4.49999922513962,11.0125));
#1050=CARTESIAN_POINT('Origin',(0.749999999999978,-0.999999999999999,11.4625));
#1051=CARTESIAN_POINT('',(0.749999999999978,-1.,11.3625));
#1052=CARTESIAN_POINT('',(0.749999999999978,-1.,10.5125));
#1053=CARTESIAN_POINT('',(1.67271433204746,-1.72212425986324,11.3625));
#1054=CARTESIAN_POINT('',(-0.314390574907523,-0.166998680507171,11.3625));
#1055=CARTESIAN_POINT('',(1.68748130645174,-1.73368102244051,11.3477330255957));
#1056=CARTESIAN_POINT('',(1.58458084027278,-1.65315022282219,11.4506334917747));
#1057=CARTESIAN_POINT('',(1.72886906139605,-1.76607143935344,11.2108308649379));
#1058=CARTESIAN_POINT('Origin',(0.399999999999978,-0.65,10.5125));
#1059=CARTESIAN_POINT('',(0.049999999999978,-0.3,11.3625));
#1060=CARTESIAN_POINT('',(0.049999999999978,-0.3,10.5125));
#1061=CARTESIAN_POINT('',(-0.337500193715118,0.087500193715096,11.3625));
#1062=CARTESIAN_POINT('Origin',(-2.22044604925031E-14,-0.3,9.5625));
#1063=CARTESIAN_POINT('',(-0.0500000000000224,-0.3,11.3625));
#1064=CARTESIAN_POINT('',(-0.0500000000000224,-0.3,8.6125));
#1065=CARTESIAN_POINT('',(-0.950000000000022,-0.3,11.3625));
#1066=CARTESIAN_POINT('Origin',(-0.400000000000022,-0.65,8.6125));
#1067=CARTESIAN_POINT('',(-0.750000000000022,-1.,11.3625));
#1068=CARTESIAN_POINT('',(-0.750000000000022,-1.,8.6125));
#1069=CARTESIAN_POINT('',(-0.612499806284926,-0.862499806284904,11.3625));
#1070=CARTESIAN_POINT('Origin',(-1.00555555555558,-1.2,11.4625));
#1071=CARTESIAN_POINT('',(-1.90000000000002,-1.89999999999999,11.1352143320475));
#1072=CARTESIAN_POINT('',(-1.90000000000002,-1.89999999999999,10.5125));
#1073=CARTESIAN_POINT('',(-1.6727143320475,-1.72212425986324,11.3625));
#1074=CARTESIAN_POINT('',(-1.66344802149167,-1.71487236464564,11.3717663105558));
#1075=CARTESIAN_POINT('',(-0.991699043433021,-1.18915577312147,11.3625));
#1076=CARTESIAN_POINT('Origin',(-1.90000000000002,-5.99999922513962,9.5625));
#1077=CARTESIAN_POINT('',(-1.90000000000002,-2.0142907776356,11.2625));
#1078=CARTESIAN_POINT('',(-1.90000000000002,-2.99999922513961,11.2625));
#1079=CARTESIAN_POINT('',(-1.90000000000002,-2.46965174579569,11.7696356253832));
#1080=CARTESIAN_POINT('',(-1.90000000000002,-8.99999922513962,7.8625));
#1081=CARTESIAN_POINT('Origin',(1.59182314722132,-1.7159635040345,11.5070340188024));
#1082=CARTESIAN_POINT('',(1.72322330470334,-1.8759437987078,11.4392766952966));
#1083=CARTESIAN_POINT('',(1.67271433204746,-1.72212425986324,11.3625));
#1084=CARTESIAN_POINT('Origin',(-0.950000000000022,-0.35,11.4125));
#1085=CARTESIAN_POINT('',(-0.0500000000000224,-0.3,11.3625));
#1086=CARTESIAN_POINT('',(0.0085786437626683,-0.4,11.4625));
#1087=CARTESIAN_POINT('Origin',(-0.577144467225599,-0.897855145344231,11.4125));
#1088=CARTESIAN_POINT('',(-0.750000000000022,-1.,11.3625));
#1089=CARTESIAN_POINT('Origin',(-0.960883630350116,-1.22853102317185,11.4125));
#1090=CARTESIAN_POINT('',(-1.70999544104294,-1.86559155758223,11.4525045589571));
#1091=CARTESIAN_POINT('',(-1.6727143320475,-1.72212425986324,11.3625));
#1092=CARTESIAN_POINT('',(-1.53760291401013,-1.94958542211609,11.6248970859899));
#1093=CARTESIAN_POINT('Origin',(-1.67069032844021,-1.77768564585794,11.4281668375836));
#1094=CARTESIAN_POINT('',(-1.67793263538874,-1.84049892707025,11.4845673646113));
#1095=CARTESIAN_POINT('Origin',(-0.372855532774445,0.0521448546557685,11.4125));
#1096=CARTESIAN_POINT('',(0.683585035968759,-1.07500639220609,11.4625));
#1097=CARTESIAN_POINT('Origin',(-0.345205987990429,-0.20637393055755,11.4125));
#1098=CARTESIAN_POINT('Origin',(1.75822811860705,-1.84124232353387,11.2473597148313));
#1099=CARTESIAN_POINT('',(1.78758717581805,-1.91641320771429,11.2838885647247));
#1100=CARTESIAN_POINT('Origin',(-1.80000000000002,-2.99999922513961,11.3625));
#1101=CARTESIAN_POINT('Origin',(-1.80000000000002,-8.99999922513962,7.7625));
#1102=CARTESIAN_POINT('',(-1.70000000000002,-8.99999922513962,7.6625));
#1103=CARTESIAN_POINT('Origin',(-1.90000000000002,-11.9999992251396,7.6625));
#1104=CARTESIAN_POINT('',(1.69999999999998,-8.99999922513962,7.6625));
#1105=CARTESIAN_POINT('Origin',(1.79999999999998,-8.99999922513962,7.7625));
#1106=CARTESIAN_POINT('Origin',(1.81161165235166,-4.49999922513962,11.2258883476483));
#1107=UNCERTAINTY_MEASURE_WITH_UNIT(LENGTH_MEASURE(0.01),#1111,
'DISTANCE_ACCURACY_VALUE',
'Maximum model space distance between geometric entities at asserted c
onnectivities');
#1108=UNCERTAINTY_MEASURE_WITH_UNIT(LENGTH_MEASURE(0.01),#1111,
'DISTANCE_ACCURACY_VALUE',
'Maximum model space distance between geometric entities at asserted c
onnectivities');
#1109=(
GEOMETRIC_REPRESENTATION_CONTEXT(3)
GLOBAL_UNCERTAINTY_ASSIGNED_CONTEXT((#1107))
GLOBAL_UNIT_ASSIGNED_CONTEXT((#1111,#1113,#1114))
REPRESENTATION_CONTEXT('','3D')
);
#1110=(
GEOMETRIC_REPRESENTATION_CONTEXT(3)
GLOBAL_UNCERTAINTY_ASSIGNED_CONTEXT((#1108))
GLOBAL_UNIT_ASSIGNED_CONTEXT((#1111,#1113,#1114))
REPRESENTATION_CONTEXT('','3D')
);
#1111=(
LENGTH_UNIT()
NAMED_UNIT(*)
SI_UNIT(.MILLI.,.METRE.)
);
#1112=(
LENGTH_UNIT()
NAMED_UNIT(*)
SI_UNIT($,.METRE.)
);
#1113=(
NAMED_UNIT(*)
PLANE_ANGLE_UNIT()
SI_UNIT($,.RADIAN.)
);
#1114=(
NAMED_UNIT(*)
SI_UNIT($,.STERADIAN.)
SOLID_ANGLE_UNIT()
);
#1115=SHAPE_DEFINITION_REPRESENTATION(#1116,#1117);
#1116=PRODUCT_DEFINITION_SHAPE('',$,#1119);
#1117=SHAPE_REPRESENTATION('',(#705),#1109);
#1118=PRODUCT_DEFINITION_CONTEXT('part definition',#1123,'design');
#1119=PRODUCT_DEFINITION('2026-08-13-17-45-51-243','DPADPin',#1120,#1118);
#1120=PRODUCT_DEFINITION_FORMATION('',$,#1125);
#1121=PRODUCT_RELATED_PRODUCT_CATEGORY('DPADPin','DPADPin',(#1125));
#1122=APPLICATION_PROTOCOL_DEFINITION('international standard',
'automotive_design',2009,#1123);
#1123=APPLICATION_CONTEXT(
'Core Data for Automotive Mechanical Design Process');
#1124=PRODUCT_CONTEXT('part definition',#1123,'mechanical');
#1125=PRODUCT('2026-08-13-17-45-51-243','DPADPin',$,(#1124));
#1126=PRESENTATION_STYLE_ASSIGNMENT((#1127));
#1127=SURFACE_STYLE_USAGE(.BOTH.,#1128);
#1128=SURFACE_SIDE_STYLE('',(#1129));
#1129=SURFACE_STYLE_FILL_AREA(#1130);
#1130=FILL_AREA_STYLE('Steel - Satin',(#1131));
#1131=FILL_AREA_STYLE_COLOUR('Steel - Satin',#1132);
#1132=COLOUR_RGB('Steel - Satin',0.627450980392157,0.627450980392157,0.627450980392157);
ENDSEC;
END-ISO-10303-21;
