ISO-10303-21;
HEADER;
/* Generated by software containing ST-Developer
 * from STEP Tools, Inc. (www.steptools.com) 
 */

FILE_DESCRIPTION(
/* description */ (''),
/* implementation_level */ '2;1');

FILE_NAME(
/* name */ 'Face Button Post Short.step',
/* time_stamp */ '2026-08-13T17:44:09+02:00',
/* author */ (''),
/* organization */ (''),
/* preprocessor_version */ 'ST-DEVELOPER v20.1',
/* originating_system */ 'Autodesk Translation Framework v15.8.0.0',
/* authorisation */ '');

FILE_SCHEMA (('AUTOMOTIVE_DESIGN { 1 0 10303 214 3 1 1 }'));
ENDSEC;

DATA;
#10=MECHANICAL_DESIGN_GEOMETRIC_PRESENTATION_REPRESENTATION('',(#13),#282);
#11=SHAPE_REPRESENTATION_RELATIONSHIP('SRR','None',#289,#12);
#12=ADVANCED_BREP_SHAPE_REPRESENTATION('',(#14),#281);
#13=STYLED_ITEM('',(#298),#14);
#14=MANIFOLD_SOLID_BREP('FaceButtonPost',#170);
#15=FACE_OUTER_BOUND('',#24,.T.);
#16=FACE_OUTER_BOUND('',#25,.T.);
#17=FACE_OUTER_BOUND('',#26,.T.);
#18=FACE_OUTER_BOUND('',#27,.T.);
#19=FACE_OUTER_BOUND('',#28,.T.);
#20=FACE_OUTER_BOUND('',#29,.T.);
#21=FACE_OUTER_BOUND('',#30,.T.);
#22=FACE_OUTER_BOUND('',#31,.T.);
#23=FACE_OUTER_BOUND('',#32,.T.);
#24=EDGE_LOOP('',(#110,#111,#112,#113,#114,#115,#116));
#25=EDGE_LOOP('',(#117,#118,#119,#120));
#26=EDGE_LOOP('',(#121,#122,#123,#124));
#27=EDGE_LOOP('',(#125,#126,#127,#128));
#28=EDGE_LOOP('',(#129,#130,#131,#132));
#29=EDGE_LOOP('',(#133,#134,#135,#136));
#30=EDGE_LOOP('',(#137,#138,#139,#140));
#31=EDGE_LOOP('',(#141,#142,#143,#144));
#32=EDGE_LOOP('',(#145,#146,#147,#148,#149,#150,#151));
#33=LINE('',#238,#54);
#34=LINE('',#240,#55);
#35=LINE('',#242,#56);
#36=LINE('',#244,#57);
#37=LINE('',#246,#58);
#38=LINE('',#248,#59);
#39=LINE('',#249,#60);
#40=LINE('',#252,#61);
#41=LINE('',#254,#62);
#42=LINE('',#255,#63);
#43=LINE('',#258,#64);
#44=LINE('',#259,#65);
#45=LINE('',#262,#66);
#46=LINE('',#263,#67);
#47=LINE('',#266,#68);
#48=LINE('',#267,#69);
#49=LINE('',#270,#70);
#50=LINE('',#271,#71);
#51=LINE('',#274,#72);
#52=LINE('',#275,#73);
#53=LINE('',#277,#74);
#54=VECTOR('',#197,10.);
#55=VECTOR('',#198,10.);
#56=VECTOR('',#199,10.);
#57=VECTOR('',#200,10.);
#58=VECTOR('',#201,10.);
#59=VECTOR('',#202,10.);
#60=VECTOR('',#203,10.);
#61=VECTOR('',#206,10.);
#62=VECTOR('',#207,10.);
#63=VECTOR('',#208,10.);
#64=VECTOR('',#211,10.);
#65=VECTOR('',#212,10.);
#66=VECTOR('',#215,10.);
#67=VECTOR('',#216,10.);
#68=VECTOR('',#219,10.);
#69=VECTOR('',#220,10.);
#70=VECTOR('',#223,10.);
#71=VECTOR('',#224,10.);
#72=VECTOR('',#227,10.);
#73=VECTOR('',#228,10.);
#74=VECTOR('',#231,10.);
#75=VERTEX_POINT('',#236);
#76=VERTEX_POINT('',#237);
#77=VERTEX_POINT('',#239);
#78=VERTEX_POINT('',#241);
#79=VERTEX_POINT('',#243);
#80=VERTEX_POINT('',#245);
#81=VERTEX_POINT('',#247);
#82=VERTEX_POINT('',#251);
#83=VERTEX_POINT('',#253);
#84=VERTEX_POINT('',#257);
#85=VERTEX_POINT('',#261);
#86=VERTEX_POINT('',#265);
#87=VERTEX_POINT('',#269);
#88=VERTEX_POINT('',#273);
#89=EDGE_CURVE('',#75,#76,#33,.T.);
#90=EDGE_CURVE('',#77,#75,#34,.T.);
#91=EDGE_CURVE('',#78,#77,#35,.T.);
#92=EDGE_CURVE('',#79,#78,#36,.T.);
#93=EDGE_CURVE('',#80,#79,#37,.T.);
#94=EDGE_CURVE('',#81,#80,#38,.T.);
#95=EDGE_CURVE('',#76,#81,#39,.T.);
#96=EDGE_CURVE('',#82,#79,#40,.T.);
#97=EDGE_CURVE('',#83,#82,#41,.T.);
#98=EDGE_CURVE('',#80,#83,#42,.T.);
#99=EDGE_CURVE('',#84,#78,#43,.T.);
#100=EDGE_CURVE('',#82,#84,#44,.T.);
#101=EDGE_CURVE('',#85,#77,#45,.T.);
#102=EDGE_CURVE('',#84,#85,#46,.T.);
#103=EDGE_CURVE('',#86,#75,#47,.T.);
#104=EDGE_CURVE('',#85,#86,#48,.T.);
#105=EDGE_CURVE('',#76,#87,#49,.T.);
#106=EDGE_CURVE('',#86,#87,#50,.T.);
#107=EDGE_CURVE('',#81,#88,#51,.T.);
#108=EDGE_CURVE('',#87,#88,#52,.T.);
#109=EDGE_CURVE('',#88,#83,#53,.T.);
#110=ORIENTED_EDGE('',*,*,#89,.F.);
#111=ORIENTED_EDGE('',*,*,#90,.F.);
#112=ORIENTED_EDGE('',*,*,#91,.F.);
#113=ORIENTED_EDGE('',*,*,#92,.F.);
#114=ORIENTED_EDGE('',*,*,#93,.F.);
#115=ORIENTED_EDGE('',*,*,#94,.F.);
#116=ORIENTED_EDGE('',*,*,#95,.F.);
#117=ORIENTED_EDGE('',*,*,#93,.T.);
#118=ORIENTED_EDGE('',*,*,#96,.F.);
#119=ORIENTED_EDGE('',*,*,#97,.F.);
#120=ORIENTED_EDGE('',*,*,#98,.F.);
#121=ORIENTED_EDGE('',*,*,#92,.T.);
#122=ORIENTED_EDGE('',*,*,#99,.F.);
#123=ORIENTED_EDGE('',*,*,#100,.F.);
#124=ORIENTED_EDGE('',*,*,#96,.T.);
#125=ORIENTED_EDGE('',*,*,#91,.T.);
#126=ORIENTED_EDGE('',*,*,#101,.F.);
#127=ORIENTED_EDGE('',*,*,#102,.F.);
#128=ORIENTED_EDGE('',*,*,#99,.T.);
#129=ORIENTED_EDGE('',*,*,#90,.T.);
#130=ORIENTED_EDGE('',*,*,#103,.F.);
#131=ORIENTED_EDGE('',*,*,#104,.F.);
#132=ORIENTED_EDGE('',*,*,#101,.T.);
#133=ORIENTED_EDGE('',*,*,#89,.T.);
#134=ORIENTED_EDGE('',*,*,#105,.T.);
#135=ORIENTED_EDGE('',*,*,#106,.F.);
#136=ORIENTED_EDGE('',*,*,#103,.T.);
#137=ORIENTED_EDGE('',*,*,#95,.T.);
#138=ORIENTED_EDGE('',*,*,#107,.T.);
#139=ORIENTED_EDGE('',*,*,#108,.F.);
#140=ORIENTED_EDGE('',*,*,#105,.F.);
#141=ORIENTED_EDGE('',*,*,#94,.T.);
#142=ORIENTED_EDGE('',*,*,#98,.T.);
#143=ORIENTED_EDGE('',*,*,#109,.F.);
#144=ORIENTED_EDGE('',*,*,#107,.F.);
#145=ORIENTED_EDGE('',*,*,#106,.T.);
#146=ORIENTED_EDGE('',*,*,#108,.T.);
#147=ORIENTED_EDGE('',*,*,#109,.T.);
#148=ORIENTED_EDGE('',*,*,#97,.T.);
#149=ORIENTED_EDGE('',*,*,#100,.T.);
#150=ORIENTED_EDGE('',*,*,#102,.T.);
#151=ORIENTED_EDGE('',*,*,#104,.T.);
#152=PLANE('',#184);
#153=PLANE('',#185);
#154=PLANE('',#186);
#155=PLANE('',#187);
#156=PLANE('',#188);
#157=PLANE('',#189);
#158=PLANE('',#190);
#159=PLANE('',#191);
#160=PLANE('',#192);
#161=ADVANCED_FACE('',(#15),#152,.F.);
#162=ADVANCED_FACE('',(#16),#153,.T.);
#163=ADVANCED_FACE('',(#17),#154,.T.);
#164=ADVANCED_FACE('',(#18),#155,.T.);
#165=ADVANCED_FACE('',(#19),#156,.T.);
#166=ADVANCED_FACE('',(#20),#157,.T.);
#167=ADVANCED_FACE('',(#21),#158,.T.);
#168=ADVANCED_FACE('',(#22),#159,.T.);
#169=ADVANCED_FACE('',(#23),#160,.T.);
#170=CLOSED_SHELL('',(#161,#162,#163,#164,#165,#166,#167,#168,#169));
#171=DERIVED_UNIT_ELEMENT(#173,1.);
#172=DERIVED_UNIT_ELEMENT(#284,-3.);
#173=(
MASS_UNIT()
NAMED_UNIT(*)
SI_UNIT(.KILO.,.GRAM.)
);
#174=DERIVED_UNIT((#171,#172));
#175=MEASURE_REPRESENTATION_ITEM('density measure',
POSITIVE_RATIO_MEASURE(7850.),#174);
#176=PROPERTY_DEFINITION_REPRESENTATION(#181,#178);
#177=PROPERTY_DEFINITION_REPRESENTATION(#182,#179);
#178=REPRESENTATION('material name',(#180),#281);
#179=REPRESENTATION('density',(#175),#281);
#180=DESCRIPTIVE_REPRESENTATION_ITEM('Steel','Steel');
#181=PROPERTY_DEFINITION('material property','material name',#291);
#182=PROPERTY_DEFINITION('material property','density of part',#291);
#183=AXIS2_PLACEMENT_3D('',#234,#193,#194);
#184=AXIS2_PLACEMENT_3D('',#235,#195,#196);
#185=AXIS2_PLACEMENT_3D('',#250,#204,#205);
#186=AXIS2_PLACEMENT_3D('',#256,#209,#210);
#187=AXIS2_PLACEMENT_3D('',#260,#213,#214);
#188=AXIS2_PLACEMENT_3D('',#264,#217,#218);
#189=AXIS2_PLACEMENT_3D('',#268,#221,#222);
#190=AXIS2_PLACEMENT_3D('',#272,#225,#226);
#191=AXIS2_PLACEMENT_3D('',#276,#229,#230);
#192=AXIS2_PLACEMENT_3D('',#278,#232,#233);
#193=DIRECTION('axis',(0.,0.,1.));
#194=DIRECTION('refdir',(1.,0.,0.));
#195=DIRECTION('center_axis',(-3.0511110261083E-15,0.,1.));
#196=DIRECTION('ref_axis',(1.,0.,3.0511110261083E-15));
#197=DIRECTION('',(0.707106781186545,0.70710678118655,2.15746129671421E-15));
#198=DIRECTION('',(0.70710678118655,-0.707106781186545,2.15746129671423E-15));
#199=DIRECTION('',(-0.707106781186545,-0.70710678118655,-2.15746129671421E-15));
#200=DIRECTION('',(-0.70710678118655,0.707106781186545,-2.15746129671423E-15));
#201=DIRECTION('',(-1.,1.87967999598053E-32,-3.0511110261083E-15));
#202=DIRECTION('',(1.03508566522778E-32,1.,3.15816128614313E-47));
#203=DIRECTION('',(1.,-1.87967999598053E-32,3.0511110261083E-15));
#204=DIRECTION('center_axis',(-6.34292951554387E-33,1.,8.23953283254167E-18));
#205=DIRECTION('ref_axis',(-1.,1.03508566522778E-32,-2.02605979090105E-15));
#206=DIRECTION('',(2.02605979090105E-15,8.23953283254167E-18,-1.));
#207=DIRECTION('',(-1.,1.03508566522778E-32,-2.02605979090105E-15));
#208=DIRECTION('',(-2.02605979090105E-15,-8.23953283254167E-18,1.));
#209=DIRECTION('center_axis',(0.707106781186545,0.70710678118655,1.43846684677523E-15));
#210=DIRECTION('ref_axis',(0.70710678118655,-0.707106781186545,1.42681438769584E-15));
#211=DIRECTION('',(2.02605979090105E-15,8.23953283254167E-18,-1.));
#212=DIRECTION('',(-0.70710678118655,0.707106781186545,-1.42681438769584E-15));
#213=DIRECTION('center_axis',(-0.70710678118655,0.707106781186545,-1.42681438769584E-15));
#214=DIRECTION('ref_axis',(0.707106781186545,0.70710678118655,1.43846684677522E-15));
#215=DIRECTION('',(2.02605979090105E-15,8.23953283254167E-18,-1.));
#216=DIRECTION('',(-0.707106781186545,-0.70710678118655,-1.43846684677522E-15));
#217=DIRECTION('center_axis',(-0.707106781186545,-0.70710678118655,-1.43846684677523E-15));
#218=DIRECTION('ref_axis',(-0.70710678118655,0.707106781186545,-1.42681438769584E-15));
#219=DIRECTION('',(2.02605979090105E-15,8.23953283254167E-18,-1.));
#220=DIRECTION('',(0.70710678118655,-0.707106781186545,1.42681438769584E-15));
#221=DIRECTION('center_axis',(0.70710678118655,-0.707106781186545,1.42681438769584E-15));
#222=DIRECTION('ref_axis',(-0.707106781186545,-0.70710678118655,-1.43846684677522E-15));
#223=DIRECTION('',(-2.02605979090105E-15,-8.23953283254167E-18,1.));
#224=DIRECTION('',(0.707106781186545,0.70710678118655,1.43846684677522E-15));
#225=DIRECTION('center_axis',(6.34292951554387E-33,-1.,-8.23953283254167E-18));
#226=DIRECTION('ref_axis',(1.,-1.03508566522778E-32,2.02605979090105E-15));
#227=DIRECTION('',(-2.02605979090105E-15,-8.23953283254167E-18,1.));
#228=DIRECTION('',(1.,-1.03508566522778E-32,2.02605979090105E-15));
#229=DIRECTION('center_axis',(1.,-1.03508566522778E-32,2.02605979090105E-15));
#230=DIRECTION('ref_axis',(-6.34292951554387E-33,1.,8.23953283254167E-18));
#231=DIRECTION('',(-6.34292951554387E-33,1.,8.23953283254167E-18));
#232=DIRECTION('center_axis',(-2.02605979090105E-15,-8.23953283254167E-18,
1.));
#233=DIRECTION('ref_axis',(-1.,1.03508566522778E-32,-2.02605979090105E-15));
#234=CARTESIAN_POINT('',(0.,0.,0.));
#235=CARTESIAN_POINT('Origin',(72.8699783364422,-9.02788308113296,-6.86083125000007));
#236=CARTESIAN_POINT('',(72.8699783364414,-13.0278830811338,-6.86083125000007));
#237=CARTESIAN_POINT('',(74.8699783364422,-11.027883081133,-6.86083125000006));
#238=CARTESIAN_POINT('',(75.8699783364426,-10.0278830811326,-6.86083125000006));
#239=CARTESIAN_POINT('',(68.8699783364413,-9.02788308113378,-6.86083125000007));
#240=CARTESIAN_POINT('',(71.8699783364414,-12.0278830811338,-6.86083125000007));
#241=CARTESIAN_POINT('',(72.869978336443,-5.02788308113213,-6.86083125000007));
#242=CARTESIAN_POINT('',(69.8699783364417,-8.02788308113336,-6.86083125000008));
#243=CARTESIAN_POINT('',(74.8699783364422,-7.02788308113131,-6.86083125000006));
#244=CARTESIAN_POINT('',(73.869978336443,-6.02788308113214,-6.86083125000006));
#245=CARTESIAN_POINT('',(76.869978336443,-7.02788308113131,-6.86083125000006));
#246=CARTESIAN_POINT('',(74.8699783364426,-7.02788308113131,-6.86083125000006));
#247=CARTESIAN_POINT('',(76.869978336443,-11.027883081133,-6.86083125000006));
#248=CARTESIAN_POINT('',(76.869978336443,-10.027883081133,-6.86083125000006));
#249=CARTESIAN_POINT('',(73.8699783364422,-11.027883081133,-6.86083125000006));
#250=CARTESIAN_POINT('Origin',(76.869978336443,-7.02788308113131,-9.86083125000006));
#251=CARTESIAN_POINT('',(74.8699783364422,-7.02788308113131,5.27816874999994));
#252=CARTESIAN_POINT('',(74.8699783364422,-7.02788308113131,-2.79133125000006));
#253=CARTESIAN_POINT('',(76.869978336443,-7.02788308113131,5.27816874999994));
#254=CARTESIAN_POINT('',(78.8699783364438,-7.02788308113131,5.27816874999995));
#255=CARTESIAN_POINT('',(76.869978336443,-7.02788308113131,-9.86083125000006));
#256=CARTESIAN_POINT('Origin',(72.8699783364429,-5.02788308113213,4.27816874999993));
#257=CARTESIAN_POINT('',(72.8699783364429,-5.02788308113213,5.27816874999993));
#258=CARTESIAN_POINT('',(72.8699783364429,-5.02788308113213,4.27816874999993));
#259=CARTESIAN_POINT('',(72.8699783364429,-5.02788308113213,5.27816874999993));
#260=CARTESIAN_POINT('Origin',(68.8699783364413,-9.02788308113378,4.27816874999992));
#261=CARTESIAN_POINT('',(68.8699783364413,-9.02788308113378,5.27816874999992));
#262=CARTESIAN_POINT('',(68.8699783364413,-9.02788308113378,4.27816874999992));
#263=CARTESIAN_POINT('',(68.8699783364413,-9.02788308113378,5.27816874999992));
#264=CARTESIAN_POINT('Origin',(72.8699783364413,-13.0278830811338,4.27816874999993));
#265=CARTESIAN_POINT('',(72.8699783364413,-13.0278830811338,5.27816874999993));
#266=CARTESIAN_POINT('',(72.8699783364413,-13.0278830811338,4.27816874999993));
#267=CARTESIAN_POINT('',(72.8699783364413,-13.0278830811338,5.27816874999993));
#268=CARTESIAN_POINT('Origin',(76.869978336443,-9.02788308113214,4.27816874999994));
#269=CARTESIAN_POINT('',(74.8699783364422,-11.027883081133,5.27816874999994));
#270=CARTESIAN_POINT('',(74.8699783364422,-11.027883081133,-2.79133125000006));
#271=CARTESIAN_POINT('',(76.869978336443,-9.02788308113214,5.27816874999994));
#272=CARTESIAN_POINT('Origin',(74.8699783364422,-11.027883081133,-9.86083125000006));
#273=CARTESIAN_POINT('',(76.869978336443,-11.027883081133,5.27816874999994));
#274=CARTESIAN_POINT('',(76.869978336443,-11.027883081133,-9.86083125000006));
#275=CARTESIAN_POINT('',(74.8699783364422,-11.027883081133,5.27816874999994));
#276=CARTESIAN_POINT('Origin',(76.869978336443,-11.027883081133,-9.86083125000006));
#277=CARTESIAN_POINT('',(76.869978336443,-7.02788308113131,5.27816874999994));
#278=CARTESIAN_POINT('Origin',(72.8699783364421,-9.02788308113296,5.27816874999993));
#279=UNCERTAINTY_MEASURE_WITH_UNIT(LENGTH_MEASURE(0.01),#283,
'DISTANCE_ACCURACY_VALUE',
'Maximum model space distance between geometric entities at asserted c
onnectivities');
#280=UNCERTAINTY_MEASURE_WITH_UNIT(LENGTH_MEASURE(0.01),#283,
'DISTANCE_ACCURACY_VALUE',
'Maximum model space distance between geometric entities at asserted c
onnectivities');
#281=(
GEOMETRIC_REPRESENTATION_CONTEXT(3)
GLOBAL_UNCERTAINTY_ASSIGNED_CONTEXT((#279))
GLOBAL_UNIT_ASSIGNED_CONTEXT((#283,#285,#286))
REPRESENTATION_CONTEXT('','3D')
);
#282=(
GEOMETRIC_REPRESENTATION_CONTEXT(3)
GLOBAL_UNCERTAINTY_ASSIGNED_CONTEXT((#280))
GLOBAL_UNIT_ASSIGNED_CONTEXT((#283,#285,#286))
REPRESENTATION_CONTEXT('','3D')
);
#283=(
LENGTH_UNIT()
NAMED_UNIT(*)
SI_UNIT(.MILLI.,.METRE.)
);
#284=(
LENGTH_UNIT()
NAMED_UNIT(*)
SI_UNIT($,.METRE.)
);
#285=(
NAMED_UNIT(*)
PLANE_ANGLE_UNIT()
SI_UNIT($,.RADIAN.)
);
#286=(
NAMED_UNIT(*)
SI_UNIT($,.STERADIAN.)
SOLID_ANGLE_UNIT()
);
#287=SHAPE_DEFINITION_REPRESENTATION(#288,#289);
#288=PRODUCT_DEFINITION_SHAPE('',$,#291);
#289=SHAPE_REPRESENTATION('',(#183),#281);
#290=PRODUCT_DEFINITION_CONTEXT('part definition',#295,'design');
#291=PRODUCT_DEFINITION('2026-08-13-17-44-09-845',
'Face Button Post Short',#292,#290);
#292=PRODUCT_DEFINITION_FORMATION('',$,#297);
#293=PRODUCT_RELATED_PRODUCT_CATEGORY('Face Button Post Short',
'Face Button Post Short',(#297));
#294=APPLICATION_PROTOCOL_DEFINITION('international standard',
'automotive_design',2009,#295);
#295=APPLICATION_CONTEXT(
'Core Data for Automotive Mechanical Design Process');
#296=PRODUCT_CONTEXT('part definition',#295,'mechanical');
#297=PRODUCT('2026-08-13-17-44-09-845','Face Button Post Short',$,(#296));
#298=PRESENTATION_STYLE_ASSIGNMENT((#299));
#299=SURFACE_STYLE_USAGE(.BOTH.,#300);
#300=SURFACE_SIDE_STYLE('',(#301));
#301=SURFACE_STYLE_FILL_AREA(#302);
#302=FILL_AREA_STYLE('Steel - Satin',(#303));
#303=FILL_AREA_STYLE_COLOUR('Steel - Satin',#304);
#304=COLOUR_RGB('Steel - Satin',0.627450980392157,0.627450980392157,0.627450980392157);
ENDSEC;
END-ISO-10303-21;
