ISO-10303-21;
HEADER;
/* Generated by software containing ST-Developer
 * from STEP Tools, Inc. (www.steptools.com) 
 */

FILE_DESCRIPTION(
/* description */ (''),
/* implementation_level */ '2;1');

FILE_NAME(
/* name */ 'Face Button Y.step',
/* time_stamp */ '2026-08-13T17:45:10+02:00',
/* author */ (''),
/* organization */ (''),
/* preprocessor_version */ 'ST-DEVELOPER v20.1',
/* originating_system */ 'Autodesk Translation Framework v15.8.0.0',
/* authorisation */ '');

FILE_SCHEMA (('AUTOMOTIVE_DESIGN { 1 0 10303 214 3 1 1 }'));
ENDSEC;

DATA;
#10=MECHANICAL_DESIGN_GEOMETRIC_PRESENTATION_REPRESENTATION('',(#13),#1475);
#11=SHAPE_REPRESENTATION_RELATIONSHIP('SRR','None',#1482,#12);
#12=ADVANCED_BREP_SHAPE_REPRESENTATION('',(#14),#1474);
#13=STYLED_ITEM('',(#1492),#14);
#14=MANIFOLD_SOLID_BREP('FaceButton',#899);
#15=CYLINDRICAL_SURFACE('',#955,6.25);
#16=CYLINDRICAL_SURFACE('',#959,6.25);
#17=CYLINDRICAL_SURFACE('',#963,4.85);
#18=(
BOUNDED_CURVE()
B_SPLINE_CURVE(2,(#1355,#1356,#1357),.UNSPECIFIED.,.F.,.F.)
B_SPLINE_CURVE_WITH_KNOTS((3,3),(0.214882054925096,0.589505121001584),
 .UNSPECIFIED.)
CURVE()
GEOMETRIC_REPRESENTATION_ITEM()
RATIONAL_B_SPLINE_CURVE((1.74999999999825,2.35683232748434,2.80000000000069))
REPRESENTATION_ITEM('')
);
#19=(
BOUNDED_CURVE()
B_SPLINE_CURVE(2,(#1361,#1362,#1363),.UNSPECIFIED.,.F.,.F.)
B_SPLINE_CURVE_WITH_KNOTS((3,3),(2.6182978654675,2.99292093154399),
 .UNSPECIFIED.)
CURVE()
GEOMETRIC_REPRESENTATION_ITEM()
RATIONAL_B_SPLINE_CURVE((2.8000000000007,2.35683232748434,1.74999999999825))
REPRESENTATION_ITEM('')
);
#20=(
BOUNDED_CURVE()
B_SPLINE_CURVE(2,(#1382,#1383,#1384),.UNSPECIFIED.,.F.,.F.)
B_SPLINE_CURVE_WITH_KNOTS((3,3),(0.,0.0723390345543137),.UNSPECIFIED.)
CURVE()
GEOMETRIC_REPRESENTATION_ITEM()
RATIONAL_B_SPLINE_CURVE((1.,1.00095028722609,1.))
REPRESENTATION_ITEM('')
);
#21=(
BOUNDED_CURVE()
B_SPLINE_CURVE(2,(#1388,#1389,#1390),.UNSPECIFIED.,.F.,.F.)
B_SPLINE_CURVE_WITH_KNOTS((3,3),(0.,0.0723390345543138),.UNSPECIFIED.)
CURVE()
GEOMETRIC_REPRESENTATION_ITEM()
RATIONAL_B_SPLINE_CURVE((1.,1.00095028723209,1.))
REPRESENTATION_ITEM('')
);
#22=(
BOUNDED_CURVE()
B_SPLINE_CURVE(2,(#1398,#1399,#1400),.UNSPECIFIED.,.F.,.F.)
B_SPLINE_CURVE_WITH_KNOTS((3,3),(0.,0.0723390345543137),.UNSPECIFIED.)
CURVE()
GEOMETRIC_REPRESENTATION_ITEM()
RATIONAL_B_SPLINE_CURVE((1.,1.00095028723074,1.))
REPRESENTATION_ITEM('')
);
#23=(
BOUNDED_CURVE()
B_SPLINE_CURVE(2,(#1404,#1405,#1406),.UNSPECIFIED.,.F.,.F.)
B_SPLINE_CURVE_WITH_KNOTS((3,3),(0.,0.0723390345543137),.UNSPECIFIED.)
CURVE()
GEOMETRIC_REPRESENTATION_ITEM()
RATIONAL_B_SPLINE_CURVE((1.,1.00095028722991,1.))
REPRESENTATION_ITEM('')
);
#24=FACE_BOUND('',#120,.T.);
#25=FACE_BOUND('',#156,.T.);
#26=PLANE('',#916);
#27=PLANE('',#920);
#28=PLANE('',#921);
#29=PLANE('',#922);
#30=PLANE('',#923);
#31=PLANE('',#924);
#32=PLANE('',#925);
#33=PLANE('',#926);
#34=PLANE('',#927);
#35=PLANE('',#928);
#36=PLANE('',#929);
#37=PLANE('',#930);
#38=PLANE('',#931);
#39=PLANE('',#932);
#40=PLANE('',#933);
#41=PLANE('',#934);
#42=PLANE('',#935);
#43=PLANE('',#936);
#44=PLANE('',#937);
#45=PLANE('',#938);
#46=PLANE('',#939);
#47=PLANE('',#940);
#48=PLANE('',#941);
#49=PLANE('',#942);
#50=PLANE('',#943);
#51=PLANE('',#944);
#52=PLANE('',#945);
#53=PLANE('',#946);
#54=PLANE('',#950);
#55=PLANE('',#960);
#56=PLANE('',#962);
#57=PLANE('',#964);
#58=PLANE('',#965);
#59=PLANE('',#966);
#60=PLANE('',#967);
#61=PLANE('',#968);
#62=PLANE('',#969);
#63=PLANE('',#970);
#64=PLANE('',#971);
#65=PLANE('',#972);
#66=PLANE('',#973);
#67=PLANE('',#974);
#68=FACE_OUTER_BOUND('',#118,.T.);
#69=FACE_OUTER_BOUND('',#119,.T.);
#70=FACE_OUTER_BOUND('',#121,.T.);
#71=FACE_OUTER_BOUND('',#122,.T.);
#72=FACE_OUTER_BOUND('',#123,.T.);
#73=FACE_OUTER_BOUND('',#124,.T.);
#74=FACE_OUTER_BOUND('',#125,.T.);
#75=FACE_OUTER_BOUND('',#126,.T.);
#76=FACE_OUTER_BOUND('',#127,.T.);
#77=FACE_OUTER_BOUND('',#128,.T.);
#78=FACE_OUTER_BOUND('',#129,.T.);
#79=FACE_OUTER_BOUND('',#130,.T.);
#80=FACE_OUTER_BOUND('',#131,.T.);
#81=FACE_OUTER_BOUND('',#132,.T.);
#82=FACE_OUTER_BOUND('',#133,.T.);
#83=FACE_OUTER_BOUND('',#134,.T.);
#84=FACE_OUTER_BOUND('',#135,.T.);
#85=FACE_OUTER_BOUND('',#136,.T.);
#86=FACE_OUTER_BOUND('',#137,.T.);
#87=FACE_OUTER_BOUND('',#138,.T.);
#88=FACE_OUTER_BOUND('',#139,.T.);
#89=FACE_OUTER_BOUND('',#140,.T.);
#90=FACE_OUTER_BOUND('',#141,.T.);
#91=FACE_OUTER_BOUND('',#142,.T.);
#92=FACE_OUTER_BOUND('',#143,.T.);
#93=FACE_OUTER_BOUND('',#144,.T.);
#94=FACE_OUTER_BOUND('',#145,.T.);
#95=FACE_OUTER_BOUND('',#146,.T.);
#96=FACE_OUTER_BOUND('',#147,.T.);
#97=FACE_OUTER_BOUND('',#148,.T.);
#98=FACE_OUTER_BOUND('',#149,.T.);
#99=FACE_OUTER_BOUND('',#150,.T.);
#100=FACE_OUTER_BOUND('',#151,.T.);
#101=FACE_OUTER_BOUND('',#152,.T.);
#102=FACE_OUTER_BOUND('',#153,.T.);
#103=FACE_OUTER_BOUND('',#154,.T.);
#104=FACE_OUTER_BOUND('',#155,.T.);
#105=FACE_OUTER_BOUND('',#157,.T.);
#106=FACE_OUTER_BOUND('',#158,.T.);
#107=FACE_OUTER_BOUND('',#159,.T.);
#108=FACE_OUTER_BOUND('',#160,.T.);
#109=FACE_OUTER_BOUND('',#161,.T.);
#110=FACE_OUTER_BOUND('',#162,.T.);
#111=FACE_OUTER_BOUND('',#163,.T.);
#112=FACE_OUTER_BOUND('',#164,.T.);
#113=FACE_OUTER_BOUND('',#165,.T.);
#114=FACE_OUTER_BOUND('',#166,.T.);
#115=FACE_OUTER_BOUND('',#167,.T.);
#116=FACE_OUTER_BOUND('',#168,.T.);
#117=FACE_OUTER_BOUND('',#169,.T.);
#118=EDGE_LOOP('',(#596,#597,#598,#599));
#119=EDGE_LOOP('',(#600));
#120=EDGE_LOOP('',(#601,#602,#603,#604,#605,#606,#607,#608,#609,#610,#611,
#612,#613));
#121=EDGE_LOOP('',(#614,#615,#616,#617,#618));
#122=EDGE_LOOP('',(#619,#620,#621,#622));
#123=EDGE_LOOP('',(#623,#624,#625,#626));
#124=EDGE_LOOP('',(#627,#628,#629,#630));
#125=EDGE_LOOP('',(#631,#632,#633,#634));
#126=EDGE_LOOP('',(#635,#636,#637,#638));
#127=EDGE_LOOP('',(#639,#640,#641,#642));
#128=EDGE_LOOP('',(#643,#644,#645,#646));
#129=EDGE_LOOP('',(#647,#648,#649,#650));
#130=EDGE_LOOP('',(#651,#652,#653,#654));
#131=EDGE_LOOP('',(#655,#656,#657,#658));
#132=EDGE_LOOP('',(#659,#660,#661,#662));
#133=EDGE_LOOP('',(#663,#664,#665,#666));
#134=EDGE_LOOP('',(#667,#668,#669,#670));
#135=EDGE_LOOP('',(#671,#672,#673,#674));
#136=EDGE_LOOP('',(#675,#676,#677,#678));
#137=EDGE_LOOP('',(#679,#680,#681,#682));
#138=EDGE_LOOP('',(#683,#684,#685,#686));
#139=EDGE_LOOP('',(#687,#688,#689,#690));
#140=EDGE_LOOP('',(#691,#692,#693,#694));
#141=EDGE_LOOP('',(#695,#696,#697,#698));
#142=EDGE_LOOP('',(#699,#700,#701,#702));
#143=EDGE_LOOP('',(#703,#704,#705,#706));
#144=EDGE_LOOP('',(#707,#708,#709,#710));
#145=EDGE_LOOP('',(#711,#712,#713,#714));
#146=EDGE_LOOP('',(#715,#716,#717,#718));
#147=EDGE_LOOP('',(#719,#720,#721,#722));
#148=EDGE_LOOP('',(#723,#724,#725,#726,#727,#728,#729,#730,#731,#732,#733,
#734,#735));
#149=EDGE_LOOP('',(#736,#737,#738,#739));
#150=EDGE_LOOP('',(#740,#741,#742,#743,#744,#745,#746,#747));
#151=EDGE_LOOP('',(#748,#749,#750,#751));
#152=EDGE_LOOP('',(#752,#753,#754,#755));
#153=EDGE_LOOP('',(#756,#757,#758,#759));
#154=EDGE_LOOP('',(#760,#761,#762,#763));
#155=EDGE_LOOP('',(#764,#765,#766,#767,#768,#769,#770,#771,#772,#773));
#156=EDGE_LOOP('',(#774));
#157=EDGE_LOOP('',(#775,#776,#777,#778,#779,#780,#781,#782));
#158=EDGE_LOOP('',(#783,#784,#785,#786,#787));
#159=EDGE_LOOP('',(#788,#789,#790,#791,#792,#793,#794,#795));
#160=EDGE_LOOP('',(#796,#797,#798,#799,#800));
#161=EDGE_LOOP('',(#801,#802,#803,#804,#805));
#162=EDGE_LOOP('',(#806,#807,#808,#809));
#163=EDGE_LOOP('',(#810,#811,#812,#813));
#164=EDGE_LOOP('',(#814,#815,#816,#817,#818,#819,#820));
#165=EDGE_LOOP('',(#821,#822,#823,#824));
#166=EDGE_LOOP('',(#825,#826,#827,#828));
#167=EDGE_LOOP('',(#829,#830,#831,#832,#833,#834,#835));
#168=EDGE_LOOP('',(#836,#837,#838,#839));
#169=EDGE_LOOP('',(#840,#841,#842,#843));
#170=LINE('',#1212,#276);
#171=LINE('',#1217,#277);
#172=LINE('',#1219,#278);
#173=LINE('',#1221,#279);
#174=LINE('',#1223,#280);
#175=LINE('',#1225,#281);
#176=LINE('',#1227,#282);
#177=LINE('',#1229,#283);
#178=LINE('',#1231,#284);
#179=LINE('',#1233,#285);
#180=LINE('',#1235,#286);
#181=LINE('',#1237,#287);
#182=LINE('',#1239,#288);
#183=LINE('',#1240,#289);
#184=LINE('',#1243,#290);
#185=LINE('',#1249,#291);
#186=LINE('',#1251,#292);
#187=LINE('',#1252,#293);
#188=LINE('',#1255,#294);
#189=LINE('',#1256,#295);
#190=LINE('',#1259,#296);
#191=LINE('',#1260,#297);
#192=LINE('',#1263,#298);
#193=LINE('',#1264,#299);
#194=LINE('',#1267,#300);
#195=LINE('',#1268,#301);
#196=LINE('',#1271,#302);
#197=LINE('',#1273,#303);
#198=LINE('',#1274,#304);
#199=LINE('',#1277,#305);
#200=LINE('',#1278,#306);
#201=LINE('',#1280,#307);
#202=LINE('',#1283,#308);
#203=LINE('',#1284,#309);
#204=LINE('',#1287,#310);
#205=LINE('',#1288,#311);
#206=LINE('',#1291,#312);
#207=LINE('',#1292,#313);
#208=LINE('',#1295,#314);
#209=LINE('',#1296,#315);
#210=LINE('',#1298,#316);
#211=LINE('',#1301,#317);
#212=LINE('',#1303,#318);
#213=LINE('',#1304,#319);
#214=LINE('',#1307,#320);
#215=LINE('',#1308,#321);
#216=LINE('',#1311,#322);
#217=LINE('',#1312,#323);
#218=LINE('',#1315,#324);
#219=LINE('',#1316,#325);
#220=LINE('',#1319,#326);
#221=LINE('',#1320,#327);
#222=LINE('',#1323,#328);
#223=LINE('',#1324,#329);
#224=LINE('',#1327,#330);
#225=LINE('',#1328,#331);
#226=LINE('',#1331,#332);
#227=LINE('',#1332,#333);
#228=LINE('',#1335,#334);
#229=LINE('',#1336,#335);
#230=LINE('',#1339,#336);
#231=LINE('',#1340,#337);
#232=LINE('',#1343,#338);
#233=LINE('',#1344,#339);
#234=LINE('',#1347,#340);
#235=LINE('',#1348,#341);
#236=LINE('',#1350,#342);
#237=LINE('',#1367,#343);
#238=LINE('',#1369,#344);
#239=LINE('',#1371,#345);
#240=LINE('',#1373,#346);
#241=LINE('',#1377,#347);
#242=LINE('',#1378,#348);
#243=LINE('',#1393,#349);
#244=LINE('',#1394,#350);
#245=LINE('',#1409,#351);
#246=LINE('',#1410,#352);
#247=LINE('',#1413,#353);
#248=LINE('',#1415,#354);
#249=LINE('',#1417,#355);
#250=LINE('',#1418,#356);
#251=LINE('',#1420,#357);
#252=LINE('',#1422,#358);
#253=LINE('',#1424,#359);
#254=LINE('',#1425,#360);
#255=LINE('',#1430,#361);
#256=LINE('',#1432,#362);
#257=LINE('',#1433,#363);
#258=LINE('',#1435,#364);
#259=LINE('',#1438,#365);
#260=LINE('',#1440,#366);
#261=LINE('',#1441,#367);
#262=LINE('',#1445,#368);
#263=LINE('',#1447,#369);
#264=LINE('',#1448,#370);
#265=LINE('',#1449,#371);
#266=LINE('',#1452,#372);
#267=LINE('',#1454,#373);
#268=LINE('',#1456,#374);
#269=LINE('',#1457,#375);
#270=LINE('',#1459,#376);
#271=LINE('',#1461,#377);
#272=LINE('',#1463,#378);
#273=LINE('',#1465,#379);
#274=LINE('',#1467,#380);
#275=LINE('',#1470,#381);
#276=VECTOR('',#981,4.13535533905933);
#277=VECTOR('',#986,10.);
#278=VECTOR('',#987,10.);
#279=VECTOR('',#988,10.);
#280=VECTOR('',#989,10.);
#281=VECTOR('',#990,10.);
#282=VECTOR('',#991,10.);
#283=VECTOR('',#992,10.);
#284=VECTOR('',#993,10.);
#285=VECTOR('',#994,10.);
#286=VECTOR('',#995,10.);
#287=VECTOR('',#996,10.);
#288=VECTOR('',#997,10.);
#289=VECTOR('',#998,10.);
#290=VECTOR('',#1001,4.5);
#291=VECTOR('',#1008,10.);
#292=VECTOR('',#1009,10.);
#293=VECTOR('',#1010,10.);
#294=VECTOR('',#1013,10.);
#295=VECTOR('',#1014,10.);
#296=VECTOR('',#1017,10.);
#297=VECTOR('',#1018,10.);
#298=VECTOR('',#1021,10.);
#299=VECTOR('',#1022,10.);
#300=VECTOR('',#1025,10.);
#301=VECTOR('',#1026,10.);
#302=VECTOR('',#1029,10.);
#303=VECTOR('',#1030,10.);
#304=VECTOR('',#1031,10.);
#305=VECTOR('',#1034,10.);
#306=VECTOR('',#1035,10.);
#307=VECTOR('',#1038,10.);
#308=VECTOR('',#1041,10.);
#309=VECTOR('',#1042,10.);
#310=VECTOR('',#1045,10.);
#311=VECTOR('',#1046,10.);
#312=VECTOR('',#1049,10.);
#313=VECTOR('',#1050,10.);
#314=VECTOR('',#1053,10.);
#315=VECTOR('',#1054,10.);
#316=VECTOR('',#1057,10.);
#317=VECTOR('',#1060,10.);
#318=VECTOR('',#1061,10.);
#319=VECTOR('',#1062,10.);
#320=VECTOR('',#1065,10.);
#321=VECTOR('',#1066,10.);
#322=VECTOR('',#1069,10.);
#323=VECTOR('',#1070,10.);
#324=VECTOR('',#1073,10.);
#325=VECTOR('',#1074,10.);
#326=VECTOR('',#1077,10.);
#327=VECTOR('',#1078,10.);
#328=VECTOR('',#1081,10.);
#329=VECTOR('',#1082,10.);
#330=VECTOR('',#1085,10.);
#331=VECTOR('',#1086,10.);
#332=VECTOR('',#1089,10.);
#333=VECTOR('',#1090,10.);
#334=VECTOR('',#1093,10.);
#335=VECTOR('',#1094,10.);
#336=VECTOR('',#1097,10.);
#337=VECTOR('',#1098,10.);
#338=VECTOR('',#1101,10.);
#339=VECTOR('',#1102,10.);
#340=VECTOR('',#1105,10.);
#341=VECTOR('',#1106,10.);
#342=VECTOR('',#1109,10.);
#343=VECTOR('',#1120,10.);
#344=VECTOR('',#1121,10.);
#345=VECTOR('',#1122,10.);
#346=VECTOR('',#1123,10.);
#347=VECTOR('',#1126,10.);
#348=VECTOR('',#1127,10.);
#349=VECTOR('',#1136,10.);
#350=VECTOR('',#1137,10.);
#351=VECTOR('',#1146,10.);
#352=VECTOR('',#1147,10.);
#353=VECTOR('',#1150,10.);
#354=VECTOR('',#1151,10.);
#355=VECTOR('',#1152,10.);
#356=VECTOR('',#1153,10.);
#357=VECTOR('',#1154,10.);
#358=VECTOR('',#1155,10.);
#359=VECTOR('',#1156,10.);
#360=VECTOR('',#1157,10.);
#361=VECTOR('',#1162,10.);
#362=VECTOR('',#1163,10.);
#363=VECTOR('',#1164,10.);
#364=VECTOR('',#1167,4.85);
#365=VECTOR('',#1170,10.);
#366=VECTOR('',#1171,10.);
#367=VECTOR('',#1172,10.);
#368=VECTOR('',#1175,10.);
#369=VECTOR('',#1176,10.);
#370=VECTOR('',#1177,10.);
#371=VECTOR('',#1178,10.);
#372=VECTOR('',#1181,10.);
#373=VECTOR('',#1182,10.);
#374=VECTOR('',#1183,10.);
#375=VECTOR('',#1184,10.);
#376=VECTOR('',#1187,10.);
#377=VECTOR('',#1190,10.);
#378=VECTOR('',#1193,10.);
#379=VECTOR('',#1196,10.);
#380=VECTOR('',#1199,10.);
#381=VECTOR('',#1204,10.);
#382=CIRCLE('',#914,4.22071067811865);
#383=CIRCLE('',#915,4.05000000000001);
#384=CIRCLE('',#918,4.85);
#385=CIRCLE('',#919,4.85);
#386=CIRCLE('',#948,6.25);
#387=CIRCLE('',#949,3.25);
#388=CIRCLE('',#951,6.25);
#389=CIRCLE('',#953,6.25);
#390=CIRCLE('',#954,5.75);
#391=CIRCLE('',#957,6.25);
#392=CIRCLE('',#958,5.75);
#393=CIRCLE('',#961,4.85);
#394=VERTEX_POINT('',#1209);
#395=VERTEX_POINT('',#1211);
#396=VERTEX_POINT('',#1215);
#397=VERTEX_POINT('',#1216);
#398=VERTEX_POINT('',#1218);
#399=VERTEX_POINT('',#1220);
#400=VERTEX_POINT('',#1222);
#401=VERTEX_POINT('',#1224);
#402=VERTEX_POINT('',#1226);
#403=VERTEX_POINT('',#1228);
#404=VERTEX_POINT('',#1230);
#405=VERTEX_POINT('',#1232);
#406=VERTEX_POINT('',#1234);
#407=VERTEX_POINT('',#1236);
#408=VERTEX_POINT('',#1238);
#409=VERTEX_POINT('',#1242);
#410=VERTEX_POINT('',#1244);
#411=VERTEX_POINT('',#1248);
#412=VERTEX_POINT('',#1250);
#413=VERTEX_POINT('',#1254);
#414=VERTEX_POINT('',#1258);
#415=VERTEX_POINT('',#1262);
#416=VERTEX_POINT('',#1266);
#417=VERTEX_POINT('',#1270);
#418=VERTEX_POINT('',#1272);
#419=VERTEX_POINT('',#1276);
#420=VERTEX_POINT('',#1282);
#421=VERTEX_POINT('',#1286);
#422=VERTEX_POINT('',#1290);
#423=VERTEX_POINT('',#1294);
#424=VERTEX_POINT('',#1300);
#425=VERTEX_POINT('',#1302);
#426=VERTEX_POINT('',#1306);
#427=VERTEX_POINT('',#1310);
#428=VERTEX_POINT('',#1314);
#429=VERTEX_POINT('',#1318);
#430=VERTEX_POINT('',#1322);
#431=VERTEX_POINT('',#1326);
#432=VERTEX_POINT('',#1330);
#433=VERTEX_POINT('',#1334);
#434=VERTEX_POINT('',#1338);
#435=VERTEX_POINT('',#1342);
#436=VERTEX_POINT('',#1346);
#437=VERTEX_POINT('',#1353);
#438=VERTEX_POINT('',#1354);
#439=VERTEX_POINT('',#1358);
#440=VERTEX_POINT('',#1360);
#441=VERTEX_POINT('',#1366);
#442=VERTEX_POINT('',#1368);
#443=VERTEX_POINT('',#1370);
#444=VERTEX_POINT('',#1372);
#445=VERTEX_POINT('',#1374);
#446=VERTEX_POINT('',#1376);
#447=VERTEX_POINT('',#1380);
#448=VERTEX_POINT('',#1381);
#449=VERTEX_POINT('',#1385);
#450=VERTEX_POINT('',#1387);
#451=VERTEX_POINT('',#1396);
#452=VERTEX_POINT('',#1397);
#453=VERTEX_POINT('',#1401);
#454=VERTEX_POINT('',#1403);
#455=VERTEX_POINT('',#1412);
#456=VERTEX_POINT('',#1414);
#457=VERTEX_POINT('',#1416);
#458=VERTEX_POINT('',#1419);
#459=VERTEX_POINT('',#1421);
#460=VERTEX_POINT('',#1423);
#461=VERTEX_POINT('',#1426);
#462=VERTEX_POINT('',#1429);
#463=VERTEX_POINT('',#1431);
#464=VERTEX_POINT('',#1437);
#465=VERTEX_POINT('',#1439);
#466=VERTEX_POINT('',#1443);
#467=VERTEX_POINT('',#1444);
#468=VERTEX_POINT('',#1446);
#469=VERTEX_POINT('',#1451);
#470=VERTEX_POINT('',#1453);
#471=VERTEX_POINT('',#1455);
#472=EDGE_CURVE('',#394,#394,#382,.T.);
#473=EDGE_CURVE('',#394,#395,#170,.T.);
#474=EDGE_CURVE('',#395,#395,#383,.T.);
#475=EDGE_CURVE('',#396,#397,#171,.T.);
#476=EDGE_CURVE('',#398,#396,#172,.T.);
#477=EDGE_CURVE('',#399,#398,#173,.T.);
#478=EDGE_CURVE('',#400,#399,#174,.T.);
#479=EDGE_CURVE('',#401,#400,#175,.T.);
#480=EDGE_CURVE('',#402,#401,#176,.T.);
#481=EDGE_CURVE('',#403,#402,#177,.T.);
#482=EDGE_CURVE('',#404,#403,#178,.T.);
#483=EDGE_CURVE('',#405,#404,#179,.T.);
#484=EDGE_CURVE('',#406,#405,#180,.T.);
#485=EDGE_CURVE('',#407,#406,#181,.T.);
#486=EDGE_CURVE('',#408,#407,#182,.T.);
#487=EDGE_CURVE('',#397,#408,#183,.T.);
#488=EDGE_CURVE('',#394,#409,#184,.T.);
#489=EDGE_CURVE('',#409,#410,#384,.T.);
#490=EDGE_CURVE('',#410,#409,#385,.T.);
#491=EDGE_CURVE('',#402,#411,#185,.T.);
#492=EDGE_CURVE('',#411,#412,#186,.T.);
#493=EDGE_CURVE('',#403,#412,#187,.T.);
#494=EDGE_CURVE('',#401,#413,#188,.T.);
#495=EDGE_CURVE('',#413,#411,#189,.T.);
#496=EDGE_CURVE('',#400,#414,#190,.T.);
#497=EDGE_CURVE('',#414,#413,#191,.T.);
#498=EDGE_CURVE('',#399,#415,#192,.T.);
#499=EDGE_CURVE('',#415,#414,#193,.T.);
#500=EDGE_CURVE('',#398,#416,#194,.T.);
#501=EDGE_CURVE('',#416,#415,#195,.T.);
#502=EDGE_CURVE('',#397,#417,#196,.T.);
#503=EDGE_CURVE('',#417,#418,#197,.T.);
#504=EDGE_CURVE('',#418,#396,#198,.T.);
#505=EDGE_CURVE('',#419,#417,#199,.T.);
#506=EDGE_CURVE('',#408,#419,#200,.T.);
#507=EDGE_CURVE('',#418,#416,#201,.T.);
#508=EDGE_CURVE('',#420,#419,#202,.T.);
#509=EDGE_CURVE('',#407,#420,#203,.T.);
#510=EDGE_CURVE('',#421,#420,#204,.T.);
#511=EDGE_CURVE('',#406,#421,#205,.T.);
#512=EDGE_CURVE('',#422,#421,#206,.T.);
#513=EDGE_CURVE('',#405,#422,#207,.T.);
#514=EDGE_CURVE('',#423,#422,#208,.T.);
#515=EDGE_CURVE('',#404,#423,#209,.T.);
#516=EDGE_CURVE('',#412,#423,#210,.T.);
#517=EDGE_CURVE('',#411,#424,#211,.T.);
#518=EDGE_CURVE('',#424,#425,#212,.T.);
#519=EDGE_CURVE('',#412,#425,#213,.T.);
#520=EDGE_CURVE('',#413,#426,#214,.T.);
#521=EDGE_CURVE('',#426,#424,#215,.T.);
#522=EDGE_CURVE('',#414,#427,#216,.T.);
#523=EDGE_CURVE('',#427,#426,#217,.T.);
#524=EDGE_CURVE('',#415,#428,#218,.T.);
#525=EDGE_CURVE('',#428,#427,#219,.T.);
#526=EDGE_CURVE('',#416,#429,#220,.T.);
#527=EDGE_CURVE('',#429,#428,#221,.T.);
#528=EDGE_CURVE('',#418,#430,#222,.T.);
#529=EDGE_CURVE('',#430,#429,#223,.T.);
#530=EDGE_CURVE('',#417,#431,#224,.T.);
#531=EDGE_CURVE('',#431,#430,#225,.T.);
#532=EDGE_CURVE('',#419,#432,#226,.T.);
#533=EDGE_CURVE('',#432,#431,#227,.T.);
#534=EDGE_CURVE('',#420,#433,#228,.T.);
#535=EDGE_CURVE('',#433,#432,#229,.T.);
#536=EDGE_CURVE('',#421,#434,#230,.T.);
#537=EDGE_CURVE('',#434,#433,#231,.T.);
#538=EDGE_CURVE('',#422,#435,#232,.T.);
#539=EDGE_CURVE('',#435,#434,#233,.T.);
#540=EDGE_CURVE('',#423,#436,#234,.T.);
#541=EDGE_CURVE('',#436,#435,#235,.T.);
#542=EDGE_CURVE('',#425,#436,#236,.T.);
#543=EDGE_CURVE('',#437,#438,#18,.F.);
#544=EDGE_CURVE('',#438,#439,#386,.T.);
#545=EDGE_CURVE('',#440,#439,#19,.T.);
#546=EDGE_CURVE('',#440,#437,#387,.T.);
#547=EDGE_CURVE('',#437,#441,#237,.T.);
#548=EDGE_CURVE('',#442,#440,#238,.T.);
#549=EDGE_CURVE('',#443,#442,#239,.T.);
#550=EDGE_CURVE('',#444,#443,#240,.T.);
#551=EDGE_CURVE('',#444,#445,#388,.T.);
#552=EDGE_CURVE('',#446,#445,#241,.T.);
#553=EDGE_CURVE('',#441,#446,#242,.T.);
#554=EDGE_CURVE('',#447,#448,#20,.F.);
#555=EDGE_CURVE('',#448,#449,#389,.T.);
#556=EDGE_CURVE('',#449,#450,#21,.F.);
#557=EDGE_CURVE('',#450,#447,#390,.T.);
#558=EDGE_CURVE('',#445,#448,#243,.T.);
#559=EDGE_CURVE('',#449,#444,#244,.T.);
#560=EDGE_CURVE('',#451,#452,#22,.F.);
#561=EDGE_CURVE('',#452,#453,#391,.T.);
#562=EDGE_CURVE('',#453,#454,#23,.F.);
#563=EDGE_CURVE('',#454,#451,#392,.T.);
#564=EDGE_CURVE('',#453,#438,#245,.T.);
#565=EDGE_CURVE('',#439,#452,#246,.T.);
#566=EDGE_CURVE('',#450,#455,#247,.T.);
#567=EDGE_CURVE('',#456,#455,#248,.T.);
#568=EDGE_CURVE('',#457,#456,#249,.T.);
#569=EDGE_CURVE('',#457,#451,#250,.T.);
#570=EDGE_CURVE('',#454,#458,#251,.T.);
#571=EDGE_CURVE('',#459,#458,#252,.T.);
#572=EDGE_CURVE('',#460,#459,#253,.T.);
#573=EDGE_CURVE('',#460,#447,#254,.T.);
#574=EDGE_CURVE('',#461,#461,#393,.T.);
#575=EDGE_CURVE('',#441,#462,#255,.T.);
#576=EDGE_CURVE('',#462,#463,#256,.T.);
#577=EDGE_CURVE('',#458,#463,#257,.T.);
#578=EDGE_CURVE('',#461,#410,#258,.T.);
#579=EDGE_CURVE('',#457,#464,#259,.T.);
#580=EDGE_CURVE('',#464,#465,#260,.T.);
#581=EDGE_CURVE('',#442,#465,#261,.T.);
#582=EDGE_CURVE('',#466,#467,#262,.T.);
#583=EDGE_CURVE('',#468,#466,#263,.T.);
#584=EDGE_CURVE('',#463,#468,#264,.T.);
#585=EDGE_CURVE('',#467,#462,#265,.T.);
#586=EDGE_CURVE('',#469,#464,#266,.T.);
#587=EDGE_CURVE('',#470,#469,#267,.T.);
#588=EDGE_CURVE('',#471,#470,#268,.T.);
#589=EDGE_CURVE('',#465,#471,#269,.T.);
#590=EDGE_CURVE('',#459,#468,#270,.T.);
#591=EDGE_CURVE('',#443,#471,#271,.T.);
#592=EDGE_CURVE('',#455,#470,#272,.T.);
#593=EDGE_CURVE('',#446,#467,#273,.T.);
#594=EDGE_CURVE('',#460,#466,#274,.T.);
#595=EDGE_CURVE('',#456,#469,#275,.T.);
#596=ORIENTED_EDGE('',*,*,#472,.T.);
#597=ORIENTED_EDGE('',*,*,#473,.T.);
#598=ORIENTED_EDGE('',*,*,#474,.T.);
#599=ORIENTED_EDGE('',*,*,#473,.F.);
#600=ORIENTED_EDGE('',*,*,#474,.F.);
#601=ORIENTED_EDGE('',*,*,#475,.F.);
#602=ORIENTED_EDGE('',*,*,#476,.F.);
#603=ORIENTED_EDGE('',*,*,#477,.F.);
#604=ORIENTED_EDGE('',*,*,#478,.F.);
#605=ORIENTED_EDGE('',*,*,#479,.F.);
#606=ORIENTED_EDGE('',*,*,#480,.F.);
#607=ORIENTED_EDGE('',*,*,#481,.F.);
#608=ORIENTED_EDGE('',*,*,#482,.F.);
#609=ORIENTED_EDGE('',*,*,#483,.F.);
#610=ORIENTED_EDGE('',*,*,#484,.F.);
#611=ORIENTED_EDGE('',*,*,#485,.F.);
#612=ORIENTED_EDGE('',*,*,#486,.F.);
#613=ORIENTED_EDGE('',*,*,#487,.F.);
#614=ORIENTED_EDGE('',*,*,#472,.F.);
#615=ORIENTED_EDGE('',*,*,#488,.T.);
#616=ORIENTED_EDGE('',*,*,#489,.T.);
#617=ORIENTED_EDGE('',*,*,#490,.T.);
#618=ORIENTED_EDGE('',*,*,#488,.F.);
#619=ORIENTED_EDGE('',*,*,#481,.T.);
#620=ORIENTED_EDGE('',*,*,#491,.T.);
#621=ORIENTED_EDGE('',*,*,#492,.T.);
#622=ORIENTED_EDGE('',*,*,#493,.F.);
#623=ORIENTED_EDGE('',*,*,#480,.T.);
#624=ORIENTED_EDGE('',*,*,#494,.T.);
#625=ORIENTED_EDGE('',*,*,#495,.T.);
#626=ORIENTED_EDGE('',*,*,#491,.F.);
#627=ORIENTED_EDGE('',*,*,#479,.T.);
#628=ORIENTED_EDGE('',*,*,#496,.T.);
#629=ORIENTED_EDGE('',*,*,#497,.T.);
#630=ORIENTED_EDGE('',*,*,#494,.F.);
#631=ORIENTED_EDGE('',*,*,#478,.T.);
#632=ORIENTED_EDGE('',*,*,#498,.T.);
#633=ORIENTED_EDGE('',*,*,#499,.T.);
#634=ORIENTED_EDGE('',*,*,#496,.F.);
#635=ORIENTED_EDGE('',*,*,#477,.T.);
#636=ORIENTED_EDGE('',*,*,#500,.T.);
#637=ORIENTED_EDGE('',*,*,#501,.T.);
#638=ORIENTED_EDGE('',*,*,#498,.F.);
#639=ORIENTED_EDGE('',*,*,#475,.T.);
#640=ORIENTED_EDGE('',*,*,#502,.T.);
#641=ORIENTED_EDGE('',*,*,#503,.T.);
#642=ORIENTED_EDGE('',*,*,#504,.T.);
#643=ORIENTED_EDGE('',*,*,#505,.T.);
#644=ORIENTED_EDGE('',*,*,#502,.F.);
#645=ORIENTED_EDGE('',*,*,#487,.T.);
#646=ORIENTED_EDGE('',*,*,#506,.T.);
#647=ORIENTED_EDGE('',*,*,#476,.T.);
#648=ORIENTED_EDGE('',*,*,#504,.F.);
#649=ORIENTED_EDGE('',*,*,#507,.T.);
#650=ORIENTED_EDGE('',*,*,#500,.F.);
#651=ORIENTED_EDGE('',*,*,#508,.T.);
#652=ORIENTED_EDGE('',*,*,#506,.F.);
#653=ORIENTED_EDGE('',*,*,#486,.T.);
#654=ORIENTED_EDGE('',*,*,#509,.T.);
#655=ORIENTED_EDGE('',*,*,#510,.T.);
#656=ORIENTED_EDGE('',*,*,#509,.F.);
#657=ORIENTED_EDGE('',*,*,#485,.T.);
#658=ORIENTED_EDGE('',*,*,#511,.T.);
#659=ORIENTED_EDGE('',*,*,#512,.T.);
#660=ORIENTED_EDGE('',*,*,#511,.F.);
#661=ORIENTED_EDGE('',*,*,#484,.T.);
#662=ORIENTED_EDGE('',*,*,#513,.T.);
#663=ORIENTED_EDGE('',*,*,#514,.T.);
#664=ORIENTED_EDGE('',*,*,#513,.F.);
#665=ORIENTED_EDGE('',*,*,#483,.T.);
#666=ORIENTED_EDGE('',*,*,#515,.T.);
#667=ORIENTED_EDGE('',*,*,#516,.T.);
#668=ORIENTED_EDGE('',*,*,#515,.F.);
#669=ORIENTED_EDGE('',*,*,#482,.T.);
#670=ORIENTED_EDGE('',*,*,#493,.T.);
#671=ORIENTED_EDGE('',*,*,#492,.F.);
#672=ORIENTED_EDGE('',*,*,#517,.T.);
#673=ORIENTED_EDGE('',*,*,#518,.T.);
#674=ORIENTED_EDGE('',*,*,#519,.F.);
#675=ORIENTED_EDGE('',*,*,#495,.F.);
#676=ORIENTED_EDGE('',*,*,#520,.T.);
#677=ORIENTED_EDGE('',*,*,#521,.T.);
#678=ORIENTED_EDGE('',*,*,#517,.F.);
#679=ORIENTED_EDGE('',*,*,#497,.F.);
#680=ORIENTED_EDGE('',*,*,#522,.T.);
#681=ORIENTED_EDGE('',*,*,#523,.T.);
#682=ORIENTED_EDGE('',*,*,#520,.F.);
#683=ORIENTED_EDGE('',*,*,#499,.F.);
#684=ORIENTED_EDGE('',*,*,#524,.T.);
#685=ORIENTED_EDGE('',*,*,#525,.T.);
#686=ORIENTED_EDGE('',*,*,#522,.F.);
#687=ORIENTED_EDGE('',*,*,#501,.F.);
#688=ORIENTED_EDGE('',*,*,#526,.T.);
#689=ORIENTED_EDGE('',*,*,#527,.T.);
#690=ORIENTED_EDGE('',*,*,#524,.F.);
#691=ORIENTED_EDGE('',*,*,#507,.F.);
#692=ORIENTED_EDGE('',*,*,#528,.T.);
#693=ORIENTED_EDGE('',*,*,#529,.T.);
#694=ORIENTED_EDGE('',*,*,#526,.F.);
#695=ORIENTED_EDGE('',*,*,#503,.F.);
#696=ORIENTED_EDGE('',*,*,#530,.T.);
#697=ORIENTED_EDGE('',*,*,#531,.T.);
#698=ORIENTED_EDGE('',*,*,#528,.F.);
#699=ORIENTED_EDGE('',*,*,#505,.F.);
#700=ORIENTED_EDGE('',*,*,#532,.T.);
#701=ORIENTED_EDGE('',*,*,#533,.T.);
#702=ORIENTED_EDGE('',*,*,#530,.F.);
#703=ORIENTED_EDGE('',*,*,#508,.F.);
#704=ORIENTED_EDGE('',*,*,#534,.T.);
#705=ORIENTED_EDGE('',*,*,#535,.T.);
#706=ORIENTED_EDGE('',*,*,#532,.F.);
#707=ORIENTED_EDGE('',*,*,#510,.F.);
#708=ORIENTED_EDGE('',*,*,#536,.T.);
#709=ORIENTED_EDGE('',*,*,#537,.T.);
#710=ORIENTED_EDGE('',*,*,#534,.F.);
#711=ORIENTED_EDGE('',*,*,#512,.F.);
#712=ORIENTED_EDGE('',*,*,#538,.T.);
#713=ORIENTED_EDGE('',*,*,#539,.T.);
#714=ORIENTED_EDGE('',*,*,#536,.F.);
#715=ORIENTED_EDGE('',*,*,#514,.F.);
#716=ORIENTED_EDGE('',*,*,#540,.T.);
#717=ORIENTED_EDGE('',*,*,#541,.T.);
#718=ORIENTED_EDGE('',*,*,#538,.F.);
#719=ORIENTED_EDGE('',*,*,#516,.F.);
#720=ORIENTED_EDGE('',*,*,#519,.T.);
#721=ORIENTED_EDGE('',*,*,#542,.T.);
#722=ORIENTED_EDGE('',*,*,#540,.F.);
#723=ORIENTED_EDGE('',*,*,#529,.F.);
#724=ORIENTED_EDGE('',*,*,#531,.F.);
#725=ORIENTED_EDGE('',*,*,#533,.F.);
#726=ORIENTED_EDGE('',*,*,#535,.F.);
#727=ORIENTED_EDGE('',*,*,#537,.F.);
#728=ORIENTED_EDGE('',*,*,#539,.F.);
#729=ORIENTED_EDGE('',*,*,#541,.F.);
#730=ORIENTED_EDGE('',*,*,#542,.F.);
#731=ORIENTED_EDGE('',*,*,#518,.F.);
#732=ORIENTED_EDGE('',*,*,#521,.F.);
#733=ORIENTED_EDGE('',*,*,#523,.F.);
#734=ORIENTED_EDGE('',*,*,#525,.F.);
#735=ORIENTED_EDGE('',*,*,#527,.F.);
#736=ORIENTED_EDGE('',*,*,#543,.T.);
#737=ORIENTED_EDGE('',*,*,#544,.T.);
#738=ORIENTED_EDGE('',*,*,#545,.F.);
#739=ORIENTED_EDGE('',*,*,#546,.T.);
#740=ORIENTED_EDGE('',*,*,#547,.F.);
#741=ORIENTED_EDGE('',*,*,#546,.F.);
#742=ORIENTED_EDGE('',*,*,#548,.F.);
#743=ORIENTED_EDGE('',*,*,#549,.F.);
#744=ORIENTED_EDGE('',*,*,#550,.F.);
#745=ORIENTED_EDGE('',*,*,#551,.T.);
#746=ORIENTED_EDGE('',*,*,#552,.F.);
#747=ORIENTED_EDGE('',*,*,#553,.F.);
#748=ORIENTED_EDGE('',*,*,#554,.T.);
#749=ORIENTED_EDGE('',*,*,#555,.T.);
#750=ORIENTED_EDGE('',*,*,#556,.T.);
#751=ORIENTED_EDGE('',*,*,#557,.T.);
#752=ORIENTED_EDGE('',*,*,#555,.F.);
#753=ORIENTED_EDGE('',*,*,#558,.F.);
#754=ORIENTED_EDGE('',*,*,#551,.F.);
#755=ORIENTED_EDGE('',*,*,#559,.F.);
#756=ORIENTED_EDGE('',*,*,#560,.T.);
#757=ORIENTED_EDGE('',*,*,#561,.T.);
#758=ORIENTED_EDGE('',*,*,#562,.T.);
#759=ORIENTED_EDGE('',*,*,#563,.T.);
#760=ORIENTED_EDGE('',*,*,#544,.F.);
#761=ORIENTED_EDGE('',*,*,#564,.F.);
#762=ORIENTED_EDGE('',*,*,#561,.F.);
#763=ORIENTED_EDGE('',*,*,#565,.F.);
#764=ORIENTED_EDGE('',*,*,#566,.T.);
#765=ORIENTED_EDGE('',*,*,#567,.F.);
#766=ORIENTED_EDGE('',*,*,#568,.F.);
#767=ORIENTED_EDGE('',*,*,#569,.T.);
#768=ORIENTED_EDGE('',*,*,#563,.F.);
#769=ORIENTED_EDGE('',*,*,#570,.T.);
#770=ORIENTED_EDGE('',*,*,#571,.F.);
#771=ORIENTED_EDGE('',*,*,#572,.F.);
#772=ORIENTED_EDGE('',*,*,#573,.T.);
#773=ORIENTED_EDGE('',*,*,#557,.F.);
#774=ORIENTED_EDGE('',*,*,#574,.T.);
#775=ORIENTED_EDGE('',*,*,#564,.T.);
#776=ORIENTED_EDGE('',*,*,#543,.F.);
#777=ORIENTED_EDGE('',*,*,#547,.T.);
#778=ORIENTED_EDGE('',*,*,#575,.T.);
#779=ORIENTED_EDGE('',*,*,#576,.T.);
#780=ORIENTED_EDGE('',*,*,#577,.F.);
#781=ORIENTED_EDGE('',*,*,#570,.F.);
#782=ORIENTED_EDGE('',*,*,#562,.F.);
#783=ORIENTED_EDGE('',*,*,#574,.F.);
#784=ORIENTED_EDGE('',*,*,#578,.T.);
#785=ORIENTED_EDGE('',*,*,#489,.F.);
#786=ORIENTED_EDGE('',*,*,#490,.F.);
#787=ORIENTED_EDGE('',*,*,#578,.F.);
#788=ORIENTED_EDGE('',*,*,#548,.T.);
#789=ORIENTED_EDGE('',*,*,#545,.T.);
#790=ORIENTED_EDGE('',*,*,#565,.T.);
#791=ORIENTED_EDGE('',*,*,#560,.F.);
#792=ORIENTED_EDGE('',*,*,#569,.F.);
#793=ORIENTED_EDGE('',*,*,#579,.T.);
#794=ORIENTED_EDGE('',*,*,#580,.T.);
#795=ORIENTED_EDGE('',*,*,#581,.F.);
#796=ORIENTED_EDGE('',*,*,#582,.F.);
#797=ORIENTED_EDGE('',*,*,#583,.F.);
#798=ORIENTED_EDGE('',*,*,#584,.F.);
#799=ORIENTED_EDGE('',*,*,#576,.F.);
#800=ORIENTED_EDGE('',*,*,#585,.F.);
#801=ORIENTED_EDGE('',*,*,#586,.F.);
#802=ORIENTED_EDGE('',*,*,#587,.F.);
#803=ORIENTED_EDGE('',*,*,#588,.F.);
#804=ORIENTED_EDGE('',*,*,#589,.F.);
#805=ORIENTED_EDGE('',*,*,#580,.F.);
#806=ORIENTED_EDGE('',*,*,#584,.T.);
#807=ORIENTED_EDGE('',*,*,#590,.F.);
#808=ORIENTED_EDGE('',*,*,#571,.T.);
#809=ORIENTED_EDGE('',*,*,#577,.T.);
#810=ORIENTED_EDGE('',*,*,#589,.T.);
#811=ORIENTED_EDGE('',*,*,#591,.F.);
#812=ORIENTED_EDGE('',*,*,#549,.T.);
#813=ORIENTED_EDGE('',*,*,#581,.T.);
#814=ORIENTED_EDGE('',*,*,#550,.T.);
#815=ORIENTED_EDGE('',*,*,#591,.T.);
#816=ORIENTED_EDGE('',*,*,#588,.T.);
#817=ORIENTED_EDGE('',*,*,#592,.F.);
#818=ORIENTED_EDGE('',*,*,#566,.F.);
#819=ORIENTED_EDGE('',*,*,#556,.F.);
#820=ORIENTED_EDGE('',*,*,#559,.T.);
#821=ORIENTED_EDGE('',*,*,#585,.T.);
#822=ORIENTED_EDGE('',*,*,#575,.F.);
#823=ORIENTED_EDGE('',*,*,#553,.T.);
#824=ORIENTED_EDGE('',*,*,#593,.T.);
#825=ORIENTED_EDGE('',*,*,#583,.T.);
#826=ORIENTED_EDGE('',*,*,#594,.F.);
#827=ORIENTED_EDGE('',*,*,#572,.T.);
#828=ORIENTED_EDGE('',*,*,#590,.T.);
#829=ORIENTED_EDGE('',*,*,#558,.T.);
#830=ORIENTED_EDGE('',*,*,#554,.F.);
#831=ORIENTED_EDGE('',*,*,#573,.F.);
#832=ORIENTED_EDGE('',*,*,#594,.T.);
#833=ORIENTED_EDGE('',*,*,#582,.T.);
#834=ORIENTED_EDGE('',*,*,#593,.F.);
#835=ORIENTED_EDGE('',*,*,#552,.T.);
#836=ORIENTED_EDGE('',*,*,#587,.T.);
#837=ORIENTED_EDGE('',*,*,#595,.F.);
#838=ORIENTED_EDGE('',*,*,#567,.T.);
#839=ORIENTED_EDGE('',*,*,#592,.T.);
#840=ORIENTED_EDGE('',*,*,#586,.T.);
#841=ORIENTED_EDGE('',*,*,#579,.F.);
#842=ORIENTED_EDGE('',*,*,#568,.T.);
#843=ORIENTED_EDGE('',*,*,#595,.T.);
#844=CONICAL_SURFACE('',#913,4.13535533905933,1.17809724509617);
#845=CONICAL_SURFACE('',#917,4.5,0.785398163397449);
#846=CONICAL_SURFACE('',#947,4.75,0.785398163397448);
#847=CONICAL_SURFACE('',#952,6.,0.785398163397448);
#848=CONICAL_SURFACE('',#956,6.,0.785398163397448);
#849=ADVANCED_FACE('',(#68),#844,.T.);
#850=ADVANCED_FACE('',(#69,#24),#26,.T.);
#851=ADVANCED_FACE('',(#70),#845,.T.);
#852=ADVANCED_FACE('',(#71),#27,.T.);
#853=ADVANCED_FACE('',(#72),#28,.T.);
#854=ADVANCED_FACE('',(#73),#29,.T.);
#855=ADVANCED_FACE('',(#74),#30,.T.);
#856=ADVANCED_FACE('',(#75),#31,.T.);
#857=ADVANCED_FACE('',(#76),#32,.T.);
#858=ADVANCED_FACE('',(#77),#33,.T.);
#859=ADVANCED_FACE('',(#78),#34,.T.);
#860=ADVANCED_FACE('',(#79),#35,.T.);
#861=ADVANCED_FACE('',(#80),#36,.T.);
#862=ADVANCED_FACE('',(#81),#37,.T.);
#863=ADVANCED_FACE('',(#82),#38,.T.);
#864=ADVANCED_FACE('',(#83),#39,.T.);
#865=ADVANCED_FACE('',(#84),#40,.F.);
#866=ADVANCED_FACE('',(#85),#41,.F.);
#867=ADVANCED_FACE('',(#86),#42,.F.);
#868=ADVANCED_FACE('',(#87),#43,.F.);
#869=ADVANCED_FACE('',(#88),#44,.F.);
#870=ADVANCED_FACE('',(#89),#45,.F.);
#871=ADVANCED_FACE('',(#90),#46,.F.);
#872=ADVANCED_FACE('',(#91),#47,.F.);
#873=ADVANCED_FACE('',(#92),#48,.F.);
#874=ADVANCED_FACE('',(#93),#49,.F.);
#875=ADVANCED_FACE('',(#94),#50,.F.);
#876=ADVANCED_FACE('',(#95),#51,.F.);
#877=ADVANCED_FACE('',(#96),#52,.F.);
#878=ADVANCED_FACE('',(#97),#53,.F.);
#879=ADVANCED_FACE('',(#98),#846,.T.);
#880=ADVANCED_FACE('',(#99),#54,.T.);
#881=ADVANCED_FACE('',(#100),#847,.T.);
#882=ADVANCED_FACE('',(#101),#15,.T.);
#883=ADVANCED_FACE('',(#102),#848,.T.);
#884=ADVANCED_FACE('',(#103),#16,.T.);
#885=ADVANCED_FACE('',(#104,#25),#55,.F.);
#886=ADVANCED_FACE('',(#105),#56,.T.);
#887=ADVANCED_FACE('',(#106),#17,.T.);
#888=ADVANCED_FACE('',(#107),#57,.T.);
#889=ADVANCED_FACE('',(#108),#58,.F.);
#890=ADVANCED_FACE('',(#109),#59,.F.);
#891=ADVANCED_FACE('',(#110),#60,.T.);
#892=ADVANCED_FACE('',(#111),#61,.T.);
#893=ADVANCED_FACE('',(#112),#62,.T.);
#894=ADVANCED_FACE('',(#113),#63,.T.);
#895=ADVANCED_FACE('',(#114),#64,.T.);
#896=ADVANCED_FACE('',(#115),#65,.T.);
#897=ADVANCED_FACE('',(#116),#66,.T.);
#898=ADVANCED_FACE('',(#117),#67,.T.);
#899=CLOSED_SHELL('',(#849,#850,#851,#852,#853,#854,#855,#856,#857,#858,
#859,#860,#861,#862,#863,#864,#865,#866,#867,#868,#869,#870,#871,#872,#873,
#874,#875,#876,#877,#878,#879,#880,#881,#882,#883,#884,#885,#886,#887,#888,
#889,#890,#891,#892,#893,#894,#895,#896,#897,#898));
#900=DERIVED_UNIT_ELEMENT(#902,1.);
#901=DERIVED_UNIT_ELEMENT(#1477,-3.);
#902=(
MASS_UNIT()
NAMED_UNIT(*)
SI_UNIT(.KILO.,.GRAM.)
);
#903=DERIVED_UNIT((#900,#901));
#904=MEASURE_REPRESENTATION_ITEM('density measure',
POSITIVE_RATIO_MEASURE(7850.),#903);
#905=PROPERTY_DEFINITION_REPRESENTATION(#910,#907);
#906=PROPERTY_DEFINITION_REPRESENTATION(#911,#908);
#907=REPRESENTATION('material name',(#909),#1474);
#908=REPRESENTATION('density',(#904),#1474);
#909=DESCRIPTIVE_REPRESENTATION_ITEM('Steel','Steel');
#910=PROPERTY_DEFINITION('material property','material name',#1484);
#911=PROPERTY_DEFINITION('material property','density of part',#1484);
#912=AXIS2_PLACEMENT_3D('',#1207,#975,#976);
#913=AXIS2_PLACEMENT_3D('',#1208,#977,#978);
#914=AXIS2_PLACEMENT_3D('',#1210,#979,#980);
#915=AXIS2_PLACEMENT_3D('',#1213,#982,#983);
#916=AXIS2_PLACEMENT_3D('',#1214,#984,#985);
#917=AXIS2_PLACEMENT_3D('',#1241,#999,#1000);
#918=AXIS2_PLACEMENT_3D('',#1245,#1002,#1003);
#919=AXIS2_PLACEMENT_3D('',#1246,#1004,#1005);
#920=AXIS2_PLACEMENT_3D('',#1247,#1006,#1007);
#921=AXIS2_PLACEMENT_3D('',#1253,#1011,#1012);
#922=AXIS2_PLACEMENT_3D('',#1257,#1015,#1016);
#923=AXIS2_PLACEMENT_3D('',#1261,#1019,#1020);
#924=AXIS2_PLACEMENT_3D('',#1265,#1023,#1024);
#925=AXIS2_PLACEMENT_3D('',#1269,#1027,#1028);
#926=AXIS2_PLACEMENT_3D('',#1275,#1032,#1033);
#927=AXIS2_PLACEMENT_3D('',#1279,#1036,#1037);
#928=AXIS2_PLACEMENT_3D('',#1281,#1039,#1040);
#929=AXIS2_PLACEMENT_3D('',#1285,#1043,#1044);
#930=AXIS2_PLACEMENT_3D('',#1289,#1047,#1048);
#931=AXIS2_PLACEMENT_3D('',#1293,#1051,#1052);
#932=AXIS2_PLACEMENT_3D('',#1297,#1055,#1056);
#933=AXIS2_PLACEMENT_3D('',#1299,#1058,#1059);
#934=AXIS2_PLACEMENT_3D('',#1305,#1063,#1064);
#935=AXIS2_PLACEMENT_3D('',#1309,#1067,#1068);
#936=AXIS2_PLACEMENT_3D('',#1313,#1071,#1072);
#937=AXIS2_PLACEMENT_3D('',#1317,#1075,#1076);
#938=AXIS2_PLACEMENT_3D('',#1321,#1079,#1080);
#939=AXIS2_PLACEMENT_3D('',#1325,#1083,#1084);
#940=AXIS2_PLACEMENT_3D('',#1329,#1087,#1088);
#941=AXIS2_PLACEMENT_3D('',#1333,#1091,#1092);
#942=AXIS2_PLACEMENT_3D('',#1337,#1095,#1096);
#943=AXIS2_PLACEMENT_3D('',#1341,#1099,#1100);
#944=AXIS2_PLACEMENT_3D('',#1345,#1103,#1104);
#945=AXIS2_PLACEMENT_3D('',#1349,#1107,#1108);
#946=AXIS2_PLACEMENT_3D('',#1351,#1110,#1111);
#947=AXIS2_PLACEMENT_3D('',#1352,#1112,#1113);
#948=AXIS2_PLACEMENT_3D('',#1359,#1114,#1115);
#949=AXIS2_PLACEMENT_3D('',#1364,#1116,#1117);
#950=AXIS2_PLACEMENT_3D('',#1365,#1118,#1119);
#951=AXIS2_PLACEMENT_3D('',#1375,#1124,#1125);
#952=AXIS2_PLACEMENT_3D('',#1379,#1128,#1129);
#953=AXIS2_PLACEMENT_3D('',#1386,#1130,#1131);
#954=AXIS2_PLACEMENT_3D('',#1391,#1132,#1133);
#955=AXIS2_PLACEMENT_3D('',#1392,#1134,#1135);
#956=AXIS2_PLACEMENT_3D('',#1395,#1138,#1139);
#957=AXIS2_PLACEMENT_3D('',#1402,#1140,#1141);
#958=AXIS2_PLACEMENT_3D('',#1407,#1142,#1143);
#959=AXIS2_PLACEMENT_3D('',#1408,#1144,#1145);
#960=AXIS2_PLACEMENT_3D('',#1411,#1148,#1149);
#961=AXIS2_PLACEMENT_3D('',#1427,#1158,#1159);
#962=AXIS2_PLACEMENT_3D('',#1428,#1160,#1161);
#963=AXIS2_PLACEMENT_3D('',#1434,#1165,#1166);
#964=AXIS2_PLACEMENT_3D('',#1436,#1168,#1169);
#965=AXIS2_PLACEMENT_3D('',#1442,#1173,#1174);
#966=AXIS2_PLACEMENT_3D('',#1450,#1179,#1180);
#967=AXIS2_PLACEMENT_3D('',#1458,#1185,#1186);
#968=AXIS2_PLACEMENT_3D('',#1460,#1188,#1189);
#969=AXIS2_PLACEMENT_3D('',#1462,#1191,#1192);
#970=AXIS2_PLACEMENT_3D('',#1464,#1194,#1195);
#971=AXIS2_PLACEMENT_3D('',#1466,#1197,#1198);
#972=AXIS2_PLACEMENT_3D('',#1468,#1200,#1201);
#973=AXIS2_PLACEMENT_3D('',#1469,#1202,#1203);
#974=AXIS2_PLACEMENT_3D('',#1471,#1205,#1206);
#975=DIRECTION('axis',(0.,0.,1.));
#976=DIRECTION('refdir',(1.,0.,0.));
#977=DIRECTION('center_axis',(0.,3.92523114670961E-15,-1.));
#978=DIRECTION('ref_axis',(-1.,-3.3558876251179E-17,0.));
#979=DIRECTION('center_axis',(-1.72977374948242E-32,2.63041726688556E-16,
1.));
#980=DIRECTION('ref_axis',(-1.,-6.5760431672139E-17,0.));
#981=DIRECTION('',(-0.923879532511287,-1.41998267572296E-15,0.382683432365089));
#982=DIRECTION('center_axis',(0.,0.,-1.));
#983=DIRECTION('ref_axis',(-1.,0.,0.));
#984=DIRECTION('center_axis',(0.,0.,1.));
#985=DIRECTION('ref_axis',(-1.,0.,0.));
#986=DIRECTION('',(8.29282014360476E-33,-1.,0.));
#987=DIRECTION('',(-1.,-2.00396356836697E-33,0.));
#988=DIRECTION('',(-8.29282014360476E-33,1.,0.));
#989=DIRECTION('',(0.745014629375046,0.667048125712953,0.));
#990=DIRECTION('',(-8.29282014360476E-33,1.,0.));
#991=DIRECTION('',(1.,2.00396356836697E-33,0.));
#992=DIRECTION('',(8.29282014360476E-33,-1.,0.));
#993=DIRECTION('',(0.745014696386264,-0.667048050869263,0.));
#994=DIRECTION('',(8.29282014360476E-33,-1.,0.));
#995=DIRECTION('',(-1.,-2.00396356836697E-33,0.));
#996=DIRECTION('',(-8.29282014360476E-33,1.,0.));
#997=DIRECTION('',(-0.741959138760704,0.670445103203442,0.));
#998=DIRECTION('',(-0.743958268724126,-0.668226080302917,0.));
#999=DIRECTION('center_axis',(0.,0.,-1.));
#1000=DIRECTION('ref_axis',(-1.,0.,0.));
#1001=DIRECTION('',(0.707106781186548,8.65956056235494E-17,-0.707106781186547));
#1002=DIRECTION('center_axis',(0.,0.,1.));
#1003=DIRECTION('ref_axis',(-1.,0.,0.));
#1004=DIRECTION('center_axis',(0.,0.,1.));
#1005=DIRECTION('ref_axis',(-1.,0.,0.));
#1006=DIRECTION('center_axis',(0.707106781186587,5.86390935870365E-33,0.707106781186508));
#1007=DIRECTION('ref_axis',(0.707106781186508,0.,-0.707106781186587));
#1008=DIRECTION('',(0.577350269189583,0.577350269189647,-0.577350269189647));
#1009=DIRECTION('',(-8.29282014360476E-33,1.,0.));
#1010=DIRECTION('',(0.6742419324581,0.301323137230174,-0.674241932458175));
#1011=DIRECTION('center_axis',(-1.41701622844308E-33,0.707106781186548,
0.707106781186548));
#1012=DIRECTION('ref_axis',(1.,0.,2.00396356836697E-33));
#1013=DIRECTION('',(-0.577350269189651,0.577350269189613,-0.577350269189613));
#1014=DIRECTION('',(-1.,-2.00396356836697E-33,0.));
#1015=DIRECTION('center_axis',(-0.707106781186524,-5.86390935870313E-33,
0.707106781186571));
#1016=DIRECTION('ref_axis',(0.707106781186571,0.,0.707106781186524));
#1017=DIRECTION('',(-0.674241940712981,0.301323100288124,-0.674241940712936));
#1018=DIRECTION('',(8.29282014360476E-33,-1.,0.));
#1019=DIRECTION('center_axis',(-0.471674253069396,0.526804896514267,0.707106781186561));
#1020=DIRECTION('ref_axis',(0.831903801996316,0.,0.554919871895101));
#1021=DIRECTION('',(-0.674241940712981,0.301323100288125,-0.674241940712936));
#1022=DIRECTION('',(-0.745014629375046,-0.667048125712953,0.));
#1023=DIRECTION('center_axis',(-0.707106781186524,-5.86390935870313E-33,
0.707106781186571));
#1024=DIRECTION('ref_axis',(0.707106781186571,0.,0.707106781186524));
#1025=DIRECTION('',(-0.577350269189651,-0.577350269189613,-0.577350269189613));
#1026=DIRECTION('',(8.29282014360476E-33,-1.,0.));
#1027=DIRECTION('center_axis',(0.707106781186587,5.86390935870365E-33,0.707106781186508));
#1028=DIRECTION('ref_axis',(0.707106781186508,0.,-0.707106781186587));
#1029=DIRECTION('',(0.674371807548314,-0.300741301400285,-0.674371807548389));
#1030=DIRECTION('',(-8.29282014360476E-33,1.,0.));
#1031=DIRECTION('',(-0.577350269189583,0.577350269189647,0.577350269189647));
#1032=DIRECTION('center_axis',(0.472507192747892,-0.526057936734626,0.707106781186558));
#1033=DIRECTION('ref_axis',(0.831451390162775,0.,-0.555597503410867));
#1034=DIRECTION('',(0.743958268724126,0.668226080302917,0.));
#1035=DIRECTION('',(-0.00119873263435741,-0.802703607929459,-0.596376962044226));
#1036=DIRECTION('center_axis',(1.41701622844308E-33,-0.707106781186548,
0.707106781186548));
#1037=DIRECTION('ref_axis',(1.,0.,-2.00396356836697E-33));
#1038=DIRECTION('',(1.,2.00396356836697E-33,0.));
#1039=DIRECTION('center_axis',(-0.474076278888481,-0.524644338381038,0.70710678118653));
#1040=DIRECTION('ref_axis',(0.830598981150051,0.,0.556871019637849));
#1041=DIRECTION('',(0.741959138760704,-0.670445103203442,0.));
#1042=DIRECTION('',(-0.674616155598739,-0.299643263248846,-0.674616155598694));
#1043=DIRECTION('center_axis',(-0.707106781186524,-5.86390935870313E-33,
0.707106781186571));
#1044=DIRECTION('ref_axis',(0.707106781186571,0.,0.707106781186524));
#1045=DIRECTION('',(8.29282014360476E-33,-1.,0.));
#1046=DIRECTION('',(-0.577350269189651,-0.577350269189613,-0.577350269189613));
#1047=DIRECTION('center_axis',(1.41701622844308E-33,-0.707106781186548,
0.707106781186548));
#1048=DIRECTION('ref_axis',(1.,0.,-2.00396356836697E-33));
#1049=DIRECTION('',(1.,2.00396356836697E-33,0.));
#1050=DIRECTION('',(0.577350269189583,-0.577350269189647,-0.577350269189647));
#1051=DIRECTION('center_axis',(0.707106781186587,5.86390935870365E-33,0.707106781186508));
#1052=DIRECTION('ref_axis',(0.707106781186508,0.,-0.707106781186587));
#1053=DIRECTION('',(-8.29282014360476E-33,1.,0.));
#1054=DIRECTION('',(0.6742419324581,0.301323137230172,-0.674241932458175));
#1055=DIRECTION('center_axis',(0.471674200146915,0.526804943898353,0.707106781186562));
#1056=DIRECTION('ref_axis',(0.831903830739289,0.,-0.554919828805293));
#1057=DIRECTION('',(-0.745014696386264,0.667048050869263,0.));
#1058=DIRECTION('center_axis',(-1.,-8.29282014360476E-33,0.));
#1059=DIRECTION('ref_axis',(-8.29282014360476E-33,1.,4.11976641627083E-18));
#1060=DIRECTION('',(0.,0.,-1.));
#1061=DIRECTION('',(-8.29282014360476E-33,1.,4.11976641627083E-18));
#1062=DIRECTION('',(0.,0.,-1.));
#1063=DIRECTION('center_axis',(2.00396356836697E-33,-1.,0.));
#1064=DIRECTION('ref_axis',(-1.,-2.00396356836697E-33,-1.52650804433966E-15));
#1065=DIRECTION('',(0.,0.,-1.));
#1066=DIRECTION('',(-1.,-2.00396356836697E-33,-1.52650804433966E-15));
#1067=DIRECTION('center_axis',(1.,8.29282014360476E-33,0.));
#1068=DIRECTION('ref_axis',(8.29282014360476E-33,-1.,-4.11976641627083E-18));
#1069=DIRECTION('',(0.,0.,-1.));
#1070=DIRECTION('',(8.29282014360476E-33,-1.,-4.11976641627083E-18));
#1071=DIRECTION('center_axis',(0.667048125712953,-0.745014629375046,0.));
#1072=DIRECTION('ref_axis',(-0.745014629375046,-0.667048125712953,-1.14001890735809E-15));
#1073=DIRECTION('',(0.,0.,-1.));
#1074=DIRECTION('',(-0.745014629375046,-0.667048125712953,-1.14001890735809E-15));
#1075=DIRECTION('center_axis',(1.,8.29282014360476E-33,0.));
#1076=DIRECTION('ref_axis',(8.29282014360476E-33,-1.,-4.11976641627083E-18));
#1077=DIRECTION('',(0.,0.,-1.));
#1078=DIRECTION('',(8.29282014360476E-33,-1.,-4.11976641627083E-18));
#1079=DIRECTION('center_axis',(-2.00396356836697E-33,1.,0.));
#1080=DIRECTION('ref_axis',(1.,2.00396356836697E-33,1.52650804433966E-15));
#1081=DIRECTION('',(0.,0.,-1.));
#1082=DIRECTION('',(1.,2.00396356836697E-33,1.52650804433966E-15));
#1083=DIRECTION('center_axis',(-1.,-8.29282014360476E-33,0.));
#1084=DIRECTION('ref_axis',(-8.29282014360476E-33,1.,4.11976641627083E-18));
#1085=DIRECTION('',(0.,0.,-1.));
#1086=DIRECTION('',(-8.29282014360476E-33,1.,4.11976641627083E-18));
#1087=DIRECTION('center_axis',(-0.668226080302917,0.743958268724126,0.));
#1088=DIRECTION('ref_axis',(0.743958268724126,0.668226080302917,1.13841121722449E-15));
#1089=DIRECTION('',(0.,0.,-1.));
#1090=DIRECTION('',(0.743958268724126,0.668226080302917,1.13841121722449E-15));
#1091=DIRECTION('center_axis',(0.670445103203443,0.741959138760704,0.));
#1092=DIRECTION('ref_axis',(0.741959138760704,-0.670445103203442,1.12984451666941E-15));
#1093=DIRECTION('',(0.,0.,-1.));
#1094=DIRECTION('',(0.741959138760704,-0.670445103203442,1.12984451666941E-15));
#1095=DIRECTION('center_axis',(1.,8.29282014360476E-33,0.));
#1096=DIRECTION('ref_axis',(8.29282014360476E-33,-1.,-4.11976641627083E-18));
#1097=DIRECTION('',(0.,0.,-1.));
#1098=DIRECTION('',(8.29282014360476E-33,-1.,-4.11976641627083E-18));
#1099=DIRECTION('center_axis',(-2.00396356836697E-33,1.,0.));
#1100=DIRECTION('ref_axis',(1.,2.00396356836697E-33,1.52650804433966E-15));
#1101=DIRECTION('',(0.,0.,-1.));
#1102=DIRECTION('',(1.,2.00396356836697E-33,1.52650804433966E-15));
#1103=DIRECTION('center_axis',(-1.,-8.29282014360476E-33,0.));
#1104=DIRECTION('ref_axis',(-8.29282014360476E-33,1.,4.11976641627083E-18));
#1105=DIRECTION('',(0.,0.,-1.));
#1106=DIRECTION('',(-8.29282014360476E-33,1.,4.11976641627083E-18));
#1107=DIRECTION('center_axis',(-0.667048050869263,-0.745014696386264,0.));
#1108=DIRECTION('ref_axis',(-0.745014696386264,0.667048050869263,-1.13452284502689E-15));
#1109=DIRECTION('',(-0.745014696386264,0.667048050869263,-1.13452284502689E-15));
#1110=DIRECTION('center_axis',(0.,0.,-1.));
#1111=DIRECTION('ref_axis',(-1.,0.,0.));
#1112=DIRECTION('center_axis',(0.,0.,1.));
#1113=DIRECTION('ref_axis',(-1.,0.,0.));
#1114=DIRECTION('center_axis',(0.,0.,-1.));
#1115=DIRECTION('ref_axis',(-1.,0.,0.));
#1116=DIRECTION('center_axis',(0.,0.,1.));
#1117=DIRECTION('ref_axis',(-1.,0.,0.));
#1118=DIRECTION('center_axis',(0.,0.,-1.));
#1119=DIRECTION('ref_axis',(1.,0.,0.));
#1120=DIRECTION('',(1.09535648443557E-15,-1.,0.));
#1121=DIRECTION('',(1.09535648443557E-15,-1.,0.));
#1122=DIRECTION('',(-1.,9.51619735392985E-16,0.));
#1123=DIRECTION('',(-1.64303472665335E-15,-1.,0.));
#1124=DIRECTION('center_axis',(0.,0.,-1.));
#1125=DIRECTION('ref_axis',(1.,0.,0.));
#1126=DIRECTION('',(-1.64303472665335E-15,-1.,0.));
#1127=DIRECTION('',(1.,1.26882631385732E-15,0.));
#1128=DIRECTION('center_axis',(0.,0.,-1.));
#1129=DIRECTION('ref_axis',(1.,0.,0.));
#1130=DIRECTION('center_axis',(0.,0.,1.));
#1131=DIRECTION('ref_axis',(1.,0.,0.));
#1132=DIRECTION('center_axis',(0.,0.,-1.));
#1133=DIRECTION('ref_axis',(1.,0.,0.));
#1134=DIRECTION('center_axis',(0.,0.,1.));
#1135=DIRECTION('ref_axis',(1.,0.,0.));
#1136=DIRECTION('',(0.,0.,1.));
#1137=DIRECTION('',(0.,0.,-1.));
#1138=DIRECTION('center_axis',(0.,0.,-1.));
#1139=DIRECTION('ref_axis',(-1.,0.,0.));
#1140=DIRECTION('center_axis',(0.,0.,1.));
#1141=DIRECTION('ref_axis',(-1.,0.,0.));
#1142=DIRECTION('center_axis',(0.,0.,-1.));
#1143=DIRECTION('ref_axis',(-1.,0.,0.));
#1144=DIRECTION('center_axis',(0.,0.,1.));
#1145=DIRECTION('ref_axis',(-1.,-2.54207057918564E-15,0.));
#1146=DIRECTION('',(0.,0.,-1.));
#1147=DIRECTION('',(0.,0.,1.));
#1148=DIRECTION('center_axis',(0.,0.,-1.));
#1149=DIRECTION('ref_axis',(1.,0.,0.));
#1150=DIRECTION('',(1.64303472665335E-15,1.,1.36919560554446E-16));
#1151=DIRECTION('',(0.70710678118655,0.707106781186545,0.));
#1152=DIRECTION('',(0.707106781186545,-0.70710678118655,0.));
#1153=DIRECTION('',(1.09535648443557E-15,-1.,0.));
#1154=DIRECTION('',(1.09535648443557E-15,-1.,0.));
#1155=DIRECTION('',(-0.707106781186545,-0.70710678118655,0.));
#1156=DIRECTION('',(-0.70710678118655,0.707106781186545,0.));
#1157=DIRECTION('',(1.64303472665335E-15,1.,1.36919560554446E-16));
#1158=DIRECTION('center_axis',(0.,0.,-1.));
#1159=DIRECTION('ref_axis',(-1.,0.,0.));
#1160=DIRECTION('center_axis',(-1.,-1.09535648443557E-15,0.));
#1161=DIRECTION('ref_axis',(-1.09535648443557E-15,1.,0.));
#1162=DIRECTION('',(0.,0.,-1.));
#1163=DIRECTION('',(1.09535648443557E-15,-1.,0.));
#1164=DIRECTION('',(0.,0.,-1.));
#1165=DIRECTION('center_axis',(0.,0.,-1.));
#1166=DIRECTION('ref_axis',(1.,0.,0.));
#1167=DIRECTION('',(0.,0.,1.));
#1168=DIRECTION('center_axis',(-1.,-1.09535648443557E-15,0.));
#1169=DIRECTION('ref_axis',(-1.09535648443557E-15,1.,0.));
#1170=DIRECTION('',(0.,0.,-1.));
#1171=DIRECTION('',(1.09535648443557E-15,-1.,0.));
#1172=DIRECTION('',(0.,0.,-1.));
#1173=DIRECTION('center_axis',(0.,0.,1.));
#1174=DIRECTION('ref_axis',(1.,0.,0.));
#1175=DIRECTION('',(1.64303472665335E-15,1.,0.));
#1176=DIRECTION('',(0.70710678118655,-0.707106781186545,0.));
#1177=DIRECTION('',(0.707106781186545,0.70710678118655,0.));
#1178=DIRECTION('',(-1.,-1.26882631385732E-15,0.));
#1179=DIRECTION('center_axis',(0.,0.,1.));
#1180=DIRECTION('ref_axis',(1.,0.,0.));
#1181=DIRECTION('',(-0.707106781186545,0.70710678118655,0.));
#1182=DIRECTION('',(-0.70710678118655,-0.707106781186545,0.));
#1183=DIRECTION('',(1.64303472665335E-15,1.,0.));
#1184=DIRECTION('',(1.,-9.51619735392985E-16,0.));
#1185=DIRECTION('center_axis',(0.70710678118655,-0.707106781186545,0.));
#1186=DIRECTION('ref_axis',(-0.707106781186545,-0.70710678118655,0.));
#1187=DIRECTION('',(0.,0.,-1.));
#1188=DIRECTION('center_axis',(-9.51619735392985E-16,-1.,0.));
#1189=DIRECTION('ref_axis',(-1.,9.51619735392985E-16,0.));
#1190=DIRECTION('',(0.,0.,-1.));
#1191=DIRECTION('center_axis',(1.,-1.64303472665335E-15,0.));
#1192=DIRECTION('ref_axis',(-1.64303472665335E-15,-1.,-1.36919560554446E-16));
#1193=DIRECTION('',(0.,0.,-1.));
#1194=DIRECTION('center_axis',(-1.26882631385732E-15,1.,0.));
#1195=DIRECTION('ref_axis',(1.,1.26882631385732E-15,0.));
#1196=DIRECTION('',(0.,0.,-1.));
#1197=DIRECTION('center_axis',(-0.707106781186545,-0.70710678118655,0.));
#1198=DIRECTION('ref_axis',(-0.70710678118655,0.707106781186545,0.));
#1199=DIRECTION('',(0.,0.,-1.));
#1200=DIRECTION('center_axis',(1.,-1.64303472665335E-15,0.));
#1201=DIRECTION('ref_axis',(-1.64303472665335E-15,-1.,-1.36919560554446E-16));
#1202=DIRECTION('center_axis',(-0.707106781186545,0.70710678118655,0.));
#1203=DIRECTION('ref_axis',(0.70710678118655,0.707106781186545,0.));
#1204=DIRECTION('',(0.,0.,-1.));
#1205=DIRECTION('center_axis',(0.70710678118655,0.707106781186545,0.));
#1206=DIRECTION('ref_axis',(0.707106781186545,-0.70710678118655,0.));
#1207=CARTESIAN_POINT('',(0.,0.,0.));
#1208=CARTESIAN_POINT('Origin',(51.8699783364413,0.872116918866195,9.74292278594067));
#1209=CARTESIAN_POINT('',(56.09068901456,0.872116918866196,9.70756744688135));
#1210=CARTESIAN_POINT('Origin',(51.8699783364413,0.872116918866195,9.70756744688135));
#1211=CARTESIAN_POINT('',(55.9199783364413,0.872116918866195,9.778278125));
#1212=CARTESIAN_POINT('',(56.0053336755006,0.872116918866195,9.74292278594067));
#1213=CARTESIAN_POINT('Origin',(51.8699783364413,0.872116918866195,9.778278125));
#1214=CARTESIAN_POINT('Origin',(51.8699783364413,0.872116918866197,9.778278125));
#1215=CARTESIAN_POINT('',(52.721407045993,2.9721175745173,9.778278125));
#1216=CARTESIAN_POINT('',(52.721407045993,2.22528486215698,9.778278125));
#1217=CARTESIAN_POINT('',(52.721407045993,1.5264030054255,9.778278125));
#1218=CARTESIAN_POINT('',(53.9614067694274,2.9721175745173,9.778278125));
#1219=CARTESIAN_POINT('',(52.3456926912172,2.9721175745173,9.778278125));
#1220=CARTESIAN_POINT('',(53.9614067694274,1.67314125601946,9.778278125));
#1221=CARTESIAN_POINT('',(53.9614067694274,1.87211724669175,9.778278125));
#1222=CARTESIAN_POINT('',(52.4871210476486,0.353140965148796,9.778278125));
#1223=CARTESIAN_POINT('',(53.1653000757728,0.960347900115363,9.778278125));
#1224=CARTESIAN_POINT('',(52.4871210476486,-1.22788278311057,9.778278125));
#1225=CARTESIAN_POINT('',(52.4871210476486,0.634974266593024,9.778278125));
#1226=CARTESIAN_POINT('',(51.2528356215088,-1.22788278311057,9.778278125));
#1227=CARTESIAN_POINT('',(52.1285496920449,-1.22788278311057,9.778278125));
#1228=CARTESIAN_POINT('',(51.2528356215088,0.353140959122598,9.778278125));
#1229=CARTESIAN_POINT('',(51.2528356215088,-0.127882932122186,9.778278125));
#1230=CARTESIAN_POINT('',(49.7785496017067,1.67314124999326,9.778278125));
#1231=CARTESIAN_POINT('',(51.311799491233,0.300347726234645,9.778278125));
#1232=CARTESIAN_POINT('',(49.7785496017067,2.9721175745173,9.778278125));
#1233=CARTESIAN_POINT('',(49.7785496017067,1.29497441202836,9.778278125));
#1234=CARTESIAN_POINT('',(51.0185496231643,2.9721175745173,9.778278125));
#1235=CARTESIAN_POINT('',(50.874263969074,2.9721175745173,9.778278125));
#1236=CARTESIAN_POINT('',(51.0185496231643,2.22510594455527,9.778278125));
#1237=CARTESIAN_POINT('',(51.0185496231643,1.87211724669175,9.778278125));
#1238=CARTESIAN_POINT('',(51.8673221884366,1.4581426707142,9.778278125));
#1239=CARTESIAN_POINT('',(51.5729464365109,1.72414489518991,9.778278125));
#1240=CARTESIAN_POINT('',(51.6888792673151,1.29786457616017,9.778278125));
#1241=CARTESIAN_POINT('Origin',(51.8699783364413,0.872116918866195,9.428278125));
#1242=CARTESIAN_POINT('',(56.7199783364413,0.872116918866196,9.078278125));
#1243=CARTESIAN_POINT('',(56.3699783364413,0.872116918866196,9.428278125));
#1244=CARTESIAN_POINT('',(47.0199783364413,0.872116918866196,9.078278125));
#1245=CARTESIAN_POINT('Origin',(51.8699783364413,0.872116918866195,9.078278125));
#1246=CARTESIAN_POINT('Origin',(51.8699783364413,0.872116918866195,9.078278125));
#1247=CARTESIAN_POINT('Origin',(51.3028356215087,-0.127882932122186,9.728278125));
#1248=CARTESIAN_POINT('',(51.3528356215087,-1.12788278311057,9.678278125));
#1249=CARTESIAN_POINT('',(51.2528356215088,-1.22788278311057,9.778278125));
#1250=CARTESIAN_POINT('',(51.3528356215087,0.39783161431985,9.678278125));
#1251=CARTESIAN_POINT('',(51.3528356215087,-0.127882932122186,9.678278125));
#1252=CARTESIAN_POINT('',(51.2528356215088,0.353140959122598,9.778278125));
#1253=CARTESIAN_POINT('Origin',(52.1285496920449,-1.17788278311057,9.728278125));
#1254=CARTESIAN_POINT('',(52.3871210476486,-1.12788278311057,9.678278125));
#1255=CARTESIAN_POINT('',(52.4871210476486,-1.22788278311057,9.778278125));
#1256=CARTESIAN_POINT('',(52.1285496920449,-1.12788278311057,9.678278125));
#1257=CARTESIAN_POINT('Origin',(52.4371210476486,0.634974266593024,9.728278125));
#1258=CARTESIAN_POINT('',(52.3871210476486,0.39783161431985,9.678278125));
#1259=CARTESIAN_POINT('',(52.4871210476486,0.353140965148796,9.778278125));
#1260=CARTESIAN_POINT('',(52.3871210476486,0.634974266593024,9.678278125));
#1261=CARTESIAN_POINT('Origin',(53.1319476694871,0.997598631584117,9.728278125));
#1262=CARTESIAN_POINT('',(53.8614067694274,1.71783190519052,9.678278125));
#1263=CARTESIAN_POINT('',(53.9614067694274,1.67314125601946,9.778278125));
#1264=CARTESIAN_POINT('',(53.0985952632015,1.03484936305287,9.678278125));
#1265=CARTESIAN_POINT('Origin',(53.9114067694274,1.87211724669175,9.728278125));
#1266=CARTESIAN_POINT('',(53.8614067694274,2.8721175745173,9.678278125));
#1267=CARTESIAN_POINT('',(53.9614067694274,2.9721175745173,9.778278125));
#1268=CARTESIAN_POINT('',(53.8614067694274,1.87211724669175,9.678278125));
#1269=CARTESIAN_POINT('Origin',(52.771407045993,1.5264030054255,9.728278125));
#1270=CARTESIAN_POINT('',(52.821407045993,2.1806890919848,9.678278125));
#1271=CARTESIAN_POINT('',(52.721407045993,2.22528486215698,9.778278125));
#1272=CARTESIAN_POINT('',(52.821407045993,2.8721175745173,9.678278125));
#1273=CARTESIAN_POINT('',(52.821407045993,1.5264030054255,9.678278125));
#1274=CARTESIAN_POINT('',(52.821407045993,2.8721175745173,9.678278125));
#1275=CARTESIAN_POINT('Origin',(51.7222905713302,1.26066666272396,9.728278125));
#1276=CARTESIAN_POINT('',(51.8671211859313,1.32354598790841,9.678278125));
#1277=CARTESIAN_POINT('',(51.7557018753454,1.22346874928775,9.678278125));
#1278=CARTESIAN_POINT('',(51.8673221884366,1.4581426707142,9.778278125));
#1279=CARTESIAN_POINT('Origin',(52.3456926912172,2.9221175745173,9.728278125));
#1280=CARTESIAN_POINT('',(52.3456926912172,2.8721175745173,9.678278125));
#1281=CARTESIAN_POINT('Origin',(51.5394241813507,1.68704693825188,9.728278125));
#1282=CARTESIAN_POINT('',(50.9185496231643,2.1806890919848,9.678278125));
#1283=CARTESIAN_POINT('',(51.5059019261905,1.64994898131385,9.678278125));
#1284=CARTESIAN_POINT('',(51.0185496231643,2.22510594455527,9.778278125));
#1285=CARTESIAN_POINT('Origin',(50.9685496231643,1.87211724669175,9.728278125));
#1286=CARTESIAN_POINT('',(50.9185496231643,2.8721175745173,9.678278125));
#1287=CARTESIAN_POINT('',(50.9185496231643,1.87211724669175,9.678278125));
#1288=CARTESIAN_POINT('',(51.0185496231643,2.9721175745173,9.778278125));
#1289=CARTESIAN_POINT('Origin',(50.874263969074,2.9221175745173,9.728278125));
#1290=CARTESIAN_POINT('',(49.8785496017066,2.8721175745173,9.678278125));
#1291=CARTESIAN_POINT('',(50.874263969074,2.8721175745173,9.678278125));
#1292=CARTESIAN_POINT('',(49.7785496017067,2.9721175745173,9.778278125));
#1293=CARTESIAN_POINT('Origin',(49.8285496017066,1.29497441202836,9.728278125));
#1294=CARTESIAN_POINT('',(49.8785496017066,1.71783190519052,9.678278125));
#1295=CARTESIAN_POINT('',(49.8785496017066,1.29497441202836,9.678278125));
#1296=CARTESIAN_POINT('',(49.7785496017067,1.67314124999326,9.778278125));
#1297=CARTESIAN_POINT('Origin',(51.3451518937765,0.337598461053959,9.728278125));
#1298=CARTESIAN_POINT('',(51.3785042963199,0.374849195873273,9.678278125));
#1299=CARTESIAN_POINT('Origin',(51.3528356215087,-1.12788278311057,9.77827812499997));
#1300=CARTESIAN_POINT('',(51.3528356215087,-1.12788278311057,9.17827812499997));
#1301=CARTESIAN_POINT('',(51.3528356215087,-1.12788278311057,9.77827812499997));
#1302=CARTESIAN_POINT('',(51.3528356215087,0.39783161431985,9.17827812499997));
#1303=CARTESIAN_POINT('',(51.3528356215087,-1.12788278311057,9.17827812499997));
#1304=CARTESIAN_POINT('',(51.3528356215087,0.39783161431985,9.77827812499997));
#1305=CARTESIAN_POINT('Origin',(52.3871210476486,-1.12788278311057,9.77827812499998));
#1306=CARTESIAN_POINT('',(52.3871210476486,-1.12788278311057,9.17827812499998));
#1307=CARTESIAN_POINT('',(52.3871210476486,-1.12788278311057,9.77827812499998));
#1308=CARTESIAN_POINT('',(52.3871210476486,-1.12788278311057,9.17827812499998));
#1309=CARTESIAN_POINT('Origin',(52.3871210476486,0.39783161431985,9.77827812499998));
#1310=CARTESIAN_POINT('',(52.3871210476486,0.39783161431985,9.17827812499998));
#1311=CARTESIAN_POINT('',(52.3871210476486,0.39783161431985,9.77827812499998));
#1312=CARTESIAN_POINT('',(52.3871210476486,0.39783161431985,9.17827812499998));
#1313=CARTESIAN_POINT('Origin',(53.8614067694274,1.71783190519052,9.77827812499998));
#1314=CARTESIAN_POINT('',(53.8614067694274,1.71783190519052,9.17827812499998));
#1315=CARTESIAN_POINT('',(53.8614067694274,1.71783190519052,9.77827812499998));
#1316=CARTESIAN_POINT('',(53.8614067694274,1.71783190519052,9.17827812499998));
#1317=CARTESIAN_POINT('Origin',(53.8614067694274,2.8721175745173,9.77827812499998));
#1318=CARTESIAN_POINT('',(53.8614067694274,2.8721175745173,9.17827812499998));
#1319=CARTESIAN_POINT('',(53.8614067694274,2.8721175745173,9.77827812499998));
#1320=CARTESIAN_POINT('',(53.8614067694274,2.8721175745173,9.17827812499998));
#1321=CARTESIAN_POINT('Origin',(52.821407045993,2.8721175745173,9.77827812499998));
#1322=CARTESIAN_POINT('',(52.821407045993,2.8721175745173,9.17827812499998));
#1323=CARTESIAN_POINT('',(52.821407045993,2.8721175745173,9.77827812499998));
#1324=CARTESIAN_POINT('',(52.821407045993,2.8721175745173,9.17827812499998));
#1325=CARTESIAN_POINT('Origin',(52.821407045993,2.1806890919848,9.77827812499998));
#1326=CARTESIAN_POINT('',(52.821407045993,2.1806890919848,9.17827812499998));
#1327=CARTESIAN_POINT('',(52.821407045993,2.1806890919848,9.77827812499998));
#1328=CARTESIAN_POINT('',(52.821407045993,2.1806890919848,9.17827812499998));
#1329=CARTESIAN_POINT('Origin',(51.8671211859313,1.32354598790841,9.77827812499997));
#1330=CARTESIAN_POINT('',(51.8671211859313,1.32354598790841,9.17827812499997));
#1331=CARTESIAN_POINT('',(51.8671211859313,1.32354598790841,9.77827812499997));
#1332=CARTESIAN_POINT('',(51.8671211859313,1.32354598790841,9.17827812499997));
#1333=CARTESIAN_POINT('Origin',(50.9185496231643,2.1806890919848,9.77827812499997));
#1334=CARTESIAN_POINT('',(50.9185496231643,2.1806890919848,9.17827812499997));
#1335=CARTESIAN_POINT('',(50.9185496231643,2.1806890919848,9.77827812499997));
#1336=CARTESIAN_POINT('',(50.9185496231643,2.1806890919848,9.17827812499997));
#1337=CARTESIAN_POINT('Origin',(50.9185496231643,2.8721175745173,9.77827812499997));
#1338=CARTESIAN_POINT('',(50.9185496231643,2.8721175745173,9.17827812499997));
#1339=CARTESIAN_POINT('',(50.9185496231643,2.8721175745173,9.77827812499997));
#1340=CARTESIAN_POINT('',(50.9185496231643,2.8721175745173,9.17827812499997));
#1341=CARTESIAN_POINT('Origin',(49.8785496017066,2.8721175745173,9.77827812499997));
#1342=CARTESIAN_POINT('',(49.8785496017066,2.8721175745173,9.17827812499997));
#1343=CARTESIAN_POINT('',(49.8785496017066,2.8721175745173,9.77827812499997));
#1344=CARTESIAN_POINT('',(49.8785496017066,2.8721175745173,9.17827812499997));
#1345=CARTESIAN_POINT('Origin',(49.8785496017066,1.71783190519052,9.77827812499997));
#1346=CARTESIAN_POINT('',(49.8785496017066,1.71783190519052,9.17827812499997));
#1347=CARTESIAN_POINT('',(49.8785496017066,1.71783190519052,9.77827812499997));
#1348=CARTESIAN_POINT('',(49.8785496017066,1.71783190519052,9.17827812499997));
#1349=CARTESIAN_POINT('Origin',(51.3528356215087,0.39783161431985,9.77827812499997));
#1350=CARTESIAN_POINT('',(51.3528356215087,0.39783161431985,9.17827812499997));
#1351=CARTESIAN_POINT('Origin',(51.869978185567,0.872117395703365,9.17827812499998));
#1352=CARTESIAN_POINT('Origin',(51.8699783364413,0.872116918866196,-2.621721875));
#1353=CARTESIAN_POINT('',(50.1199783364413,-1.86649586865963,-4.121721875));
#1354=CARTESIAN_POINT('',(50.1199783364413,-5.1278830811338,-1.121721875));
#1355=CARTESIAN_POINT('Ctrl Pts',(50.1199783364413,-5.12788308114212,-1.12172187499202));
#1356=CARTESIAN_POINT('Ctrl Pts',(50.1199783364413,-2.98223359924355,-3.18154537761487));
#1357=CARTESIAN_POINT('Ctrl Pts',(50.1199783364413,-1.86649586865815,-4.12172187500125));
#1358=CARTESIAN_POINT('',(50.1199783364413,6.87211691886619,-1.121721875));
#1359=CARTESIAN_POINT('Origin',(51.8699783364413,0.872116918866196,-1.121721875));
#1360=CARTESIAN_POINT('',(50.1199783364413,3.61072970639201,-4.121721875));
#1361=CARTESIAN_POINT('Ctrl Pts',(50.1199783364413,3.61072970639052,-4.12172187500126));
#1362=CARTESIAN_POINT('Ctrl Pts',(50.1199783364413,4.72646743697593,-3.18154537761487));
#1363=CARTESIAN_POINT('Ctrl Pts',(50.1199783364413,6.87211691887452,-1.121721874992));
#1364=CARTESIAN_POINT('Origin',(51.8699783364413,0.872116918866196,-4.121721875));
#1365=CARTESIAN_POINT('Origin',(51.8699783364413,2.42640624074757,-4.121721875));
#1366=CARTESIAN_POINT('',(50.1199783364413,-3.65115623229326,-4.121721875));
#1367=CARTESIAN_POINT('',(50.1199783364413,-2.40502774207446,-4.121721875));
#1368=CARTESIAN_POINT('',(50.1199783364413,5.39539007002565,-4.121721875));
#1369=CARTESIAN_POINT('',(50.1199783364413,3.9108981553866,-4.121721875));
#1370=CARTESIAN_POINT('',(53.6199783364413,5.39539007002566,-4.121721875));
#1371=CARTESIAN_POINT('',(52.7449783364413,5.39539007002565,-4.121721875));
#1372=CARTESIAN_POINT('',(53.6199783364413,6.8721169188662,-4.121721875));
#1373=CARTESIAN_POINT('',(53.6199783364413,4.92640624074756,-4.121721875));
#1374=CARTESIAN_POINT('',(53.6199783364413,-5.12788308113381,-4.121721875));
#1375=CARTESIAN_POINT('Origin',(51.8699783364413,0.872116918866196,-4.121721875));
#1376=CARTESIAN_POINT('',(53.6199783364413,-3.65115623229327,-4.121721875));
#1377=CARTESIAN_POINT('',(53.6199783364413,-1.38951965671354,-4.121721875));
#1378=CARTESIAN_POINT('',(50.9949783364413,-3.65115623229327,-4.121721875));
#1379=CARTESIAN_POINT('Origin',(51.8699783364413,0.872116918866196,3.028278125));
#1380=CARTESIAN_POINT('',(53.6199783364413,-4.60510865618547,3.278278125));
#1381=CARTESIAN_POINT('',(53.6199783364413,-5.12788308113381,2.778278125));
#1382=CARTESIAN_POINT('Ctrl Pts',(53.6199783364413,-5.12788308113381,2.778278125));
#1383=CARTESIAN_POINT('Ctrl Pts',(53.6199783364413,-4.85560473480659,3.03966533747413));
#1384=CARTESIAN_POINT('Ctrl Pts',(53.6199783364413,-4.60510865618547,3.278278125));
#1385=CARTESIAN_POINT('',(53.6199783364413,6.8721169188662,2.778278125));
#1386=CARTESIAN_POINT('Origin',(51.8699783364413,0.872116918866196,2.778278125));
#1387=CARTESIAN_POINT('',(53.6199783364413,6.34934249391786,3.278278125));
#1388=CARTESIAN_POINT('Ctrl Pts',(53.6199783364413,6.34934249391786,3.278278125));
#1389=CARTESIAN_POINT('Ctrl Pts',(53.6199783364413,6.59983857253908,3.03966533747403));
#1390=CARTESIAN_POINT('Ctrl Pts',(53.6199783364413,6.8721169188662,2.778278125));
#1391=CARTESIAN_POINT('Origin',(51.8699783364413,0.872116918866196,3.278278125));
#1392=CARTESIAN_POINT('Origin',(51.8699783364413,0.872116918866196,-4.121721875));
#1393=CARTESIAN_POINT('',(53.6199783364413,-5.12788308113381,-4.121721875));
#1394=CARTESIAN_POINT('',(53.6199783364413,6.8721169188662,-4.121721875));
#1395=CARTESIAN_POINT('Origin',(51.8699783364413,0.872116918866196,3.028278125));
#1396=CARTESIAN_POINT('',(50.1199783364413,6.34934249391785,3.278278125));
#1397=CARTESIAN_POINT('',(50.1199783364413,6.87211691886619,2.778278125));
#1398=CARTESIAN_POINT('Ctrl Pts',(50.1199783364413,6.87211691886619,2.778278125));
#1399=CARTESIAN_POINT('Ctrl Pts',(50.1199783364413,6.59983857253913,3.03966533747398));
#1400=CARTESIAN_POINT('Ctrl Pts',(50.1199783364413,6.34934249391785,3.278278125));
#1401=CARTESIAN_POINT('',(50.1199783364413,-5.1278830811338,2.778278125));
#1402=CARTESIAN_POINT('Origin',(51.8699783364413,0.872116918866196,2.778278125));
#1403=CARTESIAN_POINT('',(50.1199783364413,-4.60510865618547,3.278278125));
#1404=CARTESIAN_POINT('Ctrl Pts',(50.1199783364413,-4.60510865618546,3.278278125));
#1405=CARTESIAN_POINT('Ctrl Pts',(50.1199783364413,-4.85560473480394,3.03966533747666));
#1406=CARTESIAN_POINT('Ctrl Pts',(50.1199783364413,-5.1278830811338,2.778278125));
#1407=CARTESIAN_POINT('Origin',(51.8699783364413,0.872116918866196,3.278278125));
#1408=CARTESIAN_POINT('Origin',(51.8699783364413,0.872116918866196,-4.121721875));
#1409=CARTESIAN_POINT('',(50.1199783364413,-5.1278830811338,-4.121721875));
#1410=CARTESIAN_POINT('',(50.1199783364413,6.87211691886619,-4.121721875));
#1411=CARTESIAN_POINT('Origin',(51.8699783364413,2.42640624074757,3.278278125));
#1412=CARTESIAN_POINT('',(53.6199783364413,8.98069556262893,3.278278125));
#1413=CARTESIAN_POINT('',(53.6199783364413,-7.23646172489649,3.278278125));
#1414=CARTESIAN_POINT('',(51.8699783364413,7.23069556262889,3.278278125));
#1415=CARTESIAN_POINT('',(51.8699783364413,7.23069556262889,3.278278125));
#1416=CARTESIAN_POINT('',(50.1199783364413,8.98069556262893,3.278278125));
#1417=CARTESIAN_POINT('',(47.7285569802024,11.3721169188679,3.278278125));
#1418=CARTESIAN_POINT('',(50.1199783364413,8.98069556262893,3.278278125));
#1419=CARTESIAN_POINT('',(50.1199783364413,-7.23646172489648,3.278278125));
#1420=CARTESIAN_POINT('',(50.1199783364413,8.98069556262893,3.278278125));
#1421=CARTESIAN_POINT('',(51.8699783364413,-5.4864617248965,3.278278125));
#1422=CARTESIAN_POINT('',(51.8699783364413,-5.4864617248965,3.278278125));
#1423=CARTESIAN_POINT('',(53.6199783364413,-7.23646172489649,3.278278125));
#1424=CARTESIAN_POINT('',(56.0113996926786,-9.62788308113382,3.278278125));
#1425=CARTESIAN_POINT('',(53.6199783364413,-7.23646172489649,3.278278125));
#1426=CARTESIAN_POINT('',(47.0199783364413,0.872116918866196,3.278278125));
#1427=CARTESIAN_POINT('Origin',(51.8699783364413,0.872116918866197,3.278278125));
#1428=CARTESIAN_POINT('Origin',(50.1199783364413,-7.23646172489648,3.278278125));
#1429=CARTESIAN_POINT('',(50.1199783364413,-3.65115623229327,-7.771721875));
#1430=CARTESIAN_POINT('',(50.1199783364413,-3.65115623229326,3.278278125));
#1431=CARTESIAN_POINT('',(50.1199783364413,-7.23646172489648,-7.771721875));
#1432=CARTESIAN_POINT('',(50.1199783364413,-3.18217240301513,-7.771721875));
#1433=CARTESIAN_POINT('',(50.1199783364413,-7.23646172489648,3.278278125));
#1434=CARTESIAN_POINT('Origin',(51.8699783364413,0.872116918866195,3.278278125));
#1435=CARTESIAN_POINT('',(47.0199783364413,0.872116918866196,3.278278125));
#1436=CARTESIAN_POINT('Origin',(50.1199783364413,5.39539007002565,3.278278125));
#1437=CARTESIAN_POINT('',(50.1199783364413,8.98069556262888,-7.771721875));
#1438=CARTESIAN_POINT('',(50.1199783364413,8.98069556262893,3.278278125));
#1439=CARTESIAN_POINT('',(50.1199783364413,5.39539007002565,-7.771721875));
#1440=CARTESIAN_POINT('',(50.1199783364413,6.29171644317647,-7.771721875));
#1441=CARTESIAN_POINT('',(50.1199783364413,5.39539007002565,3.278278125));
#1442=CARTESIAN_POINT('Origin',(51.8699783364413,0.872116918866228,-7.771721875));
#1443=CARTESIAN_POINT('',(53.6199783364413,-7.23646172489649,-7.771721875));
#1444=CARTESIAN_POINT('',(53.6199783364413,-3.65115623229326,-7.771721875));
#1445=CARTESIAN_POINT('',(53.6199783364413,-1.38951965671352,-7.771721875));
#1446=CARTESIAN_POINT('',(51.8699783364413,-5.4864617248965,-7.771721875));
#1447=CARTESIAN_POINT('',(51.1553336755006,-4.77181706395584,-7.771721875));
#1448=CARTESIAN_POINT('',(53.459622997382,-3.8968170639558,-7.771721875));
#1449=CARTESIAN_POINT('',(50.9949783364413,-3.65115623229327,-7.771721875));
#1450=CARTESIAN_POINT('Origin',(51.8699783364413,7.1880428163273,-7.771721875));
#1451=CARTESIAN_POINT('',(51.8699783364413,7.23069556262889,-7.771721875));
#1452=CARTESIAN_POINT('',(51.0056415230167,8.0950323760535,-7.771721875));
#1453=CARTESIAN_POINT('',(53.6199783364413,8.98069556262894,-7.771721875));
#1454=CARTESIAN_POINT('',(51.8593151498659,7.2200323760535,-7.771721875));
#1455=CARTESIAN_POINT('',(53.6199783364413,5.39539007002565,-7.771721875));
#1456=CARTESIAN_POINT('',(53.6199783364413,8.08436918947811,-7.771721875));
#1457=CARTESIAN_POINT('',(52.7449783364413,5.39539007002565,-7.771721875));
#1458=CARTESIAN_POINT('Origin',(51.8699783364413,-5.4864617248965,3.278278125));
#1459=CARTESIAN_POINT('',(51.8699783364413,-5.4864617248965,3.278278125));
#1460=CARTESIAN_POINT('Origin',(53.6199783364413,5.39539007002565,-4.271721875));
#1461=CARTESIAN_POINT('',(53.6199783364413,5.39539007002566,3.278278125));
#1462=CARTESIAN_POINT('Origin',(53.6199783364413,8.98069556262893,3.278278125));
#1463=CARTESIAN_POINT('',(53.6199783364413,8.98069556262893,3.278278125));
#1464=CARTESIAN_POINT('Origin',(50.1199783364413,-3.65115623229327,-4.271721875));
#1465=CARTESIAN_POINT('',(53.6199783364413,-3.65115623229327,3.278278125));
#1466=CARTESIAN_POINT('Origin',(53.6199783364413,-7.2364617248965,3.278278125));
#1467=CARTESIAN_POINT('',(53.6199783364413,-7.23646172489649,3.278278125));
#1468=CARTESIAN_POINT('Origin',(53.6199783364413,-3.65115623229327,3.278278125));
#1469=CARTESIAN_POINT('Origin',(51.8699783364413,7.23069556262889,3.278278125));
#1470=CARTESIAN_POINT('',(51.8699783364413,7.23069556262889,3.278278125));
#1471=CARTESIAN_POINT('Origin',(50.1199783364413,8.98069556262891,3.278278125));
#1472=UNCERTAINTY_MEASURE_WITH_UNIT(LENGTH_MEASURE(0.01),#1476,
'DISTANCE_ACCURACY_VALUE',
'Maximum model space distance between geometric entities at asserted c
onnectivities');
#1473=UNCERTAINTY_MEASURE_WITH_UNIT(LENGTH_MEASURE(0.01),#1476,
'DISTANCE_ACCURACY_VALUE',
'Maximum model space distance between geometric entities at asserted c
onnectivities');
#1474=(
GEOMETRIC_REPRESENTATION_CONTEXT(3)
GLOBAL_UNCERTAINTY_ASSIGNED_CONTEXT((#1472))
GLOBAL_UNIT_ASSIGNED_CONTEXT((#1476,#1478,#1479))
REPRESENTATION_CONTEXT('','3D')
);
#1475=(
GEOMETRIC_REPRESENTATION_CONTEXT(3)
GLOBAL_UNCERTAINTY_ASSIGNED_CONTEXT((#1473))
GLOBAL_UNIT_ASSIGNED_CONTEXT((#1476,#1478,#1479))
REPRESENTATION_CONTEXT('','3D')
);
#1476=(
LENGTH_UNIT()
NAMED_UNIT(*)
SI_UNIT(.MILLI.,.METRE.)
);
#1477=(
LENGTH_UNIT()
NAMED_UNIT(*)
SI_UNIT($,.METRE.)
);
#1478=(
NAMED_UNIT(*)
PLANE_ANGLE_UNIT()
SI_UNIT($,.RADIAN.)
);
#1479=(
NAMED_UNIT(*)
SI_UNIT($,.STERADIAN.)
SOLID_ANGLE_UNIT()
);
#1480=SHAPE_DEFINITION_REPRESENTATION(#1481,#1482);
#1481=PRODUCT_DEFINITION_SHAPE('',$,#1484);
#1482=SHAPE_REPRESENTATION('',(#912),#1474);
#1483=PRODUCT_DEFINITION_CONTEXT('part definition',#1488,'design');
#1484=PRODUCT_DEFINITION('2026-08-13-17-45-10-894','Face Button Y',#1485,
#1483);
#1485=PRODUCT_DEFINITION_FORMATION('',$,#1490);
#1486=PRODUCT_RELATED_PRODUCT_CATEGORY('Face Button Y','Face Button Y',
(#1490));
#1487=APPLICATION_PROTOCOL_DEFINITION('international standard',
'automotive_design',2009,#1488);
#1488=APPLICATION_CONTEXT(
'Core Data for Automotive Mechanical Design Process');
#1489=PRODUCT_CONTEXT('part definition',#1488,'mechanical');
#1490=PRODUCT('2026-08-13-17-45-10-894','Face Button Y',$,(#1489));
#1491=PRESENTATION_STYLE_ASSIGNMENT((#1493));
#1492=PRESENTATION_STYLE_ASSIGNMENT((#1494));
#1493=SURFACE_STYLE_USAGE(.BOTH.,#1495);
#1494=SURFACE_STYLE_USAGE(.BOTH.,#1496);
#1495=SURFACE_SIDE_STYLE('',(#1497));
#1496=SURFACE_SIDE_STYLE('',(#1498));
#1497=SURFACE_STYLE_FILL_AREA(#1499);
#1498=SURFACE_STYLE_FILL_AREA(#1500);
#1499=FILL_AREA_STYLE('Steel - Satin',(#1501));
#1500=FILL_AREA_STYLE('Plastic - Matte (Red)',(#1502));
#1501=FILL_AREA_STYLE_COLOUR('Steel - Satin',#1503);
#1502=FILL_AREA_STYLE_COLOUR('Plastic - Matte (Red)',#1504);
#1503=COLOUR_RGB('Steel - Satin',0.627450980392157,0.627450980392157,0.627450980392157);
#1504=COLOUR_RGB('Plastic - Matte (Red)',0.768627450980392,0.207843137254902,
0.152941176470588);
ENDSEC;
END-ISO-10303-21;
