ISO-10303-21;
HEADER;
/* Generated by software containing ST-Developer
 * from STEP Tools, Inc. (www.steptools.com) 
 */

FILE_DESCRIPTION(
/* description */ (''),
/* implementation_level */ '2;1');

FILE_NAME(
/* name */ 'MH-CD Holder.step',
/* time_stamp */ '2026-08-13T17:43:07+02:00',
/* author */ (''),
/* organization */ (''),
/* preprocessor_version */ 'ST-DEVELOPER v20.1',
/* originating_system */ 'Autodesk Translation Framework v15.8.0.0',
/* authorisation */ '');

FILE_SCHEMA (('AUTOMOTIVE_DESIGN { 1 0 10303 214 3 1 1 }'));
ENDSEC;

DATA;
#10=MECHANICAL_DESIGN_GEOMETRIC_PRESENTATION_REPRESENTATION('',(#13),#471);
#11=SHAPE_REPRESENTATION_RELATIONSHIP('SRR','None',#478,#12);
#12=ADVANCED_BREP_SHAPE_REPRESENTATION('',(#14),#470);
#13=STYLED_ITEM('',(#487),#14);
#14=MANIFOLD_SOLID_BREP('Body1',#267);
#15=FACE_BOUND('',#43,.T.);
#16=FACE_BOUND('',#44,.T.);
#17=FACE_BOUND('',#55,.T.);
#18=FACE_BOUND('',#56,.T.);
#19=PLANE('',#290);
#20=PLANE('',#296);
#21=PLANE('',#297);
#22=PLANE('',#302);
#23=PLANE('',#303);
#24=PLANE('',#310);
#25=FACE_OUTER_BOUND('',#39,.T.);
#26=FACE_OUTER_BOUND('',#40,.T.);
#27=FACE_OUTER_BOUND('',#41,.T.);
#28=FACE_OUTER_BOUND('',#42,.T.);
#29=FACE_OUTER_BOUND('',#45,.T.);
#30=FACE_OUTER_BOUND('',#46,.T.);
#31=FACE_OUTER_BOUND('',#47,.T.);
#32=FACE_OUTER_BOUND('',#48,.T.);
#33=FACE_OUTER_BOUND('',#49,.T.);
#34=FACE_OUTER_BOUND('',#50,.T.);
#35=FACE_OUTER_BOUND('',#51,.T.);
#36=FACE_OUTER_BOUND('',#52,.T.);
#37=FACE_OUTER_BOUND('',#53,.T.);
#38=FACE_OUTER_BOUND('',#54,.T.);
#39=EDGE_LOOP('',(#173,#174,#175,#176));
#40=EDGE_LOOP('',(#177,#178,#179,#180));
#41=EDGE_LOOP('',(#181,#182,#183,#184));
#42=EDGE_LOOP('',(#185,#186,#187,#188,#189,#190,#191,#192,#193,#194));
#43=EDGE_LOOP('',(#195));
#44=EDGE_LOOP('',(#196));
#45=EDGE_LOOP('',(#197,#198,#199,#200));
#46=EDGE_LOOP('',(#201,#202,#203,#204));
#47=EDGE_LOOP('',(#205,#206,#207,#208));
#48=EDGE_LOOP('',(#209,#210,#211,#212));
#49=EDGE_LOOP('',(#213,#214,#215,#216));
#50=EDGE_LOOP('',(#217,#218,#219,#220));
#51=EDGE_LOOP('',(#221,#222,#223,#224));
#52=EDGE_LOOP('',(#225,#226,#227,#228));
#53=EDGE_LOOP('',(#229,#230,#231,#232));
#54=EDGE_LOOP('',(#233,#234,#235,#236,#237,#238,#239,#240,#241,#242));
#55=EDGE_LOOP('',(#243));
#56=EDGE_LOOP('',(#244));
#57=LINE('',#399,#77);
#58=LINE('',#402,#78);
#59=LINE('',#407,#79);
#60=LINE('',#413,#80);
#61=LINE('',#417,#81);
#62=LINE('',#419,#82);
#63=LINE('',#421,#83);
#64=LINE('',#427,#84);
#65=LINE('',#435,#85);
#66=LINE('',#436,#86);
#67=LINE('',#439,#87);
#68=LINE('',#441,#88);
#69=LINE('',#442,#89);
#70=LINE('',#445,#90);
#71=LINE('',#449,#91);
#72=LINE('',#453,#92);
#73=LINE('',#454,#93);
#74=LINE('',#456,#94);
#75=LINE('',#459,#95);
#76=LINE('',#463,#96);
#77=VECTOR('',#317,224.5);
#78=VECTOR('',#320,224.5);
#79=VECTOR('',#325,10.);
#80=VECTOR('',#332,10.5);
#81=VECTOR('',#337,10.);
#82=VECTOR('',#338,10.);
#83=VECTOR('',#339,10.);
#84=VECTOR('',#344,10.);
#85=VECTOR('',#353,10.);
#86=VECTOR('',#354,10.);
#87=VECTOR('',#357,10.);
#88=VECTOR('',#358,10.);
#89=VECTOR('',#359,10.);
#90=VECTOR('',#362,10.);
#91=VECTOR('',#367,10.);
#92=VECTOR('',#372,10.);
#93=VECTOR('',#373,10.);
#94=VECTOR('',#376,10.);
#95=VECTOR('',#379,1.15);
#96=VECTOR('',#384,1.15);
#97=CIRCLE('',#282,224.5);
#98=CIRCLE('',#283,224.5);
#99=CIRCLE('',#285,2.);
#100=CIRCLE('',#286,2.);
#101=CIRCLE('',#288,10.5);
#102=CIRCLE('',#289,10.5);
#103=CIRCLE('',#291,2.00000002980232);
#104=CIRCLE('',#292,5.5);
#105=CIRCLE('',#293,5.5);
#106=CIRCLE('',#294,1.15);
#107=CIRCLE('',#295,1.15);
#108=CIRCLE('',#299,5.5);
#109=CIRCLE('',#301,2.00000002980232);
#110=CIRCLE('',#305,1.15);
#111=CIRCLE('',#307,1.15);
#112=CIRCLE('',#309,5.5);
#113=VERTEX_POINT('',#395);
#114=VERTEX_POINT('',#396);
#115=VERTEX_POINT('',#398);
#116=VERTEX_POINT('',#400);
#117=VERTEX_POINT('',#404);
#118=VERTEX_POINT('',#406);
#119=VERTEX_POINT('',#410);
#120=VERTEX_POINT('',#412);
#121=VERTEX_POINT('',#416);
#122=VERTEX_POINT('',#418);
#123=VERTEX_POINT('',#420);
#124=VERTEX_POINT('',#422);
#125=VERTEX_POINT('',#424);
#126=VERTEX_POINT('',#426);
#127=VERTEX_POINT('',#429);
#128=VERTEX_POINT('',#431);
#129=VERTEX_POINT('',#434);
#130=VERTEX_POINT('',#438);
#131=VERTEX_POINT('',#440);
#132=VERTEX_POINT('',#444);
#133=VERTEX_POINT('',#448);
#134=VERTEX_POINT('',#452);
#135=VERTEX_POINT('',#458);
#136=VERTEX_POINT('',#462);
#137=EDGE_CURVE('',#113,#114,#97,.F.);
#138=EDGE_CURVE('',#113,#115,#57,.T.);
#139=EDGE_CURVE('',#115,#116,#98,.T.);
#140=EDGE_CURVE('',#116,#114,#58,.T.);
#141=EDGE_CURVE('',#116,#117,#99,.T.);
#142=EDGE_CURVE('',#118,#117,#59,.T.);
#143=EDGE_CURVE('',#118,#114,#100,.T.);
#144=EDGE_CURVE('',#113,#119,#101,.T.);
#145=EDGE_CURVE('',#119,#120,#60,.T.);
#146=EDGE_CURVE('',#120,#115,#102,.T.);
#147=EDGE_CURVE('',#121,#120,#61,.T.);
#148=EDGE_CURVE('',#122,#121,#62,.T.);
#149=EDGE_CURVE('',#123,#122,#63,.T.);
#150=EDGE_CURVE('',#124,#123,#103,.T.);
#151=EDGE_CURVE('',#125,#124,#104,.T.);
#152=EDGE_CURVE('',#126,#125,#64,.T.);
#153=EDGE_CURVE('',#117,#126,#105,.T.);
#154=EDGE_CURVE('',#127,#127,#106,.T.);
#155=EDGE_CURVE('',#128,#128,#107,.T.);
#156=EDGE_CURVE('',#119,#129,#65,.T.);
#157=EDGE_CURVE('',#129,#121,#66,.T.);
#158=EDGE_CURVE('',#130,#125,#67,.T.);
#159=EDGE_CURVE('',#130,#131,#68,.T.);
#160=EDGE_CURVE('',#131,#126,#69,.T.);
#161=EDGE_CURVE('',#132,#124,#70,.T.);
#162=EDGE_CURVE('',#130,#132,#108,.T.);
#163=EDGE_CURVE('',#133,#123,#71,.T.);
#164=EDGE_CURVE('',#133,#132,#109,.T.);
#165=EDGE_CURVE('',#134,#122,#72,.T.);
#166=EDGE_CURVE('',#134,#133,#73,.T.);
#167=EDGE_CURVE('',#129,#134,#74,.T.);
#168=EDGE_CURVE('',#128,#135,#75,.T.);
#169=EDGE_CURVE('',#135,#135,#110,.T.);
#170=EDGE_CURVE('',#127,#136,#76,.T.);
#171=EDGE_CURVE('',#136,#136,#111,.T.);
#172=EDGE_CURVE('',#118,#131,#112,.T.);
#173=ORIENTED_EDGE('',*,*,#137,.F.);
#174=ORIENTED_EDGE('',*,*,#138,.T.);
#175=ORIENTED_EDGE('',*,*,#139,.T.);
#176=ORIENTED_EDGE('',*,*,#140,.T.);
#177=ORIENTED_EDGE('',*,*,#140,.F.);
#178=ORIENTED_EDGE('',*,*,#141,.T.);
#179=ORIENTED_EDGE('',*,*,#142,.F.);
#180=ORIENTED_EDGE('',*,*,#143,.T.);
#181=ORIENTED_EDGE('',*,*,#138,.F.);
#182=ORIENTED_EDGE('',*,*,#144,.T.);
#183=ORIENTED_EDGE('',*,*,#145,.T.);
#184=ORIENTED_EDGE('',*,*,#146,.T.);
#185=ORIENTED_EDGE('',*,*,#146,.F.);
#186=ORIENTED_EDGE('',*,*,#147,.F.);
#187=ORIENTED_EDGE('',*,*,#148,.F.);
#188=ORIENTED_EDGE('',*,*,#149,.F.);
#189=ORIENTED_EDGE('',*,*,#150,.F.);
#190=ORIENTED_EDGE('',*,*,#151,.F.);
#191=ORIENTED_EDGE('',*,*,#152,.F.);
#192=ORIENTED_EDGE('',*,*,#153,.F.);
#193=ORIENTED_EDGE('',*,*,#141,.F.);
#194=ORIENTED_EDGE('',*,*,#139,.F.);
#195=ORIENTED_EDGE('',*,*,#154,.F.);
#196=ORIENTED_EDGE('',*,*,#155,.F.);
#197=ORIENTED_EDGE('',*,*,#145,.F.);
#198=ORIENTED_EDGE('',*,*,#156,.T.);
#199=ORIENTED_EDGE('',*,*,#157,.T.);
#200=ORIENTED_EDGE('',*,*,#147,.T.);
#201=ORIENTED_EDGE('',*,*,#152,.T.);
#202=ORIENTED_EDGE('',*,*,#158,.F.);
#203=ORIENTED_EDGE('',*,*,#159,.T.);
#204=ORIENTED_EDGE('',*,*,#160,.T.);
#205=ORIENTED_EDGE('',*,*,#151,.T.);
#206=ORIENTED_EDGE('',*,*,#161,.F.);
#207=ORIENTED_EDGE('',*,*,#162,.F.);
#208=ORIENTED_EDGE('',*,*,#158,.T.);
#209=ORIENTED_EDGE('',*,*,#150,.T.);
#210=ORIENTED_EDGE('',*,*,#163,.F.);
#211=ORIENTED_EDGE('',*,*,#164,.T.);
#212=ORIENTED_EDGE('',*,*,#161,.T.);
#213=ORIENTED_EDGE('',*,*,#149,.T.);
#214=ORIENTED_EDGE('',*,*,#165,.F.);
#215=ORIENTED_EDGE('',*,*,#166,.T.);
#216=ORIENTED_EDGE('',*,*,#163,.T.);
#217=ORIENTED_EDGE('',*,*,#148,.T.);
#218=ORIENTED_EDGE('',*,*,#157,.F.);
#219=ORIENTED_EDGE('',*,*,#167,.T.);
#220=ORIENTED_EDGE('',*,*,#165,.T.);
#221=ORIENTED_EDGE('',*,*,#155,.T.);
#222=ORIENTED_EDGE('',*,*,#168,.T.);
#223=ORIENTED_EDGE('',*,*,#169,.F.);
#224=ORIENTED_EDGE('',*,*,#168,.F.);
#225=ORIENTED_EDGE('',*,*,#154,.T.);
#226=ORIENTED_EDGE('',*,*,#170,.T.);
#227=ORIENTED_EDGE('',*,*,#171,.F.);
#228=ORIENTED_EDGE('',*,*,#170,.F.);
#229=ORIENTED_EDGE('',*,*,#153,.T.);
#230=ORIENTED_EDGE('',*,*,#160,.F.);
#231=ORIENTED_EDGE('',*,*,#172,.F.);
#232=ORIENTED_EDGE('',*,*,#142,.T.);
#233=ORIENTED_EDGE('',*,*,#143,.F.);
#234=ORIENTED_EDGE('',*,*,#172,.T.);
#235=ORIENTED_EDGE('',*,*,#159,.F.);
#236=ORIENTED_EDGE('',*,*,#162,.T.);
#237=ORIENTED_EDGE('',*,*,#164,.F.);
#238=ORIENTED_EDGE('',*,*,#166,.F.);
#239=ORIENTED_EDGE('',*,*,#167,.F.);
#240=ORIENTED_EDGE('',*,*,#156,.F.);
#241=ORIENTED_EDGE('',*,*,#144,.F.);
#242=ORIENTED_EDGE('',*,*,#137,.T.);
#243=ORIENTED_EDGE('',*,*,#169,.T.);
#244=ORIENTED_EDGE('',*,*,#171,.T.);
#245=CYLINDRICAL_SURFACE('',#281,224.5);
#246=CYLINDRICAL_SURFACE('',#284,2.);
#247=CYLINDRICAL_SURFACE('',#287,10.5);
#248=CYLINDRICAL_SURFACE('',#298,5.5);
#249=CYLINDRICAL_SURFACE('',#300,2.00000002980232);
#250=CYLINDRICAL_SURFACE('',#304,1.15);
#251=CYLINDRICAL_SURFACE('',#306,1.15);
#252=CYLINDRICAL_SURFACE('',#308,5.5);
#253=ADVANCED_FACE('',(#25),#245,.F.);
#254=ADVANCED_FACE('',(#26),#246,.T.);
#255=ADVANCED_FACE('',(#27),#247,.T.);
#256=ADVANCED_FACE('',(#28,#15,#16),#19,.T.);
#257=ADVANCED_FACE('',(#29),#20,.T.);
#258=ADVANCED_FACE('',(#30),#21,.T.);
#259=ADVANCED_FACE('',(#31),#248,.F.);
#260=ADVANCED_FACE('',(#32),#249,.T.);
#261=ADVANCED_FACE('',(#33),#22,.T.);
#262=ADVANCED_FACE('',(#34),#23,.T.);
#263=ADVANCED_FACE('',(#35),#250,.F.);
#264=ADVANCED_FACE('',(#36),#251,.F.);
#265=ADVANCED_FACE('',(#37),#252,.F.);
#266=ADVANCED_FACE('',(#38,#17,#18),#24,.F.);
#267=CLOSED_SHELL('',(#253,#254,#255,#256,#257,#258,#259,#260,#261,#262,
#263,#264,#265,#266));
#268=DERIVED_UNIT_ELEMENT(#270,1.);
#269=DERIVED_UNIT_ELEMENT(#473,-3.);
#270=(
MASS_UNIT()
NAMED_UNIT(*)
SI_UNIT(.KILO.,.GRAM.)
);
#271=DERIVED_UNIT((#268,#269));
#272=MEASURE_REPRESENTATION_ITEM('density measure',
POSITIVE_RATIO_MEASURE(7850.),#271);
#273=PROPERTY_DEFINITION_REPRESENTATION(#278,#275);
#274=PROPERTY_DEFINITION_REPRESENTATION(#279,#276);
#275=REPRESENTATION('material name',(#277),#470);
#276=REPRESENTATION('density',(#272),#470);
#277=DESCRIPTIVE_REPRESENTATION_ITEM('Steel','Steel');
#278=PROPERTY_DEFINITION('material property','material name',#480);
#279=PROPERTY_DEFINITION('material property','density of part',#480);
#280=AXIS2_PLACEMENT_3D('',#393,#311,#312);
#281=AXIS2_PLACEMENT_3D('',#394,#313,#314);
#282=AXIS2_PLACEMENT_3D('',#397,#315,#316);
#283=AXIS2_PLACEMENT_3D('',#401,#318,#319);
#284=AXIS2_PLACEMENT_3D('',#403,#321,#322);
#285=AXIS2_PLACEMENT_3D('',#405,#323,#324);
#286=AXIS2_PLACEMENT_3D('',#408,#326,#327);
#287=AXIS2_PLACEMENT_3D('',#409,#328,#329);
#288=AXIS2_PLACEMENT_3D('',#411,#330,#331);
#289=AXIS2_PLACEMENT_3D('',#414,#333,#334);
#290=AXIS2_PLACEMENT_3D('',#415,#335,#336);
#291=AXIS2_PLACEMENT_3D('',#423,#340,#341);
#292=AXIS2_PLACEMENT_3D('',#425,#342,#343);
#293=AXIS2_PLACEMENT_3D('',#428,#345,#346);
#294=AXIS2_PLACEMENT_3D('',#430,#347,#348);
#295=AXIS2_PLACEMENT_3D('',#432,#349,#350);
#296=AXIS2_PLACEMENT_3D('',#433,#351,#352);
#297=AXIS2_PLACEMENT_3D('',#437,#355,#356);
#298=AXIS2_PLACEMENT_3D('',#443,#360,#361);
#299=AXIS2_PLACEMENT_3D('',#446,#363,#364);
#300=AXIS2_PLACEMENT_3D('',#447,#365,#366);
#301=AXIS2_PLACEMENT_3D('',#450,#368,#369);
#302=AXIS2_PLACEMENT_3D('',#451,#370,#371);
#303=AXIS2_PLACEMENT_3D('',#455,#374,#375);
#304=AXIS2_PLACEMENT_3D('',#457,#377,#378);
#305=AXIS2_PLACEMENT_3D('',#460,#380,#381);
#306=AXIS2_PLACEMENT_3D('',#461,#382,#383);
#307=AXIS2_PLACEMENT_3D('',#464,#385,#386);
#308=AXIS2_PLACEMENT_3D('',#465,#387,#388);
#309=AXIS2_PLACEMENT_3D('',#466,#389,#390);
#310=AXIS2_PLACEMENT_3D('',#467,#391,#392);
#311=DIRECTION('axis',(0.,0.,1.));
#312=DIRECTION('refdir',(1.,0.,0.));
#313=DIRECTION('center_axis',(0.,0.,-1.));
#314=DIRECTION('ref_axis',(0.654900919625134,-0.755714751393774,0.));
#315=DIRECTION('center_axis',(0.,0.,-1.));
#316=DIRECTION('ref_axis',(0.654900919625134,-0.755714751393774,0.));
#317=DIRECTION('',(0.,0.,1.));
#318=DIRECTION('center_axis',(0.,0.,1.));
#319=DIRECTION('ref_axis',(0.654900919625134,-0.755714751393774,0.));
#320=DIRECTION('',(0.,0.,-1.));
#321=DIRECTION('center_axis',(0.,0.,1.));
#322=DIRECTION('ref_axis',(-0.916515142026088,-0.399999993046125,0.));
#323=DIRECTION('center_axis',(0.,0.,-1.));
#324=DIRECTION('ref_axis',(-0.916515142026088,-0.399999993046125,0.));
#325=DIRECTION('',(0.,0.,1.));
#326=DIRECTION('center_axis',(0.,0.,1.));
#327=DIRECTION('ref_axis',(-0.916515142026088,-0.399999993046125,0.));
#328=DIRECTION('center_axis',(0.,0.,1.));
#329=DIRECTION('ref_axis',(0.428571428571428,-0.903507902905251,0.));
#330=DIRECTION('center_axis',(0.,0.,1.));
#331=DIRECTION('ref_axis',(0.428571428571428,-0.903507902905251,0.));
#332=DIRECTION('',(0.,0.,1.));
#333=DIRECTION('center_axis',(0.,0.,-1.));
#334=DIRECTION('ref_axis',(0.428571428571428,-0.903507902905251,0.));
#335=DIRECTION('center_axis',(0.,0.,1.));
#336=DIRECTION('ref_axis',(-1.,0.,0.));
#337=DIRECTION('',(0.,-1.,0.));
#338=DIRECTION('',(1.,0.,0.));
#339=DIRECTION('',(0.,1.,0.));
#340=DIRECTION('center_axis',(0.,0.,-1.));
#341=DIRECTION('ref_axis',(-1.,0.,0.));
#342=DIRECTION('center_axis',(0.,0.,1.));
#343=DIRECTION('ref_axis',(8.07434927000114E-16,1.,0.));
#344=DIRECTION('',(-1.,0.,0.));
#345=DIRECTION('center_axis',(0.,0.,1.));
#346=DIRECTION('ref_axis',(0.916515142026088,0.399999993046125,0.));
#347=DIRECTION('center_axis',(0.,0.,1.));
#348=DIRECTION('ref_axis',(-1.,0.,0.));
#349=DIRECTION('center_axis',(0.,0.,1.));
#350=DIRECTION('ref_axis',(-1.,0.,0.));
#351=DIRECTION('center_axis',(1.,0.,0.));
#352=DIRECTION('ref_axis',(0.,0.,-1.));
#353=DIRECTION('',(0.,1.,0.));
#354=DIRECTION('',(0.,0.,1.));
#355=DIRECTION('center_axis',(0.,-1.,0.));
#356=DIRECTION('ref_axis',(1.,0.,0.));
#357=DIRECTION('',(0.,0.,1.));
#358=DIRECTION('',(1.,0.,0.));
#359=DIRECTION('',(0.,0.,1.));
#360=DIRECTION('center_axis',(0.,0.,1.));
#361=DIRECTION('ref_axis',(8.07434927000114E-16,1.,0.));
#362=DIRECTION('',(0.,0.,1.));
#363=DIRECTION('center_axis',(0.,0.,1.));
#364=DIRECTION('ref_axis',(8.07434927000114E-16,1.,0.));
#365=DIRECTION('center_axis',(0.,0.,1.));
#366=DIRECTION('ref_axis',(-1.,0.,0.));
#367=DIRECTION('',(0.,0.,1.));
#368=DIRECTION('center_axis',(0.,0.,1.));
#369=DIRECTION('ref_axis',(-1.,0.,0.));
#370=DIRECTION('center_axis',(-1.,0.,0.));
#371=DIRECTION('ref_axis',(0.,-1.,0.));
#372=DIRECTION('',(0.,0.,1.));
#373=DIRECTION('',(0.,-1.,0.));
#374=DIRECTION('center_axis',(0.,1.,0.));
#375=DIRECTION('ref_axis',(-1.,0.,0.));
#376=DIRECTION('',(-1.,0.,0.));
#377=DIRECTION('center_axis',(0.,0.,-1.));
#378=DIRECTION('ref_axis',(-1.,0.,0.));
#379=DIRECTION('',(0.,0.,-1.));
#380=DIRECTION('center_axis',(0.,0.,1.));
#381=DIRECTION('ref_axis',(-1.,0.,0.));
#382=DIRECTION('center_axis',(0.,0.,-1.));
#383=DIRECTION('ref_axis',(-1.,0.,0.));
#384=DIRECTION('',(0.,0.,-1.));
#385=DIRECTION('center_axis',(0.,0.,1.));
#386=DIRECTION('ref_axis',(-1.,0.,0.));
#387=DIRECTION('center_axis',(0.,0.,1.));
#388=DIRECTION('ref_axis',(0.916515142026088,0.399999993046125,0.));
#389=DIRECTION('center_axis',(0.,0.,1.));
#390=DIRECTION('ref_axis',(0.916515142026088,0.399999993046125,0.));
#391=DIRECTION('center_axis',(0.,0.,1.));
#392=DIRECTION('ref_axis',(-1.,0.,0.));
#393=CARTESIAN_POINT('',(0.,0.,0.));
#394=CARTESIAN_POINT('Origin',(131.335058041773,-158.169390996975,-26.789721875));
#395=CARTESIAN_POINT('',(-12.7605614499619,13.9837456090515,-26.789721875));
#396=CARTESIAN_POINT('',(-15.6901984140694,11.4885706909276,-26.789721875));
#397=CARTESIAN_POINT('Origin',(131.335058041773,-158.169390996975,-26.789721875));
#398=CARTESIAN_POINT('',(-12.7605614499619,13.9837456090515,-25.589721875));
#399=CARTESIAN_POINT('',(-12.7605614499619,13.9837456090515,-26.789721875));
#400=CARTESIAN_POINT('',(-15.6901984140694,11.4885706909276,-25.589721875));
#401=CARTESIAN_POINT('Origin',(131.335058041773,-158.169390996975,-25.589721875));
#402=CARTESIAN_POINT('',(-15.6901984140694,11.4885706909276,-26.789721875));
#403=CARTESIAN_POINT('Origin',(-17.0000002533197,13.0000001937151,-26.789721875));
#404=CARTESIAN_POINT('',(-18.8330305373719,12.2000002076228,-25.589721875));
#405=CARTESIAN_POINT('Origin',(-17.0000002533197,13.0000001937151,-25.589721875));
#406=CARTESIAN_POINT('',(-18.8330305373719,12.2000002076228,-26.789721875));
#407=CARTESIAN_POINT('',(-18.8330305373719,12.2000002076228,-26.789721875));
#408=CARTESIAN_POINT('Origin',(-17.0000002533197,13.0000001937151,-26.789721875));
#409=CARTESIAN_POINT('Origin',(-19.5000002235174,22.035451330046,-26.789721875));
#410=CARTESIAN_POINT('',(-9.00000022351742,22.035451330046,-26.789721875));
#411=CARTESIAN_POINT('Origin',(-19.5000002235174,22.035451330046,-26.789721875));
#412=CARTESIAN_POINT('',(-9.00000022351742,22.035451330046,-25.589721875));
#413=CARTESIAN_POINT('',(-9.00000022351742,22.035451330046,-26.789721875));
#414=CARTESIAN_POINT('Origin',(-19.5000002235174,22.035451330046,-25.589721875));
#415=CARTESIAN_POINT('Origin',(-24.5000003650784,21.8500000819564,-25.589721875));
#416=CARTESIAN_POINT('',(-9.00000022351742,32.7,-25.589721875));
#417=CARTESIAN_POINT('',(-9.00000022351742,17.1993092157486,-25.589721875));
#418=CARTESIAN_POINT('',(-34.0000005066395,32.7,-25.589721875));
#419=CARTESIAN_POINT('',(-19.7500002942979,32.7,-25.589721875));
#420=CARTESIAN_POINT('',(-34.0000005066395,13.0000001937151,-25.589721875));
#421=CARTESIAN_POINT('',(-34.0000005066395,27.2750000409782,-25.589721875));
#422=CARTESIAN_POINT('',(-30.1669701640833,12.2000001988808,-25.589721875));
#423=CARTESIAN_POINT('Origin',(-32.0000004768372,13.0000001937151,-25.589721875));
#424=CARTESIAN_POINT('',(-25.1261368791245,15.5000002458692,-25.589721875));
#425=CARTESIAN_POINT('Origin',(-25.1261368791245,10.0000002458692,-25.589721875));
#426=CARTESIAN_POINT('',(-23.8738638185154,15.5000002458692,-25.589721875));
#427=CARTESIAN_POINT('',(-24.8130686221015,15.5000002458692,-25.589721875));
#428=CARTESIAN_POINT('Origin',(-23.8738638185154,10.0000002458692,-25.589721875));
#429=CARTESIAN_POINT('',(-30.8500004768372,13.0000001937151,-25.589721875));
#430=CARTESIAN_POINT('Origin',(-32.0000004768372,13.0000001937151,-25.589721875));
#431=CARTESIAN_POINT('',(-15.8500002533197,13.0000001937151,-25.589721875));
#432=CARTESIAN_POINT('Origin',(-17.0000002533197,13.0000001937151,-25.589721875));
#433=CARTESIAN_POINT('Origin',(-9.00000022351742,12.5486183495409,-26.789721875));
#434=CARTESIAN_POINT('',(-9.00000022351742,32.7,-26.789721875));
#435=CARTESIAN_POINT('',(-9.00000022351742,17.7,-26.789721875));
#436=CARTESIAN_POINT('',(-9.00000022351742,32.7,-26.789721875));
#437=CARTESIAN_POINT('Origin',(-25.1261368791245,15.5000002458692,-26.789721875));
#438=CARTESIAN_POINT('',(-25.1261368791245,15.5000002458692,-26.789721875));
#439=CARTESIAN_POINT('',(-25.1261368791245,15.5000002458692,-26.789721875));
#440=CARTESIAN_POINT('',(-23.8738638185154,15.5000002458692,-26.789721875));
#441=CARTESIAN_POINT('',(-25.1261368791245,15.5000002458692,-26.789721875));
#442=CARTESIAN_POINT('',(-23.8738638185154,15.5000002458692,-26.789721875));
#443=CARTESIAN_POINT('Origin',(-25.1261368791245,10.0000002458692,-26.789721875));
#444=CARTESIAN_POINT('',(-30.1669701640833,12.2000001988808,-26.789721875));
#445=CARTESIAN_POINT('',(-30.1669701640833,12.2000001988808,-26.789721875));
#446=CARTESIAN_POINT('Origin',(-25.1261368791245,10.0000002458692,-26.789721875));
#447=CARTESIAN_POINT('Origin',(-32.0000004768372,13.0000001937151,-26.789721875));
#448=CARTESIAN_POINT('',(-34.0000005066395,13.0000001937151,-26.789721875));
#449=CARTESIAN_POINT('',(-34.0000005066395,13.0000001937151,-26.789721875));
#450=CARTESIAN_POINT('Origin',(-32.0000004768372,13.0000001937151,-26.789721875));
#451=CARTESIAN_POINT('Origin',(-34.0000005066395,32.7,-26.789721875));
#452=CARTESIAN_POINT('',(-34.0000005066395,32.7,-26.789721875));
#453=CARTESIAN_POINT('',(-34.0000005066395,32.7,-26.789721875));
#454=CARTESIAN_POINT('',(-34.0000005066395,32.7,-26.789721875));
#455=CARTESIAN_POINT('Origin',(-15.0000002235174,32.7,-26.789721875));
#456=CARTESIAN_POINT('',(-15.0000002235174,32.7,-26.789721875));
#457=CARTESIAN_POINT('Origin',(-17.0000002533197,13.0000001937151,-25.289721875));
#458=CARTESIAN_POINT('',(-15.8500002533197,13.0000001937151,-26.789721875));
#459=CARTESIAN_POINT('',(-15.8500002533197,13.0000001937151,-25.289721875));
#460=CARTESIAN_POINT('Origin',(-17.0000002533197,13.0000001937151,-26.789721875));
#461=CARTESIAN_POINT('Origin',(-32.0000004768372,13.0000001937151,-25.289721875));
#462=CARTESIAN_POINT('',(-30.8500004768372,13.0000001937151,-26.789721875));
#463=CARTESIAN_POINT('',(-30.8500004768372,13.0000001937151,-25.289721875));
#464=CARTESIAN_POINT('Origin',(-32.0000004768372,13.0000001937151,-26.789721875));
#465=CARTESIAN_POINT('Origin',(-23.8738638185154,10.0000002458692,-26.789721875));
#466=CARTESIAN_POINT('Origin',(-23.8738638185154,10.0000002458692,-26.789721875));
#467=CARTESIAN_POINT('Origin',(-24.5000003650784,21.8500000819564,-26.789721875));
#468=UNCERTAINTY_MEASURE_WITH_UNIT(LENGTH_MEASURE(0.01),#472,
'DISTANCE_ACCURACY_VALUE',
'Maximum model space distance between geometric entities at asserted c
onnectivities');
#469=UNCERTAINTY_MEASURE_WITH_UNIT(LENGTH_MEASURE(0.01),#472,
'DISTANCE_ACCURACY_VALUE',
'Maximum model space distance between geometric entities at asserted c
onnectivities');
#470=(
GEOMETRIC_REPRESENTATION_CONTEXT(3)
GLOBAL_UNCERTAINTY_ASSIGNED_CONTEXT((#468))
GLOBAL_UNIT_ASSIGNED_CONTEXT((#472,#474,#475))
REPRESENTATION_CONTEXT('','3D')
);
#471=(
GEOMETRIC_REPRESENTATION_CONTEXT(3)
GLOBAL_UNCERTAINTY_ASSIGNED_CONTEXT((#469))
GLOBAL_UNIT_ASSIGNED_CONTEXT((#472,#474,#475))
REPRESENTATION_CONTEXT('','3D')
);
#472=(
LENGTH_UNIT()
NAMED_UNIT(*)
SI_UNIT(.MILLI.,.METRE.)
);
#473=(
LENGTH_UNIT()
NAMED_UNIT(*)
SI_UNIT($,.METRE.)
);
#474=(
NAMED_UNIT(*)
PLANE_ANGLE_UNIT()
SI_UNIT($,.RADIAN.)
);
#475=(
NAMED_UNIT(*)
SI_UNIT($,.STERADIAN.)
SOLID_ANGLE_UNIT()
);
#476=SHAPE_DEFINITION_REPRESENTATION(#477,#478);
#477=PRODUCT_DEFINITION_SHAPE('',$,#480);
#478=SHAPE_REPRESENTATION('',(#280),#470);
#479=PRODUCT_DEFINITION_CONTEXT('part definition',#484,'design');
#480=PRODUCT_DEFINITION('2026-08-13-17-43-07-758','MH-CD Holder',#481,#479);
#481=PRODUCT_DEFINITION_FORMATION('',$,#486);
#482=PRODUCT_RELATED_PRODUCT_CATEGORY('MH-CD Holder','MH-CD Holder',(#486));
#483=APPLICATION_PROTOCOL_DEFINITION('international standard',
'automotive_design',2009,#484);
#484=APPLICATION_CONTEXT(
'Core Data for Automotive Mechanical Design Process');
#485=PRODUCT_CONTEXT('part definition',#484,'mechanical');
#486=PRODUCT('2026-08-13-17-43-07-758','MH-CD Holder',$,(#485));
#487=PRESENTATION_STYLE_ASSIGNMENT((#488));
#488=SURFACE_STYLE_USAGE(.BOTH.,#489);
#489=SURFACE_SIDE_STYLE('',(#490));
#490=SURFACE_STYLE_FILL_AREA(#491);
#491=FILL_AREA_STYLE('Steel - Satin',(#492));
#492=FILL_AREA_STYLE_COLOUR('Steel - Satin',#493);
#493=COLOUR_RGB('Steel - Satin',0.627450980392157,0.627450980392157,0.627450980392157);
ENDSEC;
END-ISO-10303-21;
