ISO-10303-21;
HEADER;
/* Generated by software containing ST-Developer
 * from STEP Tools, Inc. (www.steptools.com) 
 */

FILE_DESCRIPTION(
/* description */ (''),
/* implementation_level */ '2;1');

FILE_NAME(
/* name */ 'Option Button.step',
/* time_stamp */ '2026-08-13T17:45:00+02:00',
/* author */ (''),
/* organization */ (''),
/* preprocessor_version */ 'ST-DEVELOPER v20.1',
/* originating_system */ 'Autodesk Translation Framework v15.8.0.0',
/* authorisation */ '');

FILE_SCHEMA (('AUTOMOTIVE_DESIGN { 1 0 10303 214 3 1 1 }'));
ENDSEC;

DATA;
#10=MECHANICAL_DESIGN_GEOMETRIC_PRESENTATION_REPRESENTATION('',(#13),#469);
#11=SHAPE_REPRESENTATION_RELATIONSHIP('SRR','None',#476,#12);
#12=ADVANCED_BREP_SHAPE_REPRESENTATION('',(#14),#468);
#13=STYLED_ITEM('',(#485),#14);
#14=MANIFOLD_SOLID_BREP('Body1',#256);
#15=FACE_BOUND('',#69,.T.);
#16=B_SPLINE_CURVE_WITH_KNOTS('',3,(#420,#421,#422,#423,#424,#425,#426,
#427),.UNSPECIFIED.,.F.,.F.,(4,2,2,4),(0.492857955948984,0.542967364100685,
0.593076772252386,0.60180594652079),.UNSPECIFIED.);
#17=B_SPLINE_CURVE_WITH_KNOTS('',3,(#448,#449,#450,#451,#452,#453,#454,
#455),.UNSPECIFIED.,.F.,.F.,(4,2,2,4),(0.383909965377178,0.392639139645581,
0.442748547797281,0.492857955948982),.UNSPECIFIED.);
#18=CONICAL_SURFACE('',#279,1.60000000000001,0.785398163397449);
#19=CONICAL_SURFACE('',#283,4.8,0.785398163397444);
#20=CONICAL_SURFACE('',#291,4.8,0.785398163397437);
#21=CONICAL_SURFACE('',#297,1.60000000000001,0.785398163397449);
#22=CIRCLE('',#272,1.85000000000001);
#23=CIRCLE('',#273,1.85000000000001);
#24=CIRCLE('',#276,1.85);
#25=CIRCLE('',#277,1.85);
#26=CIRCLE('',#280,1.30000000000001);
#27=CIRCLE('',#282,1.90000000000001);
#28=CIRCLE('',#284,4.7);
#29=CIRCLE('',#285,4.9);
#30=CIRCLE('',#287,4.9);
#31=CIRCLE('',#288,4.9);
#32=CIRCLE('',#289,4.9);
#33=CIRCLE('',#292,4.70000000000001);
#34=CIRCLE('',#294,1.90000000000001);
#35=CIRCLE('',#298,1.30000000000001);
#36=CYLINDRICAL_SURFACE('',#271,1.85000000000001);
#37=CYLINDRICAL_SURFACE('',#275,1.85);
#38=CYLINDRICAL_SURFACE('',#281,1.90000000000001);
#39=CYLINDRICAL_SURFACE('',#286,4.9);
#40=CYLINDRICAL_SURFACE('',#295,1.90000000000001);
#41=FACE_OUTER_BOUND('',#57,.T.);
#42=FACE_OUTER_BOUND('',#58,.T.);
#43=FACE_OUTER_BOUND('',#59,.T.);
#44=FACE_OUTER_BOUND('',#60,.T.);
#45=FACE_OUTER_BOUND('',#61,.T.);
#46=FACE_OUTER_BOUND('',#62,.T.);
#47=FACE_OUTER_BOUND('',#63,.T.);
#48=FACE_OUTER_BOUND('',#64,.T.);
#49=FACE_OUTER_BOUND('',#65,.T.);
#50=FACE_OUTER_BOUND('',#66,.T.);
#51=FACE_OUTER_BOUND('',#67,.T.);
#52=FACE_OUTER_BOUND('',#68,.T.);
#53=FACE_OUTER_BOUND('',#70,.T.);
#54=FACE_OUTER_BOUND('',#71,.T.);
#55=FACE_OUTER_BOUND('',#72,.T.);
#56=FACE_OUTER_BOUND('',#73,.T.);
#57=EDGE_LOOP('',(#165,#166,#167,#168));
#58=EDGE_LOOP('',(#169,#170,#171,#172));
#59=EDGE_LOOP('',(#173,#174,#175,#176));
#60=EDGE_LOOP('',(#177,#178,#179,#180));
#61=EDGE_LOOP('',(#181,#182,#183,#184));
#62=EDGE_LOOP('',(#185,#186,#187,#188));
#63=EDGE_LOOP('',(#189,#190,#191));
#64=EDGE_LOOP('',(#192,#193,#194,#195));
#65=EDGE_LOOP('',(#196,#197,#198,#199,#200,#201,#202,#203));
#66=EDGE_LOOP('',(#204));
#67=EDGE_LOOP('',(#205,#206,#207,#208));
#68=EDGE_LOOP('',(#209,#210,#211,#212,#213));
#69=EDGE_LOOP('',(#214,#215,#216,#217));
#70=EDGE_LOOP('',(#218,#219,#220));
#71=EDGE_LOOP('',(#221,#222,#223,#224));
#72=EDGE_LOOP('',(#225,#226,#227,#228));
#73=EDGE_LOOP('',(#229,#230,#231,#232));
#74=LINE('',#384,#92);
#75=LINE('',#386,#93);
#76=LINE('',#388,#94);
#77=LINE('',#389,#95);
#78=LINE('',#395,#96);
#79=LINE('',#398,#97);
#80=LINE('',#400,#98);
#81=LINE('',#401,#99);
#82=LINE('',#407,#100);
#83=LINE('',#409,#101);
#84=LINE('',#410,#102);
#85=LINE('',#413,#103);
#86=LINE('',#428,#104);
#87=LINE('',#433,#105);
#88=LINE('',#439,#106);
#89=LINE('',#442,#107);
#90=LINE('',#461,#108);
#91=LINE('',#462,#109);
#92=VECTOR('',#304,10.);
#93=VECTOR('',#305,10.);
#94=VECTOR('',#306,10.);
#95=VECTOR('',#307,10.);
#96=VECTOR('',#314,10.);
#97=VECTOR('',#317,10.);
#98=VECTOR('',#318,10.);
#99=VECTOR('',#319,10.);
#100=VECTOR('',#328,10.);
#101=VECTOR('',#329,10.);
#102=VECTOR('',#330,10.);
#103=VECTOR('',#333,10.);
#104=VECTOR('',#340,10.);
#105=VECTOR('',#345,4.8);
#106=VECTOR('',#352,10.);
#107=VECTOR('',#355,4.9);
#108=VECTOR('',#372,10.);
#109=VECTOR('',#373,10.);
#110=VERTEX_POINT('',#382);
#111=VERTEX_POINT('',#383);
#112=VERTEX_POINT('',#385);
#113=VERTEX_POINT('',#387);
#114=VERTEX_POINT('',#391);
#115=VERTEX_POINT('',#393);
#116=VERTEX_POINT('',#397);
#117=VERTEX_POINT('',#399);
#118=VERTEX_POINT('',#406);
#119=VERTEX_POINT('',#408);
#120=VERTEX_POINT('',#412);
#121=VERTEX_POINT('',#416);
#122=VERTEX_POINT('',#417);
#123=VERTEX_POINT('',#419);
#124=VERTEX_POINT('',#430);
#125=VERTEX_POINT('',#432);
#126=VERTEX_POINT('',#436);
#127=VERTEX_POINT('',#438);
#128=VERTEX_POINT('',#440);
#129=VERTEX_POINT('',#446);
#130=VERTEX_POINT('',#460);
#131=EDGE_CURVE('',#110,#111,#74,.T.);
#132=EDGE_CURVE('',#110,#112,#75,.T.);
#133=EDGE_CURVE('',#112,#113,#76,.T.);
#134=EDGE_CURVE('',#111,#113,#77,.T.);
#135=EDGE_CURVE('',#111,#114,#22,.T.);
#136=EDGE_CURVE('',#113,#115,#23,.T.);
#137=EDGE_CURVE('',#114,#115,#78,.T.);
#138=EDGE_CURVE('',#114,#116,#79,.T.);
#139=EDGE_CURVE('',#115,#117,#80,.T.);
#140=EDGE_CURVE('',#116,#117,#81,.T.);
#141=EDGE_CURVE('',#116,#110,#24,.T.);
#142=EDGE_CURVE('',#117,#112,#25,.T.);
#143=EDGE_CURVE('',#111,#118,#82,.T.);
#144=EDGE_CURVE('',#118,#119,#83,.T.);
#145=EDGE_CURVE('',#119,#110,#84,.T.);
#146=EDGE_CURVE('',#114,#120,#85,.T.);
#147=EDGE_CURVE('',#120,#118,#26,.T.);
#148=EDGE_CURVE('',#121,#122,#27,.T.);
#149=EDGE_CURVE('',#123,#122,#16,.T.);
#150=EDGE_CURVE('',#121,#123,#86,.T.);
#151=EDGE_CURVE('',#124,#124,#28,.T.);
#152=EDGE_CURVE('',#124,#125,#87,.T.);
#153=EDGE_CURVE('',#125,#125,#29,.T.);
#154=EDGE_CURVE('',#126,#123,#30,.T.);
#155=EDGE_CURVE('',#127,#126,#88,.T.);
#156=EDGE_CURVE('',#128,#127,#31,.T.);
#157=EDGE_CURVE('',#128,#125,#89,.T.);
#158=EDGE_CURVE('',#121,#128,#32,.T.);
#159=EDGE_CURVE('',#122,#129,#33,.T.);
#160=EDGE_CURVE('',#126,#129,#17,.F.);
#161=EDGE_CURVE('',#129,#127,#34,.T.);
#162=EDGE_CURVE('',#116,#130,#90,.T.);
#163=EDGE_CURVE('',#130,#120,#91,.T.);
#164=EDGE_CURVE('',#119,#130,#35,.T.);
#165=ORIENTED_EDGE('',*,*,#131,.F.);
#166=ORIENTED_EDGE('',*,*,#132,.T.);
#167=ORIENTED_EDGE('',*,*,#133,.T.);
#168=ORIENTED_EDGE('',*,*,#134,.F.);
#169=ORIENTED_EDGE('',*,*,#135,.F.);
#170=ORIENTED_EDGE('',*,*,#134,.T.);
#171=ORIENTED_EDGE('',*,*,#136,.T.);
#172=ORIENTED_EDGE('',*,*,#137,.F.);
#173=ORIENTED_EDGE('',*,*,#138,.F.);
#174=ORIENTED_EDGE('',*,*,#137,.T.);
#175=ORIENTED_EDGE('',*,*,#139,.T.);
#176=ORIENTED_EDGE('',*,*,#140,.F.);
#177=ORIENTED_EDGE('',*,*,#141,.F.);
#178=ORIENTED_EDGE('',*,*,#140,.T.);
#179=ORIENTED_EDGE('',*,*,#142,.T.);
#180=ORIENTED_EDGE('',*,*,#132,.F.);
#181=ORIENTED_EDGE('',*,*,#131,.T.);
#182=ORIENTED_EDGE('',*,*,#143,.T.);
#183=ORIENTED_EDGE('',*,*,#144,.T.);
#184=ORIENTED_EDGE('',*,*,#145,.T.);
#185=ORIENTED_EDGE('',*,*,#135,.T.);
#186=ORIENTED_EDGE('',*,*,#146,.T.);
#187=ORIENTED_EDGE('',*,*,#147,.T.);
#188=ORIENTED_EDGE('',*,*,#143,.F.);
#189=ORIENTED_EDGE('',*,*,#148,.T.);
#190=ORIENTED_EDGE('',*,*,#149,.F.);
#191=ORIENTED_EDGE('',*,*,#150,.F.);
#192=ORIENTED_EDGE('',*,*,#151,.T.);
#193=ORIENTED_EDGE('',*,*,#152,.T.);
#194=ORIENTED_EDGE('',*,*,#153,.T.);
#195=ORIENTED_EDGE('',*,*,#152,.F.);
#196=ORIENTED_EDGE('',*,*,#150,.T.);
#197=ORIENTED_EDGE('',*,*,#154,.F.);
#198=ORIENTED_EDGE('',*,*,#155,.F.);
#199=ORIENTED_EDGE('',*,*,#156,.F.);
#200=ORIENTED_EDGE('',*,*,#157,.T.);
#201=ORIENTED_EDGE('',*,*,#153,.F.);
#202=ORIENTED_EDGE('',*,*,#157,.F.);
#203=ORIENTED_EDGE('',*,*,#158,.F.);
#204=ORIENTED_EDGE('',*,*,#151,.F.);
#205=ORIENTED_EDGE('',*,*,#149,.T.);
#206=ORIENTED_EDGE('',*,*,#159,.T.);
#207=ORIENTED_EDGE('',*,*,#160,.F.);
#208=ORIENTED_EDGE('',*,*,#154,.T.);
#209=ORIENTED_EDGE('',*,*,#158,.T.);
#210=ORIENTED_EDGE('',*,*,#156,.T.);
#211=ORIENTED_EDGE('',*,*,#161,.F.);
#212=ORIENTED_EDGE('',*,*,#159,.F.);
#213=ORIENTED_EDGE('',*,*,#148,.F.);
#214=ORIENTED_EDGE('',*,*,#142,.F.);
#215=ORIENTED_EDGE('',*,*,#139,.F.);
#216=ORIENTED_EDGE('',*,*,#136,.F.);
#217=ORIENTED_EDGE('',*,*,#133,.F.);
#218=ORIENTED_EDGE('',*,*,#161,.T.);
#219=ORIENTED_EDGE('',*,*,#155,.T.);
#220=ORIENTED_EDGE('',*,*,#160,.T.);
#221=ORIENTED_EDGE('',*,*,#138,.T.);
#222=ORIENTED_EDGE('',*,*,#162,.T.);
#223=ORIENTED_EDGE('',*,*,#163,.T.);
#224=ORIENTED_EDGE('',*,*,#146,.F.);
#225=ORIENTED_EDGE('',*,*,#141,.T.);
#226=ORIENTED_EDGE('',*,*,#145,.F.);
#227=ORIENTED_EDGE('',*,*,#164,.T.);
#228=ORIENTED_EDGE('',*,*,#162,.F.);
#229=ORIENTED_EDGE('',*,*,#144,.F.);
#230=ORIENTED_EDGE('',*,*,#147,.F.);
#231=ORIENTED_EDGE('',*,*,#163,.F.);
#232=ORIENTED_EDGE('',*,*,#164,.F.);
#233=PLANE('',#270);
#234=PLANE('',#274);
#235=PLANE('',#278);
#236=PLANE('',#290);
#237=PLANE('',#293);
#238=PLANE('',#296);
#239=PLANE('',#299);
#240=ADVANCED_FACE('',(#41),#233,.F.);
#241=ADVANCED_FACE('',(#42),#36,.T.);
#242=ADVANCED_FACE('',(#43),#234,.F.);
#243=ADVANCED_FACE('',(#44),#37,.T.);
#244=ADVANCED_FACE('',(#45),#235,.T.);
#245=ADVANCED_FACE('',(#46),#18,.T.);
#246=ADVANCED_FACE('',(#47),#38,.T.);
#247=ADVANCED_FACE('',(#48),#19,.T.);
#248=ADVANCED_FACE('',(#49),#39,.T.);
#249=ADVANCED_FACE('',(#50),#236,.F.);
#250=ADVANCED_FACE('',(#51),#20,.T.);
#251=ADVANCED_FACE('',(#52,#15),#237,.F.);
#252=ADVANCED_FACE('',(#53),#40,.T.);
#253=ADVANCED_FACE('',(#54),#238,.T.);
#254=ADVANCED_FACE('',(#55),#21,.T.);
#255=ADVANCED_FACE('',(#56),#239,.T.);
#256=CLOSED_SHELL('',(#240,#241,#242,#243,#244,#245,#246,#247,#248,#249,
#250,#251,#252,#253,#254,#255));
#257=DERIVED_UNIT_ELEMENT(#259,1.);
#258=DERIVED_UNIT_ELEMENT(#471,-3.);
#259=(
MASS_UNIT()
NAMED_UNIT(*)
SI_UNIT(.KILO.,.GRAM.)
);
#260=DERIVED_UNIT((#257,#258));
#261=MEASURE_REPRESENTATION_ITEM('density measure',
POSITIVE_RATIO_MEASURE(7850.),#260);
#262=PROPERTY_DEFINITION_REPRESENTATION(#267,#264);
#263=PROPERTY_DEFINITION_REPRESENTATION(#268,#265);
#264=REPRESENTATION('material name',(#266),#468);
#265=REPRESENTATION('density',(#261),#468);
#266=DESCRIPTIVE_REPRESENTATION_ITEM('Steel','Steel');
#267=PROPERTY_DEFINITION('material property','material name',#478);
#268=PROPERTY_DEFINITION('material property','density of part',#478);
#269=AXIS2_PLACEMENT_3D('',#380,#300,#301);
#270=AXIS2_PLACEMENT_3D('',#381,#302,#303);
#271=AXIS2_PLACEMENT_3D('',#390,#308,#309);
#272=AXIS2_PLACEMENT_3D('',#392,#310,#311);
#273=AXIS2_PLACEMENT_3D('',#394,#312,#313);
#274=AXIS2_PLACEMENT_3D('',#396,#315,#316);
#275=AXIS2_PLACEMENT_3D('',#402,#320,#321);
#276=AXIS2_PLACEMENT_3D('',#403,#322,#323);
#277=AXIS2_PLACEMENT_3D('',#404,#324,#325);
#278=AXIS2_PLACEMENT_3D('',#405,#326,#327);
#279=AXIS2_PLACEMENT_3D('',#411,#331,#332);
#280=AXIS2_PLACEMENT_3D('',#414,#334,#335);
#281=AXIS2_PLACEMENT_3D('',#415,#336,#337);
#282=AXIS2_PLACEMENT_3D('',#418,#338,#339);
#283=AXIS2_PLACEMENT_3D('',#429,#341,#342);
#284=AXIS2_PLACEMENT_3D('',#431,#343,#344);
#285=AXIS2_PLACEMENT_3D('',#434,#346,#347);
#286=AXIS2_PLACEMENT_3D('',#435,#348,#349);
#287=AXIS2_PLACEMENT_3D('',#437,#350,#351);
#288=AXIS2_PLACEMENT_3D('',#441,#353,#354);
#289=AXIS2_PLACEMENT_3D('',#443,#356,#357);
#290=AXIS2_PLACEMENT_3D('',#444,#358,#359);
#291=AXIS2_PLACEMENT_3D('',#445,#360,#361);
#292=AXIS2_PLACEMENT_3D('',#447,#362,#363);
#293=AXIS2_PLACEMENT_3D('',#456,#364,#365);
#294=AXIS2_PLACEMENT_3D('',#457,#366,#367);
#295=AXIS2_PLACEMENT_3D('',#458,#368,#369);
#296=AXIS2_PLACEMENT_3D('',#459,#370,#371);
#297=AXIS2_PLACEMENT_3D('',#463,#374,#375);
#298=AXIS2_PLACEMENT_3D('',#464,#376,#377);
#299=AXIS2_PLACEMENT_3D('',#465,#378,#379);
#300=DIRECTION('axis',(0.,0.,1.));
#301=DIRECTION('refdir',(1.,0.,0.));
#302=DIRECTION('center_axis',(0.642787609686538,-0.766044443118979,0.));
#303=DIRECTION('ref_axis',(-0.766044443118979,-0.642787609686538,0.));
#304=DIRECTION('',(-0.766044443118979,-0.642787609686538,-1.96261557335472E-15));
#305=DIRECTION('',(0.,0.,-1.));
#306=DIRECTION('',(-0.766044443118979,-0.642787609686538,0.));
#307=DIRECTION('',(0.,0.,-1.));
#308=DIRECTION('center_axis',(0.,0.,-1.));
#309=DIRECTION('ref_axis',(-0.642787609686547,0.766044443118971,0.));
#310=DIRECTION('center_axis',(0.,0.,1.));
#311=DIRECTION('ref_axis',(-0.642787609686547,0.766044443118971,0.));
#312=DIRECTION('center_axis',(0.,0.,1.));
#313=DIRECTION('ref_axis',(-0.642787609686547,0.766044443118971,0.));
#314=DIRECTION('',(0.,0.,-1.));
#315=DIRECTION('center_axis',(-0.642787609686541,0.766044443118977,0.));
#316=DIRECTION('ref_axis',(0.766044443118977,0.642787609686541,0.));
#317=DIRECTION('',(0.766044443118977,0.642787609686541,1.88411095042053E-15));
#318=DIRECTION('',(0.766044443118977,0.642787609686541,0.));
#319=DIRECTION('',(0.,0.,-1.));
#320=DIRECTION('center_axis',(0.,0.,-1.));
#321=DIRECTION('ref_axis',(0.642787609686543,-0.766044443118975,0.));
#322=DIRECTION('center_axis',(0.,0.,1.));
#323=DIRECTION('ref_axis',(0.642787609686543,-0.766044443118975,0.));
#324=DIRECTION('center_axis',(0.,0.,1.));
#325=DIRECTION('ref_axis',(0.642787609686543,-0.766044443118975,0.));
#326=DIRECTION('center_axis',(-0.454519477672045,0.541675220419702,0.707106781186547));
#327=DIRECTION('ref_axis',(0.841205080671392,0.,0.540716203060938));
#328=DIRECTION('',(0.454519477672043,-0.541675220419702,0.707106781186548));
#329=DIRECTION('',(0.766044443118977,0.64278760968654,0.));
#330=DIRECTION('',(-0.454519477672043,0.541675220419702,-0.707106781186548));
#331=DIRECTION('center_axis',(0.,0.,-1.));
#332=DIRECTION('ref_axis',(-0.642787609686547,0.766044443118971,0.));
#333=DIRECTION('',(-0.454519477672043,0.541675220419702,0.707106781186548));
#334=DIRECTION('center_axis',(0.,0.,-1.));
#335=DIRECTION('ref_axis',(-0.642787609686547,0.766044443118972,0.));
#336=DIRECTION('center_axis',(0.,0.,-1.));
#337=DIRECTION('ref_axis',(0.642787609686546,-0.766044443118973,0.));
#338=DIRECTION('center_axis',(0.,0.,-1.));
#339=DIRECTION('ref_axis',(0.642787609686546,-0.766044443118973,0.));
#340=DIRECTION('',(0.,0.,-1.));
#341=DIRECTION('center_axis',(0.,0.,1.));
#342=DIRECTION('ref_axis',(1.,0.,0.));
#343=DIRECTION('center_axis',(0.,0.,1.));
#344=DIRECTION('ref_axis',(1.,0.,0.));
#345=DIRECTION('',(-0.707106781186545,8.6595605623549E-17,0.707106781186551));
#346=DIRECTION('center_axis',(0.,0.,-1.));
#347=DIRECTION('ref_axis',(1.,0.,0.));
#348=DIRECTION('center_axis',(0.,0.,1.));
#349=DIRECTION('ref_axis',(1.,0.,0.));
#350=DIRECTION('center_axis',(0.,0.,1.));
#351=DIRECTION('ref_axis',(1.,0.,0.));
#352=DIRECTION('',(0.,0.,-1.));
#353=DIRECTION('center_axis',(0.,0.,1.));
#354=DIRECTION('ref_axis',(1.,0.,0.));
#355=DIRECTION('',(0.,0.,-1.));
#356=DIRECTION('center_axis',(0.,0.,1.));
#357=DIRECTION('ref_axis',(1.,0.,0.));
#358=DIRECTION('center_axis',(0.,0.,1.));
#359=DIRECTION('ref_axis',(-1.,0.,0.));
#360=DIRECTION('center_axis',(0.,0.,-1.));
#361=DIRECTION('ref_axis',(1.,0.,0.));
#362=DIRECTION('center_axis',(0.,0.,-1.));
#363=DIRECTION('ref_axis',(1.,0.,0.));
#364=DIRECTION('center_axis',(0.,0.,-1.));
#365=DIRECTION('ref_axis',(1.,0.,0.));
#366=DIRECTION('center_axis',(0.,0.,-1.));
#367=DIRECTION('ref_axis',(-0.642787609686547,0.766044443118972,0.));
#368=DIRECTION('center_axis',(0.,0.,-1.));
#369=DIRECTION('ref_axis',(-0.642787609686547,0.766044443118972,0.));
#370=DIRECTION('center_axis',(0.454519477672044,-0.541675220419702,0.707106781186547));
#371=DIRECTION('ref_axis',(0.841205080671392,0.,-0.540716203060937));
#372=DIRECTION('',(-0.454519477672043,0.541675220419702,0.707106781186548));
#373=DIRECTION('',(-0.766044443118978,-0.642787609686539,0.));
#374=DIRECTION('center_axis',(0.,0.,-1.));
#375=DIRECTION('ref_axis',(0.642787609686546,-0.766044443118973,0.));
#376=DIRECTION('center_axis',(0.,0.,-1.));
#377=DIRECTION('ref_axis',(0.642787609686546,-0.766044443118973,0.));
#378=DIRECTION('center_axis',(0.,0.,1.));
#379=DIRECTION('ref_axis',(-1.,0.,0.));
#380=CARTESIAN_POINT('',(0.,0.,0.));
#381=CARTESIAN_POINT('Origin',(59.8999561977957,-24.3548380323267,8.778278125));
#382=CARTESIAN_POINT('',(59.8999561977957,-24.3548380323267,8.228278125));
#383=CARTESIAN_POINT('',(55.3036895390818,-28.211563690446,8.22827812499999));
#384=CARTESIAN_POINT('',(58.176356200778,-25.8011101541214,8.228278125));
#385=CARTESIAN_POINT('',(59.8999561977957,-24.3548380323267,-2.721721875));
#386=CARTESIAN_POINT('',(59.8999561977957,-24.3548380323267,8.778278125));
#387=CARTESIAN_POINT('',(55.3036895390818,-28.211563690446,-2.721721875));
#388=CARTESIAN_POINT('',(55.3036895390818,-28.211563690446,-2.721721875));
#389=CARTESIAN_POINT('',(55.3036895390818,-28.211563690446,8.778278125));
#390=CARTESIAN_POINT('Origin',(56.492846617002,-29.6287459102161,8.778278125));
#391=CARTESIAN_POINT('',(57.6820036949221,-31.0459281299862,8.228278125));
#392=CARTESIAN_POINT('Origin',(56.492846617002,-29.6287459102161,8.228278125));
#393=CARTESIAN_POINT('',(57.6820036949221,-31.0459281299862,-2.721721875));
#394=CARTESIAN_POINT('Origin',(56.492846617002,-29.6287459102161,-2.721721875));
#395=CARTESIAN_POINT('',(57.6820036949221,-31.0459281299862,8.778278125));
#396=CARTESIAN_POINT('Origin',(57.6820036949221,-31.0459281299862,8.778278125));
#397=CARTESIAN_POINT('',(62.2782703536359,-27.1892024718669,8.22827812500002));
#398=CARTESIAN_POINT('',(59.4056036919398,-29.5996560081915,8.22827812500002));
#399=CARTESIAN_POINT('',(62.2782703536359,-27.1892024718669,-2.721721875));
#400=CARTESIAN_POINT('',(62.2782703536359,-27.1892024718669,-2.721721875));
#401=CARTESIAN_POINT('',(62.2782703536359,-27.1892024718669,8.778278125));
#402=CARTESIAN_POINT('Origin',(61.0891132757158,-25.7720202520968,8.778278125));
#403=CARTESIAN_POINT('Origin',(61.0891132757158,-25.7720202520968,8.22827812500001));
#404=CARTESIAN_POINT('Origin',(61.0891132757158,-25.7720202520968,-2.721721875));
#405=CARTESIAN_POINT('Origin',(56.613453106182,-27.4388933866959,8.478278125));
#406=CARTESIAN_POINT('',(55.6572227244094,-28.6328881341614,8.778278125));
#407=CARTESIAN_POINT('',(55.2715501585975,-28.17326146829,8.178278125));
#408=CARTESIAN_POINT('',(60.2534893831233,-24.7761624760422,8.778278125));
#409=CARTESIAN_POINT('',(56.8062893890879,-27.6687067196316,8.778278125));
#410=CARTESIAN_POINT('',(60.2534893831233,-24.7761624760422,8.778278125));
#411=CARTESIAN_POINT('Origin',(56.492846617002,-29.6287459102161,8.478278125));
#412=CARTESIAN_POINT('',(57.3284705095945,-30.6246036862708,8.778278125));
#413=CARTESIAN_POINT('',(57.7141430754064,-31.0842303521421,8.178278125));
#414=CARTESIAN_POINT('Origin',(56.492846617002,-29.6287459102161,8.778278125));
#415=CARTESIAN_POINT('Origin',(61.0891132757158,-25.7720202520968,7.278278125));
#416=CARTESIAN_POINT('',(62.5445977176419,-24.5507237936924,-2.721721875));
#417=CARTESIAN_POINT('',(62.9777795686853,-25.5648014455153,-2.721721875));
#418=CARTESIAN_POINT('Origin',(61.0891132757158,-25.7720202520968,-2.721721875));
#419=CARTESIAN_POINT('',(62.5445977176419,-24.5507237936924,-2.921721875));
#420=CARTESIAN_POINT('Ctrl Pts',(62.5445977176419,-24.5507237936924,-2.92172187500001));
#421=CARTESIAN_POINT('Ctrl Pts',(62.651963406604,-24.6786772392344,-2.92172187500001));
#422=CARTESIAN_POINT('Ctrl Pts',(62.7495823612834,-24.8316746799547,-2.90736440485961));
#423=CARTESIAN_POINT('Ctrl Pts',(62.8948463016278,-25.1549824666888,-2.84772076685167));
#424=CARTESIAN_POINT('Ctrl Pts',(62.9426374522073,-25.3252263765372,-2.8024305685522));
#425=CARTESIAN_POINT('Ctrl Pts',(62.9710727756005,-25.5093560896287,-2.74115975949362));
#426=CARTESIAN_POINT('Ctrl Pts',(62.9747259818272,-25.5369699630999,-2.73164775722017));
#427=CARTESIAN_POINT('Ctrl Pts',(62.9777795686853,-25.5648014455153,-2.721721875));
#428=CARTESIAN_POINT('',(62.5445977176419,-24.5507237936924,7.278278125));
#429=CARTESIAN_POINT('Origin',(58.7909799463589,-27.7003830811565,-4.121721875));
#430=CARTESIAN_POINT('',(54.0909799463589,-27.7003830811565,-4.221721875));
#431=CARTESIAN_POINT('Origin',(58.7909799463589,-27.7003830811565,-4.221721875));
#432=CARTESIAN_POINT('',(53.8909799463589,-27.7003830811565,-4.021721875));
#433=CARTESIAN_POINT('',(53.9909799463589,-27.7003830811565,-4.121721875));
#434=CARTESIAN_POINT('Origin',(58.7909799463589,-27.7003830811565,-4.021721875));
#435=CARTESIAN_POINT('Origin',(58.7909799463589,-27.7003830811565,-4.221721875));
#436=CARTESIAN_POINT('',(55.0373621750759,-30.8500423686205,-2.921721875));
#437=CARTESIAN_POINT('Origin',(58.7909799463589,-27.7003830811565,-2.921721875));
#438=CARTESIAN_POINT('',(55.0373621750759,-30.8500423686205,-2.721721875));
#439=CARTESIAN_POINT('',(55.0373621750759,-30.8500423686205,7.278278125));
#440=CARTESIAN_POINT('',(53.8909799463589,-27.7003830811565,-2.721721875));
#441=CARTESIAN_POINT('Origin',(58.7909799463589,-27.7003830811565,-2.721721875));
#442=CARTESIAN_POINT('',(53.8909799463589,-27.7003830811565,-4.221721875));
#443=CARTESIAN_POINT('Origin',(58.7909799463589,-27.7003830811565,-2.721721875));
#444=CARTESIAN_POINT('Origin',(58.7909799463589,-27.7003830811565,-4.221721875));
#445=CARTESIAN_POINT('Origin',(58.7909799463589,-27.7003830811565,-2.821721875));
#446=CARTESIAN_POINT('',(55.9608124697154,-31.452735950244,-2.721721875));
#447=CARTESIAN_POINT('Origin',(58.7909799463589,-27.7003830811565,-2.721721875));
#448=CARTESIAN_POINT('Ctrl Pts',(55.9608124697154,-31.452735950244,-2.721721875));
#449=CARTESIAN_POINT('Ctrl Pts',(55.9339340598482,-31.4448958680285,-2.73164775722017));
#450=CARTESIAN_POINT('Ctrl Pts',(55.9073740757669,-31.4365030634065,-2.74115975949361));
#451=CARTESIAN_POINT('Ctrl Pts',(55.7309794488431,-31.3765259473368,-2.8024305685522));
#452=CARTESIAN_POINT('Ctrl Pts',(55.571620772728,-31.2998983070167,-2.84772076685167));
#453=CARTESIAN_POINT('Ctrl Pts',(55.2784495762646,-31.1006994443405,-2.90736440485961));
#454=CARTESIAN_POINT('Ctrl Pts',(55.144727864038,-30.9779958141625,-2.92172187500001));
#455=CARTESIAN_POINT('Ctrl Pts',(55.0373621750759,-30.8500423686205,-2.92172187500001));
#456=CARTESIAN_POINT('Origin',(58.2177888320004,-26.8252127248885,-2.721721875));
#457=CARTESIAN_POINT('Origin',(56.492846617002,-29.6287459102161,-2.721721875));
#458=CARTESIAN_POINT('Origin',(56.492846617002,-29.6287459102161,7.278278125));
#459=CARTESIAN_POINT('Origin',(60.9685067865358,-27.961872775617,8.478278125));
#460=CARTESIAN_POINT('',(61.9247371683084,-26.7678780281515,8.778278125));
#461=CARTESIAN_POINT('',(62.3104097341203,-27.2275046940229,8.178278125));
#462=CARTESIAN_POINT('',(60.7756705036299,-27.7320594426813,8.778278125));
#463=CARTESIAN_POINT('Origin',(61.0891132757158,-25.7720202520968,8.478278125));
#464=CARTESIAN_POINT('Origin',(61.0891132757158,-25.7720202520968,8.778278125));
#465=CARTESIAN_POINT('Origin',(58.7909799463589,-27.7003830811565,8.778278125));
#466=UNCERTAINTY_MEASURE_WITH_UNIT(LENGTH_MEASURE(0.01),#470,
'DISTANCE_ACCURACY_VALUE',
'Maximum model space distance between geometric entities at asserted c
onnectivities');
#467=UNCERTAINTY_MEASURE_WITH_UNIT(LENGTH_MEASURE(0.01),#470,
'DISTANCE_ACCURACY_VALUE',
'Maximum model space distance between geometric entities at asserted c
onnectivities');
#468=(
GEOMETRIC_REPRESENTATION_CONTEXT(3)
GLOBAL_UNCERTAINTY_ASSIGNED_CONTEXT((#466))
GLOBAL_UNIT_ASSIGNED_CONTEXT((#470,#472,#473))
REPRESENTATION_CONTEXT('','3D')
);
#469=(
GEOMETRIC_REPRESENTATION_CONTEXT(3)
GLOBAL_UNCERTAINTY_ASSIGNED_CONTEXT((#467))
GLOBAL_UNIT_ASSIGNED_CONTEXT((#470,#472,#473))
REPRESENTATION_CONTEXT('','3D')
);
#470=(
LENGTH_UNIT()
NAMED_UNIT(*)
SI_UNIT(.MILLI.,.METRE.)
);
#471=(
LENGTH_UNIT()
NAMED_UNIT(*)
SI_UNIT($,.METRE.)
);
#472=(
NAMED_UNIT(*)
PLANE_ANGLE_UNIT()
SI_UNIT($,.RADIAN.)
);
#473=(
NAMED_UNIT(*)
SI_UNIT($,.STERADIAN.)
SOLID_ANGLE_UNIT()
);
#474=SHAPE_DEFINITION_REPRESENTATION(#475,#476);
#475=PRODUCT_DEFINITION_SHAPE('',$,#478);
#476=SHAPE_REPRESENTATION('',(#269),#468);
#477=PRODUCT_DEFINITION_CONTEXT('part definition',#482,'design');
#478=PRODUCT_DEFINITION('2026-08-13-17-45-00-271','Option Button',#479,
#477);
#479=PRODUCT_DEFINITION_FORMATION('',$,#484);
#480=PRODUCT_RELATED_PRODUCT_CATEGORY('Option Button','Option Button',(#484));
#481=APPLICATION_PROTOCOL_DEFINITION('international standard',
'automotive_design',2009,#482);
#482=APPLICATION_CONTEXT(
'Core Data for Automotive Mechanical Design Process');
#483=PRODUCT_CONTEXT('part definition',#482,'mechanical');
#484=PRODUCT('2026-08-13-17-45-00-271','Option Button',$,(#483));
#485=PRESENTATION_STYLE_ASSIGNMENT((#486));
#486=SURFACE_STYLE_USAGE(.BOTH.,#487);
#487=SURFACE_SIDE_STYLE('',(#488));
#488=SURFACE_STYLE_FILL_AREA(#489);
#489=FILL_AREA_STYLE('Plastic - Matte (Black)',(#490));
#490=FILL_AREA_STYLE_COLOUR('Plastic - Matte (Black)',#491);
#491=COLOUR_RGB('Plastic - Matte (Black)',0.0980392156862745,0.0980392156862745,
0.0980392156862745);
ENDSEC;
END-ISO-10303-21;
