ISO-10303-21;
HEADER;
/* Generated by software containing ST-Developer
 * from STEP Tools, Inc. (www.steptools.com) 
 */

FILE_DESCRIPTION(
/* description */ (''),
/* implementation_level */ '2;1');

FILE_NAME(
/* name */ 'Speaker Lid (also mirrored).step',
/* time_stamp */ '2026-08-13T17:49:35+02:00',
/* author */ (''),
/* organization */ (''),
/* preprocessor_version */ 'ST-DEVELOPER v20.1',
/* originating_system */ 'Autodesk Translation Framework v15.8.0.0',
/* authorisation */ '');

FILE_SCHEMA (('AUTOMOTIVE_DESIGN { 1 0 10303 214 3 1 1 }'));
ENDSEC;

DATA;
#10=MECHANICAL_DESIGN_GEOMETRIC_PRESENTATION_REPRESENTATION('',(#13),#1243);
#11=SHAPE_REPRESENTATION_RELATIONSHIP('SRR','None',#1250,#12);
#12=ADVANCED_BREP_SHAPE_REPRESENTATION('',(#14),#1242);
#13=STYLED_ITEM('',(#1259),#14);
#14=MANIFOLD_SOLID_BREP('Body1',#582);
#15=FACE_BOUND('',#144,.T.);
#16=FACE_BOUND('',#149,.T.);
#17=CYLINDRICAL_SURFACE('',#622,5.5);
#18=CYLINDRICAL_SURFACE('',#624,1.99999999999998);
#19=CYLINDRICAL_SURFACE('',#626,5.5);
#20=CYLINDRICAL_SURFACE('',#628,1.25);
#21=CYLINDRICAL_SURFACE('',#631,1.25);
#22=CYLINDRICAL_SURFACE('',#636,1.25);
#23=CYLINDRICAL_SURFACE('',#638,0.900000000000008);
#24=CYLINDRICAL_SURFACE('',#642,1.1);
#25=B_SPLINE_CURVE_WITH_KNOTS('',3,(#876,#877,#878,#879,#880,#881,#882,
#883,#884,#885),.UNSPECIFIED.,.F.,.F.,(4,2,2,2,4),(-0.165793808364249,-0.131727463355491,
-0.0976611183467323,-0.0488305591733666,0.),.UNSPECIFIED.);
#26=B_SPLINE_CURVE_WITH_KNOTS('',3,(#888,#889,#890,#891,#892,#893,#894,
#895,#896,#897),.UNSPECIFIED.,.F.,.F.,(4,2,2,2,4),(0.,0.0488305591733666,
0.0976611183467323,0.131727463355491,0.165793808364249),.UNSPECIFIED.);
#27=B_SPLINE_CURVE_WITH_KNOTS('',3,(#917,#918,#919,#920),.UNSPECIFIED.,
 .F.,.F.,(4,4),(-0.260564568066704,-0.149974955770819),.UNSPECIFIED.);
#28=B_SPLINE_CURVE_WITH_KNOTS('',3,(#921,#922,#923,#924),.UNSPECIFIED.,
 .F.,.F.,(4,4),(0.149974955770819,0.260564568066704),.UNSPECIFIED.);
#29=B_SPLINE_CURVE_WITH_KNOTS('',3,(#944,#945,#946,#947),.UNSPECIFIED.,
 .F.,.F.,(4,4),(-1.08669687999462,-0.0522607458848996),.UNSPECIFIED.);
#30=B_SPLINE_CURVE_WITH_KNOTS('',3,(#948,#949,#950,#951),.UNSPECIFIED.,
 .F.,.F.,(4,4),(0.0522607458848996,1.08669687999462),.UNSPECIFIED.);
#31=B_SPLINE_CURVE_WITH_KNOTS('',3,(#971,#972,#973,#974),.UNSPECIFIED.,
 .F.,.F.,(4,4),(-1.83146366664471,-0.0811979609154845),.UNSPECIFIED.);
#32=B_SPLINE_CURVE_WITH_KNOTS('',3,(#975,#976,#977,#978),.UNSPECIFIED.,
 .F.,.F.,(4,4),(0.0811979609154845,1.83146366664471),.UNSPECIFIED.);
#33=B_SPLINE_CURVE_WITH_KNOTS('',3,(#1028,#1029,#1030,#1031,#1032,#1033,
#1034,#1035,#1036,#1037,#1038,#1039),.UNSPECIFIED.,.F.,.F.,(4,2,2,2,2,4),
(-0.238361201229732,-0.192426439374915,-0.1464916775201,-0.0976611183467333,
-0.048830559173367,0.),.UNSPECIFIED.);
#34=B_SPLINE_CURVE_WITH_KNOTS('',3,(#1042,#1043,#1044,#1045,#1046,#1047,
#1048,#1049,#1050,#1051,#1052,#1053),.UNSPECIFIED.,.F.,.F.,(4,2,2,2,2,4),
(0.,0.048830559173367,0.0976611183467333,0.1464916775201,0.192426439374915,
0.238361201229732),.UNSPECIFIED.);
#35=B_SPLINE_CURVE_WITH_KNOTS('',3,(#1074,#1075,#1076,#1077),
 .UNSPECIFIED.,.F.,.F.,(4,4),(-0.0700000000000203,8.32667268468845E-17),
 .UNSPECIFIED.);
#36=B_SPLINE_CURVE_WITH_KNOTS('',3,(#1117,#1118,#1119,#1120),
 .UNSPECIFIED.,.F.,.F.,(4,4),(-1.59594559789874E-16,0.0700000000000055),
 .UNSPECIFIED.);
#37=B_SPLINE_CURVE_WITH_KNOTS('',3,(#1147,#1148,#1149,#1150),
 .UNSPECIFIED.,.F.,.F.,(4,4),(-0.0700000000000055,1.59594559789874E-16),
 .UNSPECIFIED.);
#38=B_SPLINE_CURVE_WITH_KNOTS('',3,(#1151,#1152,#1153,#1154,#1155,#1156,
#1157,#1158,#1159,#1160),.UNSPECIFIED.,.F.,.F.,(4,3,3,4),(0.,0.102154800527028,
0.170258000878379,0.238361201229731),.UNSPECIFIED.);
#39=B_SPLINE_CURVE_WITH_KNOTS('',3,(#1163,#1164,#1165,#1166),
 .UNSPECIFIED.,.F.,.F.,(4,4),(-1.83146366664471,-0.0811979609154891),
 .UNSPECIFIED.);
#40=B_SPLINE_CURVE_WITH_KNOTS('',3,(#1168,#1169,#1170,#1171),
 .UNSPECIFIED.,.F.,.F.,(4,4),(-1.08669687999462,-0.0522607458849316),
 .UNSPECIFIED.);
#41=B_SPLINE_CURVE_WITH_KNOTS('',3,(#1173,#1174,#1175,#1176),
 .UNSPECIFIED.,.F.,.F.,(4,4),(-0.260564568066704,-0.149974955770819),
 .UNSPECIFIED.);
#42=B_SPLINE_CURVE_WITH_KNOTS('',3,(#1177,#1178,#1179,#1180,#1181,#1182,
#1183),.UNSPECIFIED.,.F.,.F.,(4,3,4),(0.,0.0710544892989636,0.165793808364248),
 .UNSPECIFIED.);
#43=B_SPLINE_CURVE_WITH_KNOTS('',3,(#1216,#1217,#1218,#1219),
 .UNSPECIFIED.,.F.,.F.,(4,4),(-8.32667268468845E-17,0.0700000000000203),
 .UNSPECIFIED.);
#44=B_SPLINE_SURFACE_WITH_KNOTS('',3,3,((#835,#836,#837,#838,#839,#840,
#841,#842,#843,#844),(#845,#846,#847,#848,#849,#850,#851,#852,#853,#854),
(#855,#856,#857,#858,#859,#860,#861,#862,#863,#864),(#865,#866,#867,#868,
#869,#870,#871,#872,#873,#874)),.UNSPECIFIED.,.F.,.F.,.F.,(4,4),(4,2,2,
2,4),(0.,1.),(0.,0.0488305591733666,0.0976611183467323,0.131727463355491,
0.165793808364249),.UNSPECIFIED.);
#45=B_SPLINE_SURFACE_WITH_KNOTS('',3,3,((#898,#899,#900,#901),(#902,#903,
#904,#905),(#906,#907,#908,#909),(#910,#911,#912,#913)),.UNSPECIFIED.,.F.,
 .F.,.F.,(4,4),(4,4),(0.,1.),(0.149974955770819,0.260564568066704),
 .UNSPECIFIED.);
#46=B_SPLINE_SURFACE_WITH_KNOTS('',3,3,((#925,#926,#927,#928),(#929,#930,
#931,#932),(#933,#934,#935,#936),(#937,#938,#939,#940)),.UNSPECIFIED.,.F.,
 .F.,.F.,(4,4),(4,4),(0.,1.),(0.0522607458848996,1.08669687999462),
 .UNSPECIFIED.);
#47=B_SPLINE_SURFACE_WITH_KNOTS('',3,3,((#952,#953,#954,#955),(#956,#957,
#958,#959),(#960,#961,#962,#963),(#964,#965,#966,#967)),.UNSPECIFIED.,.F.,
 .F.,.F.,(4,4),(4,4),(0.,1.),(0.0811979609154845,1.83146366664471),
 .UNSPECIFIED.);
#48=B_SPLINE_SURFACE_WITH_KNOTS('',3,3,((#979,#980,#981,#982,#983,#984,
#985,#986,#987,#988,#989,#990),(#991,#992,#993,#994,#995,#996,#997,#998,
#999,#1000,#1001,#1002),(#1003,#1004,#1005,#1006,#1007,#1008,#1009,#1010,
#1011,#1012,#1013,#1014),(#1015,#1016,#1017,#1018,#1019,#1020,#1021,#1022,
#1023,#1024,#1025,#1026)),.UNSPECIFIED.,.F.,.F.,.F.,(4,4),(4,2,2,2,2,4),
(0.,1.),(0.,0.048830559173367,0.0976611183467333,0.1464916775201,0.192426439374915,
0.238361201229732),.UNSPECIFIED.);
#49=B_SPLINE_SURFACE_WITH_KNOTS('',3,3,((#1122,#1123,#1124,#1125),(#1126,
#1127,#1128,#1129),(#1130,#1131,#1132,#1133),(#1134,#1135,#1136,#1137),
(#1138,#1139,#1140,#1141),(#1142,#1143,#1144,#1145)),.UNSPECIFIED.,.F.,
 .F.,.F.,(4,1,1,4),(4,4),(0.,0.285714285714286,0.571428571428571,1.),(-1.59594559789874E-16,
0.0700000000000055),.UNSPECIFIED.);
#50=B_SPLINE_SURFACE_WITH_KNOTS('',3,1,((#1187,#1188),(#1189,#1190),(#1191,
#1192),(#1193,#1194)),.UNSPECIFIED.,.F.,.F.,.F.,(4,4),(2,2),(0.0811979609154891,
1.9420894292897),(0.,0.1),.UNSPECIFIED.);
#51=B_SPLINE_SURFACE_WITH_KNOTS('',3,3,((#1196,#1197,#1198,#1199),(#1200,
#1201,#1202,#1203),(#1204,#1205,#1206,#1207),(#1208,#1209,#1210,#1211),
(#1212,#1213,#1214,#1215)),.UNSPECIFIED.,.F.,.F.,.F.,(4,1,4),(4,4),(0.,
0.571428571428571,1.),(-8.32667268468845E-17,0.0700000000000203),
 .UNSPECIFIED.);
#52=B_SPLINE_SURFACE_WITH_KNOTS('',3,1,((#1220,#1221),(#1222,#1223),(#1224,
#1225),(#1226,#1227)),.UNSPECIFIED.,.F.,.F.,.F.,(4,4),(2,2),(0.0516280766002223,
0.260564568066704),(0.,0.1),.UNSPECIFIED.);
#53=B_SPLINE_SURFACE_WITH_KNOTS('',3,1,((#1232,#1233),(#1234,#1235),(#1236,
#1237),(#1238,#1239)),.UNSPECIFIED.,.F.,.F.,.F.,(4,4),(2,2),(0.0522607458849316,
1.08669687999462),(0.,0.1),.UNSPECIFIED.);
#54=CIRCLE('',#598,1.25);
#55=CIRCLE('',#599,0.949999999999999);
#56=CIRCLE('',#602,1.25);
#57=CIRCLE('',#603,0.949999999999998);
#58=CIRCLE('',#605,5.5);
#59=CIRCLE('',#606,5.79999999999999);
#60=CIRCLE('',#608,1.69999999999999);
#61=CIRCLE('',#609,1.99999999999998);
#62=CIRCLE('',#611,5.5);
#63=CIRCLE('',#612,5.8);
#64=CIRCLE('',#615,1.20000000000001);
#65=CIRCLE('',#616,0.900000000000007);
#66=CIRCLE('',#618,1.25);
#67=CIRCLE('',#619,0.949999999999999);
#68=CIRCLE('',#623,5.5);
#69=CIRCLE('',#625,1.99999999999998);
#70=CIRCLE('',#627,5.5);
#71=CIRCLE('',#629,1.25);
#72=CIRCLE('',#632,1.25);
#73=CIRCLE('',#635,1.1);
#74=CIRCLE('',#637,1.25);
#75=CIRCLE('',#639,0.900000000000007);
#76=CIRCLE('',#641,1.1);
#77=CONICAL_SURFACE('',#597,1.1,0.785398163397378);
#78=CONICAL_SURFACE('',#601,1.1,0.78539816339742);
#79=CONICAL_SURFACE('',#604,5.65,0.785398163397434);
#80=CONICAL_SURFACE('',#607,1.84999999999998,0.785398163399132);
#81=CONICAL_SURFACE('',#610,5.65,0.785398163397496);
#82=CONICAL_SURFACE('',#614,1.05000000000001,0.785398163398099);
#83=CONICAL_SURFACE('',#617,1.1,0.785398163397436);
#84=FACE_OUTER_BOUND('',#119,.T.);
#85=FACE_OUTER_BOUND('',#120,.T.);
#86=FACE_OUTER_BOUND('',#121,.T.);
#87=FACE_OUTER_BOUND('',#122,.T.);
#88=FACE_OUTER_BOUND('',#123,.T.);
#89=FACE_OUTER_BOUND('',#124,.T.);
#90=FACE_OUTER_BOUND('',#125,.T.);
#91=FACE_OUTER_BOUND('',#126,.T.);
#92=FACE_OUTER_BOUND('',#127,.T.);
#93=FACE_OUTER_BOUND('',#128,.T.);
#94=FACE_OUTER_BOUND('',#129,.T.);
#95=FACE_OUTER_BOUND('',#130,.T.);
#96=FACE_OUTER_BOUND('',#131,.T.);
#97=FACE_OUTER_BOUND('',#132,.T.);
#98=FACE_OUTER_BOUND('',#133,.T.);
#99=FACE_OUTER_BOUND('',#134,.T.);
#100=FACE_OUTER_BOUND('',#135,.T.);
#101=FACE_OUTER_BOUND('',#136,.T.);
#102=FACE_OUTER_BOUND('',#137,.T.);
#103=FACE_OUTER_BOUND('',#138,.T.);
#104=FACE_OUTER_BOUND('',#139,.T.);
#105=FACE_OUTER_BOUND('',#140,.T.);
#106=FACE_OUTER_BOUND('',#141,.T.);
#107=FACE_OUTER_BOUND('',#142,.T.);
#108=FACE_OUTER_BOUND('',#143,.T.);
#109=FACE_OUTER_BOUND('',#145,.T.);
#110=FACE_OUTER_BOUND('',#146,.T.);
#111=FACE_OUTER_BOUND('',#147,.T.);
#112=FACE_OUTER_BOUND('',#148,.T.);
#113=FACE_OUTER_BOUND('',#150,.T.);
#114=FACE_OUTER_BOUND('',#151,.T.);
#115=FACE_OUTER_BOUND('',#152,.T.);
#116=FACE_OUTER_BOUND('',#153,.T.);
#117=FACE_OUTER_BOUND('',#154,.T.);
#118=FACE_OUTER_BOUND('',#155,.T.);
#119=EDGE_LOOP('',(#371,#372,#373,#374));
#120=EDGE_LOOP('',(#375,#376,#377,#378));
#121=EDGE_LOOP('',(#379,#380,#381,#382));
#122=EDGE_LOOP('',(#383,#384,#385,#386));
#123=EDGE_LOOP('',(#387,#388,#389,#390));
#124=EDGE_LOOP('',(#391,#392,#393,#394));
#125=EDGE_LOOP('',(#395,#396,#397,#398));
#126=EDGE_LOOP('',(#399,#400,#401,#402));
#127=EDGE_LOOP('',(#403,#404,#405,#406));
#128=EDGE_LOOP('',(#407,#408,#409,#410));
#129=EDGE_LOOP('',(#411,#412,#413,#414));
#130=EDGE_LOOP('',(#415,#416,#417,#418));
#131=EDGE_LOOP('',(#419,#420,#421,#422));
#132=EDGE_LOOP('',(#423,#424,#425,#426));
#133=EDGE_LOOP('',(#427,#428,#429,#430));
#134=EDGE_LOOP('',(#431,#432,#433,#434));
#135=EDGE_LOOP('',(#435,#436,#437,#438));
#136=EDGE_LOOP('',(#439,#440,#441,#442));
#137=EDGE_LOOP('',(#443,#444,#445,#446));
#138=EDGE_LOOP('',(#447,#448,#449,#450));
#139=EDGE_LOOP('',(#451,#452,#453,#454));
#140=EDGE_LOOP('',(#455,#456,#457,#458));
#141=EDGE_LOOP('',(#459,#460,#461,#462));
#142=EDGE_LOOP('',(#463,#464,#465,#466));
#143=EDGE_LOOP('',(#467,#468,#469,#470,#471,#472,#473,#474,#475,#476,#477,
#478,#479,#480,#481,#482));
#144=EDGE_LOOP('',(#483));
#145=EDGE_LOOP('',(#484,#485,#486,#487));
#146=EDGE_LOOP('',(#488,#489,#490,#491));
#147=EDGE_LOOP('',(#492,#493,#494,#495));
#148=EDGE_LOOP('',(#496,#497,#498,#499,#500,#501,#502,#503,#504,#505,#506,
#507,#508,#509,#510,#511));
#149=EDGE_LOOP('',(#512));
#150=EDGE_LOOP('',(#513,#514,#515,#516));
#151=EDGE_LOOP('',(#517,#518,#519,#520));
#152=EDGE_LOOP('',(#521,#522,#523,#524));
#153=EDGE_LOOP('',(#525,#526,#527,#528));
#154=EDGE_LOOP('',(#529,#530,#531,#532));
#155=EDGE_LOOP('',(#533,#534,#535,#536));
#156=LINE('',#787,#197);
#157=LINE('',#789,#198);
#158=LINE('',#791,#199);
#159=LINE('',#792,#200);
#160=LINE('',#797,#201);
#161=LINE('',#802,#202);
#162=LINE('',#803,#203);
#163=LINE('',#804,#204);
#164=LINE('',#809,#205);
#165=LINE('',#815,#206);
#166=LINE('',#820,#207);
#167=LINE('',#827,#208);
#168=LINE('',#832,#209);
#169=LINE('',#833,#210);
#170=LINE('',#834,#211);
#171=LINE('',#887,#212);
#172=LINE('',#916,#213);
#173=LINE('',#943,#214);
#174=LINE('',#970,#215);
#175=LINE('',#1041,#216);
#176=LINE('',#1057,#217);
#177=LINE('',#1064,#218);
#178=LINE('',#1067,#219);
#179=LINE('',#1068,#220);
#180=LINE('',#1071,#221);
#181=LINE('',#1073,#222);
#182=LINE('',#1080,#223);
#183=LINE('',#1084,#224);
#184=LINE('',#1088,#225);
#185=LINE('',#1092,#226);
#186=LINE('',#1096,#227);
#187=LINE('',#1097,#228);
#188=LINE('',#1100,#229);
#189=LINE('',#1104,#230);
#190=LINE('',#1105,#231);
#191=LINE('',#1111,#232);
#192=LINE('',#1114,#233);
#193=LINE('',#1184,#234);
#194=LINE('',#1195,#235);
#195=LINE('',#1228,#236);
#196=LINE('',#1230,#237);
#197=VECTOR('',#648,10.);
#198=VECTOR('',#649,10.);
#199=VECTOR('',#650,10.);
#200=VECTOR('',#651,10.);
#201=VECTOR('',#656,10.);
#202=VECTOR('',#661,10.);
#203=VECTOR('',#662,10.);
#204=VECTOR('',#663,10.);
#205=VECTOR('',#668,10.);
#206=VECTOR('',#675,10.);
#207=VECTOR('',#680,10.);
#208=VECTOR('',#689,10.);
#209=VECTOR('',#694,10.);
#210=VECTOR('',#695,10.);
#211=VECTOR('',#696,10.);
#212=VECTOR('',#697,10.);
#213=VECTOR('',#698,10.);
#214=VECTOR('',#699,10.);
#215=VECTOR('',#700,10.);
#216=VECTOR('',#701,10.);
#217=VECTOR('',#704,10.);
#218=VECTOR('',#713,10.);
#219=VECTOR('',#718,10.);
#220=VECTOR('',#719,10.);
#221=VECTOR('',#722,10.);
#222=VECTOR('',#723,10.);
#223=VECTOR('',#726,10.);
#224=VECTOR('',#731,10.);
#225=VECTOR('',#736,1.25);
#226=VECTOR('',#741,1.25);
#227=VECTOR('',#746,10.);
#228=VECTOR('',#747,10.);
#229=VECTOR('',#750,10.);
#230=VECTOR('',#755,10.);
#231=VECTOR('',#756,10.);
#232=VECTOR('',#763,10.);
#233=VECTOR('',#766,10.);
#234=VECTOR('',#773,10.);
#235=VECTOR('',#776,10.);
#236=VECTOR('',#777,10.);
#237=VECTOR('',#780,1.1);
#238=VERTEX_POINT('',#785);
#239=VERTEX_POINT('',#786);
#240=VERTEX_POINT('',#788);
#241=VERTEX_POINT('',#790);
#242=VERTEX_POINT('',#794);
#243=VERTEX_POINT('',#796);
#244=VERTEX_POINT('',#800);
#245=VERTEX_POINT('',#801);
#246=VERTEX_POINT('',#806);
#247=VERTEX_POINT('',#808);
#248=VERTEX_POINT('',#812);
#249=VERTEX_POINT('',#814);
#250=VERTEX_POINT('',#818);
#251=VERTEX_POINT('',#819);
#252=VERTEX_POINT('',#824);
#253=VERTEX_POINT('',#826);
#254=VERTEX_POINT('',#830);
#255=VERTEX_POINT('',#831);
#256=VERTEX_POINT('',#875);
#257=VERTEX_POINT('',#886);
#258=VERTEX_POINT('',#914);
#259=VERTEX_POINT('',#915);
#260=VERTEX_POINT('',#941);
#261=VERTEX_POINT('',#942);
#262=VERTEX_POINT('',#968);
#263=VERTEX_POINT('',#969);
#264=VERTEX_POINT('',#1027);
#265=VERTEX_POINT('',#1040);
#266=VERTEX_POINT('',#1055);
#267=VERTEX_POINT('',#1056);
#268=VERTEX_POINT('',#1061);
#269=VERTEX_POINT('',#1063);
#270=VERTEX_POINT('',#1070);
#271=VERTEX_POINT('',#1072);
#272=VERTEX_POINT('',#1079);
#273=VERTEX_POINT('',#1083);
#274=VERTEX_POINT('',#1087);
#275=VERTEX_POINT('',#1091);
#276=VERTEX_POINT('',#1095);
#277=VERTEX_POINT('',#1099);
#278=VERTEX_POINT('',#1103);
#279=VERTEX_POINT('',#1107);
#280=VERTEX_POINT('',#1110);
#281=VERTEX_POINT('',#1112);
#282=VERTEX_POINT('',#1116);
#283=VERTEX_POINT('',#1146);
#284=VERTEX_POINT('',#1162);
#285=VERTEX_POINT('',#1167);
#286=VERTEX_POINT('',#1172);
#287=VERTEX_POINT('',#1185);
#288=EDGE_CURVE('',#238,#239,#156,.T.);
#289=EDGE_CURVE('',#238,#240,#157,.T.);
#290=EDGE_CURVE('',#240,#241,#158,.T.);
#291=EDGE_CURVE('',#241,#239,#159,.T.);
#292=EDGE_CURVE('',#240,#242,#54,.T.);
#293=EDGE_CURVE('',#242,#243,#160,.T.);
#294=EDGE_CURVE('',#243,#241,#55,.T.);
#295=EDGE_CURVE('',#244,#245,#161,.T.);
#296=EDGE_CURVE('',#245,#243,#162,.T.);
#297=EDGE_CURVE('',#242,#244,#163,.T.);
#298=EDGE_CURVE('',#244,#246,#56,.T.);
#299=EDGE_CURVE('',#246,#247,#164,.T.);
#300=EDGE_CURVE('',#247,#245,#57,.T.);
#301=EDGE_CURVE('',#246,#248,#58,.T.);
#302=EDGE_CURVE('',#248,#249,#165,.T.);
#303=EDGE_CURVE('',#249,#247,#59,.T.);
#304=EDGE_CURVE('',#250,#251,#166,.T.);
#305=EDGE_CURVE('',#251,#249,#60,.T.);
#306=EDGE_CURVE('',#248,#250,#61,.T.);
#307=EDGE_CURVE('',#250,#252,#62,.T.);
#308=EDGE_CURVE('',#252,#253,#167,.T.);
#309=EDGE_CURVE('',#253,#251,#63,.T.);
#310=EDGE_CURVE('',#254,#255,#168,.T.);
#311=EDGE_CURVE('',#255,#253,#169,.T.);
#312=EDGE_CURVE('',#252,#254,#170,.T.);
#313=EDGE_CURVE('',#254,#256,#25,.T.);
#314=EDGE_CURVE('',#256,#257,#171,.T.);
#315=EDGE_CURVE('',#257,#255,#26,.T.);
#316=EDGE_CURVE('',#258,#259,#172,.T.);
#317=EDGE_CURVE('',#259,#257,#27,.T.);
#318=EDGE_CURVE('',#256,#258,#28,.T.);
#319=EDGE_CURVE('',#260,#261,#173,.T.);
#320=EDGE_CURVE('',#261,#259,#29,.T.);
#321=EDGE_CURVE('',#258,#260,#30,.T.);
#322=EDGE_CURVE('',#262,#263,#174,.T.);
#323=EDGE_CURVE('',#263,#261,#31,.T.);
#324=EDGE_CURVE('',#260,#262,#32,.T.);
#325=EDGE_CURVE('',#262,#264,#33,.T.);
#326=EDGE_CURVE('',#264,#265,#175,.T.);
#327=EDGE_CURVE('',#265,#263,#34,.T.);
#328=EDGE_CURVE('',#266,#267,#176,.T.);
#329=EDGE_CURVE('',#267,#265,#64,.T.);
#330=EDGE_CURVE('',#264,#266,#65,.T.);
#331=EDGE_CURVE('',#266,#268,#66,.T.);
#332=EDGE_CURVE('',#268,#269,#177,.T.);
#333=EDGE_CURVE('',#269,#267,#67,.T.);
#334=EDGE_CURVE('',#239,#269,#178,.T.);
#335=EDGE_CURVE('',#268,#238,#179,.T.);
#336=EDGE_CURVE('',#270,#252,#180,.T.);
#337=EDGE_CURVE('',#270,#271,#181,.T.);
#338=EDGE_CURVE('',#254,#271,#35,.T.);
#339=EDGE_CURVE('',#250,#272,#182,.T.);
#340=EDGE_CURVE('',#272,#270,#68,.T.);
#341=EDGE_CURVE('',#273,#248,#183,.T.);
#342=EDGE_CURVE('',#273,#272,#69,.T.);
#343=EDGE_CURVE('',#274,#246,#184,.T.);
#344=EDGE_CURVE('',#274,#273,#70,.T.);
#345=EDGE_CURVE('',#244,#275,#185,.T.);
#346=EDGE_CURVE('',#275,#274,#71,.T.);
#347=EDGE_CURVE('',#276,#242,#186,.T.);
#348=EDGE_CURVE('',#276,#275,#187,.T.);
#349=EDGE_CURVE('',#240,#277,#188,.T.);
#350=EDGE_CURVE('',#277,#276,#72,.T.);
#351=EDGE_CURVE('',#278,#238,#189,.T.);
#352=EDGE_CURVE('',#278,#277,#190,.T.);
#353=EDGE_CURVE('',#279,#279,#73,.T.);
#354=EDGE_CURVE('',#266,#280,#191,.T.);
#355=EDGE_CURVE('',#280,#281,#74,.T.);
#356=EDGE_CURVE('',#281,#268,#192,.T.);
#357=EDGE_CURVE('',#282,#264,#36,.T.);
#358=EDGE_CURVE('',#280,#282,#75,.T.);
#359=EDGE_CURVE('',#262,#283,#37,.T.);
#360=EDGE_CURVE('',#283,#282,#38,.T.);
#361=EDGE_CURVE('',#283,#284,#39,.T.);
#362=EDGE_CURVE('',#284,#285,#40,.T.);
#363=EDGE_CURVE('',#285,#286,#41,.T.);
#364=EDGE_CURVE('',#271,#286,#42,.T.);
#365=EDGE_CURVE('',#278,#281,#193,.T.);
#366=EDGE_CURVE('',#287,#287,#76,.T.);
#367=EDGE_CURVE('',#284,#260,#194,.T.);
#368=EDGE_CURVE('',#286,#256,#43,.T.);
#369=EDGE_CURVE('',#285,#258,#195,.T.);
#370=EDGE_CURVE('',#279,#287,#196,.T.);
#371=ORIENTED_EDGE('',*,*,#288,.F.);
#372=ORIENTED_EDGE('',*,*,#289,.T.);
#373=ORIENTED_EDGE('',*,*,#290,.T.);
#374=ORIENTED_EDGE('',*,*,#291,.T.);
#375=ORIENTED_EDGE('',*,*,#290,.F.);
#376=ORIENTED_EDGE('',*,*,#292,.T.);
#377=ORIENTED_EDGE('',*,*,#293,.T.);
#378=ORIENTED_EDGE('',*,*,#294,.T.);
#379=ORIENTED_EDGE('',*,*,#295,.T.);
#380=ORIENTED_EDGE('',*,*,#296,.T.);
#381=ORIENTED_EDGE('',*,*,#293,.F.);
#382=ORIENTED_EDGE('',*,*,#297,.T.);
#383=ORIENTED_EDGE('',*,*,#295,.F.);
#384=ORIENTED_EDGE('',*,*,#298,.T.);
#385=ORIENTED_EDGE('',*,*,#299,.T.);
#386=ORIENTED_EDGE('',*,*,#300,.T.);
#387=ORIENTED_EDGE('',*,*,#299,.F.);
#388=ORIENTED_EDGE('',*,*,#301,.T.);
#389=ORIENTED_EDGE('',*,*,#302,.T.);
#390=ORIENTED_EDGE('',*,*,#303,.T.);
#391=ORIENTED_EDGE('',*,*,#304,.T.);
#392=ORIENTED_EDGE('',*,*,#305,.T.);
#393=ORIENTED_EDGE('',*,*,#302,.F.);
#394=ORIENTED_EDGE('',*,*,#306,.T.);
#395=ORIENTED_EDGE('',*,*,#304,.F.);
#396=ORIENTED_EDGE('',*,*,#307,.T.);
#397=ORIENTED_EDGE('',*,*,#308,.T.);
#398=ORIENTED_EDGE('',*,*,#309,.T.);
#399=ORIENTED_EDGE('',*,*,#310,.T.);
#400=ORIENTED_EDGE('',*,*,#311,.T.);
#401=ORIENTED_EDGE('',*,*,#308,.F.);
#402=ORIENTED_EDGE('',*,*,#312,.T.);
#403=ORIENTED_EDGE('',*,*,#310,.F.);
#404=ORIENTED_EDGE('',*,*,#313,.T.);
#405=ORIENTED_EDGE('',*,*,#314,.T.);
#406=ORIENTED_EDGE('',*,*,#315,.T.);
#407=ORIENTED_EDGE('',*,*,#316,.T.);
#408=ORIENTED_EDGE('',*,*,#317,.T.);
#409=ORIENTED_EDGE('',*,*,#314,.F.);
#410=ORIENTED_EDGE('',*,*,#318,.T.);
#411=ORIENTED_EDGE('',*,*,#319,.T.);
#412=ORIENTED_EDGE('',*,*,#320,.T.);
#413=ORIENTED_EDGE('',*,*,#316,.F.);
#414=ORIENTED_EDGE('',*,*,#321,.T.);
#415=ORIENTED_EDGE('',*,*,#322,.T.);
#416=ORIENTED_EDGE('',*,*,#323,.T.);
#417=ORIENTED_EDGE('',*,*,#319,.F.);
#418=ORIENTED_EDGE('',*,*,#324,.T.);
#419=ORIENTED_EDGE('',*,*,#322,.F.);
#420=ORIENTED_EDGE('',*,*,#325,.T.);
#421=ORIENTED_EDGE('',*,*,#326,.T.);
#422=ORIENTED_EDGE('',*,*,#327,.T.);
#423=ORIENTED_EDGE('',*,*,#328,.T.);
#424=ORIENTED_EDGE('',*,*,#329,.T.);
#425=ORIENTED_EDGE('',*,*,#326,.F.);
#426=ORIENTED_EDGE('',*,*,#330,.T.);
#427=ORIENTED_EDGE('',*,*,#328,.F.);
#428=ORIENTED_EDGE('',*,*,#331,.T.);
#429=ORIENTED_EDGE('',*,*,#332,.T.);
#430=ORIENTED_EDGE('',*,*,#333,.T.);
#431=ORIENTED_EDGE('',*,*,#288,.T.);
#432=ORIENTED_EDGE('',*,*,#334,.T.);
#433=ORIENTED_EDGE('',*,*,#332,.F.);
#434=ORIENTED_EDGE('',*,*,#335,.T.);
#435=ORIENTED_EDGE('',*,*,#312,.F.);
#436=ORIENTED_EDGE('',*,*,#336,.F.);
#437=ORIENTED_EDGE('',*,*,#337,.T.);
#438=ORIENTED_EDGE('',*,*,#338,.F.);
#439=ORIENTED_EDGE('',*,*,#307,.F.);
#440=ORIENTED_EDGE('',*,*,#339,.T.);
#441=ORIENTED_EDGE('',*,*,#340,.T.);
#442=ORIENTED_EDGE('',*,*,#336,.T.);
#443=ORIENTED_EDGE('',*,*,#306,.F.);
#444=ORIENTED_EDGE('',*,*,#341,.F.);
#445=ORIENTED_EDGE('',*,*,#342,.T.);
#446=ORIENTED_EDGE('',*,*,#339,.F.);
#447=ORIENTED_EDGE('',*,*,#301,.F.);
#448=ORIENTED_EDGE('',*,*,#343,.F.);
#449=ORIENTED_EDGE('',*,*,#344,.T.);
#450=ORIENTED_EDGE('',*,*,#341,.T.);
#451=ORIENTED_EDGE('',*,*,#298,.F.);
#452=ORIENTED_EDGE('',*,*,#345,.T.);
#453=ORIENTED_EDGE('',*,*,#346,.T.);
#454=ORIENTED_EDGE('',*,*,#343,.T.);
#455=ORIENTED_EDGE('',*,*,#297,.F.);
#456=ORIENTED_EDGE('',*,*,#347,.F.);
#457=ORIENTED_EDGE('',*,*,#348,.T.);
#458=ORIENTED_EDGE('',*,*,#345,.F.);
#459=ORIENTED_EDGE('',*,*,#292,.F.);
#460=ORIENTED_EDGE('',*,*,#349,.T.);
#461=ORIENTED_EDGE('',*,*,#350,.T.);
#462=ORIENTED_EDGE('',*,*,#347,.T.);
#463=ORIENTED_EDGE('',*,*,#289,.F.);
#464=ORIENTED_EDGE('',*,*,#351,.F.);
#465=ORIENTED_EDGE('',*,*,#352,.T.);
#466=ORIENTED_EDGE('',*,*,#349,.F.);
#467=ORIENTED_EDGE('',*,*,#291,.F.);
#468=ORIENTED_EDGE('',*,*,#294,.F.);
#469=ORIENTED_EDGE('',*,*,#296,.F.);
#470=ORIENTED_EDGE('',*,*,#300,.F.);
#471=ORIENTED_EDGE('',*,*,#303,.F.);
#472=ORIENTED_EDGE('',*,*,#305,.F.);
#473=ORIENTED_EDGE('',*,*,#309,.F.);
#474=ORIENTED_EDGE('',*,*,#311,.F.);
#475=ORIENTED_EDGE('',*,*,#315,.F.);
#476=ORIENTED_EDGE('',*,*,#317,.F.);
#477=ORIENTED_EDGE('',*,*,#320,.F.);
#478=ORIENTED_EDGE('',*,*,#323,.F.);
#479=ORIENTED_EDGE('',*,*,#327,.F.);
#480=ORIENTED_EDGE('',*,*,#329,.F.);
#481=ORIENTED_EDGE('',*,*,#333,.F.);
#482=ORIENTED_EDGE('',*,*,#334,.F.);
#483=ORIENTED_EDGE('',*,*,#353,.T.);
#484=ORIENTED_EDGE('',*,*,#331,.F.);
#485=ORIENTED_EDGE('',*,*,#354,.T.);
#486=ORIENTED_EDGE('',*,*,#355,.T.);
#487=ORIENTED_EDGE('',*,*,#356,.T.);
#488=ORIENTED_EDGE('',*,*,#330,.F.);
#489=ORIENTED_EDGE('',*,*,#357,.F.);
#490=ORIENTED_EDGE('',*,*,#358,.F.);
#491=ORIENTED_EDGE('',*,*,#354,.F.);
#492=ORIENTED_EDGE('',*,*,#325,.F.);
#493=ORIENTED_EDGE('',*,*,#359,.T.);
#494=ORIENTED_EDGE('',*,*,#360,.T.);
#495=ORIENTED_EDGE('',*,*,#357,.T.);
#496=ORIENTED_EDGE('',*,*,#355,.F.);
#497=ORIENTED_EDGE('',*,*,#358,.T.);
#498=ORIENTED_EDGE('',*,*,#360,.F.);
#499=ORIENTED_EDGE('',*,*,#361,.T.);
#500=ORIENTED_EDGE('',*,*,#362,.T.);
#501=ORIENTED_EDGE('',*,*,#363,.T.);
#502=ORIENTED_EDGE('',*,*,#364,.F.);
#503=ORIENTED_EDGE('',*,*,#337,.F.);
#504=ORIENTED_EDGE('',*,*,#340,.F.);
#505=ORIENTED_EDGE('',*,*,#342,.F.);
#506=ORIENTED_EDGE('',*,*,#344,.F.);
#507=ORIENTED_EDGE('',*,*,#346,.F.);
#508=ORIENTED_EDGE('',*,*,#348,.F.);
#509=ORIENTED_EDGE('',*,*,#350,.F.);
#510=ORIENTED_EDGE('',*,*,#352,.F.);
#511=ORIENTED_EDGE('',*,*,#365,.T.);
#512=ORIENTED_EDGE('',*,*,#366,.T.);
#513=ORIENTED_EDGE('',*,*,#324,.F.);
#514=ORIENTED_EDGE('',*,*,#367,.F.);
#515=ORIENTED_EDGE('',*,*,#361,.F.);
#516=ORIENTED_EDGE('',*,*,#359,.F.);
#517=ORIENTED_EDGE('',*,*,#313,.F.);
#518=ORIENTED_EDGE('',*,*,#338,.T.);
#519=ORIENTED_EDGE('',*,*,#364,.T.);
#520=ORIENTED_EDGE('',*,*,#368,.T.);
#521=ORIENTED_EDGE('',*,*,#318,.F.);
#522=ORIENTED_EDGE('',*,*,#368,.F.);
#523=ORIENTED_EDGE('',*,*,#363,.F.);
#524=ORIENTED_EDGE('',*,*,#369,.T.);
#525=ORIENTED_EDGE('',*,*,#353,.F.);
#526=ORIENTED_EDGE('',*,*,#370,.T.);
#527=ORIENTED_EDGE('',*,*,#366,.F.);
#528=ORIENTED_EDGE('',*,*,#370,.F.);
#529=ORIENTED_EDGE('',*,*,#335,.F.);
#530=ORIENTED_EDGE('',*,*,#356,.F.);
#531=ORIENTED_EDGE('',*,*,#365,.F.);
#532=ORIENTED_EDGE('',*,*,#351,.T.);
#533=ORIENTED_EDGE('',*,*,#321,.F.);
#534=ORIENTED_EDGE('',*,*,#369,.F.);
#535=ORIENTED_EDGE('',*,*,#362,.F.);
#536=ORIENTED_EDGE('',*,*,#367,.T.);
#537=PLANE('',#596);
#538=PLANE('',#600);
#539=PLANE('',#613);
#540=PLANE('',#620);
#541=PLANE('',#621);
#542=PLANE('',#630);
#543=PLANE('',#633);
#544=PLANE('',#634);
#545=PLANE('',#640);
#546=PLANE('',#643);
#547=ADVANCED_FACE('',(#84),#537,.T.);
#548=ADVANCED_FACE('',(#85),#77,.T.);
#549=ADVANCED_FACE('',(#86),#538,.T.);
#550=ADVANCED_FACE('',(#87),#78,.T.);
#551=ADVANCED_FACE('',(#88),#79,.F.);
#552=ADVANCED_FACE('',(#89),#80,.T.);
#553=ADVANCED_FACE('',(#90),#81,.F.);
#554=ADVANCED_FACE('',(#91),#539,.T.);
#555=ADVANCED_FACE('',(#92),#44,.T.);
#556=ADVANCED_FACE('',(#93),#45,.T.);
#557=ADVANCED_FACE('',(#94),#46,.T.);
#558=ADVANCED_FACE('',(#95),#47,.T.);
#559=ADVANCED_FACE('',(#96),#48,.T.);
#560=ADVANCED_FACE('',(#97),#82,.F.);
#561=ADVANCED_FACE('',(#98),#83,.T.);
#562=ADVANCED_FACE('',(#99),#540,.T.);
#563=ADVANCED_FACE('',(#100),#541,.T.);
#564=ADVANCED_FACE('',(#101),#17,.F.);
#565=ADVANCED_FACE('',(#102),#18,.T.);
#566=ADVANCED_FACE('',(#103),#19,.F.);
#567=ADVANCED_FACE('',(#104),#20,.T.);
#568=ADVANCED_FACE('',(#105),#542,.T.);
#569=ADVANCED_FACE('',(#106),#21,.T.);
#570=ADVANCED_FACE('',(#107),#543,.T.);
#571=ADVANCED_FACE('',(#108,#15),#544,.T.);
#572=ADVANCED_FACE('',(#109),#22,.T.);
#573=ADVANCED_FACE('',(#110),#23,.F.);
#574=ADVANCED_FACE('',(#111),#49,.F.);
#575=ADVANCED_FACE('',(#112,#16),#545,.F.);
#576=ADVANCED_FACE('',(#113),#50,.T.);
#577=ADVANCED_FACE('',(#114),#51,.F.);
#578=ADVANCED_FACE('',(#115),#52,.T.);
#579=ADVANCED_FACE('',(#116),#24,.F.);
#580=ADVANCED_FACE('',(#117),#546,.T.);
#581=ADVANCED_FACE('',(#118),#53,.T.);
#582=CLOSED_SHELL('',(#547,#548,#549,#550,#551,#552,#553,#554,#555,#556,
#557,#558,#559,#560,#561,#562,#563,#564,#565,#566,#567,#568,#569,#570,#571,
#572,#573,#574,#575,#576,#577,#578,#579,#580,#581));
#583=DERIVED_UNIT_ELEMENT(#585,1.);
#584=DERIVED_UNIT_ELEMENT(#1245,-3.);
#585=(
MASS_UNIT()
NAMED_UNIT(*)
SI_UNIT(.KILO.,.GRAM.)
);
#586=DERIVED_UNIT((#583,#584));
#587=MEASURE_REPRESENTATION_ITEM('density measure',
POSITIVE_RATIO_MEASURE(7850.),#586);
#588=PROPERTY_DEFINITION_REPRESENTATION(#593,#590);
#589=PROPERTY_DEFINITION_REPRESENTATION(#594,#591);
#590=REPRESENTATION('material name',(#592),#1242);
#591=REPRESENTATION('density',(#587),#1242);
#592=DESCRIPTIVE_REPRESENTATION_ITEM('Steel','Steel');
#593=PROPERTY_DEFINITION('material property','material name',#1252);
#594=PROPERTY_DEFINITION('material property','density of part',#1252);
#595=AXIS2_PLACEMENT_3D('',#783,#644,#645);
#596=AXIS2_PLACEMENT_3D('',#784,#646,#647);
#597=AXIS2_PLACEMENT_3D('',#793,#652,#653);
#598=AXIS2_PLACEMENT_3D('',#795,#654,#655);
#599=AXIS2_PLACEMENT_3D('',#798,#657,#658);
#600=AXIS2_PLACEMENT_3D('',#799,#659,#660);
#601=AXIS2_PLACEMENT_3D('',#805,#664,#665);
#602=AXIS2_PLACEMENT_3D('',#807,#666,#667);
#603=AXIS2_PLACEMENT_3D('',#810,#669,#670);
#604=AXIS2_PLACEMENT_3D('',#811,#671,#672);
#605=AXIS2_PLACEMENT_3D('',#813,#673,#674);
#606=AXIS2_PLACEMENT_3D('',#816,#676,#677);
#607=AXIS2_PLACEMENT_3D('',#817,#678,#679);
#608=AXIS2_PLACEMENT_3D('',#821,#681,#682);
#609=AXIS2_PLACEMENT_3D('',#822,#683,#684);
#610=AXIS2_PLACEMENT_3D('',#823,#685,#686);
#611=AXIS2_PLACEMENT_3D('',#825,#687,#688);
#612=AXIS2_PLACEMENT_3D('',#828,#690,#691);
#613=AXIS2_PLACEMENT_3D('',#829,#692,#693);
#614=AXIS2_PLACEMENT_3D('',#1054,#702,#703);
#615=AXIS2_PLACEMENT_3D('',#1058,#705,#706);
#616=AXIS2_PLACEMENT_3D('',#1059,#707,#708);
#617=AXIS2_PLACEMENT_3D('',#1060,#709,#710);
#618=AXIS2_PLACEMENT_3D('',#1062,#711,#712);
#619=AXIS2_PLACEMENT_3D('',#1065,#714,#715);
#620=AXIS2_PLACEMENT_3D('',#1066,#716,#717);
#621=AXIS2_PLACEMENT_3D('',#1069,#720,#721);
#622=AXIS2_PLACEMENT_3D('',#1078,#724,#725);
#623=AXIS2_PLACEMENT_3D('',#1081,#727,#728);
#624=AXIS2_PLACEMENT_3D('',#1082,#729,#730);
#625=AXIS2_PLACEMENT_3D('',#1085,#732,#733);
#626=AXIS2_PLACEMENT_3D('',#1086,#734,#735);
#627=AXIS2_PLACEMENT_3D('',#1089,#737,#738);
#628=AXIS2_PLACEMENT_3D('',#1090,#739,#740);
#629=AXIS2_PLACEMENT_3D('',#1093,#742,#743);
#630=AXIS2_PLACEMENT_3D('',#1094,#744,#745);
#631=AXIS2_PLACEMENT_3D('',#1098,#748,#749);
#632=AXIS2_PLACEMENT_3D('',#1101,#751,#752);
#633=AXIS2_PLACEMENT_3D('',#1102,#753,#754);
#634=AXIS2_PLACEMENT_3D('',#1106,#757,#758);
#635=AXIS2_PLACEMENT_3D('',#1108,#759,#760);
#636=AXIS2_PLACEMENT_3D('',#1109,#761,#762);
#637=AXIS2_PLACEMENT_3D('',#1113,#764,#765);
#638=AXIS2_PLACEMENT_3D('',#1115,#767,#768);
#639=AXIS2_PLACEMENT_3D('',#1121,#769,#770);
#640=AXIS2_PLACEMENT_3D('',#1161,#771,#772);
#641=AXIS2_PLACEMENT_3D('',#1186,#774,#775);
#642=AXIS2_PLACEMENT_3D('',#1229,#778,#779);
#643=AXIS2_PLACEMENT_3D('',#1231,#781,#782);
#644=DIRECTION('axis',(0.,0.,1.));
#645=DIRECTION('refdir',(1.,0.,0.));
#646=DIRECTION('center_axis',(-0.7071067811839,0.241844762649005,-0.664463024391118));
#647=DIRECTION('ref_axis',(-0.684791078774435,0.,0.728739444816147));
#648=DIRECTION('',(0.707106615733768,0.241201876899991,-0.664696839593404));
#649=DIRECTION('',(1.15899444195071E-26,0.939692620785845,0.342020143325844));
#650=DIRECTION('',(0.707106781189194,0.241844762647208,-0.664463024386138));
#651=DIRECTION('',(-1.15899444195071E-26,-0.939692620785845,-0.342020143325844));
#652=DIRECTION('center_axis',(5.92118946466662E-14,-0.34202014332585,0.939692620785842));
#653=DIRECTION('ref_axis',(-0.707106781186548,0.664463024388613,0.241844762648141));
#654=DIRECTION('center_axis',(-6.13896709578586E-14,0.342020143325844,-0.939692620785845));
#655=DIRECTION('ref_axis',(-0.707106781186548,0.664463024388613,0.241844762648142));
#656=DIRECTION('',(-4.18691322315641E-14,-0.422618261740467,-0.906307787036758));
#657=DIRECTION('center_axis',(6.13896709578586E-14,-0.342020143325844,0.939692620785845));
#658=DIRECTION('ref_axis',(-0.707106781186549,0.664463024388614,0.24184476264814));
#659=DIRECTION('center_axis',(-4.27286792305837E-14,0.906307787034486,-0.42261826174534));
#660=DIRECTION('ref_axis',(0.,0.42261826174534,0.906307787034486));
#661=DIRECTION('',(-4.18691322317897E-14,-0.422618261745341,-0.906307787034486));
#662=DIRECTION('',(-1.,-2.0092338127222E-14,5.80165102778426E-14));
#663=DIRECTION('',(1.,2.0092338127222E-14,-5.80165102778426E-14));
#664=DIRECTION('center_axis',(5.92118946466709E-14,-0.342020143325848,0.939692620785843));
#665=DIRECTION('ref_axis',(-3.87251285065778E-29,0.939692620785844,0.342020143325845));
#666=DIRECTION('center_axis',(-6.13896709578586E-14,0.342020143325844,-0.939692620785845));
#667=DIRECTION('ref_axis',(0.,0.939692620785844,0.342020143325845));
#668=DIRECTION('',(-0.707096951023273,0.238341100896258,-0.665738252977213));
#669=DIRECTION('center_axis',(6.13896709578586E-14,-0.342020143325844,0.939692620785845));
#670=DIRECTION('ref_axis',(-8.96792449626013E-29,0.939692620785845,0.342020143325844));
#671=DIRECTION('center_axis',(-5.9211894646676E-14,0.342020143325848,-0.939692620785843));
#672=DIRECTION('ref_axis',(-0.930949336251265,-0.343127230350384,-0.124888098413754));
#673=DIRECTION('center_axis',(6.13896709578586E-14,-0.342020143325844,0.939692620785845));
#674=DIRECTION('ref_axis',(-0.930949336251265,-0.343127230350384,-0.124888098413754));
#675=DIRECTION('',(-0.518544972870177,-0.209903227674365,-0.828885846255654));
#676=DIRECTION('center_axis',(-6.13896709578586E-14,0.342020143325844,-0.939692620785845));
#677=DIRECTION('ref_axis',(-0.930949336251265,-0.343127230350384,-0.124888098413754));
#678=DIRECTION('center_axis',(5.92118946468753E-14,-0.342020143325845,0.939692620785844));
#679=DIRECTION('ref_axis',(3.5527136788017E-14,0.939692620785844,0.342020143325844));
#680=DIRECTION('',(-0.518544972871061,0.693592752970903,-0.500040202520153));
#681=DIRECTION('center_axis',(6.13896709578586E-14,-0.342020143325844,0.939692620785845));
#682=DIRECTION('ref_axis',(3.5527136788017E-14,0.939692620785845,0.342020143325844));
#683=DIRECTION('center_axis',(-6.13896709578586E-14,0.342020143325844,-0.939692620785845));
#684=DIRECTION('ref_axis',(3.55271367880171E-14,0.939692620785844,0.342020143325845));
#685=DIRECTION('center_axis',(-5.92118946466805E-14,0.342020143325844,-0.939692620785845));
#686=DIRECTION('ref_axis',(-0.930949336251264,0.343127230350347,0.124888098413863));
#687=DIRECTION('center_axis',(6.13896709578586E-14,-0.342020143325844,0.939692620785845));
#688=DIRECTION('ref_axis',(-0.930949336251264,0.343127230350347,0.124888098413863));
#689=DIRECTION('',(-0.707106781186616,0.24184476264807,-0.664463024388568));
#690=DIRECTION('center_axis',(-6.13896709578586E-14,0.342020143325844,-0.939692620785845));
#691=DIRECTION('ref_axis',(-0.930949336251264,0.343127230350347,0.124888098413862));
#692=DIRECTION('center_axis',(0.707106781186309,0.241844762648179,-0.664463024388854));
#693=DIRECTION('ref_axis',(-0.684791078771957,0.,-0.728739444818475));
#694=DIRECTION('',(-0.707106781186776,0.24184476264802,-0.664463024388415));
#695=DIRECTION('',(2.05910140610155E-15,0.939692620785845,0.342020143325844));
#696=DIRECTION('',(-2.05910140610155E-15,-0.939692620785845,-0.342020143325844));
#697=DIRECTION('',(-0.173389632040075,0.886021727510167,-0.430001783578752));
#698=DIRECTION('',(-0.182140706799658,0.883885757630736,-0.430779213036169));
#699=DIRECTION('',(-0.257025934109588,0.86085736726204,-0.439160861673446));
#700=DIRECTION('',(-0.148595724797816,0.891470325066347,-0.428018656249833));
#701=DIRECTION('',(0.7021356770203,0.163193607064386,-0.69308970391181));
#702=DIRECTION('center_axis',(-5.92118946467522E-14,0.342020143325844,-0.939692620785845));
#703=DIRECTION('ref_axis',(1.,2.11112496319904E-14,-5.80026816603293E-14));
#704=DIRECTION('',(0.410950038329547,0.782572398597928,-0.467654260057181));
#705=DIRECTION('center_axis',(-6.13896709578586E-14,0.342020143325844,-0.939692620785845));
#706=DIRECTION('ref_axis',(1.,2.09965040597333E-14,-5.76874207915708E-14));
#707=DIRECTION('center_axis',(6.13896709578586E-14,-0.342020143325844,0.939692620785845));
#708=DIRECTION('ref_axis',(1.,2.12642437283331E-14,-5.84230294853408E-14));
#709=DIRECTION('center_axis',(5.92118946466738E-14,-0.342020143325835,0.939692620785848));
#710=DIRECTION('ref_axis',(-0.889591085580752,-0.42921194710171,-0.156220372936496));
#711=DIRECTION('center_axis',(-6.13896709578586E-14,0.342020143325844,-0.939692620785845));
#712=DIRECTION('ref_axis',(-0.889591085580752,-0.42921194710171,-0.156220372936496));
#713=DIRECTION('',(0.70710545756601,0.240559106434274,-0.66493096498201));
#714=DIRECTION('center_axis',(6.13896709578586E-14,-0.342020143325844,0.939692620785845));
#715=DIRECTION('ref_axis',(-0.889591085580752,-0.42921194710171,-0.156220372936495));
#716=DIRECTION('center_axis',(-0.707105457565246,0.243130418862192,-0.663995083796062));
#717=DIRECTION('ref_axis',(-0.684535525149966,0.,0.728979502323392));
#718=DIRECTION('',(-0.00193487999576829,-0.939690861792094,-0.342019503104477));
#719=DIRECTION('',(0.00193487999576829,0.939690861792094,0.342019503104477));
#720=DIRECTION('center_axis',(1.,1.93293213315697E-14,-5.91272836433781E-14));
#721=DIRECTION('ref_axis',(-2.05910140608998E-15,-0.939692620785908,-0.342020143325669));
#722=DIRECTION('',(-6.21724893790087E-14,0.342020143325845,-0.939692620785844));
#723=DIRECTION('',(-2.05910140608998E-15,-0.939692620785908,-0.342020143325669));
#724=DIRECTION('center_axis',(-6.21724893790087E-14,0.342020143325845,-0.939692620785844));
#725=DIRECTION('ref_axis',(-0.930949336251264,0.343127230350347,0.124888098413863));
#726=DIRECTION('',(6.21724893790087E-14,-0.342020143325845,0.939692620785844));
#727=DIRECTION('center_axis',(6.13896709578586E-14,-0.342020143325844,0.939692620785845));
#728=DIRECTION('ref_axis',(-0.930949336251264,0.343127230350347,0.124888098413863));
#729=DIRECTION('center_axis',(-6.21724893790087E-14,0.342020143325845,-0.939692620785844));
#730=DIRECTION('ref_axis',(3.55271367880171E-14,0.939692620785844,0.342020143325845));
#731=DIRECTION('',(-6.21724893790087E-14,0.342020143325845,-0.939692620785844));
#732=DIRECTION('center_axis',(-2.35117917562271E-29,0.342020143325668,-0.939692620785909));
#733=DIRECTION('ref_axis',(3.55271367880054E-14,0.939692620785909,0.342020143325668));
#734=DIRECTION('center_axis',(-6.21724893790087E-14,0.342020143325845,-0.939692620785844));
#735=DIRECTION('ref_axis',(-0.930949336251265,-0.343127230350384,-0.124888098413754));
#736=DIRECTION('',(-6.16572663011545E-14,0.342020143325845,-0.939692620785844));
#737=DIRECTION('center_axis',(6.13896709578586E-14,-0.342020143325844,0.939692620785845));
#738=DIRECTION('ref_axis',(-0.930949336251265,-0.343127230350384,-0.124888098413754));
#739=DIRECTION('center_axis',(-6.16572663011545E-14,0.342020143325845,-0.939692620785844));
#740=DIRECTION('ref_axis',(0.,-0.939692620785844,-0.342020143325845));
#741=DIRECTION('',(6.16572663011545E-14,-0.342020143325845,0.939692620785844));
#742=DIRECTION('center_axis',(-6.13896709578586E-14,0.342020143325844,-0.939692620785845));
#743=DIRECTION('ref_axis',(0.,-0.939692620785844,-0.342020143325845));
#744=DIRECTION('center_axis',(9.62193288008465E-16,0.939692620785844,0.342020143325845));
#745=DIRECTION('ref_axis',(1.,-9.04165932511284E-16,-3.29089486271652E-16));
#746=DIRECTION('',(-6.21724893790087E-14,0.342020143325845,-0.939692620785844));
#747=DIRECTION('',(1.,-9.04165932511284E-16,-3.29089486271652E-16));
#748=DIRECTION('center_axis',(-6.21724893790087E-14,0.342020143325845,-0.939692620785844));
#749=DIRECTION('ref_axis',(-0.707106781186548,0.664463024388613,0.241844762648142));
#750=DIRECTION('',(6.21724893790087E-14,-0.342020143325845,0.939692620785844));
#751=DIRECTION('center_axis',(-6.13896709578586E-14,0.342020143325844,-0.939692620785845));
#752=DIRECTION('ref_axis',(-0.707106781186548,0.664463024388613,0.241844762648142));
#753=DIRECTION('center_axis',(-1.,-2.12642437283222E-14,5.84230294853448E-14));
#754=DIRECTION('ref_axis',(0.,0.939692620785908,0.342020143325669));
#755=DIRECTION('',(-6.21724893790087E-14,0.342020143325845,-0.939692620785844));
#756=DIRECTION('',(0.,0.939692620785908,0.342020143325669));
#757=DIRECTION('center_axis',(-6.13896709578586E-14,0.342020143325844,-0.939692620785845));
#758=DIRECTION('ref_axis',(-1.,-2.09965040597224E-14,5.76874207915747E-14));
#759=DIRECTION('center_axis',(6.13896709578586E-14,-0.342020143325844,0.939692620785845));
#760=DIRECTION('ref_axis',(-1.,0.,0.));
#761=DIRECTION('center_axis',(-6.21724893790087E-14,0.342020143325845,-0.939692620785844));
#762=DIRECTION('ref_axis',(-0.889591085580752,-0.42921194710171,-0.156220372936496));
#763=DIRECTION('',(6.21724893790087E-14,-0.342020143325845,0.939692620785844));
#764=DIRECTION('center_axis',(-6.13896709578586E-14,0.342020143325844,-0.939692620785845));
#765=DIRECTION('ref_axis',(-0.889591085580752,-0.42921194710171,-0.156220372936496));
#766=DIRECTION('',(-6.2172597799023E-14,0.342020143325845,-0.939692620785844));
#767=DIRECTION('center_axis',(-6.21724893790087E-14,0.342020143325845,-0.939692620785844));
#768=DIRECTION('ref_axis',(0.914716086133421,0.379727081019838,0.138209354636032));
#769=DIRECTION('center_axis',(-2.33921504725492E-31,0.342020143325669,-0.939692620785908));
#770=DIRECTION('ref_axis',(-1.,0.,0.));
#771=DIRECTION('center_axis',(-6.13896709578586E-14,0.342020143325844,-0.939692620785845));
#772=DIRECTION('ref_axis',(-1.,-2.09965040597224E-14,5.76874207915747E-14));
#773=DIRECTION('',(-0.00193487999576829,-0.939690861792158,-0.342019503104302));
#774=DIRECTION('center_axis',(-6.13896709578586E-14,0.342020143325844,-0.939692620785845));
#775=DIRECTION('ref_axis',(-1.,0.,0.));
#776=DIRECTION('',(-6.21724893790087E-14,0.342020143325845,-0.939692620785844));
#777=DIRECTION('',(-6.21724893790087E-14,0.342020143325845,-0.939692620785844));
#778=DIRECTION('center_axis',(0.,-0.342020143325845,0.939692620785844));
#779=DIRECTION('ref_axis',(-1.,0.,0.));
#780=DIRECTION('',(0.,-0.342020143325845,0.939692620785844));
#781=DIRECTION('center_axis',(-0.999998128117949,0.00181819245410834,0.000661767933529403));
#782=DIRECTION('ref_axis',(0.00193487999576829,0.939690861792158,0.342019503104302));
#783=CARTESIAN_POINT('',(0.,0.,0.));
#784=CARTESIAN_POINT('Origin',(37.7449863474478,-45.629108368552,-2.53719739177887));
#785=CARTESIAN_POINT('',(37.5949863474479,-48.9251155125351,-3.57721921824629));
#786=CARTESIAN_POINT('',(37.8949863474473,-48.8227821989162,-3.85922626985722));
#787=CARTESIAN_POINT('',(37.5949863474479,-48.9251155125351,-3.57721921824629));
#788=CARTESIAN_POINT('',(37.5949863474478,-33.3998689858268,2.07350839712187));
#789=CARTESIAN_POINT('',(37.5949863474478,-45.6804113900505,-2.39624349866206));
#790=CARTESIAN_POINT('',(37.8949863474478,-33.2972629428298,1.79160061088824));
#791=CARTESIAN_POINT('',(37.5949863474478,-33.3998689858268,2.07350839712187));
#792=CARTESIAN_POINT('',(37.8949863474478,-45.5778053470535,-2.67815128489568));
#793=CARTESIAN_POINT('Origin',(38.8449863474478,-33.3485659643287,1.93255450400609));
#794=CARTESIAN_POINT('',(38.8449863474478,-32.2252532098453,2.50103357628129));
#795=CARTESIAN_POINT('Origin',(38.8449863474478,-33.3998689858276,2.07350839712398));
#796=CARTESIAN_POINT('',(38.8449863474478,-32.4045549530833,2.11651974704774));
#797=CARTESIAN_POINT('',(38.8449863474478,-32.2252532098453,2.50103357628129));
#798=CARTESIAN_POINT('Origin',(38.8449863474478,-33.2972629428298,1.79160061088819));
#799=CARTESIAN_POINT('Origin',(45.2180669529036,-32.3149040814636,2.30877666166263));
#800=CARTESIAN_POINT('',(64.845080185612,-32.2252532098437,2.50103357627674));
#801=CARTESIAN_POINT('',(64.8450801856119,-32.4045549530828,2.11651974704623));
#802=CARTESIAN_POINT('',(64.845080185612,-32.2252532098437,2.50103357627674));
#803=CARTESIAN_POINT('',(45.2180669529036,-32.4045549530831,2.11651974704737));
#804=CARTESIAN_POINT('',(45.2180669529037,-32.2252532098441,2.50103357627788));
#805=CARTESIAN_POINT('Origin',(64.8450801856119,-33.3485659643282,1.93255450400457));
#806=CARTESIAN_POINT('',(66.0950628081741,-33.3936753283678,2.07576270407879));
#807=CARTESIAN_POINT('Origin',(64.845080185612,-33.3998689858271,2.07350839712245));
#808=CARTESIAN_POINT('',(65.7950669787592,-33.2925557631603,1.7933138841735));
#809=CARTESIAN_POINT('',(66.0950628081741,-33.3936753283678,2.07576270407879));
#810=CARTESIAN_POINT('Origin',(64.8450801856119,-33.2972629428293,1.79160061088668));
#811=CARTESIAN_POINT('Origin',(71.5949863474477,-33.3151202140481,1.94472776156879));
#812=CARTESIAN_POINT('',(67.5616530141143,-36.8801979763355,0.806772239122708));
#813=CARTESIAN_POINT('Origin',(71.5949863474477,-33.3664232355469,2.08568165468666));
#814=CARTESIAN_POINT('',(67.3416530141143,-36.9692523737444,0.455105757492565));
#815=CARTESIAN_POINT('',(67.5616530141143,-36.8801979763355,0.806772239122708));
#816=CARTESIAN_POINT('Origin',(71.5949863474477,-33.2638171925492,1.80377386845091));
#817=CARTESIAN_POINT('Origin',(66.0949863474477,-38.1066312242141,0.200760376708381));
#818=CARTESIAN_POINT('',(67.5616530141143,-39.4356705150904,-0.123343699470367));
#819=CARTESIAN_POINT('',(67.3416530141143,-39.1414040316863,-0.335492790310744));
#820=CARTESIAN_POINT('',(67.5616530141143,-39.4356705150904,-0.123343699470367));
#821=CARTESIAN_POINT('Origin',(66.0949863474477,-38.0553282027154,0.0598064835909815));
#822=CARTESIAN_POINT('Origin',(66.0949863474477,-38.1579342457128,0.341714269825781));
#823=CARTESIAN_POINT('Origin',(71.5949863474477,-42.8981422343802,-1.54320700815172));
#824=CARTESIAN_POINT('',(66.0949863474477,-42.9494452558792,-1.40225311503354));
#825=CARTESIAN_POINT('Origin',(71.5949863474477,-42.9494452558791,-1.40225311503386));
#826=CARTESIAN_POINT('',(65.7949863474477,-42.8468392128815,-1.68416090126925));
#827=CARTESIAN_POINT('',(66.0949863474477,-42.9494452558792,-1.40225311503354));
#828=CARTESIAN_POINT('Origin',(71.5949863474477,-42.8468392128813,-1.68416090126959));
#829=CARTESIAN_POINT('Origin',(65.9449863474477,-41.1852103559268,-0.919750791068343));
#830=CARTESIAN_POINT('',(66.0949863474477,-43.1713806528327,-1.48303099345485));
#831=CARTESIAN_POINT('',(65.7949863474477,-43.068774609835,-1.76493877969043));
#832=CARTESIAN_POINT('',(66.0949863474477,-43.1713806528327,-1.48303099345485));
#833=CARTESIAN_POINT('',(65.7949863474477,-41.133907334428,-1.06070468418613));
#834=CARTESIAN_POINT('',(66.0949863474477,-41.2365133774257,-0.778796897950552));
#835=CARTESIAN_POINT('Ctrl Pts',(65.1514988089551,-44.3101354031781,-1.89750382670983));
#836=CARTESIAN_POINT('Ctrl Pts',(65.3092980154636,-44.2726299530522,-1.88385295924124));
#837=CARTESIAN_POINT('Ctrl Pts',(65.4577927745148,-44.2065202196273,-1.85979098407929));
#838=CARTESIAN_POINT('Ctrl Pts',(65.7194568830897,-44.0245340972771,-1.79355345249428));
#839=CARTESIAN_POINT('Ctrl Pts',(65.8301245520225,-43.9103978777002,-1.7520112659166));
#840=CARTESIAN_POINT('Ctrl Pts',(65.9731916120478,-43.688251954707,-1.67115676228345));
#841=CARTESIAN_POINT('Ctrl Pts',(66.0184736357135,-43.5898575585222,-1.63534413085356));
#842=CARTESIAN_POINT('Ctrl Pts',(66.079512796795,-43.3842973353301,-1.5605263282625));
#843=CARTESIAN_POINT('Ctrl Pts',(66.0949863474477,-43.2780869629056,-1.52186891412964));
#844=CARTESIAN_POINT('Ctrl Pts',(66.0949863474477,-43.1713806528327,-1.48303099345469));
#845=CARTESIAN_POINT('Ctrl Pts',(65.1269778120345,-44.1848330088179,-1.958315262128));
#846=CARTESIAN_POINT('Ctrl Pts',(65.2721530517283,-44.1503279350418,-1.94575644234233));
#847=CARTESIAN_POINT('Ctrl Pts',(65.4087682608618,-44.0895070401278,-1.9236194469722));
#848=CARTESIAN_POINT('Ctrl Pts',(65.6494992319475,-43.9220797935732,-1.86268091282115));
#849=CARTESIAN_POINT('Ctrl Pts',(65.7513134752456,-43.8170744662577,-1.82446209923893));
#850=CARTESIAN_POINT('Ctrl Pts',(65.8829351993254,-43.6127002416153,-1.75007596481782));
#851=CARTESIAN_POINT('Ctrl Pts',(65.9245946416549,-43.5221773825005,-1.71712833857936));
#852=CARTESIAN_POINT('Ctrl Pts',(65.9807506863234,-43.3330619898068,-1.64829596479725));
#853=CARTESIAN_POINT('Ctrl Pts',(65.994986334916,-43.2353484391781,-1.61273114088393));
#854=CARTESIAN_POINT('Ctrl Pts',(65.9949863474477,-43.1371786385001,-1.57700025553327));
#855=CARTESIAN_POINT('Ctrl Pts',(65.1024568151139,-44.0595306144577,-2.01912669754617));
#856=CARTESIAN_POINT('Ctrl Pts',(65.2350081788751,-44.0280260960122,-2.00765999058711));
#857=CARTESIAN_POINT('Ctrl Pts',(65.3597437456717,-43.9724938600983,-1.9874479096722));
#858=CARTESIAN_POINT('Ctrl Pts',(65.5795416056778,-43.8196255313166,-1.93180838823364));
#859=CARTESIAN_POINT('Ctrl Pts',(65.6725024597014,-43.7237511121767,-1.89691295343914));
#860=CARTESIAN_POINT('Ctrl Pts',(65.7926787612662,-43.5371485123511,-1.82899516146589));
#861=CARTESIAN_POINT('Ctrl Pts',(65.8307156805883,-43.4544972341805,-1.79891255638773));
#862=CARTESIAN_POINT('Ctrl Pts',(65.8819885594232,-43.2818266340564,-1.73606559760964));
#863=CARTESIAN_POINT('Ctrl Pts',(65.8949863599795,-43.1926099292179,-1.70359337264911));
#864=CARTESIAN_POINT('Ctrl Pts',(65.8949863474477,-43.1029766241676,-1.67096951761185));
#865=CARTESIAN_POINT('Ctrl Pts',(65.0779358181933,-43.9342282200975,-2.07993813296433));
#866=CARTESIAN_POINT('Ctrl Pts',(65.1978632151399,-43.9057240780017,-2.0695634736882));
#867=CARTESIAN_POINT('Ctrl Pts',(65.3107192320187,-43.8554806805988,-2.05127637256512));
#868=CARTESIAN_POINT('Ctrl Pts',(65.5095839545356,-43.7171712276127,-2.00093584856051));
#869=CARTESIAN_POINT('Ctrl Pts',(65.5936913829245,-43.6304277007342,-1.96936378676147));
#870=CARTESIAN_POINT('Ctrl Pts',(65.7024223485438,-43.4615967992593,-1.90791436400026));
#871=CARTESIAN_POINT('Ctrl Pts',(65.7368366865297,-43.3868170581588,-1.88069676411352));
#872=CARTESIAN_POINT('Ctrl Pts',(65.7832264489516,-43.2305912885331,-1.82383523414439));
#873=CARTESIAN_POINT('Ctrl Pts',(65.7949863474477,-43.1498714054904,-1.7944555994034));
#874=CARTESIAN_POINT('Ctrl Pts',(65.7949863474477,-43.068774609835,-1.76493877969043));
#875=CARTESIAN_POINT('',(65.1514988089551,-44.3101354031781,-1.89750382670983));
#876=CARTESIAN_POINT('Ctrl Pts',(66.0949863474477,-43.1713806528327,-1.48303099345469));
#877=CARTESIAN_POINT('Ctrl Pts',(66.0949863474477,-43.2780869629056,-1.52186891412964));
#878=CARTESIAN_POINT('Ctrl Pts',(66.079512796795,-43.3842973353301,-1.5605263282625));
#879=CARTESIAN_POINT('Ctrl Pts',(66.0184736357135,-43.5898575585222,-1.63534413085356));
#880=CARTESIAN_POINT('Ctrl Pts',(65.9731916120478,-43.688251954707,-1.67115676228345));
#881=CARTESIAN_POINT('Ctrl Pts',(65.8301245520225,-43.9103978777002,-1.7520112659166));
#882=CARTESIAN_POINT('Ctrl Pts',(65.7194568830897,-44.0245340972771,-1.79355345249428));
#883=CARTESIAN_POINT('Ctrl Pts',(65.4577927745148,-44.2065202196273,-1.85979098407929));
#884=CARTESIAN_POINT('Ctrl Pts',(65.3092980154636,-44.2726299530522,-1.88385295924124));
#885=CARTESIAN_POINT('Ctrl Pts',(65.1514988089551,-44.3101354031781,-1.89750382670983));
#886=CARTESIAN_POINT('',(65.0779358181933,-43.9342282200975,-2.07993813296433));
#887=CARTESIAN_POINT('',(65.1514988089551,-44.3101354031781,-1.89750382670983));
#888=CARTESIAN_POINT('Ctrl Pts',(65.0779358181933,-43.9342282200975,-2.07993813296433));
#889=CARTESIAN_POINT('Ctrl Pts',(65.1978632151399,-43.9057240780017,-2.0695634736882));
#890=CARTESIAN_POINT('Ctrl Pts',(65.3107192320187,-43.8554806805988,-2.05127637256512));
#891=CARTESIAN_POINT('Ctrl Pts',(65.5095839545356,-43.7171712276127,-2.00093584856051));
#892=CARTESIAN_POINT('Ctrl Pts',(65.5936913829245,-43.6304277007342,-1.96936378676147));
#893=CARTESIAN_POINT('Ctrl Pts',(65.7024223485438,-43.4615967992593,-1.90791436400026));
#894=CARTESIAN_POINT('Ctrl Pts',(65.7368366865297,-43.3868170581588,-1.88069676411352));
#895=CARTESIAN_POINT('Ctrl Pts',(65.7832264489516,-43.2305912885331,-1.82383523414439));
#896=CARTESIAN_POINT('Ctrl Pts',(65.7949863474477,-43.1498714054904,-1.7944555994034));
#897=CARTESIAN_POINT('Ctrl Pts',(65.7949863474477,-43.068774609835,-1.76493877969043));
#898=CARTESIAN_POINT('Ctrl Pts',(65.0779358181933,-43.9342282200975,-2.07993813296433));
#899=CARTESIAN_POINT('Ctrl Pts',(64.7244737476682,-44.0182384908131,-2.11051537087746));
#900=CARTESIAN_POINT('Ctrl Pts',(64.3717784229409,-44.1041634179021,-2.14178948671934));
#901=CARTESIAN_POINT('Ctrl Pts',(64.0177105901029,-44.1928590767491,-2.17407206644828));
#902=CARTESIAN_POINT('Ctrl Pts',(65.1024568151139,-44.0595306144577,-2.01912669754615));
#903=CARTESIAN_POINT('Ctrl Pts',(64.7493785015425,-44.1434496744657,-2.04967073747666));
#904=CARTESIAN_POINT('Ctrl Pts',(64.3970980104388,-44.2292737116417,-2.08090813239327));
#905=CARTESIAN_POINT('Ctrl Pts',(64.0434691758846,-44.3178593993521,-2.11315068590186));
#906=CARTESIAN_POINT('Ctrl Pts',(65.1269778120345,-44.1848330088179,-1.95831526212797));
#907=CARTESIAN_POINT('Ctrl Pts',(64.7742832554167,-44.2686608581183,-1.98882610407586));
#908=CARTESIAN_POINT('Ctrl Pts',(64.4224175979367,-44.3543840053813,-2.0200267780672));
#909=CARTESIAN_POINT('Ctrl Pts',(64.0692277616662,-44.4428597219551,-2.05222930535544));
#910=CARTESIAN_POINT('Ctrl Pts',(65.1514988089551,-44.3101354031781,-1.89750382670979));
#911=CARTESIAN_POINT('Ctrl Pts',(64.799188009291,-44.3938720417709,-1.92798147067506));
#912=CARTESIAN_POINT('Ctrl Pts',(64.4477371854346,-44.4794942991209,-1.95914542374113));
#913=CARTESIAN_POINT('Ctrl Pts',(64.0949863474478,-44.5678600445581,-1.99130792480902));
#914=CARTESIAN_POINT('',(64.0949863474479,-44.5678600445581,-1.99130792480902));
#915=CARTESIAN_POINT('',(64.017710590103,-44.1928590767491,-2.17407206644828));
#916=CARTESIAN_POINT('',(64.0949863474479,-44.5678600445581,-1.99130792480902));
#917=CARTESIAN_POINT('Ctrl Pts',(64.0177105901029,-44.1928590767491,-2.17407206644828));
#918=CARTESIAN_POINT('Ctrl Pts',(64.3717784229409,-44.1041634179021,-2.14178948671934));
#919=CARTESIAN_POINT('Ctrl Pts',(64.7244737476682,-44.0182384908131,-2.11051537087746));
#920=CARTESIAN_POINT('Ctrl Pts',(65.0779358181933,-43.9342282200975,-2.07993813296433));
#921=CARTESIAN_POINT('Ctrl Pts',(65.1514988089551,-44.3101354031781,-1.89750382670979));
#922=CARTESIAN_POINT('Ctrl Pts',(64.799188009291,-44.3938720417709,-1.92798147067506));
#923=CARTESIAN_POINT('Ctrl Pts',(64.4477371854346,-44.4794942991209,-1.95914542374113));
#924=CARTESIAN_POINT('Ctrl Pts',(64.0949863474478,-44.5678600445581,-1.99130792480902));
#925=CARTESIAN_POINT('Ctrl Pts',(64.0177105901032,-44.192859076749,-2.17407206644826));
#926=CARTESIAN_POINT('Ctrl Pts',(60.7445663045446,-45.0127971281157,-2.4725051110879));
#927=CARTESIAN_POINT('Ctrl Pts',(58.214648092493,-45.8559686054262,-2.77939443121122));
#928=CARTESIAN_POINT('Ctrl Pts',(55.9378125453395,-46.6907653559379,-3.08323560005966));
#929=CARTESIAN_POINT('Ctrl Pts',(64.0434691758848,-44.317859399352,-2.11315068590184));
#930=CARTESIAN_POINT('Ctrl Pts',(60.7743831654743,-45.1367808336904,-2.41121371220356));
#931=CARTESIAN_POINT('Ctrl Pts',(58.2486820139707,-45.9785610242217,-2.71759664535192));
#932=CARTESIAN_POINT('Ctrl Pts',(55.9741615015295,-46.812508972343,-3.02112887539545));
#933=CARTESIAN_POINT('Ctrl Pts',(64.0692277616664,-44.442859721955,-2.05222930535542));
#934=CARTESIAN_POINT('Ctrl Pts',(60.8042000264039,-45.2607645392651,-2.34992231331922));
#935=CARTESIAN_POINT('Ctrl Pts',(58.2827159354484,-46.1011534430173,-2.65579885949262));
#936=CARTESIAN_POINT('Ctrl Pts',(56.0105104577194,-46.9342525887481,-2.95902215073125));
#937=CARTESIAN_POINT('Ctrl Pts',(64.0949863474481,-44.567860044558,-1.991307924809));
#938=CARTESIAN_POINT('Ctrl Pts',(60.8340168873335,-45.3847482448398,-2.28863091443487));
#939=CARTESIAN_POINT('Ctrl Pts',(58.316749856926,-46.2237458618128,-2.59400107363333));
#940=CARTESIAN_POINT('Ctrl Pts',(56.0468594139093,-47.0559962051532,-2.89691542606704));
#941=CARTESIAN_POINT('',(56.0468594139094,-47.0559962051532,-2.89691542606704));
#942=CARTESIAN_POINT('',(55.9378125453395,-46.6907653559379,-3.08323560005965));
#943=CARTESIAN_POINT('',(56.0468594139094,-47.0559962051532,-2.89691542606704));
#944=CARTESIAN_POINT('Ctrl Pts',(55.9378125453395,-46.6907653559379,-3.08323560005966));
#945=CARTESIAN_POINT('Ctrl Pts',(58.214648092493,-45.8559686054262,-2.77939443121122));
#946=CARTESIAN_POINT('Ctrl Pts',(60.7445663045446,-45.0127971281157,-2.4725051110879));
#947=CARTESIAN_POINT('Ctrl Pts',(64.0177105901032,-44.192859076749,-2.17407206644826));
#948=CARTESIAN_POINT('Ctrl Pts',(64.0949863474481,-44.567860044558,-1.991307924809));
#949=CARTESIAN_POINT('Ctrl Pts',(60.8340168873335,-45.3847482448398,-2.28863091443487));
#950=CARTESIAN_POINT('Ctrl Pts',(58.316749856926,-46.2237458618128,-2.59400107363333));
#951=CARTESIAN_POINT('Ctrl Pts',(56.0468594139093,-47.0559962051532,-2.89691542606704));
#952=CARTESIAN_POINT('Ctrl Pts',(55.9378125453396,-46.6907653559379,-3.08323560005965));
#953=CARTESIAN_POINT('Ctrl Pts',(50.6714947134867,-48.6216492173959,-3.78601985145541));
#954=CARTESIAN_POINT('Ctrl Pts',(47.4970280721856,-50.2853019740611,-4.39153993503658));
#955=CARTESIAN_POINT('Ctrl Pts',(39.9295101959981,-51.8138120193877,-4.94787209431218));
#956=CARTESIAN_POINT('Ctrl Pts',(55.9741615015295,-46.812508972343,-3.02112887539545));
#957=CARTESIAN_POINT('Ctrl Pts',(50.7131983421306,-48.7414295549115,-3.72319855171386));
#958=CARTESIAN_POINT('Ctrl Pts',(47.5269933970014,-50.4095670239338,-4.33035093710222));
#959=CARTESIAN_POINT('Ctrl Pts',(39.95052480493,-51.9398849618039,-4.88734111545045));
#960=CARTESIAN_POINT('Ctrl Pts',(56.0105104577195,-46.9342525887481,-2.95902215073125));
#961=CARTESIAN_POINT('Ctrl Pts',(50.7549019707745,-48.8612098924271,-3.66037725197231));
#962=CARTESIAN_POINT('Ctrl Pts',(47.5569587218171,-50.5338320738065,-4.26916193916785));
#963=CARTESIAN_POINT('Ctrl Pts',(39.971539413862,-52.0659579042201,-4.82681013658872));
#964=CARTESIAN_POINT('Ctrl Pts',(56.0468594139094,-47.0559962051532,-2.89691542606705));
#965=CARTESIAN_POINT('Ctrl Pts',(50.7966055994184,-48.9809902299427,-3.59755595223076));
#966=CARTESIAN_POINT('Ctrl Pts',(47.5869240466329,-50.6580971236792,-4.20797294123348));
#967=CARTESIAN_POINT('Ctrl Pts',(39.992554022794,-52.1920308466363,-4.76627915772699));
#968=CARTESIAN_POINT('',(39.992554022794,-52.1920308466363,-4.76627915772699));
#969=CARTESIAN_POINT('',(39.9295101959981,-51.8138120193876,-4.94787209431217));
#970=CARTESIAN_POINT('',(39.992554022794,-52.1920308466363,-4.76627915772699));
#971=CARTESIAN_POINT('Ctrl Pts',(39.9295101959981,-51.8138120193877,-4.94787209431218));
#972=CARTESIAN_POINT('Ctrl Pts',(47.4970280721856,-50.2853019740611,-4.39153993503658));
#973=CARTESIAN_POINT('Ctrl Pts',(50.6714947134867,-48.6216492173959,-3.78601985145541));
#974=CARTESIAN_POINT('Ctrl Pts',(55.9378125453396,-46.6907653559379,-3.08323560005965));
#975=CARTESIAN_POINT('Ctrl Pts',(56.0468594139094,-47.0559962051532,-2.89691542606705));
#976=CARTESIAN_POINT('Ctrl Pts',(50.7966055994184,-48.9809902299427,-3.59755595223076));
#977=CARTESIAN_POINT('Ctrl Pts',(47.5869240466329,-50.6580971236792,-4.20797294123348));
#978=CARTESIAN_POINT('Ctrl Pts',(39.992554022794,-52.1920308466363,-4.76627915772699));
#979=CARTESIAN_POINT('Ctrl Pts',(38.4886591648091,-50.9046073319375,-4.29769531948195));
#980=CARTESIAN_POINT('Ctrl Pts',(38.4693925802849,-51.0564844326977,-4.35297406342532));
#981=CARTESIAN_POINT('Ctrl Pts',(38.4818789541289,-51.2104457015768,-4.40901138252721));
#982=CARTESIAN_POINT('Ctrl Pts',(38.5689521903657,-51.505204860203,-4.51629494254456));
#983=CARTESIAN_POINT('Ctrl Pts',(38.6427064424534,-51.6431844239833,-4.56651539669765));
#984=CARTESIAN_POINT('Ctrl Pts',(38.8423477844131,-51.8848111882119,-4.65446034667901));
#985=CARTESIAN_POINT('Ctrl Pts',(38.9663259296233,-51.9861480786534,-4.69134395843284));
#986=CARTESIAN_POINT('Ctrl Pts',(39.2402700648329,-52.1339448603218,-4.74513758768053));
#987=CARTESIAN_POINT('Ctrl Pts',(39.385941213918,-52.1820525124604,-4.76264734109942));
#988=CARTESIAN_POINT('Ctrl Pts',(39.6885144853401,-52.2264011718696,-4.77878893305402));
#989=CARTESIAN_POINT('Ctrl Pts',(39.8428572279927,-52.2222670559655,-4.7772842379199));
#990=CARTESIAN_POINT('Ctrl Pts',(39.992554022794,-52.1920308466363,-4.76627915772703));
#991=CARTESIAN_POINT('Ctrl Pts',(38.5879561445159,-50.8815282706972,-4.39571300540327));
#992=CARTESIAN_POINT('Ctrl Pts',(38.5702309617625,-51.0212551936369,-4.44656944627893));
#993=CARTESIAN_POINT('Ctrl Pts',(38.5817183441205,-51.1628995763474,-4.49812378543662));
#994=CARTESIAN_POINT('Ctrl Pts',(38.6618257545996,-51.434077984406,-4.5968246541457));
#995=CARTESIAN_POINT('Ctrl Pts',(38.7296796524865,-51.5610191950676,-4.64302747632827));
#996=CARTESIAN_POINT('Ctrl Pts',(38.913349680773,-51.7833158078443,-4.72393682655725));
#997=CARTESIAN_POINT('Ctrl Pts',(39.0274095859257,-51.8765457456464,-4.75786974885973));
#998=CARTESIAN_POINT('Ctrl Pts',(39.2794381681373,-52.0125187940244,-4.80735989113182));
#999=CARTESIAN_POINT('Ctrl Pts',(39.4134556413687,-52.0567778152028,-4.82346885743851));
#1000=CARTESIAN_POINT('Ctrl Pts',(39.6918230342797,-52.097578610572,-4.83831913248732));
#1001=CARTESIAN_POINT('Ctrl Pts',(39.8338183660646,-52.093775165563,-4.83693479171638));
#1002=CARTESIAN_POINT('Ctrl Pts',(39.971539413862,-52.0659579042201,-4.82681013658875));
#1003=CARTESIAN_POINT('Ctrl Pts',(38.6872531242227,-50.8584492094569,-4.4937306913246));
#1004=CARTESIAN_POINT('Ctrl Pts',(38.6710691182135,-50.9860259838553,-4.54016483978932));
#1005=CARTESIAN_POINT('Ctrl Pts',(38.6815577538211,-51.115353434372,-4.58723618225095));
#1006=CARTESIAN_POINT('Ctrl Pts',(38.7546992391187,-51.3629511454953,-4.67735437917235));
#1007=CARTESIAN_POINT('Ctrl Pts',(38.816652824906,-51.478853967087,-4.71953955629923));
#1008=CARTESIAN_POINT('Ctrl Pts',(38.9843515584687,-51.6818204593528,-4.79341331803746));
#1009=CARTESIAN_POINT('Ctrl Pts',(39.088493188886,-51.7669434487278,-4.82439555242173));
#1010=CARTESIAN_POINT('Ctrl Pts',(39.3186062846431,-51.891092736086,-4.86958219762553));
#1011=CARTESIAN_POINT('Ctrl Pts',(39.4409700338015,-51.9315031826716,-4.8842903973361));
#1012=CARTESIAN_POINT('Ctrl Pts',(39.6951315985935,-51.9687560278627,-4.8978493241274));
#1013=CARTESIAN_POINT('Ctrl Pts',(39.8247794938773,-51.9652834288804,-4.8965854014623));
#1014=CARTESIAN_POINT('Ctrl Pts',(39.9505248049301,-51.9398849618039,-4.88734111545047));
#1015=CARTESIAN_POINT('Ctrl Pts',(38.7865501039296,-50.8353701482166,-4.59174837724592));
#1016=CARTESIAN_POINT('Ctrl Pts',(38.7719074996911,-50.9507967447945,-4.63376022264293));
#1017=CARTESIAN_POINT('Ctrl Pts',(38.7813971438126,-51.0678073091426,-4.67634858516036));
#1018=CARTESIAN_POINT('Ctrl Pts',(38.8475728033525,-51.2918242696983,-4.75788409077349));
#1019=CARTESIAN_POINT('Ctrl Pts',(38.9036260349391,-51.3966887381713,-4.79605163592985));
#1020=CARTESIAN_POINT('Ctrl Pts',(39.0553534548286,-51.5803250789852,-4.86288979791569));
#1021=CARTESIAN_POINT('Ctrl Pts',(39.1495768451884,-51.6573411157207,-4.89092134284862));
#1022=CARTESIAN_POINT('Ctrl Pts',(39.3577743879475,-51.7696666697886,-4.93180450107683));
#1023=CARTESIAN_POINT('Ctrl Pts',(39.4684844612523,-51.806228485414,-4.9451119136752));
#1024=CARTESIAN_POINT('Ctrl Pts',(39.6984401475331,-51.839933466565,-4.95737952356069));
#1025=CARTESIAN_POINT('Ctrl Pts',(39.8157406319491,-51.8367915384779,-4.95623595525877));
#1026=CARTESIAN_POINT('Ctrl Pts',(39.9295101959981,-51.8138120193877,-4.94787209431218));
#1027=CARTESIAN_POINT('',(38.4886591648091,-50.9046073319375,-4.29769531948195));
#1028=CARTESIAN_POINT('Ctrl Pts',(39.992554022794,-52.1920308466363,-4.76627915772703));
#1029=CARTESIAN_POINT('Ctrl Pts',(39.8428572279927,-52.2222670559655,-4.7772842379199));
#1030=CARTESIAN_POINT('Ctrl Pts',(39.6885144853401,-52.2264011718696,-4.77878893305402));
#1031=CARTESIAN_POINT('Ctrl Pts',(39.385941213918,-52.1820525124604,-4.76264734109942));
#1032=CARTESIAN_POINT('Ctrl Pts',(39.2402700648329,-52.1339448603218,-4.74513758768053));
#1033=CARTESIAN_POINT('Ctrl Pts',(38.9663259296233,-51.9861480786534,-4.69134395843284));
#1034=CARTESIAN_POINT('Ctrl Pts',(38.8423477844131,-51.8848111882119,-4.65446034667901));
#1035=CARTESIAN_POINT('Ctrl Pts',(38.6427064424534,-51.6431844239833,-4.56651539669765));
#1036=CARTESIAN_POINT('Ctrl Pts',(38.5689521903657,-51.505204860203,-4.51629494254456));
#1037=CARTESIAN_POINT('Ctrl Pts',(38.4818789541289,-51.2104457015768,-4.40901138252721));
#1038=CARTESIAN_POINT('Ctrl Pts',(38.4693925802849,-51.0564844326977,-4.35297406342532));
#1039=CARTESIAN_POINT('Ctrl Pts',(38.4886591648091,-50.9046073319375,-4.29769531948195));
#1040=CARTESIAN_POINT('',(38.7865501039296,-50.8353701482166,-4.59174837724592));
#1041=CARTESIAN_POINT('',(38.4886591648091,-50.9046073319375,-4.29769531948195));
#1042=CARTESIAN_POINT('Ctrl Pts',(38.7865501039296,-50.8353701482166,-4.59174837724592));
#1043=CARTESIAN_POINT('Ctrl Pts',(38.7719074996911,-50.9507967447945,-4.63376022264293));
#1044=CARTESIAN_POINT('Ctrl Pts',(38.7813971438126,-51.0678073091426,-4.67634858516036));
#1045=CARTESIAN_POINT('Ctrl Pts',(38.8475728033525,-51.2918242696983,-4.75788409077349));
#1046=CARTESIAN_POINT('Ctrl Pts',(38.9036260349391,-51.3966887381713,-4.79605163592985));
#1047=CARTESIAN_POINT('Ctrl Pts',(39.0553534548286,-51.5803250789852,-4.86288979791569));
#1048=CARTESIAN_POINT('Ctrl Pts',(39.1495768451884,-51.6573411157207,-4.89092134284862));
#1049=CARTESIAN_POINT('Ctrl Pts',(39.3577743879475,-51.7696666697886,-4.93180450107683));
#1050=CARTESIAN_POINT('Ctrl Pts',(39.4684844612523,-51.806228485414,-4.9451119136752));
#1051=CARTESIAN_POINT('Ctrl Pts',(39.6984401475331,-51.839933466565,-4.95737952356069));
#1052=CARTESIAN_POINT('Ctrl Pts',(39.8157406319491,-51.8367915384779,-4.95623595525877));
#1053=CARTESIAN_POINT('Ctrl Pts',(39.9295101959981,-51.8138120193877,-4.94787209431218));
#1054=CARTESIAN_POINT('Origin',(37.5949863474477,-50.7531977326081,-4.40221339801537));
#1055=CARTESIAN_POINT('',(38.1180403533445,-50.116266833428,-4.01076284355811));
#1056=CARTESIAN_POINT('',(38.2923916886434,-49.7842494835374,-4.20917174268031));
#1057=CARTESIAN_POINT('',(38.1180403533445,-50.116266833428,-4.01076284355811));
#1058=CARTESIAN_POINT('Origin',(37.5949863474477,-50.7018947111093,-4.54316729113306));
#1059=CARTESIAN_POINT('Origin',(37.5949863474477,-50.8045007541069,-4.26125950489768));
#1060=CARTESIAN_POINT('Origin',(38.8445042504233,-49.1090833665418,-3.80380470703733));
#1061=CARTESIAN_POINT('',(37.5945065902759,-49.1581136474731,-3.66202360400254));
#1062=CARTESIAN_POINT('Origin',(38.8445042504234,-49.1603863880407,-3.66285081391945));
#1063=CARTESIAN_POINT('',(37.8945060287113,-49.0560530622116,-3.94412992061836));
#1064=CARTESIAN_POINT('',(37.5945065902759,-49.1581136474731,-3.66202360400254));
#1065=CARTESIAN_POINT('Origin',(38.8445042504233,-49.057780345043,-3.94475860015521));
#1066=CARTESIAN_POINT('Origin',(37.7506314331366,-46.1323651670038,-2.72036788660669));
#1067=CARTESIAN_POINT('',(37.9006311523543,-46.0813348743732,-2.86142104491426));
#1068=CARTESIAN_POINT('',(37.6006317139189,-46.1833954596344,-2.57931472829913));
#1069=CARTESIAN_POINT('Origin',(66.0949863474478,-40.2767335876126,0.315458817724434));
#1070=CARTESIAN_POINT('',(66.0949863474478,-43.1888593562072,-0.744468280483592));
#1071=CARTESIAN_POINT('',(66.0949863474478,-43.1888593562069,-0.744468280484489));
#1072=CARTESIAN_POINT('',(66.0949863474478,-43.4107947531608,-0.825246158904649));
#1073=CARTESIAN_POINT('',(66.0949863474478,-40.2767335876126,0.315458817724434));
#1074=CARTESIAN_POINT('Ctrl Pts',(66.0949863474477,-43.1713806528327,-1.48303099345485));
#1075=CARTESIAN_POINT('Ctrl Pts',(66.0949863474478,-43.2511853529421,-1.26376938193807));
#1076=CARTESIAN_POINT('Ctrl Pts',(66.0949863474478,-43.3309900530515,-1.04450777042133));
#1077=CARTESIAN_POINT('Ctrl Pts',(66.0949863474478,-43.4107947531608,-0.825246158904565));
#1078=CARTESIAN_POINT('Origin',(71.5949863474478,-43.1888593562068,-0.744468280484815));
#1079=CARTESIAN_POINT('',(67.5616530141144,-39.6750846154185,0.534441135079939));
#1080=CARTESIAN_POINT('',(67.5616530141144,-39.6750846154184,0.534441135079612));
#1081=CARTESIAN_POINT('Origin',(71.5949863474478,-43.1888593562072,-0.744468280483756));
#1082=CARTESIAN_POINT('Origin',(66.0949863474477,-38.3973483460408,0.999499104375763));
#1083=CARTESIAN_POINT('',(67.5616530141144,-37.1196120766631,1.46455707367159));
#1084=CARTESIAN_POINT('',(67.5616530141144,-37.1196120766632,1.46455707367174));
#1085=CARTESIAN_POINT('Origin',(66.0949863474477,-38.3973483460408,0.999499104375763));
#1086=CARTESIAN_POINT('Origin',(71.5949863474478,-33.6058373358746,2.7434664892357));
#1087=CARTESIAN_POINT('',(66.0950628081742,-33.6330894286959,2.73354753862886));
#1088=CARTESIAN_POINT('',(66.0950628081742,-33.6330894286955,2.73354753862781));
#1089=CARTESIAN_POINT('Origin',(71.5949863474478,-33.605837335875,2.74346648923675));
#1090=CARTESIAN_POINT('Origin',(64.845080185612,-33.6392830861548,2.73129323167147));
#1091=CARTESIAN_POINT('',(64.845080185612,-32.464667310172,3.15881841082759));
#1092=CARTESIAN_POINT('',(64.845080185612,-32.4646673101725,3.15881841082878));
#1093=CARTESIAN_POINT('Origin',(64.845080185612,-33.6392830861552,2.73129323167254));
#1094=CARTESIAN_POINT('Origin',(37.5949863474479,-32.464667310172,3.1588184108276));
#1095=CARTESIAN_POINT('',(38.8449863474479,-32.464667310172,3.1588184108276));
#1096=CARTESIAN_POINT('',(38.8449863474479,-32.4646673101726,3.15881841082909));
#1097=CARTESIAN_POINT('',(6.0949863474475,-32.464667310172,3.15881841082761));
#1098=CARTESIAN_POINT('Origin',(38.8449863474479,-33.6392830861549,2.73129323167178));
#1099=CARTESIAN_POINT('',(37.5949863474479,-33.6392830861544,2.73129323167051));
#1100=CARTESIAN_POINT('',(37.5949863474479,-33.6392830861549,2.73129323167186));
#1101=CARTESIAN_POINT('Origin',(38.8449863474479,-33.6392830861557,2.73129323167405));
#1102=CARTESIAN_POINT('Origin',(37.5949863474479,-49.1645296128631,-2.91943438369622));
#1103=CARTESIAN_POINT('',(37.5949863474479,-49.1645296128632,-2.91943438369622));
#1104=CARTESIAN_POINT('',(37.5949863474479,-49.1645296128632,-2.91943438369622));
#1105=CARTESIAN_POINT('',(37.5949863474479,-36.2234377933156,1.79073783752492));
#1106=CARTESIAN_POINT('Origin',(52.8411475583594,-42.3331012245692,-1.49717556531083));
#1107=CARTESIAN_POINT('',(67.1949863474408,-38.0553282027261,0.0598064835879386));
#1108=CARTESIAN_POINT('Origin',(66.0949863474408,-38.0553282027261,0.0598064835879394));
#1109=CARTESIAN_POINT('Origin',(38.8445042504234,-49.3998004883687,-3.00506597936972));
#1110=CARTESIAN_POINT('',(38.1180403533446,-50.355680933756,-3.3529780090081));
#1111=CARTESIAN_POINT('',(38.1180403533446,-50.3556809337561,-3.35297800900801));
#1112=CARTESIAN_POINT('',(37.594506590276,-49.3975277478009,-3.00423876945311));
#1113=CARTESIAN_POINT('Origin',(38.8445042504234,-49.3998004883688,-3.00506597936936));
#1114=CARTESIAN_POINT('',(37.594506590276,-49.397527747801,-3.00423876945281));
#1115=CARTESIAN_POINT('Origin',(37.5949863474478,-51.043914854435,-3.60347467034757));
#1116=CARTESIAN_POINT('',(38.4886591648092,-51.1440214322656,-3.63991048493198));
#1117=CARTESIAN_POINT('Ctrl Pts',(38.4886591648092,-51.1440214322657,-3.63991048493181));
#1118=CARTESIAN_POINT('Ctrl Pts',(38.4886591648091,-51.0642167321563,-3.85917209644852));
#1119=CARTESIAN_POINT('Ctrl Pts',(38.4886591648091,-50.9844120320469,-4.07843370796525));
#1120=CARTESIAN_POINT('Ctrl Pts',(38.4886591648091,-50.9046073319375,-4.29769531948196));
#1121=CARTESIAN_POINT('Origin',(37.5949863474478,-51.043914854435,-3.60347467034757));
#1122=CARTESIAN_POINT('Ctrl Pts',(38.4886591648092,-51.1440214322657,-3.63991048493181));
#1123=CARTESIAN_POINT('Ctrl Pts',(38.4886591648091,-51.0642167321563,-3.85917209644852));
#1124=CARTESIAN_POINT('Ctrl Pts',(38.4886591648091,-50.9844120320469,-4.07843370796525));
#1125=CARTESIAN_POINT('Ctrl Pts',(38.4886591648091,-50.9046073319375,-4.29769531948196));
#1126=CARTESIAN_POINT('Ctrl Pts',(38.4618690089047,-51.3552063053582,-3.71677549266481));
#1127=CARTESIAN_POINT('Ctrl Pts',(38.4618690089047,-51.2754016052488,-3.93603710418152));
#1128=CARTESIAN_POINT('Ctrl Pts',(38.4618690089047,-51.1955969051394,-4.15529871569824));
#1129=CARTESIAN_POINT('Ctrl Pts',(38.4618690089047,-51.11579220503,-4.37456032721495));
#1130=CARTESIAN_POINT('Ctrl Pts',(38.5335464294169,-51.7904195159835,-3.87518014689197));
#1131=CARTESIAN_POINT('Ctrl Pts',(38.5335464294169,-51.7106148158741,-4.09444175840868));
#1132=CARTESIAN_POINT('Ctrl Pts',(38.5335464294169,-51.6308101157648,-4.3137033699254));
#1133=CARTESIAN_POINT('Ctrl Pts',(38.5335464294169,-51.5510054156554,-4.53296498144211));
#1134=CARTESIAN_POINT('Ctrl Pts',(39.0604783377729,-52.3847250622008,-4.09148967577454));
#1135=CARTESIAN_POINT('Ctrl Pts',(39.0604783377729,-52.3049203620915,-4.31075128729125));
#1136=CARTESIAN_POINT('Ctrl Pts',(39.0604783377729,-52.2251156619821,-4.53001289880797));
#1137=CARTESIAN_POINT('Ctrl Pts',(39.0604783377728,-52.1453109618727,-4.74927451032468));
#1138=CARTESIAN_POINT('Ctrl Pts',(39.6606408429903,-52.4984857703634,-4.13289518737483));
#1139=CARTESIAN_POINT('Ctrl Pts',(39.6606408429902,-52.418681070254,-4.35215679889154));
#1140=CARTESIAN_POINT('Ctrl Pts',(39.6606408429902,-52.3388763701447,-4.57141841040826));
#1141=CARTESIAN_POINT('Ctrl Pts',(39.6606408429902,-52.2590716700353,-4.79068002192497));
#1142=CARTESIAN_POINT('Ctrl Pts',(39.9925540227941,-52.4314449469644,-4.1084943231769));
#1143=CARTESIAN_POINT('Ctrl Pts',(39.9925540227941,-52.351640246855,-4.32775593469361));
#1144=CARTESIAN_POINT('Ctrl Pts',(39.992554022794,-52.2718355467456,-4.54701754621033));
#1145=CARTESIAN_POINT('Ctrl Pts',(39.992554022794,-52.1920308466363,-4.76627915772704));
#1146=CARTESIAN_POINT('',(39.9925540227941,-52.4314449469644,-4.1084943231769));
#1147=CARTESIAN_POINT('Ctrl Pts',(39.992554022794,-52.1920308466363,-4.76627915772704));
#1148=CARTESIAN_POINT('Ctrl Pts',(39.992554022794,-52.2718355467456,-4.54701754621033));
#1149=CARTESIAN_POINT('Ctrl Pts',(39.9925540227941,-52.351640246855,-4.32775593469361));
#1150=CARTESIAN_POINT('Ctrl Pts',(39.9925540227941,-52.4314449469644,-4.1084943231769));
#1151=CARTESIAN_POINT('Ctrl Pts',(39.9925540227941,-52.4314449469644,-4.10849432317694));
#1152=CARTESIAN_POINT('Ctrl Pts',(39.6606408429903,-52.4984857703634,-4.13289518737487));
#1153=CARTESIAN_POINT('Ctrl Pts',(39.3005433398598,-52.4302293454658,-4.1080518804147));
#1154=CARTESIAN_POINT('Ctrl Pts',(39.0210075621733,-52.2501053493366,-4.04249210734654));
#1155=CARTESIAN_POINT('Ctrl Pts',(38.8346503770489,-52.1300226852505,-3.99878559196777));
#1156=CARTESIAN_POINT('Ctrl Pts',(38.6840984032329,-51.960221100617,-3.93698286942989));
#1157=CARTESIAN_POINT('Ctrl Pts',(38.5909030611969,-51.7665170056439,-3.86648034460416));
#1158=CARTESIAN_POINT('Ctrl Pts',(38.4977077191608,-51.5728129106708,-3.79597781977843));
#1159=CARTESIAN_POINT('Ctrl Pts',(38.4618690089047,-51.3552063053581,-3.71677549266485));
#1160=CARTESIAN_POINT('Ctrl Pts',(38.4886591648092,-51.1440214322656,-3.63991048493186));
#1161=CARTESIAN_POINT('Origin',(52.8411475583595,-42.6751213678951,-0.55748294452499));
#1162=CARTESIAN_POINT('',(56.0468594139094,-47.2954103054813,-2.23913059151696));
#1163=CARTESIAN_POINT('Ctrl Pts',(39.9925540227941,-52.4314449469644,-4.1084943231769));
#1164=CARTESIAN_POINT('Ctrl Pts',(47.5869240466329,-50.8975112240073,-3.5501881066834));
#1165=CARTESIAN_POINT('Ctrl Pts',(50.7966055994184,-49.2204043302708,-2.93977111768063));
#1166=CARTESIAN_POINT('Ctrl Pts',(56.0468594139094,-47.2954103054813,-2.23913059151696));
#1167=CARTESIAN_POINT('',(64.0949863474479,-44.8072741448861,-1.33352309025892));
#1168=CARTESIAN_POINT('Ctrl Pts',(56.0468594139094,-47.2954103054813,-2.23913059151695));
#1169=CARTESIAN_POINT('Ctrl Pts',(58.3167498569261,-46.4631599621409,-1.93621623908324));
#1170=CARTESIAN_POINT('Ctrl Pts',(60.8340168873333,-45.6241623451679,-1.63084607988478));
#1171=CARTESIAN_POINT('Ctrl Pts',(64.0949863474478,-44.8072741448862,-1.33352309025894));
#1172=CARTESIAN_POINT('',(65.1514988089552,-44.5495495035062,-1.2397189921597));
#1173=CARTESIAN_POINT('Ctrl Pts',(64.0949863474478,-44.8072741448861,-1.33352309025893));
#1174=CARTESIAN_POINT('Ctrl Pts',(64.4477371854347,-44.7189083994489,-1.30136058919105));
#1175=CARTESIAN_POINT('Ctrl Pts',(64.7991873898429,-44.6332838407161,-1.27019579849013));
#1176=CARTESIAN_POINT('Ctrl Pts',(65.1514983107497,-44.5495476525663,-1.23971831847266));
#1177=CARTESIAN_POINT('Ctrl Pts',(66.0949863474478,-43.4107947531608,-0.825246158904606));
#1178=CARTESIAN_POINT('Ctrl Pts',(66.0949863474478,-43.6328072128156,-0.906052085855209));
#1179=CARTESIAN_POINT('Ctrl Pts',(66.0262977249521,-43.8550168593546,-0.986929782962287));
#1180=CARTESIAN_POINT('Ctrl Pts',(65.8992847453566,-44.0418101679515,-1.05491698725167));
#1181=CARTESIAN_POINT('Ctrl Pts',(65.729934105896,-44.2908679127473,-1.14556659297085));
#1182=CARTESIAN_POINT('Ctrl Pts',(65.4568957204802,-44.4769632789791,-1.21329976701414));
#1183=CARTESIAN_POINT('Ctrl Pts',(65.1514988089552,-44.5495495035062,-1.23971899215974));
#1184=CARTESIAN_POINT('',(37.5949863474479,-49.1645296128632,-2.91943438369622));
#1185=CARTESIAN_POINT('',(67.1949863474408,-38.397348346052,0.999499104373783));
#1186=CARTESIAN_POINT('Origin',(66.0949863474408,-38.397348346052,0.999499104373784));
#1187=CARTESIAN_POINT('Ctrl Pts',(56.0468594139094,-47.2954103054813,-2.23913059151696));
#1188=CARTESIAN_POINT('Ctrl Pts',(56.0468594139093,-46.9533901621554,-3.1788232123028));
#1189=CARTESIAN_POINT('Ctrl Pts',(50.4647626509982,-49.3420738181561,-2.98405518968932));
#1190=CARTESIAN_POINT('Ctrl Pts',(50.4647626509982,-49.0000536748303,-3.92374781047516));
#1191=CARTESIAN_POINT('Ctrl Pts',(47.1892680116168,-51.1082096609457,-3.62687606613536));
#1192=CARTESIAN_POINT('Ctrl Pts',(47.1892680116167,-50.7661895176198,-4.56656868692121));
#1193=CARTESIAN_POINT('Ctrl Pts',(38.498381358365,-52.7206481495135,-4.21375568055924));
#1194=CARTESIAN_POINT('Ctrl Pts',(38.4983813583649,-52.3786280061877,-5.15344830134509));
#1195=CARTESIAN_POINT('',(56.0468594139094,-47.2954103054813,-2.23913059151696));
#1196=CARTESIAN_POINT('Ctrl Pts',(65.1514988089552,-44.5495495035062,-1.2397189921597));
#1197=CARTESIAN_POINT('Ctrl Pts',(65.1514988089552,-44.4697448033968,-1.45898060367646));
#1198=CARTESIAN_POINT('Ctrl Pts',(65.1514988089551,-44.3899401032874,-1.6782422151932));
#1199=CARTESIAN_POINT('Ctrl Pts',(65.1514988089551,-44.310135403178,-1.89750382670998));
#1200=CARTESIAN_POINT('Ctrl Pts',(65.4568957204802,-44.4769632789792,-1.2132997670141));
#1201=CARTESIAN_POINT('Ctrl Pts',(65.4568957204802,-44.3971585788698,-1.43256137853086));
#1202=CARTESIAN_POINT('Ctrl Pts',(65.4568957204802,-44.3173538787604,-1.6518229900476));
#1203=CARTESIAN_POINT('Ctrl Pts',(65.4568957204802,-44.237549178651,-1.87108460156438));
#1204=CARTESIAN_POINT('Ctrl Pts',(65.9347128949578,-44.1512963880734,-1.09476671243835));
#1205=CARTESIAN_POINT('Ctrl Pts',(65.9347128949578,-44.071491687964,-1.31402832395511));
#1206=CARTESIAN_POINT('Ctrl Pts',(65.9347128949578,-43.9916869878546,-1.53328993547186));
#1207=CARTESIAN_POINT('Ctrl Pts',(65.9347128949577,-43.9118822877453,-1.75255154698863));
#1208=CARTESIAN_POINT('Ctrl Pts',(66.0949863474478,-43.6328072128156,-0.906052085855168));
#1209=CARTESIAN_POINT('Ctrl Pts',(66.0949863474478,-43.5530025127062,-1.12531369737193));
#1210=CARTESIAN_POINT('Ctrl Pts',(66.0949863474478,-43.4731978125968,-1.34457530888867));
#1211=CARTESIAN_POINT('Ctrl Pts',(66.0949863474477,-43.3933931124874,-1.56383692040545));
#1212=CARTESIAN_POINT('Ctrl Pts',(66.0949863474478,-43.4107947531608,-0.825246158904565));
#1213=CARTESIAN_POINT('Ctrl Pts',(66.0949863474478,-43.3309900530515,-1.04450777042133));
#1214=CARTESIAN_POINT('Ctrl Pts',(66.0949863474478,-43.2511853529421,-1.26376938193807));
#1215=CARTESIAN_POINT('Ctrl Pts',(66.0949863474477,-43.1713806528327,-1.48303099345485));
#1216=CARTESIAN_POINT('Ctrl Pts',(65.1514988089552,-44.5495495035062,-1.2397189921597));
#1217=CARTESIAN_POINT('Ctrl Pts',(65.1514988089552,-44.4697448033968,-1.45898060367646));
#1218=CARTESIAN_POINT('Ctrl Pts',(65.1514988089551,-44.3899401032874,-1.6782422151932));
#1219=CARTESIAN_POINT('Ctrl Pts',(65.1514988089551,-44.310135403178,-1.89750382670998));
#1220=CARTESIAN_POINT('Ctrl Pts',(66.0949863474478,-44.3300293819092,-1.1598202020759));
#1221=CARTESIAN_POINT('Ctrl Pts',(66.0949863474478,-43.9880092385834,-2.09951282286174));
#1222=CARTESIAN_POINT('Ctrl Pts',(65.4232451781054,-44.4831605769817,-1.2155553990199));
#1223=CARTESIAN_POINT('Ctrl Pts',(65.4232451781054,-44.1411404336559,-2.15524801980574));
#1224=CARTESIAN_POINT('Ctrl Pts',(64.7614370286713,-44.6403251120233,-1.27275861165735));
#1225=CARTESIAN_POINT('Ctrl Pts',(64.7614370286712,-44.2983049686975,-2.2124512324432));
#1226=CARTESIAN_POINT('Ctrl Pts',(64.0949863474478,-44.8072741448861,-1.33352309025893));
#1227=CARTESIAN_POINT('Ctrl Pts',(64.0949863474478,-44.4652540015603,-2.27321571104478));
#1228=CARTESIAN_POINT('',(64.0949863474479,-44.8072741448861,-1.33352309025892));
#1229=CARTESIAN_POINT('Origin',(66.0949863474408,-38.0553282027261,0.0598064835879386));
#1230=CARTESIAN_POINT('',(67.1949863474408,-38.0553282027261,0.0598064835879386));
#1231=CARTESIAN_POINT('Origin',(37.592857970599,-50.1981938606178,-3.29565740210408));
#1232=CARTESIAN_POINT('Ctrl Pts',(64.0949863474478,-44.8072741448862,-1.33352309025894));
#1233=CARTESIAN_POINT('Ctrl Pts',(64.0949863474477,-44.4652540015603,-2.27321571104479));
#1234=CARTESIAN_POINT('Ctrl Pts',(60.8340168873333,-45.6241623451679,-1.63084607988478));
#1235=CARTESIAN_POINT('Ctrl Pts',(60.8340168873333,-45.2821422018421,-2.57053870067063));
#1236=CARTESIAN_POINT('Ctrl Pts',(58.3167498569261,-46.4631599621409,-1.93621623908324));
#1237=CARTESIAN_POINT('Ctrl Pts',(58.316749856926,-46.1211398188151,-2.87590885986909));
#1238=CARTESIAN_POINT('Ctrl Pts',(56.0468594139094,-47.2954103054813,-2.23913059151695));
#1239=CARTESIAN_POINT('Ctrl Pts',(56.0468594139093,-46.9533901621554,-3.17882321230279));
#1240=UNCERTAINTY_MEASURE_WITH_UNIT(LENGTH_MEASURE(0.01),#1244,
'DISTANCE_ACCURACY_VALUE',
'Maximum model space distance between geometric entities at asserted c
onnectivities');
#1241=UNCERTAINTY_MEASURE_WITH_UNIT(LENGTH_MEASURE(0.01),#1244,
'DISTANCE_ACCURACY_VALUE',
'Maximum model space distance between geometric entities at asserted c
onnectivities');
#1242=(
GEOMETRIC_REPRESENTATION_CONTEXT(3)
GLOBAL_UNCERTAINTY_ASSIGNED_CONTEXT((#1240))
GLOBAL_UNIT_ASSIGNED_CONTEXT((#1244,#1246,#1247))
REPRESENTATION_CONTEXT('','3D')
);
#1243=(
GEOMETRIC_REPRESENTATION_CONTEXT(3)
GLOBAL_UNCERTAINTY_ASSIGNED_CONTEXT((#1241))
GLOBAL_UNIT_ASSIGNED_CONTEXT((#1244,#1246,#1247))
REPRESENTATION_CONTEXT('','3D')
);
#1244=(
LENGTH_UNIT()
NAMED_UNIT(*)
SI_UNIT(.MILLI.,.METRE.)
);
#1245=(
LENGTH_UNIT()
NAMED_UNIT(*)
SI_UNIT($,.METRE.)
);
#1246=(
NAMED_UNIT(*)
PLANE_ANGLE_UNIT()
SI_UNIT($,.RADIAN.)
);
#1247=(
NAMED_UNIT(*)
SI_UNIT($,.STERADIAN.)
SOLID_ANGLE_UNIT()
);
#1248=SHAPE_DEFINITION_REPRESENTATION(#1249,#1250);
#1249=PRODUCT_DEFINITION_SHAPE('',$,#1252);
#1250=SHAPE_REPRESENTATION('',(#595),#1242);
#1251=PRODUCT_DEFINITION_CONTEXT('part definition',#1256,'design');
#1252=PRODUCT_DEFINITION('2026-08-13-17-49-35-640','Speaker Lid',#1253,
#1251);
#1253=PRODUCT_DEFINITION_FORMATION('',$,#1258);
#1254=PRODUCT_RELATED_PRODUCT_CATEGORY('Speaker Lid','Speaker Lid',(#1258));
#1255=APPLICATION_PROTOCOL_DEFINITION('international standard',
'automotive_design',2009,#1256);
#1256=APPLICATION_CONTEXT(
'Core Data for Automotive Mechanical Design Process');
#1257=PRODUCT_CONTEXT('part definition',#1256,'mechanical');
#1258=PRODUCT('2026-08-13-17-49-35-640','Speaker Lid',$,(#1257));
#1259=PRESENTATION_STYLE_ASSIGNMENT((#1260));
#1260=SURFACE_STYLE_USAGE(.BOTH.,#1261);
#1261=SURFACE_SIDE_STYLE('',(#1262));
#1262=SURFACE_STYLE_FILL_AREA(#1263);
#1263=FILL_AREA_STYLE('Steel - Satin',(#1264));
#1264=FILL_AREA_STYLE_COLOUR('Steel - Satin',#1265);
#1265=COLOUR_RGB('Steel - Satin',0.627450980392157,0.627450980392157,0.627450980392157);
ENDSEC;
END-ISO-10303-21;
