ISO-10303-21;
HEADER;
/* Generated by software containing ST-Developer
 * from STEP Tools, Inc. (www.steptools.com) 
 */

FILE_DESCRIPTION(
/* description */ (''),
/* implementation_level */ '2;1');

FILE_NAME(
/* name */ 'Switch Holder.step',
/* time_stamp */ '2026-08-13T17:44:28+02:00',
/* author */ (''),
/* organization */ (''),
/* preprocessor_version */ 'ST-DEVELOPER v20.1',
/* originating_system */ 'Autodesk Translation Framework v15.8.0.0',
/* authorisation */ '');

FILE_SCHEMA (('AUTOMOTIVE_DESIGN { 1 0 10303 214 3 1 1 }'));
ENDSEC;

DATA;
#10=MECHANICAL_DESIGN_GEOMETRIC_PRESENTATION_REPRESENTATION('',(#13),#331);
#11=SHAPE_REPRESENTATION_RELATIONSHIP('SRR','None',#338,#12);
#12=ADVANCED_BREP_SHAPE_REPRESENTATION('',(#14),#330);
#13=STYLED_ITEM('',(#347),#14);
#14=MANIFOLD_SOLID_BREP('Body1',#191);
#15=FACE_BOUND('',#41,.T.);
#16=FACE_BOUND('',#44,.T.);
#17=FACE_BOUND('',#46,.T.);
#18=FACE_BOUND('',#48,.T.);
#19=PLANE('',#208);
#20=PLANE('',#209);
#21=PLANE('',#217);
#22=PLANE('',#220);
#23=PLANE('',#221);
#24=PLANE('',#222);
#25=FACE_OUTER_BOUND('',#35,.T.);
#26=FACE_OUTER_BOUND('',#36,.T.);
#27=FACE_OUTER_BOUND('',#37,.T.);
#28=FACE_OUTER_BOUND('',#38,.T.);
#29=FACE_OUTER_BOUND('',#39,.T.);
#30=FACE_OUTER_BOUND('',#40,.T.);
#31=FACE_OUTER_BOUND('',#42,.T.);
#32=FACE_OUTER_BOUND('',#43,.T.);
#33=FACE_OUTER_BOUND('',#45,.T.);
#34=FACE_OUTER_BOUND('',#47,.T.);
#35=EDGE_LOOP('',(#129,#130,#131,#132));
#36=EDGE_LOOP('',(#133,#134,#135,#136));
#37=EDGE_LOOP('',(#137,#138,#139,#140));
#38=EDGE_LOOP('',(#141,#142,#143,#144));
#39=EDGE_LOOP('',(#145,#146,#147,#148));
#40=EDGE_LOOP('',(#149,#150,#151,#152,#153,#154));
#41=EDGE_LOOP('',(#155));
#42=EDGE_LOOP('',(#156,#157,#158,#159));
#43=EDGE_LOOP('',(#160,#161,#162,#163,#164,#165));
#44=EDGE_LOOP('',(#166));
#45=EDGE_LOOP('',(#167,#168,#169,#170));
#46=EDGE_LOOP('',(#171));
#47=EDGE_LOOP('',(#172,#173,#174,#175));
#48=EDGE_LOOP('',(#176));
#49=LINE('',#282,#65);
#50=LINE('',#287,#66);
#51=LINE('',#289,#67);
#52=LINE('',#291,#68);
#53=LINE('',#292,#69);
#54=LINE('',#297,#70);
#55=LINE('',#298,#71);
#56=LINE('',#303,#72);
#57=LINE('',#310,#73);
#58=LINE('',#313,#74);
#59=LINE('',#315,#75);
#60=LINE('',#317,#76);
#61=LINE('',#318,#77);
#62=LINE('',#322,#78);
#63=LINE('',#324,#79);
#64=LINE('',#325,#80);
#65=VECTOR('',#229,0.899999999999999);
#66=VECTOR('',#234,10.);
#67=VECTOR('',#235,10.);
#68=VECTOR('',#236,10.);
#69=VECTOR('',#237,10.);
#70=VECTOR('',#242,10.);
#71=VECTOR('',#243,10.);
#72=VECTOR('',#248,1.1);
#73=VECTOR('',#255,10.);
#74=VECTOR('',#258,10.);
#75=VECTOR('',#261,10.);
#76=VECTOR('',#262,10.);
#77=VECTOR('',#263,10.);
#78=VECTOR('',#268,10.);
#79=VECTOR('',#271,10.);
#80=VECTOR('',#272,10.);
#81=CIRCLE('',#206,0.899999999999999);
#82=CIRCLE('',#207,0.899999999999999);
#83=CIRCLE('',#210,2.4999999725791);
#84=CIRCLE('',#212,1.1);
#85=CIRCLE('',#213,1.1);
#86=CIRCLE('',#215,2.49999997257909);
#87=CIRCLE('',#216,2.49999997257909);
#88=CIRCLE('',#219,2.4999999725791);
#89=VERTEX_POINT('',#279);
#90=VERTEX_POINT('',#281);
#91=VERTEX_POINT('',#285);
#92=VERTEX_POINT('',#286);
#93=VERTEX_POINT('',#288);
#94=VERTEX_POINT('',#290);
#95=VERTEX_POINT('',#294);
#96=VERTEX_POINT('',#295);
#97=VERTEX_POINT('',#300);
#98=VERTEX_POINT('',#302);
#99=VERTEX_POINT('',#306);
#100=VERTEX_POINT('',#307);
#101=VERTEX_POINT('',#309);
#102=VERTEX_POINT('',#311);
#103=VERTEX_POINT('',#316);
#104=VERTEX_POINT('',#320);
#105=EDGE_CURVE('',#89,#89,#81,.T.);
#106=EDGE_CURVE('',#89,#90,#49,.T.);
#107=EDGE_CURVE('',#90,#90,#82,.T.);
#108=EDGE_CURVE('',#91,#92,#50,.T.);
#109=EDGE_CURVE('',#91,#93,#51,.T.);
#110=EDGE_CURVE('',#94,#93,#52,.T.);
#111=EDGE_CURVE('',#92,#94,#53,.T.);
#112=EDGE_CURVE('',#95,#96,#83,.T.);
#113=EDGE_CURVE('',#96,#94,#54,.T.);
#114=EDGE_CURVE('',#93,#95,#55,.T.);
#115=EDGE_CURVE('',#97,#97,#84,.T.);
#116=EDGE_CURVE('',#97,#98,#56,.T.);
#117=EDGE_CURVE('',#98,#98,#85,.T.);
#118=EDGE_CURVE('',#99,#100,#86,.T.);
#119=EDGE_CURVE('',#100,#101,#57,.T.);
#120=EDGE_CURVE('',#102,#101,#87,.T.);
#121=EDGE_CURVE('',#99,#102,#58,.T.);
#122=EDGE_CURVE('',#91,#99,#59,.T.);
#123=EDGE_CURVE('',#103,#102,#60,.T.);
#124=EDGE_CURVE('',#95,#103,#61,.T.);
#125=EDGE_CURVE('',#104,#103,#88,.T.);
#126=EDGE_CURVE('',#96,#104,#62,.T.);
#127=EDGE_CURVE('',#100,#92,#63,.T.);
#128=EDGE_CURVE('',#101,#104,#64,.T.);
#129=ORIENTED_EDGE('',*,*,#105,.F.);
#130=ORIENTED_EDGE('',*,*,#106,.T.);
#131=ORIENTED_EDGE('',*,*,#107,.F.);
#132=ORIENTED_EDGE('',*,*,#106,.F.);
#133=ORIENTED_EDGE('',*,*,#108,.F.);
#134=ORIENTED_EDGE('',*,*,#109,.T.);
#135=ORIENTED_EDGE('',*,*,#110,.F.);
#136=ORIENTED_EDGE('',*,*,#111,.F.);
#137=ORIENTED_EDGE('',*,*,#112,.T.);
#138=ORIENTED_EDGE('',*,*,#113,.T.);
#139=ORIENTED_EDGE('',*,*,#110,.T.);
#140=ORIENTED_EDGE('',*,*,#114,.T.);
#141=ORIENTED_EDGE('',*,*,#115,.F.);
#142=ORIENTED_EDGE('',*,*,#116,.T.);
#143=ORIENTED_EDGE('',*,*,#117,.F.);
#144=ORIENTED_EDGE('',*,*,#116,.F.);
#145=ORIENTED_EDGE('',*,*,#118,.T.);
#146=ORIENTED_EDGE('',*,*,#119,.T.);
#147=ORIENTED_EDGE('',*,*,#120,.F.);
#148=ORIENTED_EDGE('',*,*,#121,.F.);
#149=ORIENTED_EDGE('',*,*,#122,.T.);
#150=ORIENTED_EDGE('',*,*,#121,.T.);
#151=ORIENTED_EDGE('',*,*,#123,.F.);
#152=ORIENTED_EDGE('',*,*,#124,.F.);
#153=ORIENTED_EDGE('',*,*,#114,.F.);
#154=ORIENTED_EDGE('',*,*,#109,.F.);
#155=ORIENTED_EDGE('',*,*,#107,.T.);
#156=ORIENTED_EDGE('',*,*,#124,.T.);
#157=ORIENTED_EDGE('',*,*,#125,.F.);
#158=ORIENTED_EDGE('',*,*,#126,.F.);
#159=ORIENTED_EDGE('',*,*,#112,.F.);
#160=ORIENTED_EDGE('',*,*,#127,.T.);
#161=ORIENTED_EDGE('',*,*,#111,.T.);
#162=ORIENTED_EDGE('',*,*,#113,.F.);
#163=ORIENTED_EDGE('',*,*,#126,.T.);
#164=ORIENTED_EDGE('',*,*,#128,.F.);
#165=ORIENTED_EDGE('',*,*,#119,.F.);
#166=ORIENTED_EDGE('',*,*,#105,.T.);
#167=ORIENTED_EDGE('',*,*,#128,.T.);
#168=ORIENTED_EDGE('',*,*,#125,.T.);
#169=ORIENTED_EDGE('',*,*,#123,.T.);
#170=ORIENTED_EDGE('',*,*,#120,.T.);
#171=ORIENTED_EDGE('',*,*,#115,.T.);
#172=ORIENTED_EDGE('',*,*,#108,.T.);
#173=ORIENTED_EDGE('',*,*,#127,.F.);
#174=ORIENTED_EDGE('',*,*,#118,.F.);
#175=ORIENTED_EDGE('',*,*,#122,.F.);
#176=ORIENTED_EDGE('',*,*,#117,.T.);
#177=CYLINDRICAL_SURFACE('',#205,0.899999999999999);
#178=CYLINDRICAL_SURFACE('',#211,1.1);
#179=CYLINDRICAL_SURFACE('',#214,2.49999997257909);
#180=CYLINDRICAL_SURFACE('',#218,2.4999999725791);
#181=ADVANCED_FACE('',(#25),#177,.F.);
#182=ADVANCED_FACE('',(#26),#19,.T.);
#183=ADVANCED_FACE('',(#27),#20,.T.);
#184=ADVANCED_FACE('',(#28),#178,.F.);
#185=ADVANCED_FACE('',(#29),#179,.T.);
#186=ADVANCED_FACE('',(#30,#15),#21,.T.);
#187=ADVANCED_FACE('',(#31),#180,.T.);
#188=ADVANCED_FACE('',(#32,#16),#22,.T.);
#189=ADVANCED_FACE('',(#33,#17),#23,.T.);
#190=ADVANCED_FACE('',(#34,#18),#24,.F.);
#191=CLOSED_SHELL('',(#181,#182,#183,#184,#185,#186,#187,#188,#189,#190));
#192=DERIVED_UNIT_ELEMENT(#194,1.);
#193=DERIVED_UNIT_ELEMENT(#333,-3.);
#194=(
MASS_UNIT()
NAMED_UNIT(*)
SI_UNIT(.KILO.,.GRAM.)
);
#195=DERIVED_UNIT((#192,#193));
#196=MEASURE_REPRESENTATION_ITEM('density measure',
POSITIVE_RATIO_MEASURE(7850.),#195);
#197=PROPERTY_DEFINITION_REPRESENTATION(#202,#199);
#198=PROPERTY_DEFINITION_REPRESENTATION(#203,#200);
#199=REPRESENTATION('material name',(#201),#330);
#200=REPRESENTATION('density',(#196),#330);
#201=DESCRIPTIVE_REPRESENTATION_ITEM('Steel','Steel');
#202=PROPERTY_DEFINITION('material property','material name',#340);
#203=PROPERTY_DEFINITION('material property','density of part',#340);
#204=AXIS2_PLACEMENT_3D('',#277,#223,#224);
#205=AXIS2_PLACEMENT_3D('',#278,#225,#226);
#206=AXIS2_PLACEMENT_3D('',#280,#227,#228);
#207=AXIS2_PLACEMENT_3D('',#283,#230,#231);
#208=AXIS2_PLACEMENT_3D('',#284,#232,#233);
#209=AXIS2_PLACEMENT_3D('',#293,#238,#239);
#210=AXIS2_PLACEMENT_3D('',#296,#240,#241);
#211=AXIS2_PLACEMENT_3D('',#299,#244,#245);
#212=AXIS2_PLACEMENT_3D('',#301,#246,#247);
#213=AXIS2_PLACEMENT_3D('',#304,#249,#250);
#214=AXIS2_PLACEMENT_3D('',#305,#251,#252);
#215=AXIS2_PLACEMENT_3D('',#308,#253,#254);
#216=AXIS2_PLACEMENT_3D('',#312,#256,#257);
#217=AXIS2_PLACEMENT_3D('',#314,#259,#260);
#218=AXIS2_PLACEMENT_3D('',#319,#264,#265);
#219=AXIS2_PLACEMENT_3D('',#321,#266,#267);
#220=AXIS2_PLACEMENT_3D('',#323,#269,#270);
#221=AXIS2_PLACEMENT_3D('',#326,#273,#274);
#222=AXIS2_PLACEMENT_3D('',#327,#275,#276);
#223=DIRECTION('axis',(0.,0.,1.));
#224=DIRECTION('refdir',(1.,0.,0.));
#225=DIRECTION('center_axis',(0.,1.,0.));
#226=DIRECTION('ref_axis',(1.,0.,0.));
#227=DIRECTION('center_axis',(0.,1.,0.));
#228=DIRECTION('ref_axis',(1.,0.,0.));
#229=DIRECTION('',(0.,1.,0.));
#230=DIRECTION('center_axis',(0.,-1.,0.));
#231=DIRECTION('ref_axis',(1.,0.,0.));
#232=DIRECTION('center_axis',(-1.,0.,0.));
#233=DIRECTION('ref_axis',(0.,1.,0.));
#234=DIRECTION('',(0.,-1.,0.));
#235=DIRECTION('',(0.,0.,-1.));
#236=DIRECTION('',(0.,1.,0.));
#237=DIRECTION('',(0.,0.,-1.));
#238=DIRECTION('center_axis',(0.,0.,-1.));
#239=DIRECTION('ref_axis',(1.,0.,0.));
#240=DIRECTION('center_axis',(0.,0.,-1.));
#241=DIRECTION('ref_axis',(1.,0.,0.));
#242=DIRECTION('',(-1.,0.,0.));
#243=DIRECTION('',(1.,0.,0.));
#244=DIRECTION('center_axis',(0.,0.,-1.));
#245=DIRECTION('ref_axis',(-1.,0.,0.));
#246=DIRECTION('center_axis',(0.,0.,-1.));
#247=DIRECTION('ref_axis',(-1.,0.,0.));
#248=DIRECTION('',(0.,0.,-1.));
#249=DIRECTION('center_axis',(0.,0.,1.));
#250=DIRECTION('ref_axis',(-1.,0.,0.));
#251=DIRECTION('center_axis',(0.,0.,1.));
#252=DIRECTION('ref_axis',(0.,1.,0.));
#253=DIRECTION('center_axis',(0.,0.,1.));
#254=DIRECTION('ref_axis',(0.,1.,0.));
#255=DIRECTION('',(0.,0.,1.));
#256=DIRECTION('center_axis',(0.,0.,1.));
#257=DIRECTION('ref_axis',(0.,1.,0.));
#258=DIRECTION('',(0.,0.,1.));
#259=DIRECTION('center_axis',(0.,1.,0.));
#260=DIRECTION('ref_axis',(-1.,0.,0.));
#261=DIRECTION('',(-1.,0.,0.));
#262=DIRECTION('',(-1.,0.,0.));
#263=DIRECTION('',(0.,0.,1.));
#264=DIRECTION('center_axis',(0.,0.,1.));
#265=DIRECTION('ref_axis',(1.,1.22464679914735E-16,0.));
#266=DIRECTION('center_axis',(0.,0.,1.));
#267=DIRECTION('ref_axis',(-1.,0.,0.));
#268=DIRECTION('',(0.,0.,1.));
#269=DIRECTION('center_axis',(0.,-1.,0.));
#270=DIRECTION('ref_axis',(1.,0.,0.));
#271=DIRECTION('',(1.,0.,0.));
#272=DIRECTION('',(1.,0.,0.));
#273=DIRECTION('center_axis',(0.,0.,1.));
#274=DIRECTION('ref_axis',(-1.,0.,0.));
#275=DIRECTION('center_axis',(0.,0.,1.));
#276=DIRECTION('ref_axis',(-1.,0.,0.));
#277=CARTESIAN_POINT('',(0.,0.,0.));
#278=CARTESIAN_POINT('Origin',(-38.9999991282821,-47.5000006431314,-9.39999978989363));
#279=CARTESIAN_POINT('',(-39.8999991282821,-47.5000006431314,-9.39999978989363));
#280=CARTESIAN_POINT('Origin',(-38.9999991282821,-47.5000006431314,-9.39999978989363));
#281=CARTESIAN_POINT('',(-39.8999991282821,-42.5000006979732,-9.39999978989363));
#282=CARTESIAN_POINT('',(-39.8999991282821,-47.5000006431314,-9.39999978989363));
#283=CARTESIAN_POINT('Origin',(-38.9999991282821,-42.5000006979732,-9.39999978989363));
#284=CARTESIAN_POINT('Origin',(-35.0000007003546,-47.5000006705522,-11.371721875));
#285=CARTESIAN_POINT('',(-35.0000007003546,-42.5000006705522,-11.371721875));
#286=CARTESIAN_POINT('',(-35.0000007003546,-47.5000006705522,-11.371721875));
#287=CARTESIAN_POINT('',(-35.0000007003546,-46.2500006705523,-11.371721875));
#288=CARTESIAN_POINT('',(-35.0000007003546,-42.5000006705522,-16.871721875));
#289=CARTESIAN_POINT('',(-35.0000007003546,-42.5000006705522,-11.371721875));
#290=CARTESIAN_POINT('',(-35.0000007003546,-47.5000006705522,-16.871721875));
#291=CARTESIAN_POINT('',(-35.0000007003546,-42.5000006705522,-16.871721875));
#292=CARTESIAN_POINT('',(-35.0000007003546,-47.5000006705522,-11.371721875));
#293=CARTESIAN_POINT('Origin',(-32.500000714065,-45.0000006705522,-16.871721875));
#294=CARTESIAN_POINT('',(-32.5000007003546,-42.5000006705522,-16.871721875));
#295=CARTESIAN_POINT('',(-32.5000007003546,-47.5000006705522,-16.871721875));
#296=CARTESIAN_POINT('Origin',(-32.5000007003546,-45.0000006705522,-16.871721875));
#297=CARTESIAN_POINT('',(-35.0000007003546,-47.5000006705522,-16.871721875));
#298=CARTESIAN_POINT('',(-30.0000007003546,-42.5000006705522,-16.871721875));
#299=CARTESIAN_POINT('Origin',(-47.0000007003546,-45.0000006705523,-6.371721875));
#300=CARTESIAN_POINT('',(-45.9000007003546,-45.0000006705523,-6.371721875));
#301=CARTESIAN_POINT('Origin',(-47.0000007003546,-45.0000006705523,-6.371721875));
#302=CARTESIAN_POINT('',(-45.9000007003546,-45.0000006705523,-11.371721875));
#303=CARTESIAN_POINT('',(-45.9000007003546,-45.0000006705523,-6.371721875));
#304=CARTESIAN_POINT('Origin',(-47.0000007003546,-45.0000006705523,-11.371721875));
#305=CARTESIAN_POINT('Origin',(-47.0000007003546,-45.0000006705523,-11.371721875));
#306=CARTESIAN_POINT('',(-47.0000007003546,-42.5000006979732,-11.371721875));
#307=CARTESIAN_POINT('',(-47.0000007003546,-47.5000006431313,-11.371721875));
#308=CARTESIAN_POINT('Origin',(-47.0000007003546,-45.0000006705523,-11.371721875));
#309=CARTESIAN_POINT('',(-47.0000007003546,-47.5000006431313,-6.371721875));
#310=CARTESIAN_POINT('',(-47.0000007003546,-47.5000006431313,-11.371721875));
#311=CARTESIAN_POINT('',(-47.0000007003546,-42.5000006979732,-6.371721875));
#312=CARTESIAN_POINT('Origin',(-47.0000007003546,-45.0000006705523,-6.371721875));
#313=CARTESIAN_POINT('',(-47.0000007003546,-42.5000006979732,-11.371721875));
#314=CARTESIAN_POINT('Origin',(-32.5000007003546,-42.5000006979732,-11.371721875));
#315=CARTESIAN_POINT('',(-32.5000007003546,-42.5000006979732,-11.371721875));
#316=CARTESIAN_POINT('',(-32.5000007003546,-42.5000006979731,-6.371721875));
#317=CARTESIAN_POINT('',(-32.5000007003546,-42.5000006979732,-6.371721875));
#318=CARTESIAN_POINT('',(-32.5000007003546,-42.5000006979731,-11.371721875));
#319=CARTESIAN_POINT('Origin',(-32.5000007003546,-45.0000006705522,-11.371721875));
#320=CARTESIAN_POINT('',(-32.5000007003546,-47.5000006431313,-6.371721875));
#321=CARTESIAN_POINT('Origin',(-32.5000007003546,-45.0000006705522,-6.371721875));
#322=CARTESIAN_POINT('',(-32.5000007003546,-47.5000006431313,-11.371721875));
#323=CARTESIAN_POINT('Origin',(-47.0000007003546,-47.5000006431314,-11.371721875));
#324=CARTESIAN_POINT('',(-47.0000007003546,-47.5000006431314,-11.371721875));
#325=CARTESIAN_POINT('',(-47.0000007003546,-47.5000006431314,-6.371721875));
#326=CARTESIAN_POINT('Origin',(-39.7500007003546,-45.0000006705523,-6.371721875));
#327=CARTESIAN_POINT('Origin',(-39.7500007003546,-45.0000006705523,-11.371721875));
#328=UNCERTAINTY_MEASURE_WITH_UNIT(LENGTH_MEASURE(0.01),#332,
'DISTANCE_ACCURACY_VALUE',
'Maximum model space distance between geometric entities at asserted c
onnectivities');
#329=UNCERTAINTY_MEASURE_WITH_UNIT(LENGTH_MEASURE(0.01),#332,
'DISTANCE_ACCURACY_VALUE',
'Maximum model space distance between geometric entities at asserted c
onnectivities');
#330=(
GEOMETRIC_REPRESENTATION_CONTEXT(3)
GLOBAL_UNCERTAINTY_ASSIGNED_CONTEXT((#328))
GLOBAL_UNIT_ASSIGNED_CONTEXT((#332,#334,#335))
REPRESENTATION_CONTEXT('','3D')
);
#331=(
GEOMETRIC_REPRESENTATION_CONTEXT(3)
GLOBAL_UNCERTAINTY_ASSIGNED_CONTEXT((#329))
GLOBAL_UNIT_ASSIGNED_CONTEXT((#332,#334,#335))
REPRESENTATION_CONTEXT('','3D')
);
#332=(
LENGTH_UNIT()
NAMED_UNIT(*)
SI_UNIT(.MILLI.,.METRE.)
);
#333=(
LENGTH_UNIT()
NAMED_UNIT(*)
SI_UNIT($,.METRE.)
);
#334=(
NAMED_UNIT(*)
PLANE_ANGLE_UNIT()
SI_UNIT($,.RADIAN.)
);
#335=(
NAMED_UNIT(*)
SI_UNIT($,.STERADIAN.)
SOLID_ANGLE_UNIT()
);
#336=SHAPE_DEFINITION_REPRESENTATION(#337,#338);
#337=PRODUCT_DEFINITION_SHAPE('',$,#340);
#338=SHAPE_REPRESENTATION('',(#204),#330);
#339=PRODUCT_DEFINITION_CONTEXT('part definition',#344,'design');
#340=PRODUCT_DEFINITION('2026-08-13-17-44-28-230','Switch Holder',#341,
#339);
#341=PRODUCT_DEFINITION_FORMATION('',$,#346);
#342=PRODUCT_RELATED_PRODUCT_CATEGORY('Switch Holder','Switch Holder',(#346));
#343=APPLICATION_PROTOCOL_DEFINITION('international standard',
'automotive_design',2009,#344);
#344=APPLICATION_CONTEXT(
'Core Data for Automotive Mechanical Design Process');
#345=PRODUCT_CONTEXT('part definition',#344,'mechanical');
#346=PRODUCT('2026-08-13-17-44-28-230','Switch Holder',$,(#345));
#347=PRESENTATION_STYLE_ASSIGNMENT((#348));
#348=SURFACE_STYLE_USAGE(.BOTH.,#349);
#349=SURFACE_SIDE_STYLE('',(#350));
#350=SURFACE_STYLE_FILL_AREA(#351);
#351=FILL_AREA_STYLE('Steel - Satin',(#352));
#352=FILL_AREA_STYLE_COLOUR('Steel - Satin',#353);
#353=COLOUR_RGB('Steel - Satin',0.627450980392157,0.627450980392157,0.627450980392157);
ENDSEC;
END-ISO-10303-21;
