ISO-10303-21;
HEADER;
/* Generated by software containing ST-Developer
 * from STEP Tools, Inc. (www.steptools.com) 
 */

FILE_DESCRIPTION(
/* description */ (''),
/* implementation_level */ '2;1');

FILE_NAME(
/* name */ 'TP4056 Holder.step',
/* time_stamp */ '2026-08-13T17:49:45+02:00',
/* author */ (''),
/* organization */ (''),
/* preprocessor_version */ 'ST-DEVELOPER v20.1',
/* originating_system */ 'Autodesk Translation Framework v15.8.0.0',
/* authorisation */ '');

FILE_SCHEMA (('AUTOMOTIVE_DESIGN { 1 0 10303 214 3 1 1 }'));
ENDSEC;

DATA;
#10=MECHANICAL_DESIGN_GEOMETRIC_PRESENTATION_REPRESENTATION('',(#13),#607);
#11=SHAPE_REPRESENTATION_RELATIONSHIP('SRR','None',#614,#12);
#12=ADVANCED_BREP_SHAPE_REPRESENTATION('',(#14),#606);
#13=STYLED_ITEM('',(#623),#14);
#14=MANIFOLD_SOLID_BREP('Body1',#347);
#15=FACE_BOUND('',#50,.T.);
#16=FACE_BOUND('',#51,.T.);
#17=FACE_BOUND('',#59,.T.);
#18=FACE_BOUND('',#60,.T.);
#19=PLANE('',#364);
#20=PLANE('',#371);
#21=PLANE('',#381);
#22=PLANE('',#386);
#23=PLANE('',#387);
#24=PLANE('',#388);
#25=PLANE('',#395);
#26=PLANE('',#398);
#27=FACE_OUTER_BOUND('',#45,.T.);
#28=FACE_OUTER_BOUND('',#46,.T.);
#29=FACE_OUTER_BOUND('',#47,.T.);
#30=FACE_OUTER_BOUND('',#48,.T.);
#31=FACE_OUTER_BOUND('',#49,.T.);
#32=FACE_OUTER_BOUND('',#52,.T.);
#33=FACE_OUTER_BOUND('',#53,.T.);
#34=FACE_OUTER_BOUND('',#54,.T.);
#35=FACE_OUTER_BOUND('',#55,.T.);
#36=FACE_OUTER_BOUND('',#56,.T.);
#37=FACE_OUTER_BOUND('',#57,.T.);
#38=FACE_OUTER_BOUND('',#58,.T.);
#39=FACE_OUTER_BOUND('',#61,.T.);
#40=FACE_OUTER_BOUND('',#62,.T.);
#41=FACE_OUTER_BOUND('',#63,.T.);
#42=FACE_OUTER_BOUND('',#64,.T.);
#43=FACE_OUTER_BOUND('',#65,.T.);
#44=FACE_OUTER_BOUND('',#66,.T.);
#45=EDGE_LOOP('',(#223,#224,#225,#226));
#46=EDGE_LOOP('',(#227,#228,#229,#230));
#47=EDGE_LOOP('',(#231,#232,#233,#234));
#48=EDGE_LOOP('',(#235,#236,#237,#238));
#49=EDGE_LOOP('',(#239,#240,#241,#242,#243,#244,#245,#246,#247,#248,#249,
#250,#251,#252));
#50=EDGE_LOOP('',(#253));
#51=EDGE_LOOP('',(#254));
#52=EDGE_LOOP('',(#255,#256,#257,#258));
#53=EDGE_LOOP('',(#259,#260,#261,#262));
#54=EDGE_LOOP('',(#263,#264,#265,#266));
#55=EDGE_LOOP('',(#267,#268,#269,#270));
#56=EDGE_LOOP('',(#271,#272,#273,#274));
#57=EDGE_LOOP('',(#275,#276,#277,#278));
#58=EDGE_LOOP('',(#279,#280,#281,#282,#283,#284,#285,#286,#287,#288,#289,
#290,#291,#292));
#59=EDGE_LOOP('',(#293));
#60=EDGE_LOOP('',(#294));
#61=EDGE_LOOP('',(#295,#296,#297,#298));
#62=EDGE_LOOP('',(#299,#300,#301,#302));
#63=EDGE_LOOP('',(#303,#304,#305,#306));
#64=EDGE_LOOP('',(#307,#308,#309,#310));
#65=EDGE_LOOP('',(#311,#312,#313,#314));
#66=EDGE_LOOP('',(#315,#316,#317,#318));
#67=LINE('',#511,#95);
#68=LINE('',#514,#96);
#69=LINE('',#517,#97);
#70=LINE('',#519,#98);
#71=LINE('',#520,#99);
#72=LINE('',#526,#100);
#73=LINE('',#529,#101);
#74=LINE('',#535,#102);
#75=LINE('',#539,#103);
#76=LINE('',#543,#104);
#77=LINE('',#547,#105);
#78=LINE('',#551,#106);
#79=LINE('',#559,#107);
#80=LINE('',#562,#108);
#81=LINE('',#565,#109);
#82=LINE('',#566,#110);
#83=LINE('',#570,#111);
#84=LINE('',#573,#112);
#85=LINE('',#577,#113);
#86=LINE('',#578,#114);
#87=LINE('',#581,#115);
#88=LINE('',#582,#116);
#89=LINE('',#586,#117);
#90=LINE('',#588,#118);
#91=LINE('',#595,#119);
#92=LINE('',#597,#120);
#93=LINE('',#599,#121);
#94=LINE('',#602,#122);
#95=VECTOR('',#405,1.);
#96=VECTOR('',#408,1.);
#97=VECTOR('',#411,10.);
#98=VECTOR('',#412,10.);
#99=VECTOR('',#413,10.);
#100=VECTOR('',#418,10.);
#101=VECTOR('',#421,10.);
#102=VECTOR('',#430,10.);
#103=VECTOR('',#433,10.);
#104=VECTOR('',#436,10.);
#105=VECTOR('',#439,10.);
#106=VECTOR('',#442,10.);
#107=VECTOR('',#451,10.);
#108=VECTOR('',#454,10.);
#109=VECTOR('',#457,10.);
#110=VECTOR('',#458,10.);
#111=VECTOR('',#463,10.);
#112=VECTOR('',#466,10.);
#113=VECTOR('',#471,10.);
#114=VECTOR('',#472,10.);
#115=VECTOR('',#475,10.);
#116=VECTOR('',#476,10.);
#117=VECTOR('',#481,10.);
#118=VECTOR('',#482,10.);
#119=VECTOR('',#491,1.1);
#120=VECTOR('',#494,1.1);
#121=VECTOR('',#497,10.);
#122=VECTOR('',#502,10.);
#123=CIRCLE('',#362,1.);
#124=CIRCLE('',#363,1.);
#125=CIRCLE('',#366,3.);
#126=CIRCLE('',#367,3.);
#127=CIRCLE('',#369,3.);
#128=CIRCLE('',#370,3.);
#129=CIRCLE('',#372,2.);
#130=CIRCLE('',#373,3.);
#131=CIRCLE('',#374,3.);
#132=CIRCLE('',#375,2.5);
#133=CIRCLE('',#376,3.);
#134=CIRCLE('',#377,1.1);
#135=CIRCLE('',#378,1.1);
#136=CIRCLE('',#380,3.);
#137=CIRCLE('',#383,3.);
#138=CIRCLE('',#385,3.);
#139=CIRCLE('',#389,2.5);
#140=CIRCLE('',#390,2.);
#141=CIRCLE('',#391,1.1);
#142=CIRCLE('',#392,1.1);
#143=VERTEX_POINT('',#507);
#144=VERTEX_POINT('',#508);
#145=VERTEX_POINT('',#510);
#146=VERTEX_POINT('',#512);
#147=VERTEX_POINT('',#516);
#148=VERTEX_POINT('',#518);
#149=VERTEX_POINT('',#522);
#150=VERTEX_POINT('',#523);
#151=VERTEX_POINT('',#525);
#152=VERTEX_POINT('',#527);
#153=VERTEX_POINT('',#534);
#154=VERTEX_POINT('',#536);
#155=VERTEX_POINT('',#538);
#156=VERTEX_POINT('',#540);
#157=VERTEX_POINT('',#542);
#158=VERTEX_POINT('',#544);
#159=VERTEX_POINT('',#546);
#160=VERTEX_POINT('',#548);
#161=VERTEX_POINT('',#550);
#162=VERTEX_POINT('',#553);
#163=VERTEX_POINT('',#555);
#164=VERTEX_POINT('',#558);
#165=VERTEX_POINT('',#560);
#166=VERTEX_POINT('',#564);
#167=VERTEX_POINT('',#568);
#168=VERTEX_POINT('',#572);
#169=VERTEX_POINT('',#576);
#170=VERTEX_POINT('',#580);
#171=VERTEX_POINT('',#584);
#172=VERTEX_POINT('',#587);
#173=VERTEX_POINT('',#590);
#174=VERTEX_POINT('',#592);
#175=EDGE_CURVE('',#143,#144,#123,.F.);
#176=EDGE_CURVE('',#143,#145,#67,.T.);
#177=EDGE_CURVE('',#145,#146,#124,.T.);
#178=EDGE_CURVE('',#146,#144,#68,.T.);
#179=EDGE_CURVE('',#147,#146,#69,.T.);
#180=EDGE_CURVE('',#148,#147,#70,.T.);
#181=EDGE_CURVE('',#144,#148,#71,.T.);
#182=EDGE_CURVE('',#149,#150,#125,.T.);
#183=EDGE_CURVE('',#150,#151,#72,.T.);
#184=EDGE_CURVE('',#151,#152,#126,.T.);
#185=EDGE_CURVE('',#152,#149,#73,.T.);
#186=EDGE_CURVE('',#143,#149,#127,.T.);
#187=EDGE_CURVE('',#145,#152,#128,.F.);
#188=EDGE_CURVE('',#151,#153,#74,.T.);
#189=EDGE_CURVE('',#153,#154,#129,.T.);
#190=EDGE_CURVE('',#154,#155,#75,.T.);
#191=EDGE_CURVE('',#156,#155,#130,.T.);
#192=EDGE_CURVE('',#156,#157,#76,.T.);
#193=EDGE_CURVE('',#158,#157,#131,.T.);
#194=EDGE_CURVE('',#158,#159,#77,.T.);
#195=EDGE_CURVE('',#159,#160,#132,.T.);
#196=EDGE_CURVE('',#160,#161,#78,.T.);
#197=EDGE_CURVE('',#147,#161,#133,.T.);
#198=EDGE_CURVE('',#162,#162,#134,.T.);
#199=EDGE_CURVE('',#163,#163,#135,.T.);
#200=EDGE_CURVE('',#155,#164,#79,.T.);
#201=EDGE_CURVE('',#164,#165,#136,.T.);
#202=EDGE_CURVE('',#165,#156,#80,.T.);
#203=EDGE_CURVE('',#166,#165,#81,.T.);
#204=EDGE_CURVE('',#157,#166,#82,.T.);
#205=EDGE_CURVE('',#166,#167,#137,.T.);
#206=EDGE_CURVE('',#167,#158,#83,.T.);
#207=EDGE_CURVE('',#161,#168,#84,.T.);
#208=EDGE_CURVE('',#168,#148,#138,.T.);
#209=EDGE_CURVE('',#169,#160,#85,.T.);
#210=EDGE_CURVE('',#169,#168,#86,.T.);
#211=EDGE_CURVE('',#170,#150,#87,.T.);
#212=EDGE_CURVE('',#170,#153,#88,.T.);
#213=EDGE_CURVE('',#171,#169,#139,.T.);
#214=EDGE_CURVE('',#167,#171,#89,.T.);
#215=EDGE_CURVE('',#172,#164,#90,.T.);
#216=EDGE_CURVE('',#170,#172,#140,.T.);
#217=EDGE_CURVE('',#173,#173,#141,.T.);
#218=EDGE_CURVE('',#174,#174,#142,.T.);
#219=EDGE_CURVE('',#162,#173,#91,.T.);
#220=EDGE_CURVE('',#163,#174,#92,.T.);
#221=EDGE_CURVE('',#172,#154,#93,.T.);
#222=EDGE_CURVE('',#171,#159,#94,.T.);
#223=ORIENTED_EDGE('',*,*,#175,.F.);
#224=ORIENTED_EDGE('',*,*,#176,.T.);
#225=ORIENTED_EDGE('',*,*,#177,.T.);
#226=ORIENTED_EDGE('',*,*,#178,.T.);
#227=ORIENTED_EDGE('',*,*,#178,.F.);
#228=ORIENTED_EDGE('',*,*,#179,.F.);
#229=ORIENTED_EDGE('',*,*,#180,.F.);
#230=ORIENTED_EDGE('',*,*,#181,.F.);
#231=ORIENTED_EDGE('',*,*,#182,.T.);
#232=ORIENTED_EDGE('',*,*,#183,.T.);
#233=ORIENTED_EDGE('',*,*,#184,.T.);
#234=ORIENTED_EDGE('',*,*,#185,.T.);
#235=ORIENTED_EDGE('',*,*,#176,.F.);
#236=ORIENTED_EDGE('',*,*,#186,.T.);
#237=ORIENTED_EDGE('',*,*,#185,.F.);
#238=ORIENTED_EDGE('',*,*,#187,.F.);
#239=ORIENTED_EDGE('',*,*,#184,.F.);
#240=ORIENTED_EDGE('',*,*,#188,.T.);
#241=ORIENTED_EDGE('',*,*,#189,.T.);
#242=ORIENTED_EDGE('',*,*,#190,.T.);
#243=ORIENTED_EDGE('',*,*,#191,.F.);
#244=ORIENTED_EDGE('',*,*,#192,.T.);
#245=ORIENTED_EDGE('',*,*,#193,.F.);
#246=ORIENTED_EDGE('',*,*,#194,.T.);
#247=ORIENTED_EDGE('',*,*,#195,.T.);
#248=ORIENTED_EDGE('',*,*,#196,.T.);
#249=ORIENTED_EDGE('',*,*,#197,.F.);
#250=ORIENTED_EDGE('',*,*,#179,.T.);
#251=ORIENTED_EDGE('',*,*,#177,.F.);
#252=ORIENTED_EDGE('',*,*,#187,.T.);
#253=ORIENTED_EDGE('',*,*,#198,.T.);
#254=ORIENTED_EDGE('',*,*,#199,.T.);
#255=ORIENTED_EDGE('',*,*,#191,.T.);
#256=ORIENTED_EDGE('',*,*,#200,.T.);
#257=ORIENTED_EDGE('',*,*,#201,.T.);
#258=ORIENTED_EDGE('',*,*,#202,.T.);
#259=ORIENTED_EDGE('',*,*,#202,.F.);
#260=ORIENTED_EDGE('',*,*,#203,.F.);
#261=ORIENTED_EDGE('',*,*,#204,.F.);
#262=ORIENTED_EDGE('',*,*,#192,.F.);
#263=ORIENTED_EDGE('',*,*,#205,.T.);
#264=ORIENTED_EDGE('',*,*,#206,.T.);
#265=ORIENTED_EDGE('',*,*,#193,.T.);
#266=ORIENTED_EDGE('',*,*,#204,.T.);
#267=ORIENTED_EDGE('',*,*,#197,.T.);
#268=ORIENTED_EDGE('',*,*,#207,.T.);
#269=ORIENTED_EDGE('',*,*,#208,.T.);
#270=ORIENTED_EDGE('',*,*,#180,.T.);
#271=ORIENTED_EDGE('',*,*,#207,.F.);
#272=ORIENTED_EDGE('',*,*,#196,.F.);
#273=ORIENTED_EDGE('',*,*,#209,.F.);
#274=ORIENTED_EDGE('',*,*,#210,.T.);
#275=ORIENTED_EDGE('',*,*,#183,.F.);
#276=ORIENTED_EDGE('',*,*,#211,.F.);
#277=ORIENTED_EDGE('',*,*,#212,.T.);
#278=ORIENTED_EDGE('',*,*,#188,.F.);
#279=ORIENTED_EDGE('',*,*,#182,.F.);
#280=ORIENTED_EDGE('',*,*,#186,.F.);
#281=ORIENTED_EDGE('',*,*,#175,.T.);
#282=ORIENTED_EDGE('',*,*,#181,.T.);
#283=ORIENTED_EDGE('',*,*,#208,.F.);
#284=ORIENTED_EDGE('',*,*,#210,.F.);
#285=ORIENTED_EDGE('',*,*,#213,.F.);
#286=ORIENTED_EDGE('',*,*,#214,.F.);
#287=ORIENTED_EDGE('',*,*,#205,.F.);
#288=ORIENTED_EDGE('',*,*,#203,.T.);
#289=ORIENTED_EDGE('',*,*,#201,.F.);
#290=ORIENTED_EDGE('',*,*,#215,.F.);
#291=ORIENTED_EDGE('',*,*,#216,.F.);
#292=ORIENTED_EDGE('',*,*,#211,.T.);
#293=ORIENTED_EDGE('',*,*,#217,.F.);
#294=ORIENTED_EDGE('',*,*,#218,.F.);
#295=ORIENTED_EDGE('',*,*,#198,.F.);
#296=ORIENTED_EDGE('',*,*,#219,.T.);
#297=ORIENTED_EDGE('',*,*,#217,.T.);
#298=ORIENTED_EDGE('',*,*,#219,.F.);
#299=ORIENTED_EDGE('',*,*,#199,.F.);
#300=ORIENTED_EDGE('',*,*,#220,.T.);
#301=ORIENTED_EDGE('',*,*,#218,.T.);
#302=ORIENTED_EDGE('',*,*,#220,.F.);
#303=ORIENTED_EDGE('',*,*,#200,.F.);
#304=ORIENTED_EDGE('',*,*,#190,.F.);
#305=ORIENTED_EDGE('',*,*,#221,.F.);
#306=ORIENTED_EDGE('',*,*,#215,.T.);
#307=ORIENTED_EDGE('',*,*,#216,.T.);
#308=ORIENTED_EDGE('',*,*,#221,.T.);
#309=ORIENTED_EDGE('',*,*,#189,.F.);
#310=ORIENTED_EDGE('',*,*,#212,.F.);
#311=ORIENTED_EDGE('',*,*,#213,.T.);
#312=ORIENTED_EDGE('',*,*,#209,.T.);
#313=ORIENTED_EDGE('',*,*,#195,.F.);
#314=ORIENTED_EDGE('',*,*,#222,.F.);
#315=ORIENTED_EDGE('',*,*,#206,.F.);
#316=ORIENTED_EDGE('',*,*,#214,.T.);
#317=ORIENTED_EDGE('',*,*,#222,.T.);
#318=ORIENTED_EDGE('',*,*,#194,.F.);
#319=CYLINDRICAL_SURFACE('',#361,1.);
#320=CYLINDRICAL_SURFACE('',#365,3.);
#321=CYLINDRICAL_SURFACE('',#368,3.);
#322=CYLINDRICAL_SURFACE('',#379,3.);
#323=CYLINDRICAL_SURFACE('',#382,3.);
#324=CYLINDRICAL_SURFACE('',#384,3.);
#325=CYLINDRICAL_SURFACE('',#393,1.1);
#326=CYLINDRICAL_SURFACE('',#394,1.1);
#327=CYLINDRICAL_SURFACE('',#396,2.);
#328=CYLINDRICAL_SURFACE('',#397,2.5);
#329=ADVANCED_FACE('',(#27),#319,.F.);
#330=ADVANCED_FACE('',(#28),#19,.F.);
#331=ADVANCED_FACE('',(#29),#320,.T.);
#332=ADVANCED_FACE('',(#30),#321,.F.);
#333=ADVANCED_FACE('',(#31,#15,#16),#20,.T.);
#334=ADVANCED_FACE('',(#32),#322,.T.);
#335=ADVANCED_FACE('',(#33),#21,.F.);
#336=ADVANCED_FACE('',(#34),#323,.T.);
#337=ADVANCED_FACE('',(#35),#324,.T.);
#338=ADVANCED_FACE('',(#36),#22,.T.);
#339=ADVANCED_FACE('',(#37),#23,.F.);
#340=ADVANCED_FACE('',(#38,#17,#18),#24,.F.);
#341=ADVANCED_FACE('',(#39),#325,.F.);
#342=ADVANCED_FACE('',(#40),#326,.F.);
#343=ADVANCED_FACE('',(#41),#25,.T.);
#344=ADVANCED_FACE('',(#42),#327,.T.);
#345=ADVANCED_FACE('',(#43),#328,.T.);
#346=ADVANCED_FACE('',(#44),#26,.T.);
#347=CLOSED_SHELL('',(#329,#330,#331,#332,#333,#334,#335,#336,#337,#338,
#339,#340,#341,#342,#343,#344,#345,#346));
#348=DERIVED_UNIT_ELEMENT(#350,1.);
#349=DERIVED_UNIT_ELEMENT(#609,-3.);
#350=(
MASS_UNIT()
NAMED_UNIT(*)
SI_UNIT(.KILO.,.GRAM.)
);
#351=DERIVED_UNIT((#348,#349));
#352=MEASURE_REPRESENTATION_ITEM('density measure',
POSITIVE_RATIO_MEASURE(7850.),#351);
#353=PROPERTY_DEFINITION_REPRESENTATION(#358,#355);
#354=PROPERTY_DEFINITION_REPRESENTATION(#359,#356);
#355=REPRESENTATION('material name',(#357),#606);
#356=REPRESENTATION('density',(#352),#606);
#357=DESCRIPTIVE_REPRESENTATION_ITEM('Steel','Steel');
#358=PROPERTY_DEFINITION('material property','material name',#616);
#359=PROPERTY_DEFINITION('material property','density of part',#616);
#360=AXIS2_PLACEMENT_3D('',#505,#399,#400);
#361=AXIS2_PLACEMENT_3D('',#506,#401,#402);
#362=AXIS2_PLACEMENT_3D('',#509,#403,#404);
#363=AXIS2_PLACEMENT_3D('',#513,#406,#407);
#364=AXIS2_PLACEMENT_3D('',#515,#409,#410);
#365=AXIS2_PLACEMENT_3D('',#521,#414,#415);
#366=AXIS2_PLACEMENT_3D('',#524,#416,#417);
#367=AXIS2_PLACEMENT_3D('',#528,#419,#420);
#368=AXIS2_PLACEMENT_3D('',#530,#422,#423);
#369=AXIS2_PLACEMENT_3D('',#531,#424,#425);
#370=AXIS2_PLACEMENT_3D('',#532,#426,#427);
#371=AXIS2_PLACEMENT_3D('',#533,#428,#429);
#372=AXIS2_PLACEMENT_3D('',#537,#431,#432);
#373=AXIS2_PLACEMENT_3D('',#541,#434,#435);
#374=AXIS2_PLACEMENT_3D('',#545,#437,#438);
#375=AXIS2_PLACEMENT_3D('',#549,#440,#441);
#376=AXIS2_PLACEMENT_3D('',#552,#443,#444);
#377=AXIS2_PLACEMENT_3D('',#554,#445,#446);
#378=AXIS2_PLACEMENT_3D('',#556,#447,#448);
#379=AXIS2_PLACEMENT_3D('',#557,#449,#450);
#380=AXIS2_PLACEMENT_3D('',#561,#452,#453);
#381=AXIS2_PLACEMENT_3D('',#563,#455,#456);
#382=AXIS2_PLACEMENT_3D('',#567,#459,#460);
#383=AXIS2_PLACEMENT_3D('',#569,#461,#462);
#384=AXIS2_PLACEMENT_3D('',#571,#464,#465);
#385=AXIS2_PLACEMENT_3D('',#574,#467,#468);
#386=AXIS2_PLACEMENT_3D('',#575,#469,#470);
#387=AXIS2_PLACEMENT_3D('',#579,#473,#474);
#388=AXIS2_PLACEMENT_3D('',#583,#477,#478);
#389=AXIS2_PLACEMENT_3D('',#585,#479,#480);
#390=AXIS2_PLACEMENT_3D('',#589,#483,#484);
#391=AXIS2_PLACEMENT_3D('',#591,#485,#486);
#392=AXIS2_PLACEMENT_3D('',#593,#487,#488);
#393=AXIS2_PLACEMENT_3D('',#594,#489,#490);
#394=AXIS2_PLACEMENT_3D('',#596,#492,#493);
#395=AXIS2_PLACEMENT_3D('',#598,#495,#496);
#396=AXIS2_PLACEMENT_3D('',#600,#498,#499);
#397=AXIS2_PLACEMENT_3D('',#601,#500,#501);
#398=AXIS2_PLACEMENT_3D('',#603,#503,#504);
#399=DIRECTION('axis',(0.,0.,1.));
#400=DIRECTION('refdir',(1.,0.,0.));
#401=DIRECTION('center_axis',(0.,0.,-1.));
#402=DIRECTION('ref_axis',(-1.,2.77555756156289E-16,0.));
#403=DIRECTION('center_axis',(0.,0.,-1.));
#404=DIRECTION('ref_axis',(-1.,2.77555756156289E-16,0.));
#405=DIRECTION('',(0.,0.,1.));
#406=DIRECTION('center_axis',(0.,0.,1.));
#407=DIRECTION('ref_axis',(-1.,2.77555756156289E-16,0.));
#408=DIRECTION('',(0.,0.,-1.));
#409=DIRECTION('center_axis',(1.,-2.55223683821876E-16,0.));
#410=DIRECTION('ref_axis',(-2.55223683821876E-16,-1.,0.));
#411=DIRECTION('',(0.,-1.,0.));
#412=DIRECTION('',(0.,0.,1.));
#413=DIRECTION('',(0.,1.,0.));
#414=DIRECTION('center_axis',(0.,0.,-1.));
#415=DIRECTION('ref_axis',(0.353553390593274,0.935414346693485,0.));
#416=DIRECTION('center_axis',(0.,0.,1.));
#417=DIRECTION('ref_axis',(0.353553390593274,0.935414346693485,0.));
#418=DIRECTION('',(0.,0.,1.));
#419=DIRECTION('center_axis',(0.,0.,-1.));
#420=DIRECTION('ref_axis',(0.353553390593274,0.935414346693485,0.));
#421=DIRECTION('',(0.,0.,-1.));
#422=DIRECTION('center_axis',(0.,0.,1.));
#423=DIRECTION('ref_axis',(-0.866025403784438,-0.5,0.));
#424=DIRECTION('center_axis',(0.,0.,-1.));
#425=DIRECTION('ref_axis',(-0.866025403784438,-0.5,0.));
#426=DIRECTION('center_axis',(0.,0.,1.));
#427=DIRECTION('ref_axis',(-0.866025403784438,-0.5,0.));
#428=DIRECTION('center_axis',(0.,0.,1.));
#429=DIRECTION('ref_axis',(-1.,0.,0.));
#430=DIRECTION('',(-1.,0.,0.));
#431=DIRECTION('center_axis',(4.37905770101506E-45,1.97215226305253E-31,
1.));
#432=DIRECTION('ref_axis',(2.22044604925032E-14,1.,-1.97215226305253E-31));
#433=DIRECTION('',(1.,-4.65018385115358E-16,0.));
#434=DIRECTION('center_axis',(0.,0.,-1.));
#435=DIRECTION('ref_axis',(0.707106781186548,-0.707106781186547,0.));
#436=DIRECTION('',(0.,1.,0.));
#437=DIRECTION('center_axis',(0.,0.,-1.));
#438=DIRECTION('ref_axis',(0.707106781186548,0.707106781186547,0.));
#439=DIRECTION('',(-1.,0.,0.));
#440=DIRECTION('center_axis',(0.,0.,1.));
#441=DIRECTION('ref_axis',(1.,0.,0.));
#442=DIRECTION('',(-1.,1.62670040238119E-16,0.));
#443=DIRECTION('center_axis',(0.,0.,-1.));
#444=DIRECTION('ref_axis',(-0.707106781186547,0.707106781186547,0.));
#445=DIRECTION('center_axis',(0.,0.,-1.));
#446=DIRECTION('ref_axis',(-1.,0.,0.));
#447=DIRECTION('center_axis',(0.,0.,-1.));
#448=DIRECTION('ref_axis',(-1.,0.,0.));
#449=DIRECTION('center_axis',(0.,0.,1.));
#450=DIRECTION('ref_axis',(0.707106781186548,-0.707106781186547,0.));
#451=DIRECTION('',(0.,0.,-1.));
#452=DIRECTION('center_axis',(0.,0.,1.));
#453=DIRECTION('ref_axis',(0.707106781186548,-0.707106781186547,0.));
#454=DIRECTION('',(0.,0.,1.));
#455=DIRECTION('center_axis',(-1.,0.,0.));
#456=DIRECTION('ref_axis',(0.,1.,0.));
#457=DIRECTION('',(0.,-1.,0.));
#458=DIRECTION('',(0.,0.,-1.));
#459=DIRECTION('center_axis',(0.,0.,-1.));
#460=DIRECTION('ref_axis',(0.707106781186548,0.707106781186547,0.));
#461=DIRECTION('center_axis',(0.,0.,1.));
#462=DIRECTION('ref_axis',(0.707106781186548,0.707106781186547,0.));
#463=DIRECTION('',(0.,0.,1.));
#464=DIRECTION('center_axis',(0.,0.,1.));
#465=DIRECTION('ref_axis',(-0.707106781186547,0.707106781186547,0.));
#466=DIRECTION('',(0.,0.,-1.));
#467=DIRECTION('center_axis',(0.,0.,1.));
#468=DIRECTION('ref_axis',(-0.707106781186547,0.707106781186547,0.));
#469=DIRECTION('center_axis',(1.62670040238119E-16,1.,0.));
#470=DIRECTION('ref_axis',(-1.,1.62670040238119E-16,0.));
#471=DIRECTION('',(0.,0.,1.));
#472=DIRECTION('',(-1.,1.62670040238119E-16,0.));
#473=DIRECTION('center_axis',(0.,-1.,0.));
#474=DIRECTION('ref_axis',(-1.,0.,0.));
#475=DIRECTION('',(1.,0.,0.));
#476=DIRECTION('',(0.,0.,1.));
#477=DIRECTION('center_axis',(0.,0.,1.));
#478=DIRECTION('ref_axis',(-1.,0.,0.));
#479=DIRECTION('center_axis',(0.,0.,1.));
#480=DIRECTION('ref_axis',(1.,0.,0.));
#481=DIRECTION('',(-1.,0.,0.));
#482=DIRECTION('',(1.,-4.65018385115358E-16,0.));
#483=DIRECTION('center_axis',(4.37905770101506E-45,1.97215226305253E-31,
1.));
#484=DIRECTION('ref_axis',(2.22044604925032E-14,1.,-1.97215226305253E-31));
#485=DIRECTION('center_axis',(0.,0.,-1.));
#486=DIRECTION('ref_axis',(-1.,0.,0.));
#487=DIRECTION('center_axis',(0.,0.,-1.));
#488=DIRECTION('ref_axis',(-1.,0.,0.));
#489=DIRECTION('center_axis',(0.,0.,1.));
#490=DIRECTION('ref_axis',(-1.,0.,0.));
#491=DIRECTION('',(0.,0.,-1.));
#492=DIRECTION('center_axis',(0.,0.,1.));
#493=DIRECTION('ref_axis',(-1.,0.,0.));
#494=DIRECTION('',(0.,0.,-1.));
#495=DIRECTION('center_axis',(-4.65018385115358E-16,-1.,0.));
#496=DIRECTION('ref_axis',(1.,-4.65018385115358E-16,0.));
#497=DIRECTION('',(0.,0.,1.));
#498=DIRECTION('center_axis',(0.,0.,1.));
#499=DIRECTION('ref_axis',(2.22044604925032E-14,1.,0.));
#500=DIRECTION('center_axis',(0.,0.,1.));
#501=DIRECTION('ref_axis',(1.,0.,0.));
#502=DIRECTION('',(0.,0.,1.));
#503=DIRECTION('center_axis',(0.,1.,0.));
#504=DIRECTION('ref_axis',(-1.,0.,0.));
#505=CARTESIAN_POINT('',(0.,0.,0.));
#506=CARTESIAN_POINT('Origin',(-36.7549999999999,1.07862824420453,-25.7500000000003));
#507=CARTESIAN_POINT('',(-36.8477881056766,0.0829423663068146,-26.7500000000003));
#508=CARTESIAN_POINT('',(-35.7549999999999,1.07862824420453,-26.7500000000003));
#509=CARTESIAN_POINT('Origin',(-36.7549999999999,1.07862824420453,-26.7500000000003));
#510=CARTESIAN_POINT('',(-36.8477881056766,0.0829423663068146,-25.7500000000003));
#511=CARTESIAN_POINT('',(-36.8477881056766,0.0829423663068135,-25.7500000000003));
#512=CARTESIAN_POINT('',(-35.7549999999999,1.07862824420453,-25.7500000000003));
#513=CARTESIAN_POINT('Origin',(-36.7549999999999,1.07862824420453,-25.7500000000003));
#514=CARTESIAN_POINT('',(-35.7549999999999,1.07862824420453,-25.7500000000003));
#515=CARTESIAN_POINT('Origin',(-35.7549999999999,18.9699999999999,-25.7500000000003));
#516=CARTESIAN_POINT('',(-35.7549999999999,15.9699999999999,-25.7500000000003));
#517=CARTESIAN_POINT('',(-35.7549999999999,5.54499999999993,-25.7500000000003));
#518=CARTESIAN_POINT('',(-35.7549999999999,15.9699999999999,-26.7500000000003));
#519=CARTESIAN_POINT('',(-35.7549999999999,15.9699999999999,-26.2500000000003));
#520=CARTESIAN_POINT('',(-35.7549999999999,5.54499999999993,-26.7500000000003));
#521=CARTESIAN_POINT('Origin',(-40.5380507552435,-1.43000000000005,-25.7500000000003));
#522=CARTESIAN_POINT('',(-38.553737271945,0.819999999999947,-26.7500000000003));
#523=CARTESIAN_POINT('',(-40.5380507552435,1.56999999999995,-26.7500000000003));
#524=CARTESIAN_POINT('Origin',(-40.5380507552435,-1.43000000000005,-26.7500000000003));
#525=CARTESIAN_POINT('',(-40.5380507552435,1.56999999999995,-25.7500000000003));
#526=CARTESIAN_POINT('',(-40.5380507552435,1.56999999999995,-25.7500000000003));
#527=CARTESIAN_POINT('',(-38.553737271945,0.819999999999947,-25.7500000000003));
#528=CARTESIAN_POINT('Origin',(-40.5380507552435,-1.43000000000005,-25.7500000000003));
#529=CARTESIAN_POINT('',(-38.553737271945,0.819999999999949,-25.7500000000003));
#530=CARTESIAN_POINT('Origin',(-36.5694237886466,3.06999999999995,-25.7500000000003));
#531=CARTESIAN_POINT('Origin',(-36.5694237886466,3.06999999999995,-26.7500000000003));
#532=CARTESIAN_POINT('Origin',(-36.5694237886466,3.06999999999995,-25.7500000000003));
#533=CARTESIAN_POINT('Origin',(-27.4299999999999,9.51999999999991,-25.7500000000003));
#534=CARTESIAN_POINT('',(-42.5799999999999,1.56999999999995,-25.7500000000003));
#535=CARTESIAN_POINT('',(-31.5924999999999,1.56999999999995,-25.7500000000003));
#536=CARTESIAN_POINT('',(-42.5799999999999,-2.43000000000004,-25.7500000000003));
#537=CARTESIAN_POINT('Origin',(-42.5799999999999,-0.430000000000048,-25.7500000000003));
#538=CARTESIAN_POINT('',(-20.1049999999999,-2.43000000000005,-25.7500000000003));
#539=CARTESIAN_POINT('',(-42.5799999999999,-2.43000000000004,-25.7500000000003));
#540=CARTESIAN_POINT('',(-17.1049999999999,0.569999999999949,-25.7500000000003));
#541=CARTESIAN_POINT('Origin',(-20.1049999999999,0.569999999999949,-25.7500000000003));
#542=CARTESIAN_POINT('',(-17.1049999999999,15.9699999999999,-25.7500000000003));
#543=CARTESIAN_POINT('',(-17.1049999999999,3.54499999999993,-25.7500000000003));
#544=CARTESIAN_POINT('',(-20.1049999999999,18.9699999999999,-25.7500000000003));
#545=CARTESIAN_POINT('Origin',(-20.1049999999999,15.9699999999999,-25.7500000000003));
#546=CARTESIAN_POINT('',(-23.9299999999999,18.9699999999999,-25.7500000000003));
#547=CARTESIAN_POINT('',(-10.2799999999999,18.9699999999999,-25.7500000000003));
#548=CARTESIAN_POINT('',(-28.9299999999999,18.9699999999999,-25.7500000000003));
#549=CARTESIAN_POINT('Origin',(-26.4299999999999,18.9699999999999,-25.7500000000003));
#550=CARTESIAN_POINT('',(-32.7549999999999,18.9699999999999,-25.7500000000003));
#551=CARTESIAN_POINT('',(-28.9299999999999,18.9699999999999,-25.7500000000003));
#552=CARTESIAN_POINT('Origin',(-32.7549999999999,15.9699999999999,-25.7500000000003));
#553=CARTESIAN_POINT('',(-41.4799999999999,-0.430000000000048,-25.7500000000003));
#554=CARTESIAN_POINT('Origin',(-42.5799999999999,-0.430000000000048,-25.7500000000003));
#555=CARTESIAN_POINT('',(-25.3299999999999,18.9699999999999,-25.7500000000003));
#556=CARTESIAN_POINT('Origin',(-26.4299999999999,18.9699999999999,-25.7500000000003));
#557=CARTESIAN_POINT('Origin',(-20.1049999999999,0.569999999999949,-26.2500000000003));
#558=CARTESIAN_POINT('',(-20.1049999999999,-2.43000000000005,-26.7500000000003));
#559=CARTESIAN_POINT('',(-20.1049999999999,-2.43000000000005,-26.2500000000003));
#560=CARTESIAN_POINT('',(-17.1049999999999,0.569999999999949,-26.7500000000003));
#561=CARTESIAN_POINT('Origin',(-20.1049999999999,0.569999999999949,-26.7500000000003));
#562=CARTESIAN_POINT('',(-17.1049999999999,0.569999999999949,-26.2500000000003));
#563=CARTESIAN_POINT('Origin',(-17.1049999999999,-2.43000000000005,-25.7500000000003));
#564=CARTESIAN_POINT('',(-17.1049999999999,15.9699999999999,-26.7500000000003));
#565=CARTESIAN_POINT('',(-17.1049999999999,3.54499999999993,-26.7500000000003));
#566=CARTESIAN_POINT('',(-17.1049999999999,15.9699999999999,-26.2500000000003));
#567=CARTESIAN_POINT('Origin',(-20.1049999999999,15.9699999999999,-26.2500000000003));
#568=CARTESIAN_POINT('',(-20.1049999999999,18.9699999999999,-26.7500000000003));
#569=CARTESIAN_POINT('Origin',(-20.1049999999999,15.9699999999999,-26.7500000000003));
#570=CARTESIAN_POINT('',(-20.1049999999999,18.9699999999999,-26.2500000000003));
#571=CARTESIAN_POINT('Origin',(-32.7549999999999,15.9699999999999,-26.2500000000003));
#572=CARTESIAN_POINT('',(-32.7549999999999,18.9699999999999,-26.7500000000003));
#573=CARTESIAN_POINT('',(-32.7549999999999,18.9699999999999,-26.2500000000003));
#574=CARTESIAN_POINT('Origin',(-32.7549999999999,15.9699999999999,-26.7500000000003));
#575=CARTESIAN_POINT('Origin',(-28.9299999999999,18.9699999999999,-26.7500000000003));
#576=CARTESIAN_POINT('',(-28.9299999999999,18.9699999999999,-26.7500000000003));
#577=CARTESIAN_POINT('',(-28.9299999999999,18.9699999999999,-26.7500000000003));
#578=CARTESIAN_POINT('',(-28.9299999999999,18.9699999999999,-26.7500000000003));
#579=CARTESIAN_POINT('Origin',(-35.7549999999999,1.56999999999995,-25.7500000000003));
#580=CARTESIAN_POINT('',(-42.5799999999999,1.56999999999995,-26.7500000000003));
#581=CARTESIAN_POINT('',(-31.5924999999999,1.56999999999995,-26.7500000000003));
#582=CARTESIAN_POINT('',(-42.5799999999999,1.56999999999995,-26.7500000000003));
#583=CARTESIAN_POINT('Origin',(-27.4299999999999,9.51999999999991,-26.7500000000003));
#584=CARTESIAN_POINT('',(-23.9299999999999,18.9699999999999,-26.7500000000003));
#585=CARTESIAN_POINT('Origin',(-26.4299999999999,18.9699999999999,-26.7500000000003));
#586=CARTESIAN_POINT('',(-10.2799999999999,18.9699999999999,-26.7500000000003));
#587=CARTESIAN_POINT('',(-42.5799999999999,-2.43000000000004,-26.7500000000003));
#588=CARTESIAN_POINT('',(-42.5799999999999,-2.43000000000004,-26.7500000000003));
#589=CARTESIAN_POINT('Origin',(-42.5799999999999,-0.430000000000048,-26.7500000000003));
#590=CARTESIAN_POINT('',(-41.4799999999999,-0.430000000000048,-26.7500000000003));
#591=CARTESIAN_POINT('Origin',(-42.5799999999999,-0.430000000000048,-26.7500000000003));
#592=CARTESIAN_POINT('',(-25.3299999999999,18.9699999999999,-26.7500000000003));
#593=CARTESIAN_POINT('Origin',(-26.4299999999999,18.9699999999999,-26.7500000000003));
#594=CARTESIAN_POINT('Origin',(-42.5799999999999,-0.430000000000048,-26.7500000000003));
#595=CARTESIAN_POINT('',(-41.4799999999999,-0.430000000000048,-26.7500000000003));
#596=CARTESIAN_POINT('Origin',(-26.4299999999999,18.9699999999999,-26.7500000000003));
#597=CARTESIAN_POINT('',(-25.3299999999999,18.9699999999999,-26.7500000000003));
#598=CARTESIAN_POINT('Origin',(-42.5799999999999,-2.43000000000004,-26.7500000000003));
#599=CARTESIAN_POINT('',(-42.5799999999999,-2.43000000000004,-26.7500000000003));
#600=CARTESIAN_POINT('Origin',(-42.5799999999999,-0.430000000000048,-26.7500000000003));
#601=CARTESIAN_POINT('Origin',(-26.4299999999999,18.9699999999999,-26.7500000000003));
#602=CARTESIAN_POINT('',(-23.9299999999999,18.9699999999999,-26.7500000000003));
#603=CARTESIAN_POINT('Origin',(-10.2799999999999,18.9699999999999,-26.7500000000003));
#604=UNCERTAINTY_MEASURE_WITH_UNIT(LENGTH_MEASURE(0.01),#608,
'DISTANCE_ACCURACY_VALUE',
'Maximum model space distance between geometric entities at asserted c
onnectivities');
#605=UNCERTAINTY_MEASURE_WITH_UNIT(LENGTH_MEASURE(0.01),#608,
'DISTANCE_ACCURACY_VALUE',
'Maximum model space distance between geometric entities at asserted c
onnectivities');
#606=(
GEOMETRIC_REPRESENTATION_CONTEXT(3)
GLOBAL_UNCERTAINTY_ASSIGNED_CONTEXT((#604))
GLOBAL_UNIT_ASSIGNED_CONTEXT((#608,#610,#611))
REPRESENTATION_CONTEXT('','3D')
);
#607=(
GEOMETRIC_REPRESENTATION_CONTEXT(3)
GLOBAL_UNCERTAINTY_ASSIGNED_CONTEXT((#605))
GLOBAL_UNIT_ASSIGNED_CONTEXT((#608,#610,#611))
REPRESENTATION_CONTEXT('','3D')
);
#608=(
LENGTH_UNIT()
NAMED_UNIT(*)
SI_UNIT(.MILLI.,.METRE.)
);
#609=(
LENGTH_UNIT()
NAMED_UNIT(*)
SI_UNIT($,.METRE.)
);
#610=(
NAMED_UNIT(*)
PLANE_ANGLE_UNIT()
SI_UNIT($,.RADIAN.)
);
#611=(
NAMED_UNIT(*)
SI_UNIT($,.STERADIAN.)
SOLID_ANGLE_UNIT()
);
#612=SHAPE_DEFINITION_REPRESENTATION(#613,#614);
#613=PRODUCT_DEFINITION_SHAPE('',$,#616);
#614=SHAPE_REPRESENTATION('',(#360),#606);
#615=PRODUCT_DEFINITION_CONTEXT('part definition',#620,'design');
#616=PRODUCT_DEFINITION('2026-08-13-17-49-45-806','TP4056 Holder',#617,
#615);
#617=PRODUCT_DEFINITION_FORMATION('',$,#622);
#618=PRODUCT_RELATED_PRODUCT_CATEGORY('TP4056 Holder','TP4056 Holder',(#622));
#619=APPLICATION_PROTOCOL_DEFINITION('international standard',
'automotive_design',2009,#620);
#620=APPLICATION_CONTEXT(
'Core Data for Automotive Mechanical Design Process');
#621=PRODUCT_CONTEXT('part definition',#620,'mechanical');
#622=PRODUCT('2026-08-13-17-49-45-806','TP4056 Holder',$,(#621));
#623=PRESENTATION_STYLE_ASSIGNMENT((#624));
#624=SURFACE_STYLE_USAGE(.BOTH.,#625);
#625=SURFACE_SIDE_STYLE('',(#626));
#626=SURFACE_STYLE_FILL_AREA(#627);
#627=FILL_AREA_STYLE('Steel - Satin',(#628));
#628=FILL_AREA_STYLE_COLOUR('Steel - Satin',#629);
#629=COLOUR_RGB('Steel - Satin',0.627450980392157,0.627450980392157,0.627450980392157);
ENDSEC;
END-ISO-10303-21;
