M48
; DRILL file {KiCad 9.0.7} date 2026-08-11T21:32:16+0200
; FORMAT={-:-/ absolute / metric / decimal}
; #@! TF.CreationDate,2026-08-11T21:32:16+02:00
; #@! TF.GenerationSoftware,Kicad,Pcbnew,9.0.7
; #@! TF.FileFunction,MixedPlating,1,2
FMAT,2
METRIC
; #@! TA.AperFunction,Plated,PTH,ViaDrill
T1C0.356
; #@! TA.AperFunction,Plated,PTH,ComponentDrill
T2C0.800
; #@! TA.AperFunction,Plated,PTH,ComponentDrill
T3C0.950
; #@! TA.AperFunction,Plated,PTH,ComponentDrill
T4C0.965
; #@! TA.AperFunction,Plated,PTH,ComponentDrill
T5C1.000
; #@! TA.AperFunction,Plated,PTH,ComponentDrill
T6C1.016
; #@! TA.AperFunction,Plated,PTH,ComponentDrill
T7C1.100
; #@! TA.AperFunction,Plated,PTH,ComponentDrill
T8C2.700
; #@! TA.AperFunction,NonPlated,NPTH,ComponentDrill
T9C2.200
; #@! TA.AperFunction,NonPlated,NPTH,ComponentDrill
T10C2.750
; #@! TA.AperFunction,NonPlated,NPTH,ComponentDrill
T11C3.200
%
G90
G05
T1
X106.35Y-128.739
X107.95Y-120.015
X108.443Y-112.23
X109.855Y-121.92
X117.968Y-88.734
X118.11Y-91.44
X120.474Y-141.128
X123.014Y-141.963
X126.198Y-141.963
X127.635Y-92.71
X130.634Y-129.21
X137.795Y-92.544
X142.24Y-90.805
X149.551Y-79.375
X152.22Y-94.16
X152.245Y-78.12
X152.4Y-96.52
X154.961Y-123.818
X156.845Y-80.071
X157.461Y-91.928
X157.48Y-95.885
X160.02Y-113.03
X166.216Y-68.797
X169.875Y-107.897
X170.038Y-112.864
X172.11Y-115.872
X172.316Y-98.656
X174.515Y-73.135
X174.65Y-115.595
X174.695Y-139.492
X176.388Y-77.304
X177.8Y-138.491
X178.069Y-124.034
X180.198Y-128.105
X183.536Y-92.73
X184.15Y-87.63
X184.227Y-102.947
X187.818Y-130.01
X188.595Y-86.36
X189.723Y-107.95
X196.072Y-141.494
X197.164Y-128.283
X197.978Y-73.495
X198.12Y-83.185
X200.518Y-107.784
X206.233Y-79.209
X208.915Y-104.775
X213.853Y-97.624
X215.937Y-101.256
X217.298Y-93.473
T2
X74.93Y-83.82
X74.93Y-93.98
X85.725Y-85.09
X87.63Y-107.95
X87.63Y-118.11
X88.265Y-88.265
X90.805Y-107.95
X90.805Y-118.11
X95.885Y-85.09
X98.425Y-88.265
X99.06Y-78.105
X109.22Y-78.105
X146.05Y-114.3
X146.05Y-116.84
X146.05Y-119.38
X146.05Y-121.92
X146.05Y-124.46
X146.05Y-127.0
X165.1Y-121.92
X170.673Y-124.929
X170.815Y-78.74
X170.815Y-88.9
X170.815Y-94.615
X170.815Y-104.775
X173.99Y-94.615
X173.99Y-104.775
X175.26Y-121.92
X177.165Y-94.615
X177.165Y-104.775
X180.833Y-124.929
X187.795Y-122.389
X191.77Y-105.41
X191.77Y-115.57
X197.955Y-122.389
X205.105Y-76.835
X215.265Y-76.835
X217.17Y-114.769
X217.17Y-117.944
X227.33Y-114.769
X227.33Y-117.944
T3
X170.26Y-129.374
X172.76Y-129.374
X175.26Y-129.374
X179.603Y-71.843
X182.103Y-71.843
X184.603Y-71.843
X187.103Y-71.843
X189.603Y-71.843
T4
X69.85Y-136.525
X72.39Y-121.285
X72.39Y-136.525
X74.93Y-121.285
X74.93Y-136.525
X77.47Y-121.285
X77.47Y-136.525
X80.01Y-121.285
X80.01Y-136.525
X82.55Y-121.285
X82.55Y-136.525
X85.09Y-121.285
X85.09Y-136.525
X87.63Y-121.285
X87.63Y-136.525
X90.17Y-121.285
X90.17Y-136.525
X92.71Y-136.525
X106.68Y-85.09
X107.774Y-108.585
X107.774Y-133.985
X109.22Y-85.09
X109.22Y-100.33
X110.314Y-108.585
X110.314Y-133.985
X111.76Y-85.09
X111.76Y-100.33
X112.854Y-108.585
X112.854Y-133.985
X114.3Y-85.09
X114.3Y-100.33
X115.394Y-108.585
X115.394Y-133.985
X116.84Y-85.09
X116.84Y-100.33
X117.934Y-108.585
X117.934Y-133.985
X119.38Y-85.09
X119.38Y-100.33
X120.474Y-108.585
X120.474Y-133.985
X121.92Y-85.09
X121.92Y-100.33
X123.014Y-108.585
X123.014Y-133.985
X124.46Y-85.09
X124.46Y-100.33
X125.554Y-108.585
X125.554Y-133.985
X127.0Y-85.09
X127.0Y-100.33
X128.094Y-108.585
X128.094Y-133.985
X129.54Y-85.09
X130.634Y-108.585
X130.634Y-133.985
X133.174Y-108.585
X133.174Y-133.985
X135.255Y-85.09
X135.714Y-108.585
X135.714Y-133.985
X137.795Y-85.09
X137.795Y-100.33
X138.254Y-108.585
X138.254Y-133.985
X140.335Y-85.09
X140.335Y-100.33
X140.794Y-108.585
X140.794Y-133.985
X142.875Y-85.09
X142.875Y-100.33
X143.334Y-108.585
X143.334Y-133.985
X145.415Y-85.09
X145.415Y-100.33
X145.874Y-108.585
X145.874Y-133.985
X147.955Y-85.09
X147.955Y-100.33
X148.414Y-108.585
X148.414Y-133.985
X150.495Y-85.09
X150.495Y-100.33
X150.954Y-108.585
X150.954Y-133.985
X153.035Y-85.09
X153.035Y-100.33
X153.494Y-108.585
X153.494Y-133.985
X155.575Y-85.09
X155.575Y-100.33
X156.031Y-108.581
X156.034Y-133.985
X158.115Y-85.09
X158.571Y-108.581
X158.574Y-133.985
X161.111Y-108.581
X161.114Y-133.985
X165.1Y-78.105
X165.1Y-80.645
X165.1Y-83.185
X165.1Y-85.725
X165.1Y-88.265
X165.1Y-90.805
X165.1Y-93.345
X165.1Y-95.885
X165.1Y-98.425
X165.1Y-100.965
X180.34Y-80.645
X180.34Y-83.185
X180.34Y-85.725
X180.34Y-88.265
X180.34Y-90.805
X180.34Y-93.345
X180.34Y-95.885
X180.34Y-98.425
X184.15Y-78.105
X186.69Y-78.105
X189.23Y-78.105
X189.992Y-91.567
X191.77Y-78.105
X193.548Y-91.567
X194.31Y-78.105
X196.85Y-78.105
X199.39Y-78.105
X200.025Y-137.16
X202.565Y-121.92
X202.565Y-137.16
X205.105Y-121.92
X205.105Y-137.16
X207.645Y-121.92
X207.645Y-137.16
X210.185Y-121.92
X210.185Y-137.16
X212.725Y-121.92
X212.725Y-137.16
X215.265Y-121.92
X215.265Y-137.16
X217.805Y-121.92
X217.805Y-137.16
X220.345Y-121.92
X220.345Y-137.16
X222.885Y-137.16
T5
X100.228Y-140.804
X102.106Y-90.17
X102.106Y-92.71
X102.106Y-95.25
X102.106Y-97.79
X102.106Y-100.33
X102.106Y-102.87
X102.106Y-105.41
X102.106Y-107.95
X102.106Y-110.49
X102.106Y-113.03
X102.106Y-115.57
X102.106Y-118.11
X102.106Y-120.65
X102.106Y-123.19
X102.728Y-140.804
X104.14Y-72.39
X104.14Y-74.93
X106.68Y-72.39
X106.68Y-74.93
X109.22Y-72.39
X109.22Y-74.93
X111.76Y-72.39
X111.76Y-74.93
X114.3Y-72.39
X114.3Y-74.93
X116.84Y-72.39
X116.84Y-74.93
X119.38Y-72.39
X119.38Y-74.93
X121.92Y-72.39
X121.92Y-74.93
X124.46Y-72.39
X124.46Y-74.93
X127.0Y-72.39
X127.0Y-74.93
X129.54Y-72.39
X129.54Y-74.93
X132.08Y-72.39
X132.08Y-74.93
X134.62Y-72.39
X134.62Y-74.93
X137.16Y-72.39
X137.16Y-74.93
X139.7Y-72.39
X139.7Y-74.93
X142.24Y-72.39
X142.24Y-74.93
X144.78Y-72.39
X144.78Y-74.93
X147.32Y-72.39
X147.32Y-74.93
X149.86Y-72.39
X149.86Y-74.93
X152.4Y-72.39
X152.4Y-74.93
X159.243Y-124.334
X159.243Y-126.834
X182.103Y-109.075
X182.103Y-111.575
X186.815Y-102.87
X186.815Y-105.41
X186.815Y-107.95
X186.815Y-110.49
T6
X165.1Y-118.745
X165.1Y-126.365
X165.1Y-128.905
X165.1Y-131.445
X165.1Y-133.985
X167.64Y-118.745
X167.64Y-133.985
X170.18Y-118.745
X170.18Y-133.985
X172.72Y-118.745
X172.72Y-133.985
X175.26Y-118.745
X175.26Y-133.985
X177.8Y-118.745
X177.8Y-133.985
X180.34Y-118.745
X180.34Y-133.985
X181.61Y-131.445
X182.88Y-118.745
X182.88Y-133.985
X184.15Y-131.445
X185.42Y-118.745
X185.42Y-133.985
X187.96Y-118.745
X187.96Y-133.985
X190.5Y-118.745
X190.5Y-133.985
X193.04Y-118.745
X193.04Y-133.985
T7
X68.684Y-98.334
X68.684Y-102.834
X69.684Y-96.584
X69.684Y-104.584
X71.934Y-98.044
X71.934Y-103.124
X72.145Y-127.925
X72.145Y-132.425
X73.605Y-130.175
X73.895Y-126.925
X73.895Y-133.425
X74.184Y-96.584
X74.184Y-104.584
X75.184Y-98.334
X75.184Y-102.834
X78.284Y-89.099
X78.284Y-93.599
X78.284Y-107.859
X78.284Y-112.359
X78.395Y-126.925
X78.395Y-133.425
X78.685Y-130.175
X79.284Y-87.349
X79.284Y-95.349
X79.284Y-106.109
X79.284Y-114.109
X80.145Y-127.925
X80.145Y-132.425
X81.534Y-88.809
X81.534Y-93.889
X81.534Y-107.569
X81.534Y-112.649
X82.995Y-127.925
X82.995Y-132.425
X83.784Y-87.349
X83.784Y-95.349
X83.784Y-106.109
X83.784Y-114.109
X84.455Y-130.175
X84.745Y-126.925
X84.745Y-133.425
X84.784Y-89.099
X84.784Y-93.599
X84.784Y-107.859
X84.784Y-112.359
X87.809Y-98.334
X87.809Y-102.834
X88.809Y-96.584
X88.809Y-104.584
X89.245Y-126.925
X89.245Y-133.425
X89.535Y-130.175
X90.995Y-127.925
X90.995Y-132.425
X91.059Y-98.044
X91.059Y-103.124
X93.309Y-96.584
X93.309Y-104.584
X94.309Y-98.334
X94.309Y-102.834
X196.14Y-98.715
X196.14Y-103.215
X197.14Y-96.965
X197.14Y-104.965
X199.39Y-98.425
X199.39Y-103.505
X201.64Y-96.965
X201.64Y-104.965
X202.085Y-127.85
X202.085Y-132.35
X202.64Y-98.715
X202.64Y-103.215
X203.545Y-130.1
X203.835Y-126.85
X203.835Y-133.35
X207.57Y-87.285
X207.57Y-91.785
X207.57Y-110.145
X207.57Y-114.645
X208.335Y-126.85
X208.335Y-133.35
X208.57Y-85.535
X208.57Y-93.535
X208.57Y-108.395
X208.57Y-116.395
X208.625Y-130.1
X210.085Y-127.85
X210.085Y-132.35
X210.82Y-86.995
X210.82Y-92.075
X210.82Y-109.855
X210.82Y-114.935
X212.825Y-127.85
X212.825Y-132.35
X213.07Y-85.535
X213.07Y-93.535
X213.07Y-108.395
X213.07Y-116.395
X214.07Y-87.285
X214.07Y-91.785
X214.07Y-110.145
X214.07Y-114.645
X214.285Y-130.1
X214.575Y-126.85
X214.575Y-133.35
X219.0Y-98.715
X219.0Y-103.215
X219.075Y-126.85
X219.075Y-133.35
X219.365Y-130.1
X220.0Y-96.965
X220.0Y-104.965
X220.825Y-127.85
X220.825Y-132.35
X222.25Y-98.425
X222.25Y-103.505
X224.5Y-96.965
X224.5Y-104.965
X225.5Y-98.715
X225.5Y-103.215
T8
X103.034Y-82.645
X103.034Y-131.127
X186.422Y-82.625
T9
X91.44Y-92.075
X97.013Y-112.864
X187.183Y-142.709
X191.77Y-96.52
X200.025Y-113.665
X222.25Y-90.805
T10
X99.27Y-73.66
X157.27Y-73.66
T11
X66.04Y-131.915
X69.85Y-82.385
X70.343Y-112.864
X224.648Y-82.385
X228.458Y-131.915
M30
